<?xml version="1.0" encoding="utf-8" standalone="no"?>
<!DOCTYPE svg PUBLIC "-//W3C//DTD SVG 1.1//EN"
  "http://www.w3.org/Graphics/SVG/1.1/DTD/svg11.dtd">
<svg xmlns:xlink="http://www.w3.org/1999/xlink" width="1440pt" height="1080pt" viewBox="0 0 1440 1080" xmlns="http://www.w3.org/2000/svg" version="1.1">
 <metadata>
  <rdf:RDF xmlns:dc="http://purl.org/dc/elements/1.1/" xmlns:cc="http://creativecommons.org/ns#" xmlns:rdf="http://www.w3.org/1999/02/22-rdf-syntax-ns#">
   <cc:Work>
    <dc:type rdf:resource="http://purl.org/dc/dcmitype/StillImage"/>
    <dc:date>2025-07-14T18:08:09.741934</dc:date>
    <dc:format>image/svg+xml</dc:format>
    <dc:creator>
     <cc:Agent>
      <dc:title>Matplotlib v3.10.3, https://matplotlib.org/</dc:title>
     </cc:Agent>
    </dc:creator>
   </cc:Work>
  </rdf:RDF>
 </metadata>
 <defs>
  <style type="text/css">*{stroke-linejoin: round; stroke-linecap: butt}</style>
 </defs>
 <g id="figure_1">
  <g id="patch_1">
   <path d="M 0 1080 
L 1440 1080 
L 1440 0 
L 0 0 
z
" style="fill: #ffffff"/>
  </g>
  <g id="axes_1">
   <g id="patch_2">
    <path d="M 180 961.2 
L 1296 961.2 
L 1296 129.6 
L 180 129.6 
z
" style="fill: #ffffff"/>
   </g>
   <g id="matplotlib.axis_1">
    <g id="xtick_1">
     <g id="line2d_1">
      <defs>
       <path id="mb35ed76ce1" d="M 0 0 
L 0 3.5 
" style="stroke: #000000; stroke-width: 0.8"/>
      </defs>
      <g>
       <use xlink:href="#mb35ed76ce1" x="230.727273" y="961.2" style="stroke: #000000; stroke-width: 0.8"/>
      </g>
     </g>
     <g id="text_1">
      <!-- 0.0 -->
      <g transform="translate(222.77571 975.798437) scale(0.1 -0.1)">
       <defs>
        <path id="DejaVuSans-30" d="M 2034 4250 
Q 1547 4250 1301 3770 
Q 1056 3291 1056 2328 
Q 1056 1369 1301 889 
Q 1547 409 2034 409 
Q 2525 409 2770 889 
Q 3016 1369 3016 2328 
Q 3016 3291 2770 3770 
Q 2525 4250 2034 4250 
z
M 2034 4750 
Q 2819 4750 3233 4129 
Q 3647 3509 3647 2328 
Q 3647 1150 3233 529 
Q 2819 -91 2034 -91 
Q 1250 -91 836 529 
Q 422 1150 422 2328 
Q 422 3509 836 4129 
Q 1250 4750 2034 4750 
z
" transform="scale(0.015625)"/>
        <path id="DejaVuSans-2e" d="M 684 794 
L 1344 794 
L 1344 0 
L 684 0 
L 684 794 
z
" transform="scale(0.015625)"/>
       </defs>
       <use xlink:href="#DejaVuSans-30"/>
       <use xlink:href="#DejaVuSans-2e" transform="translate(63.623047 0)"/>
       <use xlink:href="#DejaVuSans-30" transform="translate(95.410156 0)"/>
      </g>
     </g>
    </g>
    <g id="xtick_2">
     <g id="line2d_2">
      <g>
       <use xlink:href="#mb35ed76ce1" x="433.636701" y="961.2" style="stroke: #000000; stroke-width: 0.8"/>
      </g>
     </g>
     <g id="text_2">
      <!-- 0.2 -->
      <g transform="translate(425.685138 975.798437) scale(0.1 -0.1)">
       <defs>
        <path id="DejaVuSans-32" d="M 1228 531 
L 3431 531 
L 3431 0 
L 469 0 
L 469 531 
Q 828 903 1448 1529 
Q 2069 2156 2228 2338 
Q 2531 2678 2651 2914 
Q 2772 3150 2772 3378 
Q 2772 3750 2511 3984 
Q 2250 4219 1831 4219 
Q 1534 4219 1204 4116 
Q 875 4013 500 3803 
L 500 4441 
Q 881 4594 1212 4672 
Q 1544 4750 1819 4750 
Q 2544 4750 2975 4387 
Q 3406 4025 3406 3419 
Q 3406 3131 3298 2873 
Q 3191 2616 2906 2266 
Q 2828 2175 2409 1742 
Q 1991 1309 1228 531 
z
" transform="scale(0.015625)"/>
       </defs>
       <use xlink:href="#DejaVuSans-30"/>
       <use xlink:href="#DejaVuSans-2e" transform="translate(63.623047 0)"/>
       <use xlink:href="#DejaVuSans-32" transform="translate(95.410156 0)"/>
      </g>
     </g>
    </g>
    <g id="xtick_3">
     <g id="line2d_3">
      <g>
       <use xlink:href="#mb35ed76ce1" x="636.546129" y="961.2" style="stroke: #000000; stroke-width: 0.8"/>
      </g>
     </g>
     <g id="text_3">
      <!-- 0.4 -->
      <g transform="translate(628.594566 975.798437) scale(0.1 -0.1)">
       <defs>
        <path id="DejaVuSans-34" d="M 2419 4116 
L 825 1625 
L 2419 1625 
L 2419 4116 
z
M 2253 4666 
L 3047 4666 
L 3047 1625 
L 3713 1625 
L 3713 1100 
L 3047 1100 
L 3047 0 
L 2419 0 
L 2419 1100 
L 313 1100 
L 313 1709 
L 2253 4666 
z
" transform="scale(0.015625)"/>
       </defs>
       <use xlink:href="#DejaVuSans-30"/>
       <use xlink:href="#DejaVuSans-2e" transform="translate(63.623047 0)"/>
       <use xlink:href="#DejaVuSans-34" transform="translate(95.410156 0)"/>
      </g>
     </g>
    </g>
    <g id="xtick_4">
     <g id="line2d_4">
      <g>
       <use xlink:href="#mb35ed76ce1" x="839.455557" y="961.2" style="stroke: #000000; stroke-width: 0.8"/>
      </g>
     </g>
     <g id="text_4">
      <!-- 0.6 -->
      <g transform="translate(831.503994 975.798437) scale(0.1 -0.1)">
       <defs>
        <path id="DejaVuSans-36" d="M 2113 2584 
Q 1688 2584 1439 2293 
Q 1191 2003 1191 1497 
Q 1191 994 1439 701 
Q 1688 409 2113 409 
Q 2538 409 2786 701 
Q 3034 994 3034 1497 
Q 3034 2003 2786 2293 
Q 2538 2584 2113 2584 
z
M 3366 4563 
L 3366 3988 
Q 3128 4100 2886 4159 
Q 2644 4219 2406 4219 
Q 1781 4219 1451 3797 
Q 1122 3375 1075 2522 
Q 1259 2794 1537 2939 
Q 1816 3084 2150 3084 
Q 2853 3084 3261 2657 
Q 3669 2231 3669 1497 
Q 3669 778 3244 343 
Q 2819 -91 2113 -91 
Q 1303 -91 875 529 
Q 447 1150 447 2328 
Q 447 3434 972 4092 
Q 1497 4750 2381 4750 
Q 2619 4750 2861 4703 
Q 3103 4656 3366 4563 
z
" transform="scale(0.015625)"/>
       </defs>
       <use xlink:href="#DejaVuSans-30"/>
       <use xlink:href="#DejaVuSans-2e" transform="translate(63.623047 0)"/>
       <use xlink:href="#DejaVuSans-36" transform="translate(95.410156 0)"/>
      </g>
     </g>
    </g>
    <g id="xtick_5">
     <g id="line2d_5">
      <g>
       <use xlink:href="#mb35ed76ce1" x="1042.364985" y="961.2" style="stroke: #000000; stroke-width: 0.8"/>
      </g>
     </g>
     <g id="text_5">
      <!-- 0.8 -->
      <g transform="translate(1034.413422 975.798437) scale(0.1 -0.1)">
       <defs>
        <path id="DejaVuSans-38" d="M 2034 2216 
Q 1584 2216 1326 1975 
Q 1069 1734 1069 1313 
Q 1069 891 1326 650 
Q 1584 409 2034 409 
Q 2484 409 2743 651 
Q 3003 894 3003 1313 
Q 3003 1734 2745 1975 
Q 2488 2216 2034 2216 
z
M 1403 2484 
Q 997 2584 770 2862 
Q 544 3141 544 3541 
Q 544 4100 942 4425 
Q 1341 4750 2034 4750 
Q 2731 4750 3128 4425 
Q 3525 4100 3525 3541 
Q 3525 3141 3298 2862 
Q 3072 2584 2669 2484 
Q 3125 2378 3379 2068 
Q 3634 1759 3634 1313 
Q 3634 634 3220 271 
Q 2806 -91 2034 -91 
Q 1263 -91 848 271 
Q 434 634 434 1313 
Q 434 1759 690 2068 
Q 947 2378 1403 2484 
z
M 1172 3481 
Q 1172 3119 1398 2916 
Q 1625 2713 2034 2713 
Q 2441 2713 2670 2916 
Q 2900 3119 2900 3481 
Q 2900 3844 2670 4047 
Q 2441 4250 2034 4250 
Q 1625 4250 1398 4047 
Q 1172 3844 1172 3481 
z
" transform="scale(0.015625)"/>
       </defs>
       <use xlink:href="#DejaVuSans-30"/>
       <use xlink:href="#DejaVuSans-2e" transform="translate(63.623047 0)"/>
       <use xlink:href="#DejaVuSans-38" transform="translate(95.410156 0)"/>
      </g>
     </g>
    </g>
    <g id="xtick_6">
     <g id="line2d_6">
      <g>
       <use xlink:href="#mb35ed76ce1" x="1245.274413" y="961.2" style="stroke: #000000; stroke-width: 0.8"/>
      </g>
     </g>
     <g id="text_6">
      <!-- 1.0 -->
      <g transform="translate(1237.32285 975.798437) scale(0.1 -0.1)">
       <defs>
        <path id="DejaVuSans-31" d="M 794 531 
L 1825 531 
L 1825 4091 
L 703 3866 
L 703 4441 
L 1819 4666 
L 2450 4666 
L 2450 531 
L 3481 531 
L 3481 0 
L 794 0 
L 794 531 
z
" transform="scale(0.015625)"/>
       </defs>
       <use xlink:href="#DejaVuSans-31"/>
       <use xlink:href="#DejaVuSans-2e" transform="translate(63.623047 0)"/>
       <use xlink:href="#DejaVuSans-30" transform="translate(95.410156 0)"/>
      </g>
     </g>
    </g>
   </g>
   <g id="matplotlib.axis_2">
    <g id="ytick_1">
     <g id="line2d_7">
      <defs>
       <path id="m92f5918588" d="M 0 0 
L -3.5 0 
" style="stroke: #000000; stroke-width: 0.8"/>
      </defs>
      <g>
       <use xlink:href="#m92f5918588" x="180" y="923.4" style="stroke: #000000; stroke-width: 0.8"/>
      </g>
     </g>
     <g id="text_7">
      <!-- 0.0 -->
      <g transform="translate(157.096875 927.199219) scale(0.1 -0.1)">
       <use xlink:href="#DejaVuSans-30"/>
       <use xlink:href="#DejaVuSans-2e" transform="translate(63.623047 0)"/>
       <use xlink:href="#DejaVuSans-30" transform="translate(95.410156 0)"/>
      </g>
     </g>
    </g>
    <g id="ytick_2">
     <g id="line2d_8">
      <g>
       <use xlink:href="#m92f5918588" x="180" y="772.2" style="stroke: #000000; stroke-width: 0.8"/>
      </g>
     </g>
     <g id="text_8">
      <!-- 0.2 -->
      <g transform="translate(157.096875 775.999219) scale(0.1 -0.1)">
       <use xlink:href="#DejaVuSans-30"/>
       <use xlink:href="#DejaVuSans-2e" transform="translate(63.623047 0)"/>
       <use xlink:href="#DejaVuSans-32" transform="translate(95.410156 0)"/>
      </g>
     </g>
    </g>
    <g id="ytick_3">
     <g id="line2d_9">
      <g>
       <use xlink:href="#m92f5918588" x="180" y="621" style="stroke: #000000; stroke-width: 0.8"/>
      </g>
     </g>
     <g id="text_9">
      <!-- 0.4 -->
      <g transform="translate(157.096875 624.799219) scale(0.1 -0.1)">
       <use xlink:href="#DejaVuSans-30"/>
       <use xlink:href="#DejaVuSans-2e" transform="translate(63.623047 0)"/>
       <use xlink:href="#DejaVuSans-34" transform="translate(95.410156 0)"/>
      </g>
     </g>
    </g>
    <g id="ytick_4">
     <g id="line2d_10">
      <g>
       <use xlink:href="#m92f5918588" x="180" y="469.8" style="stroke: #000000; stroke-width: 0.8"/>
      </g>
     </g>
     <g id="text_10">
      <!-- 0.6 -->
      <g transform="translate(157.096875 473.599219) scale(0.1 -0.1)">
       <use xlink:href="#DejaVuSans-30"/>
       <use xlink:href="#DejaVuSans-2e" transform="translate(63.623047 0)"/>
       <use xlink:href="#DejaVuSans-36" transform="translate(95.410156 0)"/>
      </g>
     </g>
    </g>
    <g id="ytick_5">
     <g id="line2d_11">
      <g>
       <use xlink:href="#m92f5918588" x="180" y="318.6" style="stroke: #000000; stroke-width: 0.8"/>
      </g>
     </g>
     <g id="text_11">
      <!-- 0.8 -->
      <g transform="translate(157.096875 322.399219) scale(0.1 -0.1)">
       <use xlink:href="#DejaVuSans-30"/>
       <use xlink:href="#DejaVuSans-2e" transform="translate(63.623047 0)"/>
       <use xlink:href="#DejaVuSans-38" transform="translate(95.410156 0)"/>
      </g>
     </g>
    </g>
    <g id="ytick_6">
     <g id="line2d_12">
      <g>
       <use xlink:href="#m92f5918588" x="180" y="167.4" style="stroke: #000000; stroke-width: 0.8"/>
      </g>
     </g>
     <g id="text_12">
      <!-- 1.0 -->
      <g transform="translate(157.096875 171.199219) scale(0.1 -0.1)">
       <use xlink:href="#DejaVuSans-31"/>
       <use xlink:href="#DejaVuSans-2e" transform="translate(63.623047 0)"/>
       <use xlink:href="#DejaVuSans-30" transform="translate(95.410156 0)"/>
      </g>
     </g>
    </g>
   </g>
   <g id="line2d_13">
    <path d="M 180 961.199937 
L 1296 129.601319 
" clip-path="url(#pf52fbcf752)" style="fill: none; stroke: #1f77b4; stroke-width: 1.5; stroke-linecap: square"/>
   </g>
   <g id="line2d_14">
    <path d="M 230.727273 923.399986 
L 231.566676 923.278727 
L 232.653855 922.963173 
L 233.139293 922.827682 
L 233.461233 922.735984 
L 234.767534 922.271514 
L 235.033851 922.113681 
L 236.03001 921.695791 
L 236.350264 921.547116 
L 236.672204 921.432014 
L 236.90481 921.313002 
L 237.132359 921.154311 
L 237.386877 921.009819 
L 237.735786 920.874868 
L 238.152116 920.644427 
L 238.445402 920.524589 
L 238.780826 920.310863 
L 239.809011 919.57183 
L 240.028132 919.458948 
L 240.306248 919.2832 
L 240.486602 919.165277 
L 240.712465 919.072664 
L 241.049575 918.961177 
L 242.541286 918.144601 
L 242.955931 917.988716 
L 243.370576 917.876958 
L 243.744768 917.744036 
L 244.056595 917.587036 
L 244.260546 917.473287 
L 244.825205 917.145491 
L 245.526393 916.872132 
L 245.954523 916.747939 
L 248.686798 915.469768 
L 248.959857 915.356989 
L 249.512717 914.931381 
L 249.937475 914.218095 
L 250.48865 913.607988 
L 250.695972 913.433069 
L 251.597741 912.20457 
L 251.700559 912.090442 
L 251.887655 911.970725 
L 252.62424 911.542692 
L 252.917526 911.115671 
L 253.178786 910.743084 
L 253.440046 910.38525 
L 255.371685 908.9411 
L 255.772846 908.750852 
L 257.451653 907.768177 
L 257.780335 907.509109 
L 258.22532 907.320117 
L 258.559059 907.161263 
L 258.919766 906.890264 
L 259.727144 906.540025 
L 260.038971 906.35493 
L 260.253035 906.218873 
L 260.52778 906.104369 
L 260.748587 906.012045 
L 261.073898 905.891934 
L 261.335158 905.734434 
L 262.764503 904.907778 
L 263.617391 903.368826 
L 264.092716 902.768266 
L 264.249472 902.661254 
L 264.411285 902.603551 
L 264.642205 902.447134 
L 264.785477 902.368187 
L 265.522062 902.041641 
L 265.687245 901.928264 
L 266.978376 900.637499 
L 267.182327 900.308163 
L 267.398078 900.037229 
L 267.561576 899.845853 
L 267.805981 899.725108 
L 268.050385 899.503998 
L 268.380753 899.337131 
L 269.053287 899.032307 
L 269.58592 898.789769 
L 269.818526 898.6787 
L 271.187192 897.983751 
L 271.576554 897.870926 
L 271.878267 897.679643 
L 272.046822 897.553721 
L 273.998688 896.274323 
L 274.929111 895.737942 
L 275.175201 895.606911 
L 275.628614 895.341697 
L 277.47429 893.461616 
L 277.695097 893.23052 
L 277.851853 893.08026 
L 278.01198 893.017271 
L 278.477192 892.816263 
L 278.88678 892.511034 
L 279.094103 892.311104 
L 279.498634 892.055735 
L 280.032953 891.860565 
L 280.385233 891.749946 
L 280.767853 891.340639 
L 281.253291 890.997986 
L 281.735358 890.885922 
L 281.940995 890.475882 
L 283.581034 887.666102 
L 283.990623 887.242361 
L 284.203002 887.098684 
L 284.553596 886.634449 
L 284.833397 886.332623 
L 285.01038 886.092416 
L 285.935746 884.765655 
L 286.050363 884.633999 
L 286.363876 884.27215 
L 286.662218 883.984868 
L 286.936962 883.515347 
L 287.842102 882.763809 
L 287.970204 882.650238 
L 288.243263 882.35458 
L 288.472497 882.198687 
L 289.731603 880.553875 
L 290.126021 880.313841 
L 290.52044 880.064983 
L 290.69068 879.952417 
L 290.908116 879.704772 
L 291.036218 879.583881 
L 291.956527 878.847943 
L 293.28474 878.472489 
L 294.503392 877.179728 
L 294.628123 877.067409 
L 294.889383 876.703805 
L 294.992201 876.584111 
L 295.35628 876.231313 
L 295.565288 876.066043 
L 296.785625 875.13495 
L 297.222183 874.98919 
L 298.056529 874.557097 
L 298.447577 874.401366 
L 298.892562 874.266653 
L 299.939288 873.826241 
L 300.225831 873.305865 
L 300.337077 873.191175 
L 300.630363 872.725912 
L 300.768578 872.660043 
L 300.841056 872.533024 
L 301.012982 872.334041 
L 301.071977 872.225464 
L 301.415829 871.737873 
L 301.511905 871.620507 
L 301.700686 871.443539 
L 301.860814 871.331177 
L 302.020941 871.026449 
L 302.27883 870.606366 
L 302.897426 869.555048 
L 303.146887 869.296596 
L 303.537935 868.936495 
L 303.693005 868.792021 
L 304.419477 868.199896 
L 304.652083 868.063122 
L 306.742164 867.047415 
L 307.630448 866.731502 
L 307.78889 866.644054 
L 308.227132 866.514008 
L 309.012598 866.256219 
L 310.12506 865.677077 
L 311.615086 863.712992 
L 311.93534 863.226725 
L 312.847222 862.87086 
L 313.034318 862.722877 
L 313.501215 862.322582 
L 313.762475 862.059588 
L 313.853495 861.947815 
L 314.028792 861.808311 
L 314.532771 861.403679 
L 315.117657 861.167969 
L 315.432854 861.08745 
L 315.795247 860.974793 
L 316.139099 860.765564 
L 316.363278 860.644912 
L 316.744212 860.446411 
L 317.003786 860.33238 
L 317.258304 860.148175 
L 317.726887 859.999193 
L 317.905555 859.932471 
L 319.50177 859.122859 
L 320.044517 858.632329 
L 320.24004 858.463514 
L 320.449048 858.293698 
L 320.604119 858.13047 
L 321.119897 857.669947 
L 322.309895 857.085075 
L 322.647004 856.923889 
L 323.471238 856.370539 
L 323.786435 856.257303 
L 328.479004 854.715035 
L 328.841397 854.563233 
L 329.084116 854.379822 
L 329.303238 854.250435 
L 330.988787 853.396275 
L 331.447256 853.282401 
L 333.820509 852.42859 
L 334.122222 852.312551 
L 334.771159 851.971728 
L 335.094784 851.835183 
L 335.418409 851.633178 
L 335.873508 851.472266 
L 336.380858 851.251663 
L 336.753364 851.093285 
L 337.221947 850.957272 
L 337.67536 850.823411 
L 338.155741 850.660783 
L 338.604097 850.549134 
L 339.381135 850.32885 
L 339.812636 850.014701 
L 340.046927 849.749783 
L 340.476742 849.151522 
L 340.677322 848.741766 
L 341.263894 847.689871 
L 341.35997 847.549113 
L 342.076328 845.923005 
L 342.103297 845.812742 
L 342.330846 845.275185 
L 342.38984 845.161642 
L 342.74212 844.555538 
L 342.846624 844.405989 
L 343.133167 843.764208 
L 343.8175 842.742994 
L 343.960772 842.590904 
L 345.646321 840.478752 
L 345.819933 840.356035 
L 346.18064 840.058944 
L 346.645852 839.705615 
L 346.79418 839.603755 
L 347.635269 839.002545 
L 348.039801 838.6878 
L 348.230268 838.545596 
L 349.674783 837.617288 
L 350.699597 837.086263 
L 350.903549 836.896874 
L 351.33842 836.580122 
L 353.049252 835.490487 
L 353.315569 835.375963 
L 354.094293 835.037518 
L 354.256106 834.968036 
L 355.469701 834.502419 
L 355.768043 834.37242 
L 356.181003 834.148025 
L 356.551823 833.923764 
L 356.968154 833.707366 
L 357.320434 833.471495 
L 357.596864 833.328496 
L 357.9542 833.140263 
L 358.208718 833.026111 
L 358.638533 832.707275 
L 358.847541 832.553519 
L 359.201506 832.301646 
L 359.437483 832.190201 
L 359.695372 832.09274 
L 362.243923 830.751553 
L 362.549007 830.574777 
L 363.052986 830.328069 
L 363.401895 830.025879 
L 363.580563 829.905167 
L 364.367714 829.431439 
L 365.562769 828.965201 
L 365.731323 828.914544 
L 366.038093 828.786533 
L 366.432512 828.681793 
L 367.634308 828.365817 
L 367.920852 828.225148 
L 368.394491 827.970549 
L 368.669235 827.786859 
L 368.937238 827.67239 
L 369.102422 827.616254 
L 370.546937 827.147169 
L 370.852021 827.028298 
L 371.096426 826.912574 
L 371.87515 826.585433 
L 372.776918 826.223278 
L 372.960643 826.108459 
L 373.130884 825.986538 
L 373.395515 825.835296 
L 374.068049 825.395312 
L 377.10878 823.934745 
L 377.344756 823.76973 
L 377.530167 823.646312 
L 378.089769 823.364684 
L 378.667912 823.210835 
L 380.051748 822.697806 
L 380.326493 822.579934 
L 380.579325 822.475432 
L 381.649649 822.004556 
L 381.927764 821.882546 
L 383.085736 821.467486 
L 383.335198 821.250543 
L 384.346527 819.888817 
L 384.530252 819.647324 
L 384.661725 819.538784 
L 384.83028 819.345332 
L 384.951639 819.233952 
L 385.359542 818.497947 
L 385.450562 818.332046 
L 386.101184 816.980692 
L 386.25794 816.829858 
L 386.502344 816.414279 
L 386.940587 815.848418 
L 387.149595 815.607184 
L 387.375459 815.343501 
L 387.707512 815.010931 
L 387.838985 814.894457 
L 387.980571 814.758869 
L 388.845258 814.076001 
L 389.045838 813.937727 
L 390.682506 813.056902 
L 390.864545 812.944891 
L 391.115692 812.766678 
L 391.235366 812.656657 
L 391.478085 812.45272 
L 392.277035 811.868542 
L 392.480987 811.758581 
L 392.87372 811.492292 
L 393.060816 811.364752 
L 393.526027 811.062629 
L 393.91876 810.921319 
L 394.569382 810.682732 
L 394.837384 810.573599 
L 395.000883 810.510677 
L 395.420584 810.242198 
L 395.616108 809.994741 
L 395.906022 809.767697 
L 396.099861 809.63433 
L 396.630809 809.072122 
L 397.638767 808.295022 
L 397.844404 808.088816 
L 398.122519 807.779214 
L 398.442774 807.436616 
L 398.83045 807.169289 
L 401.04189 805.557609 
L 401.422825 805.273562 
L 402.744295 804.467925 
L 403.17411 803.875835 
L 403.922494 802.889212 
L 404.229264 802.453353 
L 404.487153 802.210912 
L 404.583229 802.092327 
L 405.311386 801.269866 
L 405.855818 800.780467 
L 406.182815 800.616888 
L 406.526667 800.265259 
L 406.653083 800.132755 
L 407.064357 799.670493 
L 407.254824 799.467285 
L 408.24087 799.071783 
L 408.50213 798.953501 
L 408.83924 798.739886 
L 409.038135 798.615694 
L 409.233659 798.50482 
L 409.877539 798.152109 
L 410.209592 797.859379 
L 410.816389 796.555938 
L 411.116417 796.292085 
L 411.461955 795.732305 
L 411.807492 794.725556 
L 411.842889 794.614478 
L 412.023242 793.876666 
L 412.242364 793.240707 
L 412.788482 791.791053 
L 412.862646 791.676794 
L 413.140761 791.087011 
L 413.467758 790.533157 
L 413.651483 790.175727 
L 413.752616 789.937107 
L 414.023989 789.48567 
L 414.130179 789.350631 
L 414.99318 787.74502 
L 415.074086 787.633833 
L 415.232528 787.36874 
L 415.389284 787.231224 
L 415.926974 786.244731 
L 416.452865 785.575552 
L 416.763006 785.424382 
L 417.202935 784.827562 
L 417.831644 784.222456 
L 418.035596 783.929 
L 418.548003 783.326557 
L 418.792407 782.814716 
L 418.901968 782.702288 
L 419.117718 782.43365 
L 420.469529 780.809771 
L 420.901029 780.08914 
L 421.630872 779.293949 
L 421.742118 779.185883 
L 421.91573 779.077526 
L 422.185418 778.953388 
L 423.105727 777.999208 
L 423.446208 777.684814 
L 423.66533 777.451147 
L 423.827142 777.325148 
L 424.533387 776.841275 
L 424.791276 776.047302 
L 425.682932 773.845216 
L 425.971161 773.239973 
L 426.463341 772.45197 
L 426.613355 772.31805 
L 426.692576 772.200525 
L 426.896527 771.86126 
L 427.145988 771.608431 
L 427.272405 771.494721 
L 427.542093 770.925536 
L 427.614571 770.79834 
L 427.899429 770.341563 
L 428.368012 769.751958 
L 428.56185 769.445043 
L 428.683209 769.24527 
L 428.922557 768.83724 
L 429.763646 768.34369 
L 429.942314 768.134884 
L 430.060303 768.002025 
L 430.237285 767.747249 
L 430.584509 767.353622 
L 430.896335 766.947045 
L 431.100287 766.753298 
L 431.257043 766.59471 
L 431.452566 766.480897 
L 431.600895 766.43686 
L 431.816645 766.325774 
L 432.281856 766.03907 
L 432.52289 765.77697 
L 436.133336 764.180283 
L 438.960002 763.283196 
L 439.175752 763.205388 
L 440.085949 762.844052 
L 440.382605 762.525201 
L 440.524191 762.397381 
L 440.768596 762.157767 
L 441.302915 761.773734 
L 441.766441 761.363433 
L 442.091752 760.97635 
L 442.204684 760.834139 
L 442.496284 760.525426 
L 442.65304 760.362522 
L 443.185673 759.844625 
L 443.794156 759.44651 
L 444.207116 759.303338 
L 444.355444 759.273832 
L 444.582993 759.161305 
L 445.779733 758.029277 
L 446.506205 757.780149 
L 446.846686 757.663727 
L 447.087719 757.505032 
L 447.429886 757.299737 
L 448.673821 756.148899 
L 449.068239 755.752555 
L 450.831324 754.203719 
L 451.068986 754.030178 
L 451.284736 753.889758 
L 451.910075 753.67156 
L 453.127041 752.141134 
L 453.293911 751.939433 
L 453.443925 751.826207 
L 454.728313 750.805015 
L 454.954177 750.676103 
L 455.630082 749.929325 
L 455.796951 749.779684 
L 456.026186 749.563298 
L 456.252049 749.403031 
L 456.575675 749.246987 
L 456.860533 749.096859 
L 457.032459 749.019766 
L 457.276863 748.880134 
L 457.477444 748.75221 
L 457.787585 748.557603 
L 458.123009 748.269941 
L 459.205131 747.619373 
L 459.518643 747.490548 
L 459.72428 747.418973 
L 460.78112 746.933813 
L 461.030581 746.787192 
L 461.286784 746.671265 
L 461.615466 746.465939 
L 461.824475 746.317081 
L 462.063822 746.195508 
L 462.684105 745.790005 
L 463.137517 745.529829 
L 463.363381 745.422064 
L 463.862303 745.280759 
L 464.238181 745.129922 
L 465.000049 744.741996 
L 465.236026 744.134921 
L 465.327045 743.9371 
L 466.705825 740.381544 
L 468.254844 738.583439 
L 468.91895 738.005175 
L 469.102675 737.794911 
L 469.288086 737.56848 
L 469.503836 737.164134 
L 469.820719 736.722078 
L 469.984217 736.507927 
L 470.311214 736.048962 
L 470.520222 735.743625 
L 470.943295 735.534074 
L 471.722019 735.045676 
L 472.197343 734.653015 
L 472.938985 734.110476 
L 473.271038 733.849099 
L 474.064932 733.254683 
L 475.359433 732.709644 
L 475.533045 732.598646 
L 476.230862 732.285361 
L 476.645507 732.147366 
L 476.975875 731.976768 
L 477.323098 731.862254 
L 477.574245 731.776084 
L 477.859103 731.644514 
L 478.622656 731.21342 
L 480.56778 730.553188 
L 480.790272 730.4898 
L 481.489775 730.318387 
L 482.312323 729.729039 
L 483.247803 727.729304 
L 484.415888 725.749257 
L 484.641752 725.412451 
L 485.300802 724.388426 
L 485.792982 724.030546 
L 486.221111 723.889083 
L 486.741946 723.493581 
L 488.029706 722.620107 
L 488.525257 722.342889 
L 488.693812 722.213604 
L 488.833712 722.024973 
L 489.030922 721.71179 
L 490.163611 720.097935 
L 490.347335 719.980083 
L 491.94355 718.899762 
L 492.474498 718.730834 
L 492.690249 718.644272 
L 493.135234 718.527014 
L 493.512797 718.370744 
L 493.838108 718.260079 
L 494.242639 718.16647 
L 494.61346 718.040045 
L 495.710753 717.505487 
L 496.015837 717.371605 
L 496.516445 717.159969 
L 496.782762 717.051051 
L 497.463724 716.858341 
L 498.709344 716.181157 
L 498.960491 716.064913 
L 499.181298 715.952884 
L 499.599314 715.762082 
L 499.821807 715.653057 
L 500.121834 715.522577 
L 501.36577 715.033846 
L 501.991108 714.693941 
L 503.329434 713.694267 
L 503.585638 713.325694 
L 503.669915 713.201726 
L 504.173894 712.765379 
L 504.477293 712.551087 
L 504.691358 712.436465 
L 505.114431 712.048221 
L 505.367263 711.879566 
L 505.677404 711.759445 
L 505.901582 711.614448 
L 506.966849 710.808621 
L 507.265191 710.693994 
L 509.410895 710.08332 
L 509.599677 710.000158 
L 509.808685 709.886325 
L 512.95729 708.362965 
L 513.243834 708.247493 
L 513.552289 708.083451 
L 513.83209 707.87085 
L 514.064696 707.697169 
L 514.443945 707.461007 
L 514.634412 707.359607 
L 517.408825 705.94186 
L 518.074617 705.704146 
L 519.578127 705.179417 
L 520.139415 704.698932 
L 520.759697 704.360729 
L 521.019271 704.145908 
L 521.803052 703.607193 
L 522.236238 703.403464 
L 523.459946 702.830935 
L 523.945385 702.700126 
L 524.501616 702.466235 
L 530.692637 700.104336 
L 531.247183 699.85952 
L 531.569123 699.74355 
L 532.352903 699.409879 
L 533.495705 699.029986 
L 536.10325 697.45093 
L 536.351026 697.328948 
L 536.799382 697.062657 
L 537.214027 696.935431 
L 537.406179 696.791532 
L 537.841051 696.480439 
L 537.925328 696.356857 
L 538.203444 696.107669 
L 538.346716 695.997684 
L 538.818669 695.561998 
L 539.150723 695.326501 
L 539.792917 694.598032 
L 539.990126 694.396123 
L 540.256443 694.100865 
L 540.976172 693.256908 
L 541.087418 693.146394 
L 541.274514 692.979686 
L 541.958847 692.628748 
L 542.186396 692.389629 
L 542.638123 691.880669 
L 542.730829 691.759674 
L 542.921296 691.516778 
L 543.158958 691.173987 
L 543.383136 690.888749 
L 543.863518 690.079661 
L 544.315245 689.459692 
L 544.497284 689.280465 
L 544.643927 689.171421 
L 545.249039 688.269306 
L 545.331631 688.147231 
L 545.570979 687.690549 
L 545.882805 687.128068 
L 546.056417 686.889308 
L 546.251941 686.734192 
L 546.486232 686.598896 
L 546.727265 686.48476 
L 547.222817 686.232545 
L 547.470593 686.087527 
L 547.81613 685.71481 
L 548.320109 685.48553 
L 548.527432 685.346462 
L 548.674075 685.281389 
L 550.627626 684.399624 
L 550.767527 684.303856 
L 551.018673 684.185879 
L 551.433318 684.038365 
L 551.689522 683.925278 
L 552.014833 683.803936 
L 552.606461 683.377919 
L 552.761531 683.271315 
L 553.15595 683.020323 
L 553.825113 682.213786 
L 554.081316 681.711821 
L 554.895436 679.660003 
L 554.981399 679.507351 
L 555.188722 679.177864 
L 555.278056 679.056142 
L 555.53763 678.604003 
L 555.942162 678.186711 
L 556.036553 678.053239 
L 556.232077 677.804255 
L 556.955177 676.924605 
L 557.390049 676.221941 
L 558.89693 674.157792 
L 559.512155 673.105098 
L 559.599804 672.991721 
L 559.871177 672.578486 
L 560.230199 672.14403 
L 560.353244 671.967705 
L 560.767889 671.347917 
L 560.889249 671.193892 
L 561.066231 671.067383 
L 561.335919 670.773954 
L 561.757306 670.401971 
L 561.976428 670.174834 
L 562.139926 670.060867 
L 562.32028 669.827925 
L 562.369161 669.713271 
L 562.608509 669.267971 
L 563.023154 669.000624 
L 563.255759 668.668442 
L 563.424314 668.481245 
L 563.572643 668.319432 
L 563.931665 667.645887 
L 564.150786 667.258936 
L 564.937937 666.08943 
L 565.126719 665.772272 
L 565.266619 665.585406 
L 565.489112 665.251641 
L 565.595301 665.140489 
L 565.908814 664.935658 
L 566.146476 664.794418 
L 566.35717 664.722381 
L 566.589775 664.572494 
L 566.842608 664.389857 
L 566.953854 664.268992 
L 567.178032 664.070333 
L 567.596048 663.774314 
L 568.007322 663.532186 
L 568.182619 663.336158 
L 568.430395 663.030786 
L 568.575352 662.920716 
L 568.737165 662.7756 
L 569.485549 662.359308 
L 569.859741 662.027792 
L 570.372147 661.684427 
L 570.766566 661.452422 
L 571.390219 660.933571 
L 571.641366 660.822749 
L 573.763472 659.078216 
L 573.965738 658.822034 
L 574.07867 658.672102 
L 574.464661 658.199182 
L 574.779858 657.974897 
L 576.430011 655.982814 
L 576.620478 655.77349 
L 576.96433 655.374561 
L 577.144684 655.210413 
L 577.481793 654.917171 
L 577.673946 654.778467 
L 577.913294 654.69091 
L 578.068364 654.509196 
L 578.400418 654.208182 
L 578.788094 653.87788 
L 579.592101 653.328847 
L 580.343856 653.062921 
L 580.650626 652.968117 
L 581.18663 652.782672 
L 581.365298 652.659077 
L 581.670383 652.508417 
L 583.013765 651.585959 
L 583.21266 651.446974 
L 583.352561 651.310056 
L 583.553141 651.175714 
L 583.738551 651.038337 
L 584.079032 650.821602 
L 584.262757 650.708095 
L 585.027996 650.196871 
L 585.425786 650.054112 
L 586.425317 649.581618 
L 586.678149 649.468696 
L 587.123134 649.243591 
L 589.277266 648.195156 
L 589.558752 648.021131 
L 590.706611 647.453964 
L 591.153282 647.288365 
L 591.51736 647.110459 
L 591.807275 646.999259 
L 592.142699 646.890041 
L 592.776465 646.721255 
L 593.241677 646.594113 
L 593.48271 646.497892 
L 593.958035 646.31272 
L 594.389536 646.181612 
L 595.013189 645.864203 
L 595.281191 645.607574 
L 595.416035 645.497466 
L 595.672239 645.348765 
L 595.881247 645.219693 
L 596.179589 645.068081 
L 596.427365 644.956256 
L 596.703795 644.871178 
L 597.008879 644.754808 
L 597.369587 644.517722 
L 597.969642 644.313598 
L 598.210676 644.166147 
L 598.687686 643.937178 
L 598.959059 643.826836 
L 600.504708 643.272437 
L 600.680005 643.150866 
L 600.75754 643.040046 
L 601.027228 642.845749 
L 601.69302 642.426567 
L 604.324162 641.258701 
L 604.657901 640.923437 
L 605.918691 639.388989 
L 606.345135 639.072218 
L 606.570999 638.828025 
L 606.800233 638.593702 
L 607.071607 638.316124 
L 607.258703 638.204887 
L 608.752099 637.589441 
L 609.079096 637.381599 
L 609.412834 637.133263 
L 610.417422 636.717021 
L 611.781031 635.783916 
L 611.851824 635.649871 
L 612.219274 634.825766 
L 612.381086 634.68103 
L 612.644032 634.084114 
L 612.74685 633.97223 
L 612.982827 633.408909 
L 613.169923 632.906376 
L 613.370504 632.475203 
L 613.453096 632.277425 
L 613.645248 632.021227 
L 614.538589 630.469255 
L 614.631294 630.331213 
L 614.796478 630.156122 
L 615.131902 629.936511 
L 615.265061 629.817311 
L 615.445414 629.59983 
L 615.64768 629.42842 
L 615.929167 629.286075 
L 616.188742 629.062808 
L 616.396064 628.799033 
L 616.650582 628.501552 
L 616.741602 628.383973 
L 616.955666 628.208961 
L 617.575948 627.643604 
L 617.744503 627.503454 
L 617.988908 627.365709 
L 618.167576 627.250372 
L 618.636159 627.030037 
L 618.90079 626.89252 
L 619.079458 626.781331 
L 619.583437 626.558239 
L 619.898635 626.445439 
L 622.713502 625.331644 
L 622.944422 625.085785 
L 623.177028 624.869882 
L 623.411319 624.724431 
L 624.962024 623.646769 
L 625.948071 623.336666 
L 626.310464 623.200156 
L 626.625661 623.046401 
L 626.912205 622.885557 
L 627.100986 622.712803 
L 627.271227 622.607079 
L 627.935333 622.424617 
L 628.139284 622.28531 
L 628.414029 622.107727 
L 628.535388 621.995799 
L 628.734283 621.812031 
L 628.86407 621.691451 
L 629.204551 621.178794 
L 629.283772 621.065087 
L 629.841689 620.494081 
L 630.037213 620.294635 
L 630.308586 620.023571 
L 630.421518 619.911878 
L 630.861446 619.623151 
L 631.092366 619.509269 
L 633.234699 618.611634 
L 633.656086 618.496023 
L 633.770704 618.336836 
L 634.089272 617.991098 
L 634.214003 617.875486 
L 634.473578 617.671067 
L 634.66573 617.558837 
L 634.945531 617.387244 
L 635.065205 617.273216 
L 635.78662 616.620849 
L 635.896181 616.501633 
L 636.120359 616.235181 
L 637.185626 614.783788 
L 637.271589 614.627196 
L 637.920525 613.546575 
L 638.405964 612.992267 
L 638.668909 612.833365 
L 639.722377 612.166541 
L 640.013977 611.898443 
L 640.920803 611.503036 
L 641.134867 611.218769 
L 641.370844 610.826195 
L 642.1108 609.960288 
L 642.237217 609.850083 
L 642.572641 609.550923 
L 642.838958 609.413634 
L 643.138985 609.268759 
L 643.621052 608.956069 
L 643.916023 608.620906 
L 644.254819 608.234718 
L 644.455399 608.039163 
L 644.738571 607.720304 
L 644.912183 607.614382 
L 645.025115 607.499551 
L 645.330199 607.122115 
L 645.461672 606.964752 
L 645.680793 606.783753 
L 645.834178 606.67447 
L 646.130835 606.33867 
L 646.584248 606.166641 
L 646.762916 606.088267 
L 647.100026 605.89733 
L 647.341059 605.531619 
L 647.59052 605.311532 
L 647.83661 605.07309 
L 647.968083 604.957862 
L 648.168664 604.777938 
L 648.384414 604.606374 
L 649.036721 604.060569 
L 649.528902 603.72098 
L 649.906465 603.439265 
L 650.051422 603.31828 
L 650.661591 602.849835 
L 650.951505 602.722719 
L 651.167255 602.61745 
L 651.768996 602.292074 
L 652.033628 602.128091 
L 652.197126 602.029578 
L 652.637054 601.754004 
L 652.970793 601.493325 
L 653.306217 601.303501 
L 653.628157 601.068465 
L 653.80514 600.955295 
L 654.861979 600.06174 
L 655.261454 599.667858 
L 655.50923 599.497679 
L 655.753634 599.376515 
L 655.878365 599.262768 
L 656.212104 599.082663 
L 656.63012 598.90112 
L 656.854298 598.674206 
L 656.958802 598.56425 
L 658.298813 597.407906 
L 658.472425 597.166594 
L 658.775824 596.722693 
L 658.90224 596.52292 
L 659.25452 595.835291 
L 659.903456 594.956854 
L 660.385523 594.183741 
L 660.699035 593.888252 
L 660.859162 593.726741 
L 661.000749 593.607703 
L 661.23504 593.501718 
L 662.098041 592.874158 
L 662.251426 592.764891 
L 663.980799 591.604273 
L 664.119014 591.48044 
L 666.977705 590.043274 
L 667.31313 589.89715 
L 667.700806 589.551578 
L 668.626172 588.792449 
L 668.934628 588.563881 
L 669.158806 588.411 
L 669.327361 588.350721 
L 669.637502 588.261738 
L 670.581409 587.905092 
L 670.755021 587.809112 
L 670.894921 587.698378 
L 671.387102 587.363422 
L 671.612965 587.179857 
L 671.806803 586.928506 
L 672.029296 586.671332 
L 672.298984 586.376877 
L 672.583842 586.03927 
L 672.706887 585.926877 
L 672.954662 585.771515 
L 673.261432 585.546651 
L 673.566517 585.294019 
L 673.851374 585.166104 
L 674.207025 585.029138 
L 674.365467 584.882557 
L 674.572789 584.579778 
L 674.775055 584.259699 
L 675.456017 583.014421 
L 675.661654 582.665152 
L 675.804926 582.465077 
L 676.061129 582.042275 
L 676.177432 581.831014 
L 676.801085 580.979432 
L 676.934244 580.861111 
L 677.188762 580.639612 
L 677.744993 580.25139 
L 678.016366 580.068168 
L 678.206833 579.935174 
L 678.469779 579.623285 
L 679.191194 579.060693 
L 679.418743 578.902101 
L 680.576715 577.998231 
L 681.576246 577.294762 
L 681.815594 577.054382 
L 681.904928 576.938724 
L 682.161131 576.733252 
L 683.791057 575.17398 
L 684.016921 575.057962 
L 684.281552 574.917525 
L 685.040049 574.570133 
L 685.705841 574.356549 
L 685.99407 574.22778 
L 687.775695 573.354228 
L 687.976275 573.247543 
L 688.232479 573.099651 
L 688.552733 572.870303 
L 689.247179 572.393079 
L 689.616315 572.159062 
L 690.130407 571.755897 
L 690.443919 571.542898 
L 690.87542 571.200607 
L 691.414795 570.980008 
L 691.676056 570.855157 
L 692.018222 570.691661 
L 692.195205 570.583907 
L 693.349806 570.186639 
L 693.548701 570.08473 
L 695.232564 569.279664 
L 696.606287 568.44479 
L 696.940025 568.260377 
L 697.16926 568.158552 
L 697.55188 568.002972 
L 699.057075 567.348376 
L 699.389128 567.096555 
L 699.724552 566.905328 
L 699.967271 566.718861 
L 701.598883 565.704346 
L 702.006786 565.588477 
L 704.165974 564.5863 
L 704.794684 564.398511 
L 705.094712 564.158529 
L 705.323946 564.002521 
L 705.775673 563.687256 
L 706.036933 563.51107 
L 706.235828 563.3963 
L 706.417868 563.259636 
L 707.414027 562.746882 
L 707.774735 562.541875 
L 708.088247 562.275881 
L 708.202864 562.125573 
L 708.464124 561.973595 
L 709.082721 561.654589 
L 709.261389 561.530344 
L 710.190126 561.157143 
L 710.86266 561.038984 
L 711.654868 560.766424 
L 712.040859 560.641174 
L 712.344258 560.529898 
L 712.801042 560.174155 
L 713.011735 560.008332 
L 713.122982 559.896014 
L 713.254454 559.746885 
L 713.738207 559.457582 
L 714.102286 559.325412 
L 714.639976 558.989386 
L 714.823701 558.724352 
L 714.887751 558.613273 
L 715.138898 558.091584 
L 715.214748 557.971316 
L 715.51309 557.572146 
L 715.595682 557.458038 
L 715.77435 557.248342 
L 715.95639 557.041163 
L 716.878385 555.832487 
L 717.193583 555.436676 
L 717.581259 555.036112 
L 718.794854 554.385627 
L 719.25838 554.265956 
L 719.590433 554.046692 
L 719.909002 553.891108 
L 720.972584 553.1107 
L 721.125969 553.03433 
L 721.452965 552.777402 
L 721.678829 552.610872 
L 721.924919 552.496491 
L 723.792507 551.73586 
L 723.957691 551.623821 
L 724.183554 551.505884 
L 724.566174 551.169996 
L 724.820692 550.903927 
L 724.901598 550.780251 
L 725.125776 550.577341 
L 725.247136 550.467236 
L 725.705605 550.242241 
L 725.998891 550.125605 
L 726.273635 549.963168 
L 726.50287 549.788022 
L 726.925943 549.473894 
L 727.160234 549.338675 
L 727.615332 548.949372 
L 727.831083 548.752453 
L 727.989524 548.568534 
L 728.212017 548.316969 
L 728.564296 548.05186 
L 730.468967 547.182272 
L 730.978003 546.951073 
L 731.13813 546.88618 
L 731.476925 546.743027 
L 736.167808 544.544134 
L 736.393672 544.428607 
L 738.637138 543.481208 
L 738.928738 543.32334 
L 739.19674 543.199911 
L 741.767202 541.363641 
L 741.922273 541.251643 
L 742.202074 540.987672 
L 742.518957 540.833474 
L 743.705584 540.247682 
L 743.901107 540.13093 
L 745.406303 539.334166 
L 745.692846 539.153758 
L 746.151315 538.92552 
L 746.407519 538.811402 
L 747.139047 538.279781 
L 747.545264 538.1315 
L 748.329045 537.503757 
L 748.608846 537.289694 
L 749.131366 536.880551 
L 751.1102 536.187128 
L 751.688344 535.997321 
L 752.227719 535.607971 
L 752.569886 535.246692 
L 753.252533 534.628812 
L 753.705946 534.215949 
L 753.911583 534.087964 
L 754.241951 533.970054 
L 755.138663 533.550141 
L 755.57522 533.438583 
L 755.838166 533.14996 
L 755.971324 532.977033 
L 756.259553 532.47938 
L 756.569694 532.151423 
L 756.69611 532.037013 
L 757.456293 531.308916 
L 757.633275 531.195198 
L 757.798459 531.080729 
L 758.16928 530.888959 
L 758.487849 530.592268 
L 764.093985 525.627336 
L 764.314792 525.484585 
L 764.535599 525.370489 
L 764.994068 525.136865 
L 765.226674 524.978602 
L 765.351404 524.853202 
L 766.093046 523.525418 
L 766.389703 522.893626 
L 766.53466 522.782394 
L 766.984701 522.31611 
L 767.111118 522.205965 
L 768.331455 520.783957 
L 770.123194 519.072123 
L 770.285006 518.912272 
L 770.475473 518.765645 
L 770.667626 518.654072 
L 771.105869 518.326068 
L 771.284537 518.206552 
L 771.812114 517.766124 
L 771.931788 517.621858 
L 772.12394 517.461509 
L 773.415071 516.766619 
L 773.789263 516.647067 
L 774.714629 516.349085 
L 775.124218 516.182041 
L 776.019244 515.845418 
L 776.499626 515.698363 
L 777.022146 515.413033 
L 777.335658 515.297673 
L 778.84591 514.771608 
L 779.164479 514.627783 
L 779.405512 514.587708 
L 779.624634 514.459374 
L 780.512918 514.055848 
L 780.865198 513.929239 
L 782.272631 512.443175 
L 782.544005 512.218754 
L 783.093494 511.834287 
L 783.34464 511.700625 
L 787.732125 509.061113 
L 788.079348 508.681224 
L 788.153512 508.574353 
L 788.367577 508.290168 
L 788.736712 507.956448 
L 789.062023 507.452826 
L 789.31317 507.095577 
L 790.329556 505.756021 
L 792.010048 504.776853 
L 792.187031 504.526696 
L 793.262411 503.987088 
L 793.653458 503.828795 
L 793.864152 503.735463 
L 794.469264 503.558181 
L 795.396316 503.294645 
L 795.733426 503.184146 
L 796.156499 503.003692 
L 796.518892 502.90293 
L 796.914996 502.757203 
L 797.248734 502.6185 
L 799.46186 501.921085 
L 799.677611 501.802721 
L 800.107426 501.673944 
L 800.232156 501.628863 
L 801.821629 501.012388 
L 802.098059 500.826523 
L 802.307067 500.655755 
L 802.531245 500.480751 
L 802.657661 500.368902 
L 802.800933 500.201532 
L 803.075678 499.948021 
L 803.257717 499.808333 
L 803.552688 499.535862 
L 803.785294 499.426668 
L 804.054982 499.306902 
L 804.221851 499.138275 
L 804.531992 498.99152 
L 806.994579 497.358352 
L 807.390683 496.917254 
L 807.485074 496.806311 
L 807.833982 496.472611 
L 809.022295 495.657968 
L 809.428512 495.516623 
L 809.934177 494.73151 
L 810.003284 494.587905 
L 810.149927 494.505374 
L 810.202179 494.374891 
L 810.394331 494.16648 
L 810.475238 494.02729 
L 810.689303 493.822471 
L 810.901682 493.663125 
L 811.191596 493.517599 
L 811.378692 493.451437 
L 811.712431 493.254777 
L 811.958521 493.060795 
L 812.238322 492.85995 
L 812.952995 492.584562 
L 813.220997 492.489316 
L 813.632271 492.301684 
L 814.938572 491.744166 
L 815.28748 491.61433 
L 816.246558 491.107688 
L 816.516246 490.904119 
L 816.728625 490.791262 
L 817.170239 490.595913 
L 817.728155 490.068384 
L 818.090548 489.899133 
L 818.2945 489.681491 
L 818.441143 489.601815 
L 818.946807 489.371193 
L 819.698562 489.148296 
L 820.524481 488.83453 
L 820.689665 488.739658 
L 821.213871 488.152227 
L 821.697623 487.752573 
L 822.193175 487.619877 
L 825.137829 486.166989 
L 825.296271 486.099214 
L 825.886213 485.948436 
L 827.055984 484.830306 
L 827.361068 484.445156 
L 827.784141 483.9244 
L 828.075741 483.689474 
L 829.156178 483.086453 
L 829.370243 482.905572 
L 829.567452 482.793591 
L 829.77646 482.662233 
L 830.025921 482.532393 
L 830.248414 482.448633 
L 830.418654 482.336494 
L 830.65126 482.174681 
L 830.801274 482.104607 
L 831.286712 481.737408 
L 831.462009 481.595126 
L 831.573255 481.437759 
L 831.858113 481.177516 
L 833.557146 480.305364 
L 833.818407 480.086346 
L 834.297102 479.878149 
L 834.634212 479.746652 
L 834.920756 479.556442 
L 835.643856 478.59797 
L 838.098016 477.416409 
L 838.362647 477.06903 
L 838.66436 476.95789 
L 838.821116 476.919424 
L 838.993042 476.73702 
L 839.350379 476.131036 
L 839.537474 475.894185 
L 839.716143 475.681802 
L 839.968975 475.334747 
L 840.218436 475.069926 
L 840.729158 474.437464 
L 840.941537 474.298968 
L 841.153916 474.082533 
L 841.376408 473.881664 
L 841.927583 473.545039 
L 842.215812 473.40991 
L 842.487185 473.278998 
L 842.805754 473.168128 
L 843.004649 473.097178 
L 846.773537 471.467353 
L 847.065137 471.162691 
L 848.352896 469.89006 
L 850.308133 468.510004 
L 850.493543 468.330486 
L 850.584563 468.182758 
L 850.788514 467.919628 
L 851.265525 467.338589 
L 851.934688 466.44503 
L 852.128526 466.238679 
L 852.27854 466.07335 
L 852.563397 465.858871 
L 852.821286 465.742935 
L 853.136484 465.584545 
L 853.385945 465.45325 
L 858.32629 463.25725 
L 858.84881 462.869186 
L 859.083101 462.73431 
L 859.405041 462.530607 
L 860.133198 462.250328 
L 860.913607 462.053389 
L 861.383876 461.833361 
L 861.771552 461.714633 
L 862.085064 461.626517 
L 862.398576 461.498856 
L 862.612641 461.380151 
L 862.995261 461.145376 
L 863.232923 461.066414 
L 863.504296 460.993554 
L 864.28302 460.671619 
L 864.422921 460.61979 
L 864.749917 460.149089 
L 865.004435 459.712198 
L 865.242097 459.429852 
L 865.489873 459.048437 
L 867.652433 456.698196 
L 867.826044 456.585216 
L 868.754782 455.58566 
L 868.876141 455.47001 
L 869.509908 454.661787 
L 869.929609 454.293897 
L 870.025686 454.182198 
L 870.647653 453.183283 
L 870.769013 453.049583 
L 870.996562 452.745364 
L 871.475258 452.35589 
L 871.716291 452.226306 
L 872.03486 452.06373 
L 872.181503 451.998321 
L 872.4967 451.852017 
L 872.682111 451.719355 
L 872.929887 451.591085 
L 873.253512 451.28984 
L 873.44735 451.14687 
L 875.522261 449.658305 
L 876.032982 449.347396 
L 876.353237 449.114261 
L 876.76114 448.892413 
L 877.000488 448.767515 
L 877.180841 448.655326 
L 877.403334 448.581407 
L 878.102837 448.21073 
L 878.407921 448.070626 
L 878.714691 447.946187 
L 879.417565 447.600953 
L 879.626573 447.518703 
L 880.248541 447.235056 
L 880.565424 447.072909 
L 880.755891 446.959949 
L 881.04412 446.792857 
L 881.85824 446.300955 
L 882.126242 446.103585 
L 882.473465 445.891434 
L 883.237019 445.3715 
L 883.503336 445.251546 
L 883.756168 445.126121 
L 884.118561 444.999741 
L 884.506237 444.819264 
L 888.467278 443.1396 
L 888.903835 442.892432 
L 889.315109 442.673743 
L 889.572998 442.521347 
L 889.711213 442.396997 
L 889.906737 442.300835 
L 890.294413 442.092564 
L 890.606239 441.988073 
L 890.973689 441.869598 
L 895.221273 440.301667 
L 896.310137 439.1238 
L 896.571398 438.719544 
L 896.719726 438.59319 
L 897.505192 438.116817 
L 897.967032 436.722168 
L 898.056366 436.580916 
L 900.488613 432.79881 
L 901.098782 432.425713 
L 901.6449 432.045344 
L 901.838738 431.722241 
L 901.975268 431.577863 
L 902.164049 431.348139 
L 902.910747 430.298967 
L 903.129869 429.813893 
L 903.291682 429.506682 
L 903.504061 429.178849 
L 903.726553 428.963474 
L 903.829372 428.794493 
L 905.316026 426.812667 
L 905.484581 426.618214 
L 905.862144 426.132677 
L 906.782454 425.372714 
L 906.913926 425.261242 
L 907.198784 425.057925 
L 907.458359 424.834292 
L 907.586461 424.722769 
L 907.805582 424.56851 
L 908.569136 424.22421 
L 908.754546 424.11506 
L 908.901189 424.015131 
L 909.38157 423.739294 
L 909.540012 423.63954 
L 913.214509 422.424558 
L 913.789281 422.228766 
L 914.55452 422.025656 
L 915.506855 421.585992 
L 916.218157 421.21247 
L 916.528298 421.084188 
L 916.937887 420.940642 
L 917.586823 420.694187 
L 917.886851 420.586394 
L 918.709399 420.332385 
L 921.52258 419.203761 
L 923.201387 418.734865 
L 923.599176 418.600197 
L 924.256541 418.411687 
L 925.997713 417.778062 
L 926.260658 417.666254 
L 926.430899 417.609249 
L 927.706859 417.003445 
L 927.951264 416.746962 
L 928.069253 416.628006 
L 929.097437 415.955759 
L 929.291276 415.836682 
L 929.712663 415.553002 
L 930.029546 415.376345 
L 930.199786 415.26493 
L 930.445877 415.166205 
L 931.147065 414.784028 
L 931.342589 414.712877 
L 931.710038 414.601817 
L 932.165137 414.285523 
L 932.401114 414.124561 
L 932.589895 414.005393 
L 932.81913 413.842682 
L 933.434355 413.510185 
L 933.683816 413.377614 
L 933.975416 413.26567 
L 934.656378 413.084077 
L 934.949664 413.004208 
L 935.301943 412.883254 
L 937.331345 412.3385 
L 937.494843 412.270111 
L 937.729134 412.100527 
L 938.042646 411.9476 
L 938.927559 411.476963 
L 939.364117 410.973801 
L 939.519187 410.813755 
L 940.872683 409.759233 
L 941.396889 409.4723 
L 941.710401 409.308612 
L 941.885698 409.198983 
L 942.216066 408.99514 
L 943.851048 408.554949 
L 944.167931 408.428038 
L 944.621344 408.203372 
L 945.248368 408.00763 
L 945.526484 407.860508 
L 948.248646 406.744528 
L 948.673404 406.488487 
L 948.912752 406.34241 
L 949.280202 406.098406 
L 949.576858 405.683048 
L 949.683048 405.572912 
L 950.28816 404.828058 
L 950.68595 404.319612 
L 951.702336 403.224054 
L 952.189459 402.897446 
L 952.634444 402.506323 
L 953.692969 401.96261 
L 953.917147 401.793479 
L 954.641933 401.571069 
L 955.182994 401.282728 
L 955.634722 401.096585 
L 956.032511 400.869862 
L 956.293771 400.73535 
L 956.544918 400.623199 
L 956.853374 400.488443 
L 957.298358 400.375685 
L 957.589958 400.25811 
L 958.220354 400.04353 
L 958.43779 399.975695 
L 958.916486 399.806038 
L 959.122123 399.560601 
L 959.250224 399.440493 
L 959.516541 399.120156 
L 959.883991 398.775374 
L 960.113225 398.600812 
L 960.273353 398.469525 
L 960.435165 398.351478 
L 960.718338 398.13563 
L 960.91049 397.995925 
L 962.478051 396.702529 
L 962.719084 396.578329 
L 963.924252 396.038827 
L 964.241135 395.893326 
L 964.419803 395.788208 
L 964.657466 395.695504 
L 965.286175 395.45914 
L 966.31436 393.677182 
L 966.454261 393.563618 
L 966.718892 393.306049 
L 966.848679 393.196433 
L 967.015549 393.126364 
L 967.318948 392.972992 
L 967.590321 392.837374 
L 967.988111 392.581805 
L 968.274654 392.457505 
L 969.781535 391.522865 
L 970.202922 391.313142 
L 970.38159 391.111115 
L 970.546774 390.911564 
L 970.947935 390.269307 
L 971.281673 389.601867 
L 971.403033 389.409553 
L 971.628896 388.989335 
L 971.69969 388.830568 
L 971.947465 388.469397 
L 972.023315 388.360276 
L 972.410991 387.763981 
L 972.54415 387.645141 
L 972.979021 387.314188 
L 974.077999 386.541383 
L 975.694441 385.736215 
L 976.56587 385.435333 
L 977.085019 385.279546 
L 977.489551 385.142589 
L 977.804748 384.991648 
L 978.303671 384.785331 
L 978.873386 384.556147 
L 981.276979 382.975307 
L 982.713067 382.487283 
L 982.92039 382.364821 
L 983.092316 382.252937 
L 983.318179 382.048027 
L 983.687314 381.828835 
L 983.877781 381.724949 
L 984.246917 381.520504 
L 984.423899 381.405908 
L 984.604253 381.256975 
L 986.156644 379.784438 
L 986.264519 379.673583 
L 986.685906 379.291933 
L 987.191571 379.013286 
L 987.275848 378.903826 
L 987.651726 378.401801 
L 987.719148 378.282711 
L 988.059629 377.809914 
L 988.137164 377.688171 
L 988.54001 377.271769 
L 988.71025 377.072378 
L 988.961397 376.764795 
L 990.660431 375.779687 
L 990.786847 375.668573 
L 991.13407 375.347394 
L 991.96336 374.776193 
L 993.183698 374.254647 
L 993.500581 374.142362 
L 994.142775 373.792878 
L 994.503483 373.379003 
L 994.613043 373.258184 
L 995.12545 372.452783 
L 995.465931 372.283396 
L 995.651341 372.199056 
L 996.064301 371.882468 
L 996.39804 371.639398 
L 996.802571 371.25633 
L 996.98124 371.085316 
L 999.816333 368.891191 
L 1000.138273 368.750745 
L 1000.783838 368.444698 
L 1001.277704 368.271459 
L 1002.808183 367.49918 
L 1003.114953 367.232419 
L 1003.561623 366.89559 
L 1003.981325 366.509626 
L 1005.621364 365.19876 
L 1005.941618 364.917122 
L 1006.196136 364.585345 
L 1006.829903 364.113811 
L 1007.027112 363.902475 
L 1007.264774 363.591966 
L 1007.595142 363.07933 
L 1008.252506 362.471953 
L 1008.984034 362.109674 
L 1010.049301 360.838752 
L 1010.195944 360.726122 
L 1011.25784 359.73728 
L 1011.576409 359.225767 
L 1014.049109 356.103962 
L 1014.357565 355.776365 
L 1014.463754 355.665634 
L 1014.986275 355.063626 
L 1015.090779 354.953676 
L 1015.257648 354.850815 
L 1015.373951 354.719787 
L 1015.641953 354.509879 
L 1015.957151 354.282496 
L 1017.211199 353.126466 
L 1017.541567 352.74223 
L 1017.90396 352.215105 
L 1018.138251 351.700727 
L 1018.93383 350.545944 
L 1019.026536 350.431774 
L 1019.282739 350.019211 
L 1020.053035 348.936253 
L 1020.19125 348.694561 
L 1020.477793 348.243116 
L 1021.505978 346.824303 
L 1021.711615 346.484312 
L 1021.848145 346.316056 
L 1022.050411 346.094669 
L 1022.643724 345.598026 
L 1023.051627 345.255183 
L 1023.666852 344.968689 
L 1024.052843 344.815286 
L 1024.467488 344.645732 
L 1024.836623 344.496654 
L 1025.263067 344.283683 
L 1025.487245 344.173039 
L 1025.960884 343.893595 
L 1026.370473 343.655487 
L 1026.678928 343.527137 
L 1026.800288 343.4934 
L 1026.973899 343.382949 
L 1027.225046 343.128672 
L 1027.518332 343.015231 
L 1028.849915 342.240809 
L 1029.657293 342.032234 
L 1029.841018 341.764193 
L 1030.021372 341.398783 
L 1030.15453 341.286626 
L 1030.398935 340.718078 
L 1030.724246 340.159137 
L 1030.832121 339.926415 
L 1031.273735 338.312262 
L 1031.735575 337.307024 
L 1031.882218 337.034484 
L 1032.33226 335.95686 
L 1032.524412 335.738264 
L 1032.807585 334.947533 
L 1032.841296 334.841551 
L 1033.173349 333.876454 
L 1034.031293 331.765096 
L 1034.434139 330.907139 
L 1034.772935 330.090605 
L 1034.872382 329.886839 
L 1035.103302 329.583013 
L 1036.458484 327.710066 
L 1036.654008 327.603623 
L 1036.783795 327.534035 
L 1036.879871 327.422629 
L 1037.281032 326.967397 
L 1037.360253 326.830933 
L 1037.555776 326.567306 
L 1037.626569 326.453544 
L 1037.978849 325.840586 
L 1038.071554 325.728608 
L 1038.353041 325.141961 
L 1038.459231 325.025607 
L 1038.599131 324.856403 
L 1039.012091 324.164711 
L 1039.114909 324.057369 
L 1039.296948 323.795976 
L 1039.863293 323.49981 
L 1040.090842 323.359373 
L 1040.433008 322.998868 
L 1040.653815 322.875655 
L 1041.304437 322.419373 
L 1041.813473 321.467696 
L 1042.137099 320.483239 
L 1042.46241 319.927748 
L 1042.669732 319.453811 
L 1042.720299 319.346121 
L 1042.885482 319.088676 
L 1043.074264 318.65951 
L 1043.487223 317.690188 
L 1043.573186 317.559961 
L 1044.356967 316.030512 
L 1044.464842 315.887788 
L 1044.832291 315.540158 
L 1045.253679 315.240573 
L 1045.423919 314.972951 
L 1045.536851 314.839663 
L 1046.354342 313.739659 
L 1046.421764 313.62549 
L 1046.753817 313.108777 
L 1047.057216 312.799002 
L 1047.141494 312.669619 
L 1047.429723 312.376473 
L 1047.557824 312.246609 
L 1049.024252 310.912072 
L 1049.154039 310.796454 
L 1052.336356 307.688899 
L 1052.634698 307.077039 
L 1052.715604 306.878195 
L 1053.012261 306.195809 
L 1053.31566 305.722004 
L 1053.632543 305.427806 
L 1054.596677 304.817514 
L 1055.827128 304.091591 
L 1056.115357 303.965232 
L 1056.268742 303.834611 
L 1056.710356 303.652267 
L 1056.848571 303.535451 
L 1057.130057 303.193407 
L 1060.85175 299.801661 
L 1061.45012 299.331657 
L 1061.687782 299.084971 
L 1061.900161 298.948541 
L 1062.12771 298.742904 
L 1062.72608 298.072365 
L 1063.07836 297.80187 
L 1063.43064 297.502799 
L 1063.516603 297.391501 
L 1064.79762 296.316328 
L 1067.470901 294.713253 
L 1067.718676 294.479674 
L 1067.885546 294.344823 
L 1068.488972 293.78949 
L 1068.69798 293.6047 
L 1069.73965 292.744021 
L 1069.962142 292.542565 
L 1070.634676 292.173957 
L 1070.874024 292.05905 
L 1071.241474 291.909652 
L 1071.696572 291.720094 
L 1072.096047 291.518355 
L 1072.571372 291.377633 
L 1074.373224 289.517328 
L 1074.797982 289.36025 
L 1075.045758 288.934707 
L 1075.566593 288.573434 
L 1075.736833 288.443868 
L 1075.853136 288.33275 
L 1076.706024 287.424147 
L 1077.884223 285.504138 
L 1078.066262 285.345677 
L 1078.863527 284.334127 
L 1079.08939 284.220919 
L 1079.677647 282.873764 
L 1079.765295 282.766235 
L 1080.004643 282.421304 
L 1080.122632 282.197145 
L 1080.34681 281.896325 
L 1080.545705 281.765414 
L 1082.382953 279.960542 
L 1082.556565 279.847144 
L 1083.805557 278.740637 
L 1084.430895 278.424149 
L 1084.611249 278.333307 
L 1084.778118 278.205043 
L 1085.036007 277.982591 
L 1085.344463 277.778182 
L 1085.578754 277.559415 
L 1085.81136 277.320324 
L 1086.229376 276.729355 
L 1087.040125 276.116675 
L 1087.244077 275.850646 
L 1087.316555 275.738768 
L 1087.520507 275.522442 
L 1087.778396 275.289583 
L 1088.206525 275.046018 
L 1088.417219 274.915397 
L 1088.777926 274.672307 
L 1089.142005 274.520536 
L 1089.362812 274.415857 
L 1089.684752 274.302616 
L 1089.934213 274.208244 
L 1090.20053 274.09365 
L 1090.728106 273.84102 
L 1090.9388 273.734854 
L 1091.631561 273.412662 
L 1091.951815 273.256504 
L 1092.202962 273.175916 
L 1092.94966 272.987282 
L 1094.444742 272.603484 
L 1094.771739 272.437859 
L 1095.353253 272.296088 
L 1095.725759 272.184617 
L 1096.164002 272.006449 
L 1096.957896 271.701527 
L 1097.193873 271.558808 
L 1097.446705 271.35261 
L 1097.707965 271.161603 
L 1097.829325 271.051609 
L 1098.097327 270.863226 
L 1098.377128 270.675045 
L 1098.813685 270.383651 
L 1099.351375 270.042524 
L 1100.003683 269.584689 
L 1100.509348 269.354635 
L 1100.836344 269.213409 
L 1101.294813 269.100202 
L 1101.468425 269.073413 
L 1101.785308 268.961612 
L 1105.840739 267.439313 
L 1106.766106 267.209355 
L 1107.054334 266.995576 
L 1108.679204 265.993893 
L 1108.891583 265.880249 
L 1109.326455 265.662717 
L 1109.852346 265.413025 
L 1110.160801 265.270702 
L 1110.470942 265.157133 
L 1110.814794 265.017658 
L 1110.995148 264.904442 
L 1111.187301 264.547183 
L 1111.362598 264.379028 
L 1111.900288 264.062744 
L 1112.239083 263.863543 
L 1112.962184 263.595457 
L 1113.257155 263.405745 
L 1113.675171 263.199212 
L 1113.884179 263.079885 
L 1114.126898 262.827144 
L 1114.406699 262.621564 
L 1114.598852 262.47296 
L 1114.794376 262.30035 
L 1115.180366 261.857462 
L 1115.372519 261.697223 
L 1115.601754 261.479021 
L 1115.782107 261.36396 
L 1116.102362 261.157667 
L 1116.282716 260.963357 
L 1116.613083 260.652356 
L 1116.768154 260.51168 
L 1117.007502 260.31218 
L 1117.150773 260.197353 
L 1117.528336 260.031727 
L 1117.934554 259.87937 
L 1118.157046 259.768432 
L 1118.428419 259.655973 
L 1119.10601 259.186678 
L 1119.375698 259.061712 
L 1119.616732 258.926173 
L 1119.883048 258.793707 
L 1120.505016 258.526099 
L 1120.751106 258.414106 
L 1121.636019 257.904008 
L 1121.90065 257.789632 
L 1122.271471 257.492718 
L 1122.692859 257.203351 
L 1123.070422 257.017066 
L 1123.37382 256.777789 
L 1123.820491 256.601301 
L 1124.35481 256.39126 
L 1124.605957 256.276139 
L 1124.860475 256.165006 
L 1125.111621 256.019101 
L 1125.529638 255.905582 
L 1126.707836 255.047221 
L 1127.277552 254.811355 
L 1127.987168 254.532918 
L 1128.398442 254.233664 
L 1128.619249 253.956764 
L 1128.787804 253.7607 
L 1129.214248 253.326254 
L 1129.435055 253.23529 
L 1130.584599 252.725537 
L 1130.83406 252.617008 
L 1131.108805 252.06488 
L 1131.179598 251.928002 
L 1131.482997 251.417006 
L 1132.003831 250.604472 
L 1132.226324 250.218201 
L 1132.349369 249.910378 
L 1132.55332 249.581488 
L 1132.72019 249.248047 
L 1133.053929 248.717914 
L 1133.193829 248.597015 
L 1133.674211 248.075062 
L 1133.755117 247.963518 
L 1135.02265 246.847998 
L 1135.251884 246.474106 
L 1135.420439 246.271269 
L 1135.661473 245.844158 
L 1136.000268 245.375557 
L 1136.312095 245.02945 
L 1136.637406 244.670883 
L 1136.996428 244.374029 
L 1137.21892 244.245767 
L 1137.406016 244.124659 
L 1138.113947 243.351161 
L 1138.35498 242.959755 
L 1138.570731 242.667335 
L 1138.845475 242.231597 
L 1139.049426 241.950369 
L 1139.250007 241.724674 
L 1139.453958 241.445854 
L 1139.666337 241.307165 
L 1140.138291 240.946138 
L 1140.714749 240.39957 
L 1141.303006 240.09913 
L 1142.216573 239.491461 
L 1142.396927 239.38016 
L 1143.607151 238.355449 
L 1143.89538 238.036336 
L 1144.026853 237.923172 
L 1144.215634 237.712232 
L 1144.98593 237.070694 
L 1145.228649 236.937141 
L 1145.749484 236.718737 
L 1146.12199 236.541025 
L 1146.786097 235.979009 
L 1147.28839 235.621927 
L 1147.635613 235.304976 
L 1147.837879 235.173482 
L 1148.400853 234.923145 
L 1148.618288 234.811999 
L 1148.754818 234.783044 
L 1149.011021 234.663959 
L 1149.366672 234.489808 
L 1149.471176 234.379244 
L 1150.738709 233.670898 
L 1151.00334 233.558068 
L 1151.178637 233.512668 
L 1151.852857 233.236988 
L 1152.117488 233.073982 
L 1152.252332 232.961687 
L 1152.626524 232.635216 
L 1153.484468 231.711736 
L 1153.622684 231.598423 
L 1153.830006 231.491695 
L 1155.405994 230.931402 
L 1155.727934 230.81574 
L 1155.997622 230.721547 
L 1156.198202 230.608611 
L 1157.21796 229.959084 
L 1157.499446 229.743914 
L 1157.696656 229.6445 
L 1158.635506 229.320041 
L 1158.974302 229.022021 
L 1160.599171 227.406039 
L 1160.873915 226.777981 
L 1160.943023 226.606125 
L 1161.366096 225.772274 
L 1161.482399 225.621419 
L 1161.789169 225.18363 
L 1163.321333 223.240568 
L 1163.454491 223.056885 
L 1163.700581 222.740965 
L 1164.288838 221.804118 
L 1165.861455 220.906675 
L 1166.114287 220.673684 
L 1166.318239 220.557398 
L 1166.544102 220.371599 
L 1166.668833 220.262058 
L 1166.887954 220.047328 
L 1167.627911 219.270441 
L 1168.106606 218.996228 
L 1168.278532 218.898668 
L 1168.635869 218.725764 
L 1168.964551 218.552717 
L 1170.009591 217.706923 
L 1170.191631 217.479832 
L 1170.58942 216.942931 
L 1170.717522 216.79017 
L 1171.103513 216.347653 
L 1171.272068 216.224586 
L 1171.496246 216.017578 
L 1172.059219 215.694607 
L 1172.482292 215.517886 
L 1172.70647 215.389557 
L 1173.738026 214.810342 
L 1174.248747 214.510345 
L 1174.99376 214.181903 
L 1175.207825 214.086294 
L 1176.736618 213.543009 
L 1177.313075 213.328812 
L 1177.562537 213.197905 
L 1178.251926 212.925846 
L 1178.762648 211.993997 
L 1178.943001 211.761187 
L 1179.071103 211.457876 
L 1179.275054 211.088612 
L 1180.168395 209.313833 
L 1180.385831 209.017409 
L 1180.564499 208.845138 
L 1181.203323 207.263487 
L 1181.402217 207.087558 
L 1182.336011 206.148134 
L 1182.66975 206.017094 
L 1183.394536 205.373153 
L 1183.547921 205.203505 
L 1183.883346 204.830032 
L 1184.053586 204.652526 
L 1184.232254 204.482733 
L 1184.458118 204.280244 
L 1185.364943 203.764481 
L 1185.803186 203.441672 
L 1185.981854 203.331488 
L 1186.195919 203.169609 
L 1186.393128 203.012639 
L 1186.742037 202.779206 
L 1187.13477 202.644748 
L 1187.401086 202.51671 
L 1187.87304 202.272746 
L 1188.033167 202.161035 
L 1188.339937 201.938288 
L 1188.645022 201.689226 
L 1188.955163 201.491107 
L 1189.172598 201.385213 
L 1190.389565 200.681662 
L 1190.839606 200.329862 
L 1191.508769 200.007504 
L 1191.852621 199.890568 
L 1192.735849 199.236835 
L 1193.131953 199.000402 
L 1193.561768 198.822597 
L 1193.780889 198.70601 
L 1196.831733 197.218546 
L 1197.217724 197.044895 
L 1197.844748 196.783523 
L 1198.126235 196.658409 
L 1198.544251 196.510655 
L 1199.555581 196.098245 
L 1199.853923 195.988006 
L 1200.116868 195.858047 
L 1201.128198 195.562823 
L 1201.53273 195.374603 
L 1201.723197 195.257558 
L 1201.952431 195.180297 
L 1203.108718 194.824254 
L 1203.619439 194.7037 
L 1204.63414 194.383441 
L 1205.008332 194.245601 
L 1205.330272 194.13173 
L 1205.572991 194.038638 
L 1205.994378 193.896222 
L 1207.116954 193.419571 
L 1207.304049 193.328621 
L 1207.801286 193.114375 
L 1208.067603 193.033481 
L 1208.274926 192.921913 
L 1208.458651 192.828561 
L 1208.706426 192.68948 
L 1209.038479 192.570164 
L 1209.262657 192.475033 
L 1209.421099 192.361567 
L 1209.798662 192.042822 
L 1210.066664 191.702543 
L 1211.769069 189.858033 
L 1212.384294 189.589957 
L 1212.63207 189.277436 
L 1212.98435 188.937154 
L 1213.837238 188.409207 
L 1214.002421 188.307364 
L 1214.297392 188.167934 
L 1214.469318 188.102315 
L 1218.337654 185.866078 
L 1219.166944 185.593687 
L 1219.999605 185.359865 
L 1220.913172 185.047851 
L 1224.658462 183.737202 
L 1225.116932 183.600315 
L 1225.304028 183.504891 
L 1225.681591 183.260566 
L 1226.035556 183.073955 
L 1226.50751 182.938122 
L 1226.782254 182.846739 
L 1227.515468 182.647287 
L 1228.078441 182.453435 
L 1228.235198 182.274448 
L 1228.481288 181.74957 
L 1229.012236 180.522754 
L 1229.21113 180.232509 
L 1229.384742 179.884546 
L 1229.635889 179.390729 
L 1230.040421 178.704225 
L 1230.112899 178.595321 
L 1230.576425 177.908799 
L 1230.701156 177.786844 
L 1231.016353 177.340997 
L 1231.351778 177.127776 
L 1233.735144 175.756506 
L 1233.92224 175.513282 
L 1234.02843 175.384412 
L 1234.325086 175.114287 
L 1234.493641 174.988409 
L 1234.667253 174.820153 
L 1235.068413 174.587834 
L 1235.33473 174.459535 
L 1235.739262 174.226061 
L 1236.088171 174.127316 
L 1237.283225 173.796424 
L 1239.154184 173.172389 
L 1239.811548 172.772631 
L 1240.086293 172.579732 
L 1240.586901 172.021262 
L 1240.81445 171.903475 
L 1241.068968 171.705745 
L 1241.281347 171.558725 
L 1241.461701 171.425825 
L 1241.894887 171.233996 
L 1242.267393 171.022989 
L 1242.47303 170.772379 
L 1242.793285 170.50528 
L 1243.000607 170.309207 
L 1243.245012 170.026796 
L 1244.490633 168.480634 
L 1244.810887 168.006904 
L 1245.272727 167.4 
L 1245.272727 167.4 
" clip-path="url(#pf52fbcf752)" style="fill: none; stroke: #ff0000; stroke-width: 1.5; stroke-linecap: square"/>
   </g>
   <g id="patch_3">
    <path d="M 180 961.2 
L 180 129.6 
" style="fill: none; stroke: #000000; stroke-width: 0.8; stroke-linejoin: miter; stroke-linecap: square"/>
   </g>
   <g id="patch_4">
    <path d="M 1296 961.2 
L 1296 129.6 
" style="fill: none; stroke: #000000; stroke-width: 0.8; stroke-linejoin: miter; stroke-linecap: square"/>
   </g>
   <g id="patch_5">
    <path d="M 180 961.2 
L 1296 961.2 
" style="fill: none; stroke: #000000; stroke-width: 0.8; stroke-linejoin: miter; stroke-linecap: square"/>
   </g>
   <g id="patch_6">
    <path d="M 180 129.6 
L 1296 129.6 
" style="fill: none; stroke: #000000; stroke-width: 0.8; stroke-linejoin: miter; stroke-linecap: square"/>
   </g>
   <g id="legend_1">
    <g id="patch_7">
     <path d="M 1131.645313 152.278125 
L 1289 152.278125 
Q 1291 152.278125 1291 150.278125 
L 1291 136.6 
Q 1291 134.6 1289 134.6 
L 1131.645313 134.6 
Q 1129.645313 134.6 1129.645313 136.6 
L 1129.645313 150.278125 
Q 1129.645313 152.278125 1131.645313 152.278125 
z
" style="fill: #ffffff; opacity: 0.8; stroke: #cccccc; stroke-linejoin: miter"/>
    </g>
    <g id="line2d_15">
     <path d="M 1133.645313 142.698438 
L 1143.645313 142.698438 
L 1153.645313 142.698438 
" style="fill: none; stroke: #ff0000; stroke-width: 1.5; stroke-linecap: square"/>
    </g>
    <g id="text_13">
     <!-- Board Time U3 (minutes) -->
     <g transform="translate(1161.645313 146.198438) scale(0.1 -0.1)">
      <defs>
       <path id="DejaVuSans-42" d="M 1259 2228 
L 1259 519 
L 2272 519 
Q 2781 519 3026 730 
Q 3272 941 3272 1375 
Q 3272 1813 3026 2020 
Q 2781 2228 2272 2228 
L 1259 2228 
z
M 1259 4147 
L 1259 2741 
L 2194 2741 
Q 2656 2741 2882 2914 
Q 3109 3088 3109 3444 
Q 3109 3797 2882 3972 
Q 2656 4147 2194 4147 
L 1259 4147 
z
M 628 4666 
L 2241 4666 
Q 2963 4666 3353 4366 
Q 3744 4066 3744 3513 
Q 3744 3084 3544 2831 
Q 3344 2578 2956 2516 
Q 3422 2416 3680 2098 
Q 3938 1781 3938 1306 
Q 3938 681 3513 340 
Q 3088 0 2303 0 
L 628 0 
L 628 4666 
z
" transform="scale(0.015625)"/>
       <path id="DejaVuSans-6f" d="M 1959 3097 
Q 1497 3097 1228 2736 
Q 959 2375 959 1747 
Q 959 1119 1226 758 
Q 1494 397 1959 397 
Q 2419 397 2687 759 
Q 2956 1122 2956 1747 
Q 2956 2369 2687 2733 
Q 2419 3097 1959 3097 
z
M 1959 3584 
Q 2709 3584 3137 3096 
Q 3566 2609 3566 1747 
Q 3566 888 3137 398 
Q 2709 -91 1959 -91 
Q 1206 -91 779 398 
Q 353 888 353 1747 
Q 353 2609 779 3096 
Q 1206 3584 1959 3584 
z
" transform="scale(0.015625)"/>
       <path id="DejaVuSans-61" d="M 2194 1759 
Q 1497 1759 1228 1600 
Q 959 1441 959 1056 
Q 959 750 1161 570 
Q 1363 391 1709 391 
Q 2188 391 2477 730 
Q 2766 1069 2766 1631 
L 2766 1759 
L 2194 1759 
z
M 3341 1997 
L 3341 0 
L 2766 0 
L 2766 531 
Q 2569 213 2275 61 
Q 1981 -91 1556 -91 
Q 1019 -91 701 211 
Q 384 513 384 1019 
Q 384 1609 779 1909 
Q 1175 2209 1959 2209 
L 2766 2209 
L 2766 2266 
Q 2766 2663 2505 2880 
Q 2244 3097 1772 3097 
Q 1472 3097 1187 3025 
Q 903 2953 641 2809 
L 641 3341 
Q 956 3463 1253 3523 
Q 1550 3584 1831 3584 
Q 2591 3584 2966 3190 
Q 3341 2797 3341 1997 
z
" transform="scale(0.015625)"/>
       <path id="DejaVuSans-72" d="M 2631 2963 
Q 2534 3019 2420 3045 
Q 2306 3072 2169 3072 
Q 1681 3072 1420 2755 
Q 1159 2438 1159 1844 
L 1159 0 
L 581 0 
L 581 3500 
L 1159 3500 
L 1159 2956 
Q 1341 3275 1631 3429 
Q 1922 3584 2338 3584 
Q 2397 3584 2469 3576 
Q 2541 3569 2628 3553 
L 2631 2963 
z
" transform="scale(0.015625)"/>
       <path id="DejaVuSans-64" d="M 2906 2969 
L 2906 4863 
L 3481 4863 
L 3481 0 
L 2906 0 
L 2906 525 
Q 2725 213 2448 61 
Q 2172 -91 1784 -91 
Q 1150 -91 751 415 
Q 353 922 353 1747 
Q 353 2572 751 3078 
Q 1150 3584 1784 3584 
Q 2172 3584 2448 3432 
Q 2725 3281 2906 2969 
z
M 947 1747 
Q 947 1113 1208 752 
Q 1469 391 1925 391 
Q 2381 391 2643 752 
Q 2906 1113 2906 1747 
Q 2906 2381 2643 2742 
Q 2381 3103 1925 3103 
Q 1469 3103 1208 2742 
Q 947 2381 947 1747 
z
" transform="scale(0.015625)"/>
       <path id="DejaVuSans-20" transform="scale(0.015625)"/>
       <path id="DejaVuSans-54" d="M -19 4666 
L 3928 4666 
L 3928 4134 
L 2272 4134 
L 2272 0 
L 1638 0 
L 1638 4134 
L -19 4134 
L -19 4666 
z
" transform="scale(0.015625)"/>
       <path id="DejaVuSans-69" d="M 603 3500 
L 1178 3500 
L 1178 0 
L 603 0 
L 603 3500 
z
M 603 4863 
L 1178 4863 
L 1178 4134 
L 603 4134 
L 603 4863 
z
" transform="scale(0.015625)"/>
       <path id="DejaVuSans-6d" d="M 3328 2828 
Q 3544 3216 3844 3400 
Q 4144 3584 4550 3584 
Q 5097 3584 5394 3201 
Q 5691 2819 5691 2113 
L 5691 0 
L 5113 0 
L 5113 2094 
Q 5113 2597 4934 2840 
Q 4756 3084 4391 3084 
Q 3944 3084 3684 2787 
Q 3425 2491 3425 1978 
L 3425 0 
L 2847 0 
L 2847 2094 
Q 2847 2600 2669 2842 
Q 2491 3084 2119 3084 
Q 1678 3084 1418 2786 
Q 1159 2488 1159 1978 
L 1159 0 
L 581 0 
L 581 3500 
L 1159 3500 
L 1159 2956 
Q 1356 3278 1631 3431 
Q 1906 3584 2284 3584 
Q 2666 3584 2933 3390 
Q 3200 3197 3328 2828 
z
" transform="scale(0.015625)"/>
       <path id="DejaVuSans-65" d="M 3597 1894 
L 3597 1613 
L 953 1613 
Q 991 1019 1311 708 
Q 1631 397 2203 397 
Q 2534 397 2845 478 
Q 3156 559 3463 722 
L 3463 178 
Q 3153 47 2828 -22 
Q 2503 -91 2169 -91 
Q 1331 -91 842 396 
Q 353 884 353 1716 
Q 353 2575 817 3079 
Q 1281 3584 2069 3584 
Q 2775 3584 3186 3129 
Q 3597 2675 3597 1894 
z
M 3022 2063 
Q 3016 2534 2758 2815 
Q 2500 3097 2075 3097 
Q 1594 3097 1305 2825 
Q 1016 2553 972 2059 
L 3022 2063 
z
" transform="scale(0.015625)"/>
       <path id="DejaVuSans-55" d="M 556 4666 
L 1191 4666 
L 1191 1831 
Q 1191 1081 1462 751 
Q 1734 422 2344 422 
Q 2950 422 3222 751 
Q 3494 1081 3494 1831 
L 3494 4666 
L 4128 4666 
L 4128 1753 
Q 4128 841 3676 375 
Q 3225 -91 2344 -91 
Q 1459 -91 1007 375 
Q 556 841 556 1753 
L 556 4666 
z
" transform="scale(0.015625)"/>
       <path id="DejaVuSans-33" d="M 2597 2516 
Q 3050 2419 3304 2112 
Q 3559 1806 3559 1356 
Q 3559 666 3084 287 
Q 2609 -91 1734 -91 
Q 1441 -91 1130 -33 
Q 819 25 488 141 
L 488 750 
Q 750 597 1062 519 
Q 1375 441 1716 441 
Q 2309 441 2620 675 
Q 2931 909 2931 1356 
Q 2931 1769 2642 2001 
Q 2353 2234 1838 2234 
L 1294 2234 
L 1294 2753 
L 1863 2753 
Q 2328 2753 2575 2939 
Q 2822 3125 2822 3475 
Q 2822 3834 2567 4026 
Q 2313 4219 1838 4219 
Q 1578 4219 1281 4162 
Q 984 4106 628 3988 
L 628 4550 
Q 988 4650 1302 4700 
Q 1616 4750 1894 4750 
Q 2613 4750 3031 4423 
Q 3450 4097 3450 3541 
Q 3450 3153 3228 2886 
Q 3006 2619 2597 2516 
z
" transform="scale(0.015625)"/>
       <path id="DejaVuSans-28" d="M 1984 4856 
Q 1566 4138 1362 3434 
Q 1159 2731 1159 2009 
Q 1159 1288 1364 580 
Q 1569 -128 1984 -844 
L 1484 -844 
Q 1016 -109 783 600 
Q 550 1309 550 2009 
Q 550 2706 781 3412 
Q 1013 4119 1484 4856 
L 1984 4856 
z
" transform="scale(0.015625)"/>
       <path id="DejaVuSans-6e" d="M 3513 2113 
L 3513 0 
L 2938 0 
L 2938 2094 
Q 2938 2591 2744 2837 
Q 2550 3084 2163 3084 
Q 1697 3084 1428 2787 
Q 1159 2491 1159 1978 
L 1159 0 
L 581 0 
L 581 3500 
L 1159 3500 
L 1159 2956 
Q 1366 3272 1645 3428 
Q 1925 3584 2291 3584 
Q 2894 3584 3203 3211 
Q 3513 2838 3513 2113 
z
" transform="scale(0.015625)"/>
       <path id="DejaVuSans-75" d="M 544 1381 
L 544 3500 
L 1119 3500 
L 1119 1403 
Q 1119 906 1312 657 
Q 1506 409 1894 409 
Q 2359 409 2629 706 
Q 2900 1003 2900 1516 
L 2900 3500 
L 3475 3500 
L 3475 0 
L 2900 0 
L 2900 538 
Q 2691 219 2414 64 
Q 2138 -91 1772 -91 
Q 1169 -91 856 284 
Q 544 659 544 1381 
z
M 1991 3584 
L 1991 3584 
z
" transform="scale(0.015625)"/>
       <path id="DejaVuSans-74" d="M 1172 4494 
L 1172 3500 
L 2356 3500 
L 2356 3053 
L 1172 3053 
L 1172 1153 
Q 1172 725 1289 603 
Q 1406 481 1766 481 
L 2356 481 
L 2356 0 
L 1766 0 
Q 1100 0 847 248 
Q 594 497 594 1153 
L 594 3053 
L 172 3053 
L 172 3500 
L 594 3500 
L 594 4494 
L 1172 4494 
z
" transform="scale(0.015625)"/>
       <path id="DejaVuSans-73" d="M 2834 3397 
L 2834 2853 
Q 2591 2978 2328 3040 
Q 2066 3103 1784 3103 
Q 1356 3103 1142 2972 
Q 928 2841 928 2578 
Q 928 2378 1081 2264 
Q 1234 2150 1697 2047 
L 1894 2003 
Q 2506 1872 2764 1633 
Q 3022 1394 3022 966 
Q 3022 478 2636 193 
Q 2250 -91 1575 -91 
Q 1294 -91 989 -36 
Q 684 19 347 128 
L 347 722 
Q 666 556 975 473 
Q 1284 391 1588 391 
Q 1994 391 2212 530 
Q 2431 669 2431 922 
Q 2431 1156 2273 1281 
Q 2116 1406 1581 1522 
L 1381 1569 
Q 847 1681 609 1914 
Q 372 2147 372 2553 
Q 372 3047 722 3315 
Q 1072 3584 1716 3584 
Q 2034 3584 2315 3537 
Q 2597 3491 2834 3397 
z
" transform="scale(0.015625)"/>
       <path id="DejaVuSans-29" d="M 513 4856 
L 1013 4856 
Q 1481 4119 1714 3412 
Q 1947 2706 1947 2009 
Q 1947 1309 1714 600 
Q 1481 -109 1013 -844 
L 513 -844 
Q 928 -128 1133 580 
Q 1338 1288 1338 2009 
Q 1338 2731 1133 3434 
Q 928 4138 513 4856 
z
" transform="scale(0.015625)"/>
      </defs>
      <use xlink:href="#DejaVuSans-42"/>
      <use xlink:href="#DejaVuSans-6f" transform="translate(68.603516 0)"/>
      <use xlink:href="#DejaVuSans-61" transform="translate(129.785156 0)"/>
      <use xlink:href="#DejaVuSans-72" transform="translate(191.064453 0)"/>
      <use xlink:href="#DejaVuSans-64" transform="translate(230.427734 0)"/>
      <use xlink:href="#DejaVuSans-20" transform="translate(293.904297 0)"/>
      <use xlink:href="#DejaVuSans-54" transform="translate(325.691406 0)"/>
      <use xlink:href="#DejaVuSans-69" transform="translate(383.650391 0)"/>
      <use xlink:href="#DejaVuSans-6d" transform="translate(411.433594 0)"/>
      <use xlink:href="#DejaVuSans-65" transform="translate(508.845703 0)"/>
      <use xlink:href="#DejaVuSans-20" transform="translate(570.369141 0)"/>
      <use xlink:href="#DejaVuSans-55" transform="translate(602.15625 0)"/>
      <use xlink:href="#DejaVuSans-33" transform="translate(675.349609 0)"/>
      <use xlink:href="#DejaVuSans-20" transform="translate(738.972656 0)"/>
      <use xlink:href="#DejaVuSans-28" transform="translate(770.759766 0)"/>
      <use xlink:href="#DejaVuSans-6d" transform="translate(809.773438 0)"/>
      <use xlink:href="#DejaVuSans-69" transform="translate(907.185547 0)"/>
      <use xlink:href="#DejaVuSans-6e" transform="translate(934.96875 0)"/>
      <use xlink:href="#DejaVuSans-75" transform="translate(998.347656 0)"/>
      <use xlink:href="#DejaVuSans-74" transform="translate(1061.726562 0)"/>
      <use xlink:href="#DejaVuSans-65" transform="translate(1100.935547 0)"/>
      <use xlink:href="#DejaVuSans-73" transform="translate(1162.458984 0)"/>
      <use xlink:href="#DejaVuSans-29" transform="translate(1214.558594 0)"/>
     </g>
    </g>
   </g>
  </g>
 </g>
 <defs>
  <clipPath id="pf52fbcf752">
   <rect x="180" y="129.6" width="1116" height="831.6"/>
  </clipPath>
 </defs>
</svg>
