<?xml version="1.0" encoding="utf-8" standalone="no"?>
<!DOCTYPE svg PUBLIC "-//W3C//DTD SVG 1.1//EN"
  "http://www.w3.org/Graphics/SVG/1.1/DTD/svg11.dtd">
<svg xmlns:xlink="http://www.w3.org/1999/xlink" width="1440pt" height="1080pt" viewBox="0 0 1440 1080" xmlns="http://www.w3.org/2000/svg" version="1.1">
 <metadata>
  <rdf:RDF xmlns:dc="http://purl.org/dc/elements/1.1/" xmlns:cc="http://creativecommons.org/ns#" xmlns:rdf="http://www.w3.org/1999/02/22-rdf-syntax-ns#">
   <cc:Work>
    <dc:type rdf:resource="http://purl.org/dc/dcmitype/StillImage"/>
    <dc:date>2025-07-14T18:08:09.024859</dc:date>
    <dc:format>image/svg+xml</dc:format>
    <dc:creator>
     <cc:Agent>
      <dc:title>Matplotlib v3.10.3, https://matplotlib.org/</dc:title>
     </cc:Agent>
    </dc:creator>
   </cc:Work>
  </rdf:RDF>
 </metadata>
 <defs>
  <style type="text/css">*{stroke-linejoin: round; stroke-linecap: butt}</style>
 </defs>
 <g id="figure_1">
  <g id="patch_1">
   <path d="M 0 1080 
L 1440 1080 
L 1440 0 
L 0 0 
z
" style="fill: #ffffff"/>
  </g>
  <g id="axes_1">
   <g id="patch_2">
    <path d="M 180 961.2 
L 1296 961.2 
L 1296 129.6 
L 180 129.6 
z
" style="fill: #ffffff"/>
   </g>
   <g id="matplotlib.axis_1">
    <g id="xtick_1">
     <g id="line2d_1">
      <defs>
       <path id="mcdb2df70a4" d="M 0 0 
L 0 3.5 
" style="stroke: #000000; stroke-width: 0.8"/>
      </defs>
      <g>
       <use xlink:href="#mcdb2df70a4" x="230.727273" y="961.2" style="stroke: #000000; stroke-width: 0.8"/>
      </g>
     </g>
     <g id="text_1">
      <!-- 0.0 -->
      <g transform="translate(222.77571 975.798437) scale(0.1 -0.1)">
       <defs>
        <path id="DejaVuSans-30" d="M 2034 4250 
Q 1547 4250 1301 3770 
Q 1056 3291 1056 2328 
Q 1056 1369 1301 889 
Q 1547 409 2034 409 
Q 2525 409 2770 889 
Q 3016 1369 3016 2328 
Q 3016 3291 2770 3770 
Q 2525 4250 2034 4250 
z
M 2034 4750 
Q 2819 4750 3233 4129 
Q 3647 3509 3647 2328 
Q 3647 1150 3233 529 
Q 2819 -91 2034 -91 
Q 1250 -91 836 529 
Q 422 1150 422 2328 
Q 422 3509 836 4129 
Q 1250 4750 2034 4750 
z
" transform="scale(0.015625)"/>
        <path id="DejaVuSans-2e" d="M 684 794 
L 1344 794 
L 1344 0 
L 684 0 
L 684 794 
z
" transform="scale(0.015625)"/>
       </defs>
       <use xlink:href="#DejaVuSans-30"/>
       <use xlink:href="#DejaVuSans-2e" transform="translate(63.623047 0)"/>
       <use xlink:href="#DejaVuSans-30" transform="translate(95.410156 0)"/>
      </g>
     </g>
    </g>
    <g id="xtick_2">
     <g id="line2d_2">
      <g>
       <use xlink:href="#mcdb2df70a4" x="433.636716" y="961.2" style="stroke: #000000; stroke-width: 0.8"/>
      </g>
     </g>
     <g id="text_2">
      <!-- 0.2 -->
      <g transform="translate(425.685153 975.798437) scale(0.1 -0.1)">
       <defs>
        <path id="DejaVuSans-32" d="M 1228 531 
L 3431 531 
L 3431 0 
L 469 0 
L 469 531 
Q 828 903 1448 1529 
Q 2069 2156 2228 2338 
Q 2531 2678 2651 2914 
Q 2772 3150 2772 3378 
Q 2772 3750 2511 3984 
Q 2250 4219 1831 4219 
Q 1534 4219 1204 4116 
Q 875 4013 500 3803 
L 500 4441 
Q 881 4594 1212 4672 
Q 1544 4750 1819 4750 
Q 2544 4750 2975 4387 
Q 3406 4025 3406 3419 
Q 3406 3131 3298 2873 
Q 3191 2616 2906 2266 
Q 2828 2175 2409 1742 
Q 1991 1309 1228 531 
z
" transform="scale(0.015625)"/>
       </defs>
       <use xlink:href="#DejaVuSans-30"/>
       <use xlink:href="#DejaVuSans-2e" transform="translate(63.623047 0)"/>
       <use xlink:href="#DejaVuSans-32" transform="translate(95.410156 0)"/>
      </g>
     </g>
    </g>
    <g id="xtick_3">
     <g id="line2d_3">
      <g>
       <use xlink:href="#mcdb2df70a4" x="636.546159" y="961.2" style="stroke: #000000; stroke-width: 0.8"/>
      </g>
     </g>
     <g id="text_3">
      <!-- 0.4 -->
      <g transform="translate(628.594596 975.798437) scale(0.1 -0.1)">
       <defs>
        <path id="DejaVuSans-34" d="M 2419 4116 
L 825 1625 
L 2419 1625 
L 2419 4116 
z
M 2253 4666 
L 3047 4666 
L 3047 1625 
L 3713 1625 
L 3713 1100 
L 3047 1100 
L 3047 0 
L 2419 0 
L 2419 1100 
L 313 1100 
L 313 1709 
L 2253 4666 
z
" transform="scale(0.015625)"/>
       </defs>
       <use xlink:href="#DejaVuSans-30"/>
       <use xlink:href="#DejaVuSans-2e" transform="translate(63.623047 0)"/>
       <use xlink:href="#DejaVuSans-34" transform="translate(95.410156 0)"/>
      </g>
     </g>
    </g>
    <g id="xtick_4">
     <g id="line2d_4">
      <g>
       <use xlink:href="#mcdb2df70a4" x="839.455602" y="961.2" style="stroke: #000000; stroke-width: 0.8"/>
      </g>
     </g>
     <g id="text_4">
      <!-- 0.6 -->
      <g transform="translate(831.50404 975.798437) scale(0.1 -0.1)">
       <defs>
        <path id="DejaVuSans-36" d="M 2113 2584 
Q 1688 2584 1439 2293 
Q 1191 2003 1191 1497 
Q 1191 994 1439 701 
Q 1688 409 2113 409 
Q 2538 409 2786 701 
Q 3034 994 3034 1497 
Q 3034 2003 2786 2293 
Q 2538 2584 2113 2584 
z
M 3366 4563 
L 3366 3988 
Q 3128 4100 2886 4159 
Q 2644 4219 2406 4219 
Q 1781 4219 1451 3797 
Q 1122 3375 1075 2522 
Q 1259 2794 1537 2939 
Q 1816 3084 2150 3084 
Q 2853 3084 3261 2657 
Q 3669 2231 3669 1497 
Q 3669 778 3244 343 
Q 2819 -91 2113 -91 
Q 1303 -91 875 529 
Q 447 1150 447 2328 
Q 447 3434 972 4092 
Q 1497 4750 2381 4750 
Q 2619 4750 2861 4703 
Q 3103 4656 3366 4563 
z
" transform="scale(0.015625)"/>
       </defs>
       <use xlink:href="#DejaVuSans-30"/>
       <use xlink:href="#DejaVuSans-2e" transform="translate(63.623047 0)"/>
       <use xlink:href="#DejaVuSans-36" transform="translate(95.410156 0)"/>
      </g>
     </g>
    </g>
    <g id="xtick_5">
     <g id="line2d_5">
      <g>
       <use xlink:href="#mcdb2df70a4" x="1042.365045" y="961.2" style="stroke: #000000; stroke-width: 0.8"/>
      </g>
     </g>
     <g id="text_5">
      <!-- 0.8 -->
      <g transform="translate(1034.413483 975.798437) scale(0.1 -0.1)">
       <defs>
        <path id="DejaVuSans-38" d="M 2034 2216 
Q 1584 2216 1326 1975 
Q 1069 1734 1069 1313 
Q 1069 891 1326 650 
Q 1584 409 2034 409 
Q 2484 409 2743 651 
Q 3003 894 3003 1313 
Q 3003 1734 2745 1975 
Q 2488 2216 2034 2216 
z
M 1403 2484 
Q 997 2584 770 2862 
Q 544 3141 544 3541 
Q 544 4100 942 4425 
Q 1341 4750 2034 4750 
Q 2731 4750 3128 4425 
Q 3525 4100 3525 3541 
Q 3525 3141 3298 2862 
Q 3072 2584 2669 2484 
Q 3125 2378 3379 2068 
Q 3634 1759 3634 1313 
Q 3634 634 3220 271 
Q 2806 -91 2034 -91 
Q 1263 -91 848 271 
Q 434 634 434 1313 
Q 434 1759 690 2068 
Q 947 2378 1403 2484 
z
M 1172 3481 
Q 1172 3119 1398 2916 
Q 1625 2713 2034 2713 
Q 2441 2713 2670 2916 
Q 2900 3119 2900 3481 
Q 2900 3844 2670 4047 
Q 2441 4250 2034 4250 
Q 1625 4250 1398 4047 
Q 1172 3844 1172 3481 
z
" transform="scale(0.015625)"/>
       </defs>
       <use xlink:href="#DejaVuSans-30"/>
       <use xlink:href="#DejaVuSans-2e" transform="translate(63.623047 0)"/>
       <use xlink:href="#DejaVuSans-38" transform="translate(95.410156 0)"/>
      </g>
     </g>
    </g>
    <g id="xtick_6">
     <g id="line2d_6">
      <g>
       <use xlink:href="#mcdb2df70a4" x="1245.274488" y="961.2" style="stroke: #000000; stroke-width: 0.8"/>
      </g>
     </g>
     <g id="text_6">
      <!-- 1.0 -->
      <g transform="translate(1237.322926 975.798437) scale(0.1 -0.1)">
       <defs>
        <path id="DejaVuSans-31" d="M 794 531 
L 1825 531 
L 1825 4091 
L 703 3866 
L 703 4441 
L 1819 4666 
L 2450 4666 
L 2450 531 
L 3481 531 
L 3481 0 
L 794 0 
L 794 531 
z
" transform="scale(0.015625)"/>
       </defs>
       <use xlink:href="#DejaVuSans-31"/>
       <use xlink:href="#DejaVuSans-2e" transform="translate(63.623047 0)"/>
       <use xlink:href="#DejaVuSans-30" transform="translate(95.410156 0)"/>
      </g>
     </g>
    </g>
   </g>
   <g id="matplotlib.axis_2">
    <g id="ytick_1">
     <g id="line2d_7">
      <defs>
       <path id="m9b38793444" d="M 0 0 
L -3.5 0 
" style="stroke: #000000; stroke-width: 0.8"/>
      </defs>
      <g>
       <use xlink:href="#m9b38793444" x="180" y="923.4" style="stroke: #000000; stroke-width: 0.8"/>
      </g>
     </g>
     <g id="text_7">
      <!-- 0.0 -->
      <g transform="translate(157.096875 927.199219) scale(0.1 -0.1)">
       <use xlink:href="#DejaVuSans-30"/>
       <use xlink:href="#DejaVuSans-2e" transform="translate(63.623047 0)"/>
       <use xlink:href="#DejaVuSans-30" transform="translate(95.410156 0)"/>
      </g>
     </g>
    </g>
    <g id="ytick_2">
     <g id="line2d_8">
      <g>
       <use xlink:href="#m9b38793444" x="180" y="772.2" style="stroke: #000000; stroke-width: 0.8"/>
      </g>
     </g>
     <g id="text_8">
      <!-- 0.2 -->
      <g transform="translate(157.096875 775.999219) scale(0.1 -0.1)">
       <use xlink:href="#DejaVuSans-30"/>
       <use xlink:href="#DejaVuSans-2e" transform="translate(63.623047 0)"/>
       <use xlink:href="#DejaVuSans-32" transform="translate(95.410156 0)"/>
      </g>
     </g>
    </g>
    <g id="ytick_3">
     <g id="line2d_9">
      <g>
       <use xlink:href="#m9b38793444" x="180" y="621" style="stroke: #000000; stroke-width: 0.8"/>
      </g>
     </g>
     <g id="text_9">
      <!-- 0.4 -->
      <g transform="translate(157.096875 624.799219) scale(0.1 -0.1)">
       <use xlink:href="#DejaVuSans-30"/>
       <use xlink:href="#DejaVuSans-2e" transform="translate(63.623047 0)"/>
       <use xlink:href="#DejaVuSans-34" transform="translate(95.410156 0)"/>
      </g>
     </g>
    </g>
    <g id="ytick_4">
     <g id="line2d_10">
      <g>
       <use xlink:href="#m9b38793444" x="180" y="469.8" style="stroke: #000000; stroke-width: 0.8"/>
      </g>
     </g>
     <g id="text_10">
      <!-- 0.6 -->
      <g transform="translate(157.096875 473.599219) scale(0.1 -0.1)">
       <use xlink:href="#DejaVuSans-30"/>
       <use xlink:href="#DejaVuSans-2e" transform="translate(63.623047 0)"/>
       <use xlink:href="#DejaVuSans-36" transform="translate(95.410156 0)"/>
      </g>
     </g>
    </g>
    <g id="ytick_5">
     <g id="line2d_11">
      <g>
       <use xlink:href="#m9b38793444" x="180" y="318.6" style="stroke: #000000; stroke-width: 0.8"/>
      </g>
     </g>
     <g id="text_11">
      <!-- 0.8 -->
      <g transform="translate(157.096875 322.399219) scale(0.1 -0.1)">
       <use xlink:href="#DejaVuSans-30"/>
       <use xlink:href="#DejaVuSans-2e" transform="translate(63.623047 0)"/>
       <use xlink:href="#DejaVuSans-38" transform="translate(95.410156 0)"/>
      </g>
     </g>
    </g>
    <g id="ytick_6">
     <g id="line2d_12">
      <g>
       <use xlink:href="#m9b38793444" x="180" y="167.4" style="stroke: #000000; stroke-width: 0.8"/>
      </g>
     </g>
     <g id="text_12">
      <!-- 1.0 -->
      <g transform="translate(157.096875 171.199219) scale(0.1 -0.1)">
       <use xlink:href="#DejaVuSans-31"/>
       <use xlink:href="#DejaVuSans-2e" transform="translate(63.623047 0)"/>
       <use xlink:href="#DejaVuSans-30" transform="translate(95.410156 0)"/>
      </g>
     </g>
    </g>
   </g>
   <g id="line2d_13">
    <path d="M 180 961.199934 
L 1296 129.601378 
" clip-path="url(#pc002455287)" style="fill: none; stroke: #1f77b4; stroke-width: 1.5; stroke-linecap: square"/>
   </g>
   <g id="line2d_14">
    <path d="M 230.727273 923.399929 
L 231.326011 923.28784 
L 231.922987 922.895658 
L 232.539335 922.3994 
L 232.780591 922.189091 
L 234.307373 921.280708 
L 235.017053 921.067435 
L 235.210763 920.99882 
L 235.642206 920.805406 
L 235.927487 920.680666 
L 236.156416 920.627226 
L 236.825594 920.364996 
L 237.294018 920.180775 
L 237.653261 919.975161 
L 238.392878 919.671311 
L 238.609481 919.49802 
L 239.539285 918.661222 
L 239.842176 918.381574 
L 240.067583 918.261714 
L 240.301796 918.154017 
L 241.037891 917.950662 
L 241.737005 917.695428 
L 242.282913 917.565151 
L 242.740772 917.000867 
L 243.265548 916.513423 
L 243.66001 916.10338 
L 243.876613 915.91464 
L 244.220006 915.640458 
L 244.906794 915.247157 
L 245.176226 915.051527 
L 245.473834 914.938478 
L 246.546279 914.279358 
L 246.817472 914.16337 
L 247.164388 914.001723 
L 247.322877 913.870148 
L 247.565895 913.539703 
L 247.867024 913.148475 
L 248.090671 912.868119 
L 248.543246 912.370945 
L 248.72815 912.170385 
L 252.889379 907.752718 
L 253.123591 907.579893 
L 253.297929 907.4754 
L 254.099181 906.998773 
L 254.377418 906.740756 
L 254.583454 906.574654 
L 254.866974 906.245622 
L 255.576655 905.877199 
L 255.81615 905.765674 
L 256.668471 905.330098 
L 259.160277 904.090726 
L 259.429709 903.896445 
L 259.676248 903.714819 
L 259.871719 903.613834 
L 260.075994 903.443816 
L 260.322533 903.261398 
L 260.748693 903.020291 
L 260.98995 902.851928 
L 261.106175 902.727765 
L 261.449569 902.457916 
L 261.650322 902.310098 
L 262.039502 902.068341 
L 262.368808 901.921565 
L 263.154211 901.523404 
L 263.509932 901.243681 
L 263.793452 900.979443 
L 264.027664 900.788654 
L 264.379862 900.606643 
L 264.573572 900.496804 
L 264.788413 900.394547 
L 265.105392 900.245919 
L 265.325516 900.067729 
L 265.579099 899.747574 
L 265.760482 899.493165 
L 265.961235 899.322108 
L 266.429659 899.16698 
L 266.797707 898.94581 
L 268.243483 897.905108 
L 268.82285 897.345525 
L 269.011276 897.197389 
L 269.995671 896.011581 
L 270.265103 895.42806 
L 271.219562 893.607946 
L 271.277675 893.494334 
L 271.471384 893.161081 
L 271.649244 893.041318 
L 272.026097 892.604416 
L 272.54559 892.110149 
L 272.772758 891.790377 
L 273.255271 891.236533 
L 273.445458 891.046909 
L 273.623318 890.867288 
L 273.813506 890.678119 
L 274.458029 890.151662 
L 274.730983 889.605744 
L 274.857775 889.467939 
L 275.074377 889.141705 
L 275.158905 888.989456 
L 275.377268 888.755499 
L 277.865552 886.652928 
L 278.193097 886.52597 
L 279.091204 885.957616 
L 279.283152 885.816189 
L 279.404661 885.702864 
L 279.642395 885.576561 
L 279.932959 885.464014 
L 280.174215 885.350695 
L 282.164138 884.689511 
L 282.512815 884.515403 
L 282.729417 884.404245 
L 283.287652 884.179306 
L 283.488405 884.04784 
L 283.69268 883.7983 
L 283.914566 883.578566 
L 284.102992 883.449941 
L 285.126129 883.035377 
L 285.263487 883.005675 
L 285.869269 882.812964 
L 286.330649 882.571379 
L 286.577188 882.451992 
L 287.558062 881.881802 
L 287.779947 881.770791 
L 287.989505 881.688039 
L 288.655161 881.561737 
L 289.113019 881.185992 
L 289.31025 881.037043 
L 289.68182 880.727965 
L 290.021692 880.427681 
L 290.254143 880.234959 
L 290.35452 880.123318 
L 290.611625 879.829287 
L 291.412877 879.441476 
L 292.016898 879.243336 
L 292.254632 879.159849 
L 292.707207 878.984147 
L 292.967834 878.830718 
L 293.26192 878.677636 
L 293.936381 878.287232 
L 294.223423 878.169308 
L 295.079266 877.854923 
L 295.473728 877.73701 
L 297.553462 876.966239 
L 297.960251 876.827039 
L 298.083521 876.717631 
L 298.282513 876.536031 
L 299.362002 875.490426 
L 299.784641 875.161448 
L 300.082249 875.035847 
L 301.616074 874.523002 
L 302.503615 874.256487 
L 302.820594 874.115545 
L 303.271408 873.852241 
L 303.470401 873.716605 
L 303.634173 873.564081 
L 303.884234 873.318277 
L 304.134295 873.125984 
L 304.3192 872.993117 
L 305.048251 872.404837 
L 305.38284 872.213343 
L 305.585354 871.985054 
L 305.768497 871.870223 
L 305.926987 871.758949 
L 306.206985 871.453146 
L 306.407738 871.310321 
L 307.709113 870.608072 
L 308.080682 870.306173 
L 308.527975 870.072425 
L 310.526702 868.634651 
L 310.778525 868.494978 
L 310.937014 868.427311 
L 311.327955 868.242547 
L 311.720656 867.983298 
L 312.250715 867.719934 
L 312.59587 867.564722 
L 312.849453 867.451171 
L 313.150583 867.294878 
L 313.449952 867.183082 
L 313.754604 867.110252 
L 313.927181 866.999467 
L 314.518875 866.575532 
L 314.687931 866.46208 
L 315.452202 865.870409 
L 315.64415 865.748006 
L 316.146033 865.403897 
L 316.503515 865.285101 
L 316.688419 865.133736 
L 317.045901 864.664613 
L 317.207913 864.506319 
L 317.357597 864.295604 
L 317.510804 864.158957 
L 319.211923 862.902938 
L 320.242105 862.593414 
L 320.492166 862.109915 
L 321.045118 861.481936 
L 321.363858 861.279591 
L 321.707252 861.015597 
L 321.893917 860.899036 
L 322.184481 860.611365 
L 323.29919 860.046399 
L 323.658433 859.719273 
L 323.922582 859.57932 
L 324.158555 859.450864 
L 324.348742 859.301102 
L 324.551256 859.168825 
L 324.706224 859.009505 
L 324.977417 858.745229 
L 325.243327 858.640657 
L 325.385967 858.490627 
L 326.317533 857.70697 
L 326.814133 857.398458 
L 327.087087 857.223193 
L 327.28608 857.1009 
L 327.543185 856.810406 
L 328.263431 855.311734 
L 329.489083 853.682345 
L 329.585937 853.566972 
L 329.774364 853.437751 
L 330.066689 853.203838 
L 330.292096 853.031781 
L 330.771086 852.626472 
L 330.966556 852.494845 
L 331.378629 852.169331 
L 331.604036 852.062741 
L 331.928059 851.948879 
L 332.42642 851.735806 
L 332.753965 851.622953 
L 332.949435 851.458322 
L 333.724273 851.0901 
L 334.42867 850.71803 
L 334.576594 850.626166 
L 334.858353 850.500358 
L 335.126024 850.273243 
L 335.428914 850.095009 
L 336.566516 849.162413 
L 336.777836 849.04275 
L 337.052551 848.919561 
L 337.196952 848.807505 
L 337.42412 848.646678 
L 337.834432 848.269897 
L 338.056317 848.096455 
L 338.313422 847.928295 
L 338.493044 847.846093 
L 339.86838 847.128572 
L 340.032152 847.047853 
L 342.159432 845.84009 
L 342.411255 845.683354 
L 342.601442 845.566368 
L 345.456013 843.994514 
L 345.679659 843.880493 
L 346.155127 843.668705 
L 346.685186 843.481866 
L 346.889462 843.407808 
L 348.807184 842.867832 
L 349.046679 842.714358 
L 349.256237 842.599895 
L 349.45699 842.470763 
L 349.923654 842.238788 
L 353.729161 840.734189 
L 353.942241 840.60956 
L 354.106014 840.494677 
L 354.289157 840.417287 
L 354.73821 840.069103 
L 354.947769 839.956356 
L 355.155566 839.827011 
L 355.724367 839.406698 
L 356.088893 839.012353 
L 356.994043 838.616218 
L 357.293412 838.295261 
L 358.362336 837.582974 
L 358.890634 837.391356 
L 359.128368 837.202654 
L 363.150477 835.023866 
L 363.622424 834.89296 
L 364.090848 834.708989 
L 364.323299 834.594783 
L 364.60858 834.480749 
L 365.017131 834.210808 
L 365.321783 834.011451 
L 366.29209 833.298216 
L 366.46819 833.174964 
L 366.642528 833.059466 
L 367.14265 832.756687 
L 367.625162 832.572241 
L 368.169309 832.415888 
L 369.953196 831.730702 
L 370.344137 831.624867 
L 370.529041 831.510408 
L 370.735077 831.37848 
L 370.979855 831.241014 
L 371.349664 831.115809 
L 371.869157 830.927951 
L 372.133306 830.645787 
L 372.40626 830.429388 
L 372.626385 830.236836 
L 372.77783 830.125276 
L 374.94033 828.82844 
L 375.285485 828.709032 
L 375.54259 828.604624 
L 376.093781 828.40779 
L 376.254032 828.337697 
L 376.773525 828.120959 
L 376.99541 827.945424 
L 377.703329 827.553241 
L 378.110119 827.268232 
L 379.488977 826.564997 
L 380.455763 826.080944 
L 380.776263 825.781559 
L 382.82606 824.848041 
L 383.264547 824.516256 
L 383.604419 824.337823 
L 383.968945 823.965195 
L 384.779002 823.262868 
L 385.390067 822.486478 
L 386.048679 821.877179 
L 386.448424 821.301407 
L 386.754837 820.959033 
L 387.027791 820.599134 
L 387.126407 820.461008 
L 387.365902 820.218686 
L 387.485649 820.093803 
L 387.793823 819.917469 
L 388.742999 819.518373 
L 388.920859 819.392246 
L 389.25897 819.204143 
L 389.711545 818.96051 
L 389.961607 818.807804 
L 390.123618 818.748135 
L 390.817449 818.518859 
L 392.719323 818.037211 
L 392.981711 817.814855 
L 393.149005 817.697969 
L 393.626234 817.235183 
L 394.654655 816.631907 
L 394.966351 816.479116 
L 395.244588 816.347853 
L 399.699902 814.230784 
L 399.978139 814.110036 
L 401.365802 813.317182 
L 401.624668 812.811941 
L 402.628434 811.362209 
L 403.785407 810.564361 
L 404.500371 809.335372 
L 404.715212 809.080047 
L 404.864896 808.940913 
L 405.176592 808.600353 
L 405.305145 808.479149 
L 405.590426 808.208937 
L 405.74011 808.075009 
L 405.972561 807.9359 
L 406.088787 807.821803 
L 406.571299 807.416581 
L 406.801989 807.237659 
L 407.612046 806.642439 
L 408.439714 806.209114 
L 408.747887 806.077249 
L 408.997949 805.966748 
L 409.237444 805.85424 
L 409.49631 805.694954 
L 409.637189 805.613922 
L 409.977061 805.473351 
L 410.286996 805.32661 
L 410.531774 805.206681 
L 410.79064 805.109568 
L 411.114663 804.994614 
L 411.540823 804.886511 
L 412.016292 804.707367 
L 412.699557 804.347869 
L 413.259553 804.1224 
L 413.46559 803.798818 
L 413.690997 803.466988 
L 413.858291 803.186355 
L 414.305584 802.635242 
L 414.701807 802.199434 
L 415.670354 800.815215 
L 416.061294 800.033055 
L 416.163432 799.821584 
L 416.415254 799.407625 
L 416.522675 799.247441 
L 416.77978 798.887387 
L 416.86959 798.76124 
L 417.042168 798.591873 
L 417.315122 798.196751 
L 417.452479 798.020445 
L 417.750087 797.669517 
L 418.181531 797.027976 
L 418.486183 796.655679 
L 418.560144 796.536865 
L 418.757376 796.323788 
L 419.408943 795.616483 
L 419.560389 795.490826 
L 419.928436 795.153294 
L 420.264786 794.761977 
L 420.639878 794.50137 
L 421.044906 794.352205 
L 421.893705 793.953129 
L 422.584015 793.612555 
L 423.728661 792.873596 
L 424.218217 792.603005 
L 424.434819 792.434928 
L 424.977205 792.220885 
L 425.436825 791.912781 
L 425.604119 791.789897 
L 426.065499 791.592525 
L 426.315561 791.469928 
L 428.01492 790.733016 
L 428.381206 790.351143 
L 428.4763 790.240212 
L 428.652399 790.091316 
L 429.083843 789.765664 
L 429.263464 789.647235 
L 429.517047 789.523771 
L 429.647361 789.412972 
L 429.814655 789.307981 
L 430.136917 789.19155 
L 430.386978 789.02369 
L 430.53138 788.973476 
L 430.74446 788.860982 
L 430.971628 788.636292 
L 431.373135 788.237411 
L 431.63024 787.946646 
L 431.732377 787.820275 
L 433.128845 786.876901 
L 433.63425 786.707422 
L 439.660371 783.841845 
L 439.875212 783.725272 
L 440.285524 783.538627 
L 440.789168 783.300604 
L 441.239982 783.107686 
L 441.923248 782.882378 
L 443.011542 782.092237 
L 443.173553 781.990008 
L 443.288018 781.865602 
L 443.543362 781.50172 
L 444.489016 780.576371 
L 444.855302 780.223691 
L 445.545612 779.550572 
L 445.795673 779.394237 
L 445.977055 779.254513 
L 446.183092 779.102379 
L 446.498309 778.910975 
L 447.15516 778.495202 
L 447.422831 778.289432 
L 447.632389 778.130003 
L 447.921192 777.877311 
L 448.646722 777.343193 
L 448.78584 777.204998 
L 448.96194 777.018218 
L 449.609985 776.503278 
L 449.798412 776.356986 
L 450.157654 776.043816 
L 450.353125 775.92043 
L 450.659538 775.691725 
L 450.980038 775.548479 
L 451.577015 775.331234 
L 451.938019 775.138179 
L 452.265564 775.023911 
L 452.881912 774.365724 
L 452.934741 774.256002 
L 453.089709 774.164797 
L 453.301028 774.006198 
L 453.716623 773.660868 
L 454.831332 773.159403 
L 455.602647 772.884772 
L 456.942763 772.407867 
L 457.11358 772.275859 
L 457.701751 771.940388 
L 458.300489 771.742429 
L 460.758836 770.765117 
L 461.540718 770.223259 
L 461.743232 770.110607 
L 462.02323 769.904995 
L 462.461717 769.691682 
L 462.769891 769.456822 
L 462.923098 769.343057 
L 463.162593 769.264187 
L 463.382717 769.147756 
L 464.400571 768.500889 
L 464.691135 768.343294 
L 464.937675 768.177171 
L 465.120818 768.029505 
L 465.661443 767.671646 
L 466.071754 767.278842 
L 466.203829 767.164215 
L 467.348475 765.882136 
L 467.538662 765.750884 
L 467.71124 765.651579 
L 469.410599 764.812735 
L 469.743426 764.651906 
L 470.000531 764.399727 
L 471.470961 763.872314 
L 471.85838 763.753399 
L 472.258125 763.605894 
L 472.767053 763.277897 
L 473.115729 763.130918 
L 473.420381 763.014339 
L 473.765536 762.588012 
L 473.955723 762.227068 
L 474.429431 761.506342 
L 474.494587 761.288125 
L 474.880245 760.370959 
L 475.024646 760.069046 
L 475.165526 759.955341 
L 475.288796 759.842316 
L 475.725522 759.202662 
L 475.832943 759.087101 
L 476.116463 758.440326 
L 476.62539 757.69053 
L 476.748659 757.578165 
L 477.674942 756.463259 
L 477.893305 756.341698 
L 478.1328 755.983179 
L 478.386383 755.669438 
L 478.57481 755.526594 
L 478.821349 755.412842 
L 479.122479 755.258597 
L 479.60323 754.967023 
L 479.855052 754.79847 
L 480.006498 754.676404 
L 480.203729 754.556154 
L 480.376306 754.444758 
L 480.744354 754.231806 
L 481.087748 754.110856 
L 482.20774 753.498159 
L 482.410254 753.330099 
L 482.644466 753.210059 
L 483.028363 753.038181 
L 484.595647 751.993453 
L 484.858035 751.838007 
L 484.995393 751.726133 
L 486.849719 750.947214 
L 487.318144 750.761281 
L 487.508331 750.724749 
L 487.934491 750.462364 
L 488.168704 750.278342 
L 488.341281 750.166812 
L 488.749831 749.92789 
L 489.047439 749.828098 
L 489.42077 749.666872 
L 493.853191 747.665618 
L 494.127906 747.484115 
L 494.499476 747.33302 
L 495.295445 746.542891 
L 495.448651 746.437483 
L 495.624751 746.295229 
L 496.15481 745.963449 
L 496.22525 745.847656 
L 496.566882 745.426185 
L 496.753548 745.267935 
L 497.035307 745.018687 
L 497.184991 744.907344 
L 497.676309 744.573494 
L 497.915804 744.400754 
L 498.595547 743.056839 
L 498.634289 742.941258 
L 498.857935 742.50862 
L 499.011142 742.028468 
L 499.296423 741.357158 
L 499.676797 740.758341 
L 499.775413 740.599603 
L 499.956795 740.327828 
L 500.138178 740.216964 
L 500.465723 739.975328 
L 500.624212 739.845692 
L 501.120812 739.360148 
L 501.622695 739.05729 
L 501.870996 738.859731 
L 502.115774 738.703616 
L 502.362313 738.592065 
L 503.156521 738.174119 
L 503.614379 738.013907 
L 504.047584 737.593123 
L 504.315255 737.160804 
L 504.3945 737.01185 
L 504.58997 736.761048 
L 504.832987 736.508599 
L 504.991476 736.356655 
L 505.095375 736.242299 
L 505.942413 735.677848 
L 506.312222 735.517036 
L 506.773602 735.297348 
L 507.212089 735.160991 
L 507.641772 734.957031 
L 507.925292 734.841242 
L 508.724783 734.395475 
L 509.00302 734.276771 
L 509.238993 734.15746 
L 509.814838 733.961374 
L 510.698857 732.11989 
L 511.267658 731.550749 
L 512.667648 728.329165 
L 513.217078 727.032646 
L 513.292801 726.85482 
L 513.491793 726.5041 
L 513.678458 726.090947 
L 513.923236 725.561074 
L 515.587376 722.648383 
L 515.798695 722.514209 
L 516.187874 722.109895 
L 516.253031 722.001566 
L 516.42737 721.74718 
L 517.019063 721.3229 
L 517.454029 720.797359 
L 517.550883 720.656657 
L 517.737549 720.497936 
L 517.800945 720.367794 
L 518.110879 719.731934 
L 518.959678 718.372211 
L 519.304833 718.024026 
L 519.554894 717.528651 
L 519.847219 717.096262 
L 520.033885 716.944316 
L 520.225833 716.739262 
L 520.75237 716.104887 
L 520.94784 715.926014 
L 521.136267 715.669996 
L 521.285951 715.590091 
L 521.569471 715.472296 
L 521.9745 715.271396 
L 522.249215 715.046225 
L 523.525935 714.09882 
L 523.821782 713.908036 
L 524.026057 713.370423 
L 524.064799 713.265541 
L 524.247943 712.813745 
L 524.376495 712.580496 
L 524.684669 712.212767 
L 524.862529 712.091981 
L 525.077371 711.774459 
L 525.179508 711.660673 
L 525.521141 711.404535 
L 525.626801 711.286515 
L 525.799378 711.150827 
L 526.750315 710.545494 
L 527.081381 710.391443 
L 527.650182 710.166418 
L 528.130934 710.010175 
L 531.566632 708.283954 
L 531.922353 708.17026 
L 532.202351 708.084425 
L 532.575682 707.968343 
L 532.938446 707.821273 
L 534.629 707.338192 
L 534.979438 707.220537 
L 535.379184 707.0704 
L 537.691368 706.32231 
L 538.129856 706.212419 
L 538.485577 706.065474 
L 538.799034 705.861639 
L 539.376639 705.32216 
L 539.612613 705.043058 
L 539.741165 704.876881 
L 540.044056 704.66676 
L 540.501914 704.44161 
L 540.655121 704.331102 
L 540.899899 704.233102 
L 541.477505 704.006213 
L 542.60278 703.649303 
L 543.007808 703.529996 
L 543.59598 703.194734 
L 544.455345 701.883786 
L 544.627923 701.684789 
L 544.686035 701.57208 
L 544.87094 701.359052 
L 545.098108 701.16563 
L 545.400999 700.859451 
L 545.50842 700.743787 
L 547.040484 699.295667 
L 547.341614 699.176529 
L 548.723994 698.435419 
L 548.856069 698.322944 
L 549.00047 698.226714 
L 549.254053 698.087394 
L 549.493548 697.973167 
L 550.007758 697.76256 
L 550.236688 697.652709 
L 550.469139 697.56668 
L 553.424086 696.515918 
L 553.69704 696.358564 
L 553.929491 696.228632 
L 554.517663 695.818618 
L 554.785334 695.64466 
L 555.674636 695.326025 
L 555.914131 695.237611 
L 556.6379 695.053119 
L 557.266575 694.775654 
L 557.550095 694.552454 
L 557.782546 694.372725 
L 558.022041 694.171448 
L 558.284429 693.998195 
L 558.645433 693.508796 
L 558.773985 693.398713 
L 559.159643 692.915117 
L 559.469578 692.653607 
L 559.730205 692.487286 
L 560.612463 692.021828 
L 561.175981 691.602959 
L 561.535223 691.478667 
L 561.998365 691.257879 
L 563.150054 690.836561 
L 563.430052 690.739327 
L 563.972439 690.571383 
L 564.2947 690.43925 
L 565.247398 690.001774 
L 565.596075 689.760937 
L 566.050411 689.51402 
L 566.492421 689.240958 
L 566.81116 689.079597 
L 568.491148 688.210058 
L 568.838064 688.092917 
L 571.8793 686.584312 
L 572.618918 686.062675 
L 572.787973 685.957093 
L 572.904199 685.843655 
L 573.163065 685.632381 
L 573.860418 685.431642 
L 574.186202 685.292154 
L 574.452112 685.178005 
L 574.781418 685.028492 
L 575.322043 684.859224 
L 575.767574 684.525607 
L 576.068704 684.399408 
L 576.517758 684.244188 
L 576.899893 684.105857 
L 577.164042 683.95578 
L 577.350708 683.820039 
L 577.764541 683.561189 
L 578.044539 683.469895 
L 578.345669 683.345712 
L 578.634472 683.273489 
L 578.981388 683.158471 
L 579.379372 683.028847 
L 581.619356 682.124476 
L 582.064888 682.000159 
L 582.362496 681.675269 
L 582.74287 681.456618 
L 583.054566 681.307092 
L 583.278213 681.134626 
L 583.482488 680.990727 
L 583.711417 680.824804 
L 583.827643 680.715582 
L 584.067138 680.476514 
L 584.581348 680.067974 
L 584.79795 679.906522 
L 585.014552 679.821601 
L 585.238199 679.697505 
L 585.68373 679.484025 
L 585.96725 679.236933 
L 586.152154 679.058761 
L 588.434402 677.20021 
L 588.948612 676.956933 
L 589.122951 676.873108 
L 589.693513 676.70787 
L 590.006969 676.593503 
L 590.264075 676.416855 
L 590.459545 676.192385 
L 591.236143 675.279946 
L 591.311866 675.157937 
L 591.472116 674.934832 
L 591.69224 674.682711 
L 591.915887 674.551269 
L 593.740276 673.228362 
L 593.993859 673.116635 
L 596.196862 671.097422 
L 596.478621 670.895789 
L 596.704029 670.732557 
L 599.396588 669.59054 
L 599.891427 669.286401 
L 600.106268 669.167455 
L 600.442618 669.009521 
L 604.378439 667.377013 
L 605.019441 667.131196 
L 605.287112 666.943693 
L 605.521324 666.818212 
L 605.783712 666.641954 
L 606.80861 666.218956 
L 607.032257 666.107532 
L 607.490115 665.896812 
L 607.717283 665.770504 
L 607.937407 665.717935 
L 608.363568 665.530937 
L 608.928847 664.963312 
L 609.244065 664.747525 
L 609.421925 664.626583 
L 611.417131 663.171306 
L 611.572098 663.060739 
L 611.913731 662.856169 
L 612.059894 662.747185 
L 612.257125 662.600757 
L 613.606046 661.8823 
L 613.850824 661.77134 
L 614.141388 661.668935 
L 614.724277 661.482553 
L 615.710434 660.947068 
L 616.092569 660.799571 
L 616.391938 660.712055 
L 617.916959 660.169691 
L 618.27444 659.981273 
L 618.573809 659.869328 
L 618.785129 659.796635 
L 619.223616 659.677003 
L 621.039201 659.0779 
L 621.504103 658.572595 
L 621.674919 658.462355 
L 622.735038 657.495619 
L 622.911137 657.352289 
L 623.152393 657.172292 
L 624.173769 656.427428 
L 624.559427 656.299774 
L 625.050744 656.142095 
L 625.306088 656.026436 
L 626.357402 655.231319 
L 626.54935 654.889725 
L 626.906832 654.641123 
L 627.126956 654.196222 
L 627.419281 653.537611 
L 627.537267 653.414247 
L 627.954623 653.030117 
L 628.051478 652.908147 
L 628.194118 652.831286 
L 628.440657 652.720224 
L 628.607952 652.592139 
L 630.585547 651.368853 
L 630.872589 650.995589 
L 631.969689 649.656227 
L 632.128178 649.503874 
L 632.543772 648.887564 
L 632.711067 648.720238 
L 634.188541 646.96589 
L 634.516085 646.84595 
L 634.845391 646.686216 
L 634.945768 646.572257 
L 635.151804 646.44139 
L 635.401865 646.262837 
L 635.613184 646.153782 
L 635.946012 645.958274 
L 636.458461 644.879057 
L 636.631039 644.768313 
L 636.814182 644.566803 
L 636.979716 644.456127 
L 637.316065 644.037274 
L 637.416442 643.923144 
L 637.504492 643.808365 
L 639.013663 642.257554 
L 639.254919 642.035259 
L 639.45039 641.846786 
L 640.130133 641.12683 
L 640.237554 640.994716 
L 640.610885 640.500031 
L 640.970127 640.028266 
L 641.084592 639.909732 
L 641.501947 639.461432 
L 641.618173 639.348846 
L 642.113012 638.9746 
L 642.324331 638.860937 
L 642.718794 638.563913 
L 643.019924 638.168237 
L 643.234765 637.967842 
L 643.405582 637.854614 
L 643.882811 637.592016 
L 644.143438 637.370068 
L 644.316015 637.13106 
L 644.73161 636.711958 
L 645.233493 636.204115 
L 645.499403 635.735298 
L 646.001286 634.872299 
L 646.267196 634.472596 
L 646.952223 633.711787 
L 647.024424 633.601616 
L 647.293856 633.293037 
L 647.521024 633.140102 
L 647.732343 633.011763 
L 647.90316 632.802748 
L 648.38215 632.21948 
L 648.61284 631.828585 
L 648.771329 631.55315 
L 649.111201 631.049833 
L 650.329809 629.655594 
L 650.463644 629.535538 
L 651.425147 628.701933 
L 651.6259 628.57098 
L 652.076715 628.424655 
L 652.835703 628.053195 
L 653.156204 627.878907 
L 653.550666 627.687219 
L 654.122989 627.3913 
L 654.413553 627.263053 
L 654.610785 627.184459 
L 655.390905 626.738008 
L 658.035917 625.10247 
L 658.372267 624.929202 
L 658.73151 624.669811 
L 659.358424 624.405848 
L 659.596158 624.293858 
L 661.42583 623.143887 
L 661.774507 622.952625 
L 662.087964 622.791702 
L 662.410226 622.626337 
L 662.691985 622.490451 
L 662.956134 622.377559 
L 664.939013 620.971199 
L 665.127439 620.828778 
L 665.270079 620.702692 
L 665.456745 620.518608 
L 665.613473 620.365661 
L 665.932213 620.15161 
L 666.219255 619.891908 
L 666.437618 619.787953 
L 666.641894 619.606056 
L 666.914848 619.327676 
L 667.356857 619.163554 
L 668.7093 618.304178 
L 669.304516 617.775051 
L 670.158598 617.399389 
L 670.362873 617.257223 
L 670.635827 617.114902 
L 670.811927 616.977383 
L 670.988026 616.814224 
L 671.282112 616.552857 
L 671.428274 616.422727 
L 671.639594 616.317291 
L 671.910787 616.157338 
L 673.125872 614.961901 
L 673.300211 614.663322 
L 673.395304 614.550656 
L 673.590775 614.25987 
L 673.874295 613.896037 
L 674.11379 613.672212 
L 674.333914 613.55695 
L 674.71605 613.302265 
L 674.853407 613.220606 
L 675.147493 613.093713 
L 675.42573 612.960418 
L 675.585981 612.837985 
L 675.901198 612.666495 
L 676.033273 612.555375 
L 676.464716 612.300199 
L 676.633772 612.14353 
L 676.818676 611.998588 
L 677.014146 611.885924 
L 677.368106 611.710673 
L 678.533884 611.111943 
L 678.871995 610.987213 
L 679.104446 610.906683 
L 680.898899 610.089261 
L 681.228204 609.90459 
L 681.761786 609.672194 
L 682.084047 609.532129 
L 682.409831 609.341172 
L 682.62115 609.224371 
L 683.017374 608.882382 
L 683.587936 608.460529 
L 684.408559 608.036861 
L 684.714972 607.793592 
L 684.901637 607.673614 
L 685.475721 607.34151 
L 686.178358 606.830718 
L 686.354457 606.720167 
L 686.50062 606.560855 
L 686.777096 606.201595 
L 687.271935 605.579109 
L 687.365267 605.408579 
L 687.624134 605.09129 
L 688.286267 604.432405 
L 688.464128 604.209858 
L 688.605007 604.080849 
L 688.717711 603.86304 
L 689.335819 603.129967 
L 689.677452 602.729054 
L 689.883488 602.531276 
L 690.026129 602.393798 
L 690.441723 601.827912 
L 690.823859 601.12976 
L 690.881972 601.019785 
L 691.075681 600.768703 
L 691.90687 600.390095 
L 692.128755 600.236505 
L 692.496803 599.795759 
L 693.771763 598.335593 
L 694.060566 598.103475 
L 694.224338 597.864887 
L 694.411003 597.642318 
L 694.601191 597.420539 
L 694.757919 597.237903 
L 694.965716 596.967583 
L 695.295022 596.750553 
L 695.69829 596.510858 
L 695.879672 596.391901 
L 697.306077 594.944679 
L 697.596641 594.709012 
L 697.887205 594.513224 
L 698.311604 594.139679 
L 698.529968 593.995578 
L 698.802922 593.761513 
L 699.014241 593.606071 
L 699.565432 593.366088 
L 700.060271 593.200661 
L 700.379011 593.010177 
L 700.641399 592.894845 
L 701.035862 592.764707 
L 701.574726 592.509412 
L 701.803655 592.416276 
L 702.303777 592.259386 
L 702.469311 592.168822 
L 704.431057 591.5195 
L 705.228788 591.156631 
L 705.577464 591.007346 
L 706.054694 590.813692 
L 708.590525 589.793175 
L 709.030773 589.294 
L 709.460456 589.082946 
L 709.930641 588.5754 
L 710.44309 588.086842 
L 710.932646 587.642126 
L 711.136922 587.462723 
L 711.615912 587.007566 
L 712.045594 586.705598 
L 712.323831 586.238586 
L 713.005336 585.698611 
L 713.501936 585.195045 
L 714.408848 584.616736 
L 715.277018 583.291928 
L 715.433746 583.09541 
L 716.057138 582.375886 
L 716.562543 581.970624 
L 716.738642 581.814734 
L 718.446806 580.221128 
L 718.617623 580.042827 
L 718.781395 579.821175 
L 719.034978 579.429205 
L 719.81862 578.524959 
L 720.105662 578.404389 
L 720.338114 578.205331 
L 720.776601 577.858 
L 720.940373 577.787808 
L 721.863134 577.260882 
L 722.137849 577.043149 
L 722.287534 576.88828 
L 722.451306 576.789589 
L 722.625644 576.664186 
L 724.050288 575.952672 
L 724.735315 575.803267 
L 725.024118 575.692626 
L 725.286506 575.576705 
L 725.52424 575.445928 
L 726.200462 575.119782 
L 726.667125 574.95799 
L 727.450767 574.775235 
L 728.102335 574.648685 
L 728.477427 574.577385 
L 728.82082 574.465478 
L 731.786334 573.263852 
L 732.076898 572.936102 
L 732.793622 572.618568 
L 733.010224 572.348907 
L 733.776257 571.616462 
L 733.903048 571.486672 
L 734.301033 571.042879 
L 734.861029 570.458041 
L 734.994864 570.341276 
L 735.241403 570.166413 
L 735.405176 570.043217 
L 736.310327 569.533534 
L 736.856235 569.247557 
L 737.13095 569.118417 
L 737.502519 568.905105 
L 737.652204 568.791976 
L 737.949812 568.507173 
L 738.10654 568.366465 
L 738.333708 568.172797 
L 738.643643 567.910831 
L 738.90427 567.707851 
L 739.47131 567.323641 
L 739.959105 567.197269 
L 740.998092 566.518041 
L 741.256958 566.236655 
L 741.3679 566.120383 
L 741.709533 565.73287 
L 742.074059 565.580412 
L 743.276818 565.041387 
L 743.565621 564.394089 
L 743.673041 564.215432 
L 743.933668 563.686598 
L 744.02524 563.533555 
L 744.352785 563.07673 
L 744.490142 562.965457 
L 744.68033 562.821105 
L 744.82297 562.664799 
L 745.340702 562.28009 
L 745.562587 562.127308 
L 746.724843 561.36503 
L 747.415153 561.036103 
L 747.60534 560.868124 
L 748.7042 560.125827 
L 748.875017 560.011818 
L 749.190235 559.679281 
L 749.354007 559.56488 
L 749.549477 559.386947 
L 749.817148 559.073259 
L 750.03375 558.92366 
L 750.327836 558.525625 
L 750.570854 558.265117 
L 750.787456 558.094369 
L 751.056888 557.983841 
L 751.354496 557.816445 
L 751.630972 557.690885 
L 752.020151 557.518394 
L 752.257886 557.404132 
L 752.90417 556.563717 
L 753.059138 556.34424 
L 753.446556 555.618211 
L 753.624417 555.345759 
L 753.844541 555.079603 
L 754.022401 554.948275 
L 755.45585 553.881523 
L 755.573837 553.770203 
L 755.728804 553.67773 
L 755.908425 553.555399 
L 757.026656 552.830767 
L 757.716966 552.381644 
L 758.044511 552.159658 
L 758.491803 551.896314 
L 759.171547 551.496961 
L 759.351168 551.309389 
L 759.698084 550.975916 
L 759.92173 550.851063 
L 765.366723 548.742624 
L 765.710116 548.378615 
L 765.873889 548.258249 
L 766.095774 548.062355 
L 766.863567 547.578531 
L 767.397148 547.262838 
L 767.557399 547.182604 
L 767.761674 547.06931 
L 768.939779 545.626737 
L 769.147576 545.421738 
L 769.364178 545.304566 
L 769.540278 545.19517 
L 769.825559 545.061012 
L 770.177757 544.777551 
L 770.936746 544.22724 
L 771.132216 544.10884 
L 771.338252 544.006632 
L 773.405659 542.867124 
L 773.571192 542.796916 
L 773.944523 542.677856 
L 774.196345 542.573507 
L 774.405903 542.458863 
L 775.062754 542.167292 
L 775.62275 541.987598 
L 777.343241 541.180446 
L 779.697689 537.608354 
L 779.801588 537.461429 
L 780.076303 536.97149 
L 780.167875 536.862113 
L 780.504225 536.20053 
L 780.599318 536.089698 
L 780.842335 535.655382 
L 780.976171 535.529248 
L 781.210383 535.339584 
L 781.474532 535.15713 
L 781.751008 534.986172 
L 782.885088 533.054681 
L 783.217916 532.410941 
L 783.339424 532.224108 
L 784.070237 530.934698 
L 784.186462 530.704915 
L 784.450611 530.161696 
L 784.609101 529.945063 
L 784.869728 529.506427 
L 785.167336 529.256684 
L 785.813621 528.174009 
L 786.4511 527.633598 
L 786.836758 526.955885 
L 786.938896 526.807609 
L 787.185435 526.57068 
L 788.02719 526.203878 
L 788.256119 526.09257 
L 788.467438 525.934252 
L 788.942906 525.697525 
L 789.256363 525.527084 
L 789.448312 525.256466 
L 789.550449 525.108032 
L 789.930824 524.515119 
L 790.705661 523.805627 
L 790.818365 523.681276 
L 791.101885 523.210271 
L 791.550938 522.543238 
L 791.638988 522.436978 
L 791.778106 522.342758 
L 791.929552 522.204497 
L 793.058349 520.816475 
L 793.514446 520.655953 
L 793.849035 520.541864 
L 794.909153 519.949965 
L 795.463866 519.833635 
L 795.800216 519.726347 
L 796.145371 519.532462 
L 796.333797 519.353507 
L 796.501091 519.160326 
L 796.913164 518.623426 
L 797.057565 518.44732 
L 797.309388 518.102934 
L 797.897559 517.525799 
L 798.168752 517.306458 
L 798.39416 517.152961 
L 798.763968 517.037342 
L 799.302832 516.906859 
L 799.619811 516.649842 
L 800.13226 516.272509 
L 800.695778 516.009883 
L 801.032128 515.79977 
L 802.078158 515.382998 
L 802.312371 514.991144 
L 802.388093 514.865882 
L 802.93224 513.6953 
L 803.044944 513.562475 
L 803.221043 513.254556 
L 803.553871 512.818916 
L 803.67538 512.687918 
L 804.127955 512.029383 
L 804.444934 511.574621 
L 804.638643 511.330049 
L 804.765435 511.203214 
L 804.930968 511.122854 
L 805.385305 510.829538 
L 805.520901 510.76032 
L 805.929452 510.490468 
L 806.544038 509.93528 
L 806.67083 509.827581 
L 806.827558 509.744954 
L 807.017746 509.631352 
L 807.269568 509.480484 
L 807.542522 509.222516 
L 807.743275 509.106448 
L 808.120128 508.600806 
L 808.378994 508.44788 
L 808.521634 508.351823 
L 809.088674 507.87749 
L 810.036089 506.651363 
L 810.337219 506.538152 
L 810.694701 506.273499 
L 811.43784 505.8737 
L 812.013685 505.25195 
L 812.25318 505.133433 
L 812.50148 504.95031 
L 812.781478 504.75073 
L 813.024495 504.621505 
L 813.126633 504.508651 
L 813.323864 504.187431 
L 813.790528 503.625412 
L 814.044111 503.129569 
L 814.299455 503.005136 
L 814.519579 502.66308 
L 814.688634 502.54659 
L 815.190518 502.105795 
L 816.48837 501.562365 
L 816.840569 501.444886 
L 820.524568 499.411578 
L 821.033495 499.200267 
L 821.295883 499.002129 
L 821.501919 498.873793 
L 821.757263 498.639557 
L 821.906948 498.50168 
L 822.245058 498.307781 
L 822.458139 498.192248 
L 822.965305 497.83263 
L 823.2048 497.690682 
L 824.264918 497.260443 
L 824.559004 497.138479 
L 825.106673 496.511881 
L 825.476482 495.745092 
L 825.652581 495.387828 
L 825.920252 494.944743 
L 826.399243 494.258236 
L 826.584147 494.063339 
L 826.830686 493.890617 
L 827.63546 493.392653 
L 827.792189 493.299769 
L 828.329292 492.979944 
L 828.619856 492.772027 
L 828.876961 492.590144 
L 829.121739 492.436476 
L 829.607773 492.226438 
L 830.014563 491.997606 
L 830.158964 491.945952 
L 830.486509 491.816844 
L 830.85984 491.698975 
L 832.273918 491.031059 
L 832.656053 490.884237 
L 833.258313 490.489197 
L 833.441456 490.37466 
L 833.760196 490.101043 
L 833.978559 489.976957 
L 834.239186 489.823452 
L 834.693523 489.533388 
L 835.033395 489.26059 
L 835.25528 489.055652 
L 835.50358 488.916362 
L 836.870111 488.240172 
L 837.268096 487.595001 
L 837.391365 487.436981 
L 837.570987 487.288027 
L 838.106329 486.918838 
L 838.712111 486.476538 
L 838.909342 486.350792 
L 839.140032 486.270873 
L 839.640154 486.041075 
L 840.090969 485.816652 
L 840.332225 485.547519 
L 840.67914 485.04882 
L 841.665297 483.250526 
L 842.135482 482.856322 
L 842.795855 481.421811 
L 842.949061 481.244946 
L 843.206166 480.729169 
L 843.465033 480.552413 
L 843.686918 480.412201 
L 843.882388 480.242668 
L 844.164147 479.93465 
L 845.270051 478.248571 
L 845.370428 478.130204 
L 845.548288 477.905761 
L 845.696212 477.723911 
L 845.884638 477.412709 
L 846.236837 477.013322 
L 846.354823 476.896968 
L 846.537967 476.693613 
L 846.590796 476.586299 
L 846.786267 476.231231 
L 847.031045 476.01694 
L 847.152553 475.90412 
L 847.462488 475.509094 
L 847.746008 475.10073 
L 848.024245 474.81476 
L 848.522606 474.378953 
L 848.712794 474.175623 
L 849.434801 473.462497 
L 849.700711 473.157659 
L 850.699195 472.630386 
L 850.958061 472.419591 
L 851.056676 472.294316 
L 851.220449 472.187296 
L 851.537428 472.074427 
L 852.308743 471.373506 
L 852.914525 470.575504 
L 853.175152 470.280575 
L 853.576658 469.812872 
L 853.706972 469.702926 
L 853.944706 469.466645 
L 854.272251 469.094497 
L 855.027717 468.242701 
L 856.035006 467.184857 
L 856.337897 466.69086 
L 856.651353 466.582083 
L 856.970093 466.451176 
L 857.135627 466.346754 
L 857.334619 466.226197 
L 857.977382 465.840772 
L 858.331341 465.221259 
L 858.394737 465.113241 
L 858.569076 464.920115 
L 859.123789 464.281953 
L 859.210077 464.174771 
L 859.393221 463.992518 
L 859.549949 463.865374 
L 859.808815 463.698788 
L 860.138121 463.522036 
L 860.270195 463.484024 
L 860.509691 463.37326 
L 860.699878 463.145542 
L 860.82843 462.981074 
L 861.143648 462.558424 
L 861.879744 461.549741 
L 862.122761 461.203061 
L 862.31647 461.092823 
L 863.46816 460.083429 
L 863.91193 459.361674 
L 865.283745 457.68026 
L 865.514435 457.368717 
L 865.634182 457.234381 
L 866.426629 456.36655 
L 867.20675 455.855554 
L 867.377566 455.734553 
L 868.062593 455.270212 
L 868.259824 455.105176 
L 869.031139 454.732939 
L 869.221326 454.593343 
L 869.531261 454.449227 
L 870.269118 454.137627 
L 870.522701 454.02572 
L 870.797416 453.878629 
L 871.450744 453.569015 
L 873.030356 452.654689 
L 873.276895 452.316978 
L 873.710099 451.811602 
L 874.018273 451.359625 
L 874.532483 450.719086 
L 874.766696 450.406017 
L 876.772467 449.075893 
L 877.089446 448.963929 
L 878.144282 448.614807 
L 878.315098 448.521835 
L 878.679624 448.40637 
L 878.876855 448.256685 
L 879.831314 447.920306 
L 879.993325 447.869188 
L 880.368417 447.67875 
L 882.110039 446.098969 
L 882.432301 445.925246 
L 886.258941 443.38789 
L 886.456172 443.277359 
L 887.102457 442.963057 
L 887.378933 442.830202 
L 887.542705 442.666014 
L 887.810376 442.378414 
L 887.886099 442.232305 
L 888.257668 441.867457 
L 889.423446 441.326338 
L 890.087341 441.123833 
L 890.649098 440.964622 
L 891.527834 440.606713 
L 891.80431 440.492305 
L 892.064937 440.324243 
L 892.341413 440.104953 
L 892.545688 439.942378 
L 894.241525 439.0241 
L 894.509196 438.899193 
L 894.78215 438.8091 
L 895.167808 438.631901 
L 896.007802 438.064005 
L 896.344152 437.948389 
L 896.641759 437.793598 
L 897.108423 437.55487 
L 897.340874 437.354543 
L 897.909675 436.997328 
L 898.691556 436.694485 
L 899.019101 436.543128 
L 899.311426 436.427527 
L 899.823875 436.2295 
L 900.01054 436.18544 
L 900.313431 436.022291 
L 900.68324 435.783329 
L 901.049527 435.616758 
L 902.298071 434.902832 
L 902.648509 434.537722 
L 902.935551 434.353174 
L 903.185612 434.162433 
L 903.57127 433.946212 
L 903.914663 433.699595 
L 904.474659 433.381856 
L 904.689501 433.222225 
L 904.920191 433.065681 
L 905.992636 432.279158 
L 907.751869 431.176485 
L 907.952622 431.061106 
L 908.33828 430.860631 
L 908.678151 430.740764 
L 909.062048 430.579779 
L 909.253996 430.444562 
L 909.34909 430.332753 
L 910.16443 429.800983 
L 911.934229 428.727885 
L 912.164919 428.557471 
L 912.416741 428.41897 
L 912.791833 428.305947 
L 913.168685 428.187427 
L 913.897737 427.866555 
L 914.244653 427.749432 
L 914.762385 427.351206 
L 915.752063 426.485693 
L 916.054954 426.294477 
L 916.396587 426.115768 
L 916.630799 425.938729 
L 916.752308 425.818407 
L 917.060481 425.493078 
L 917.548277 424.882465 
L 918.391793 423.562379 
L 918.537955 423.376567 
L 919.052165 422.921092 
L 919.295182 422.79451 
L 919.578702 422.584317 
L 919.673796 422.475452 
L 919.885115 422.340381 
L 919.989014 422.213308 
L 920.622972 421.739714 
L 920.806115 421.621964 
L 921.024478 421.427301 
L 921.197056 421.302639 
L 921.774662 421.059405 
L 922.611134 420.447701 
L 922.755535 420.317141 
L 923.134149 419.94033 
L 923.271506 419.829056 
L 923.465216 419.664176 
L 924.55351 418.842655 
L 924.787722 418.571841 
L 925.641804 417.830478 
L 925.879538 417.629003 
L 926.092618 417.471639 
L 927.575375 416.593061 
L 927.857134 416.479019 
L 928.160025 416.279352 
L 928.501658 416.082961 
L 928.709455 415.889142 
L 929.989697 414.858333 
L 930.22567 414.723403 
L 931.099123 414.210477 
L 931.637987 413.741728 
L 932.212071 413.377644 
L 933.09609 412.934967 
L 933.300365 412.747148 
L 934.466143 412.31561 
L 934.737336 412.168637 
L 935.061359 412.010641 
L 935.367772 411.651066 
L 935.48752 411.479978 
L 936.121477 410.867338 
L 936.371538 410.703834 
L 936.993169 410.142708 
L 937.128766 409.946532 
L 937.380588 409.529606 
L 937.459833 409.417973 
L 937.88071 408.600457 
L 937.95115 408.46171 
L 938.21706 408.081007 
L 938.50058 407.73086 
L 938.676679 407.537279 
L 939.222587 406.979172 
L 939.54661 406.220166 
L 939.803715 405.473516 
L 940.101323 404.817813 
L 940.342579 404.601141 
L 940.469371 404.488423 
L 940.700061 404.246777 
L 940.756413 404.124071 
L 940.927229 403.960862 
L 940.98182 403.849878 
L 941.295277 403.343478 
L 941.582319 402.685594 
L 941.695022 402.501677 
L 941.851751 402.301793 
L 942.369483 401.740518 
L 942.466338 401.59673 
L 942.758663 401.210728 
L 942.871366 400.936682 
L 943.093251 400.282023 
L 943.457777 399.314695 
L 943.505324 399.190685 
L 943.880416 398.476179 
L 944.125194 397.815845 
L 946.578258 392.375959 
L 947.388315 391.448212 
L 947.747558 391.215969 
L 947.899003 391.079172 
L 947.972965 390.965864 
L 948.201894 390.771268 
L 948.362145 390.661442 
L 948.670318 390.295728 
L 949.001385 390.175937 
L 949.48742 389.947971 
L 949.631821 389.841268 
L 949.994586 389.506224 
L 950.757096 388.835316 
L 951.199105 388.644608 
L 951.375205 388.452596 
L 951.641115 388.326507 
L 952.204633 387.86671 
L 954.853167 386.22872 
L 955.062726 386.146206 
L 955.538194 385.981296 
L 955.795299 385.831277 
L 956.050643 385.720913 
L 956.198567 385.657059 
L 958.799554 384.6398 
L 959.042571 384.531974 
L 959.266218 384.386718 
L 959.495147 384.149022 
L 959.60785 384.016464 
L 959.863194 383.67273 
L 960.026967 383.52608 
L 960.277028 383.248891 
L 961.231487 382.776449 
L 961.367083 382.666101 
L 961.696389 382.462588 
L 963.265434 381.742936 
L 963.73562 381.322265 
L 963.959266 381.20784 
L 964.170585 381.040988 
L 964.35725 380.830309 
L 964.587941 380.650405 
L 965.589946 379.969169 
L 966.498619 379.567445 
L 966.639498 379.453735 
L 966.930062 379.21904 
L 967.132576 379.063513 
L 967.479492 378.788078 
L 967.646787 378.66763 
L 967.856345 378.549103 
L 968.072947 378.438408 
L 968.294832 378.328981 
L 968.801999 378.118974 
L 968.986903 378.045909 
L 969.457088 377.841262 
L 970.406264 377.172494 
L 970.578841 377.057621 
L 970.996197 376.670757 
L 971.44525 376.35409 
L 972.450777 375.644774 
L 972.727253 375.394191 
L 972.883982 375.282439 
L 973.068886 375.149023 
L 973.697561 374.872205 
L 973.878943 374.751435 
L 974.562209 374.330127 
L 974.680195 374.21614 
L 974.851012 374.052851 
L 977.335774 372.507751 
L 979.369722 371.610205 
L 979.669091 371.381609 
L 980.160408 371.106207 
L 980.401664 370.993393 
L 980.6077 370.895628 
L 980.894742 370.78003 
L 981.104301 370.690715 
L 982.518378 370.052315 
L 983.203405 369.792075 
L 983.411202 369.332984 
L 984.134971 367.915326 
L 984.337485 367.504509 
L 984.679118 367.037847 
L 984.865783 366.919467 
L 985.376471 366.345399 
L 985.939989 365.473028 
L 986.167157 365.330188 
L 986.306276 365.2937 
L 986.471809 365.131082 
L 986.644387 365.001754 
L 986.994824 364.793957 
L 987.896453 363.84704 
L 988.123621 363.586553 
L 988.629027 362.86109 
L 989.081602 362.262003 
L 989.433801 361.887378 
L 989.648642 361.770435 
L 990.036061 361.316077 
L 990.289644 361.035383 
L 990.340713 360.90674 
L 991.686112 359.452777 
L 991.82523 359.332733 
L 991.980198 359.263352 
L 992.172146 359.14741 
L 992.39227 359.022521 
L 992.504974 358.911587 
L 992.730381 358.622727 
L 992.992769 358.475002 
L 993.174151 358.366179 
L 993.33088 358.314474 
L 993.512262 358.198019 
L 994.507224 357.431947 
L 994.922818 356.802632 
L 995.030239 356.688974 
L 995.146464 356.493898 
L 995.415896 356.080009 
L 995.720548 355.602263 
L 995.879038 355.464152 
L 996.178407 355.01417 
L 996.331613 354.868889 
L 996.57463 354.570471 
L 996.835257 354.317293 
L 997.405819 353.094227 
L 997.585441 352.869082 
L 998.020406 352.559632 
L 998.325058 352.401503 
L 998.568075 352.081915 
L 998.867444 351.716141 
L 999.180901 351.211251 
L 999.258385 351.079028 
L 999.443289 350.925887 
L 999.69335 350.665456 
L 999.88882 350.397539 
L 1000.070203 350.269559 
L 1001.096862 348.608169 
L 1001.406797 348.430069 
L 1001.563525 348.346399 
L 1001.818869 348.221413 
L 1002.024906 347.899591 
L 1002.091824 347.777444 
L 1003.6098 346.404654 
L 1003.812314 346.254779 
L 1003.979609 346.154255 
L 1004.291305 346.035913 
L 1005.450039 345.784638 
L 1006.402736 345.146062 
L 1007.542099 344.622761 
L 1007.769267 344.263068 
L 1007.887254 344.044544 
L 1008.124988 343.679361 
L 1008.257062 343.553921 
L 1008.716682 343.241318 
L 1009.355923 342.939577 
L 1010.317425 342.512972 
L 1010.789371 342.307231 
L 1011.208488 342.147955 
L 1011.449744 342.033088 
L 1011.76144 341.936349 
L 1012.069614 341.820822 
L 1012.397159 341.699174 
L 1012.906086 341.49637 
L 1013.068097 341.430288 
L 1013.568219 341.257821 
L 1013.786583 341.129709 
L 1014.017273 340.973074 
L 1014.196894 340.84236 
L 1014.554376 340.546117 
L 1014.80972 340.427738 
L 1016.033611 339.789262 
L 1017.083163 338.678204 
L 1017.232847 338.533011 
L 1017.430079 338.389137 
L 1017.975987 338.108475 
L 1018.363405 337.881332 
L 1018.528939 337.723557 
L 1018.742019 337.569657 
L 1019.259751 337.402669 
L 1020.318108 336.979672 
L 1020.598106 336.84839 
L 1021.054204 336.559892 
L 1021.191561 336.431963 
L 1021.422251 336.222887 
L 1022.056209 335.761958 
L 1022.343251 335.644687 
L 1024.570908 334.754805 
L 1025.31933 334.499631 
L 1025.587002 334.436295 
L 1025.731403 334.295397 
L 1026.444605 333.721267 
L 1026.798565 333.351863 
L 1027.501202 332.952643 
L 1027.737175 332.736223 
L 1028.828991 332.274337 
L 1029.07553 332.102523 
L 1029.32383 331.954054 
L 1029.503452 331.753088 
L 1029.672507 331.614941 
L 1029.769362 331.506393 
L 1030.033511 331.165023 
L 1030.133887 331.015179 
L 1030.366338 330.643379 
L 1031.16583 328.696423 
L 1031.387715 328.338126 
L 1031.523311 328.188103 
L 1031.833246 327.74748 
L 1031.997019 327.545217 
L 1032.296388 327.050842 
L 1033.573108 325.303841 
L 1033.89537 324.899099 
L 1034.428951 324.262084 
L 1034.83574 323.794447 
L 1035.108694 323.422127 
L 1035.332341 323.203196 
L 1035.665169 322.862272 
L 1035.80957 322.716737 
L 1036.147681 322.38926 
L 1036.260384 322.261046 
L 1036.438245 322.101857 
L 1036.649564 321.952754 
L 1036.830946 321.841436 
L 1036.99648 321.703166 
L 1037.234214 321.449776 
L 1037.357483 321.315211 
L 1037.544149 321.10675 
L 1037.681506 320.991637 
L 1037.834713 320.870741 
L 1038.440495 320.488227 
L 1038.67999 320.355848 
L 1038.819108 320.285914 
L 1038.984642 320.162506 
L 1039.130804 320.08338 
L 1039.391431 319.906987 
L 1039.731303 319.704961 
L 1039.940861 319.588966 
L 1040.266645 319.38664 
L 1040.388154 319.27684 
L 1040.696328 319.002309 
L 1040.833685 318.887637 
L 1041.101356 318.724251 
L 1041.974809 318.254504 
L 1043.924229 317.218767 
L 1044.133787 317.124215 
L 1044.704349 316.808144 
L 1044.952649 316.619756 
L 1045.176296 316.398318 
L 1045.466859 316.054381 
L 1046.153647 315.517665 
L 1046.574525 315.02065 
L 1046.713643 314.891025 
L 1046.880937 314.772739 
L 1047.479675 314.253985 
L 1047.71917 313.979075 
L 1048.761679 313.03052 
L 1049.127965 312.913292 
L 1049.698527 312.600955 
L 1049.976764 312.386745 
L 1050.166952 312.274866 
L 1050.439906 312.13508 
L 1050.711099 311.95661 
L 1051.98958 310.938237 
L 1052.782027 310.398344 
L 1053.150075 310.275252 
L 1053.479381 310.102088 
L 1054.136231 309.307995 
L 1054.284155 309.229706 
L 1054.498996 309.111367 
L 1054.958616 308.884514 
L 1055.17874 308.763252 
L 1055.707038 308.370989 
L 1056.055715 307.955902 
L 1056.228292 307.763216 
L 1056.691433 307.016015 
L 1056.848162 306.841108 
L 1057.156336 306.421739 
L 1057.619477 306.098131 
L 1057.786771 305.989185 
L 1057.982242 305.819815 
L 1058.165385 305.741465 
L 1058.413685 305.625958 
L 1058.695444 305.392978 
L 1060.054931 304.740007 
L 1060.40713 304.615047 
L 1060.870271 304.267171 
L 1061.410896 304.030209 
L 1061.613411 303.895189 
L 1063.11906 302.896029 
L 1063.369121 302.649786 
L 1065.896147 301.09196 
L 1066.206082 300.969908 
L 1067.694122 300.207632 
L 1068.166068 299.842225 
L 1068.447827 299.643182 
L 1068.645059 299.545943 
L 1068.91273 299.428228 
L 1069.516751 299.03594 
L 1070.145425 298.622248 
L 1070.524039 298.49186 
L 1070.752968 298.398351 
L 1071.194978 298.175335 
L 1071.638748 298.048545 
L 1072.158241 297.802792 
L 1072.517484 297.674733 
L 1072.792199 297.581921 
L 1075.192433 296.425429 
L 1075.41784 296.313329 
L 1076.629404 295.591929 
L 1077.775811 294.755905 
L 1077.965998 294.625032 
L 1078.746119 294.151294 
L 1079.049009 293.860671 
L 1079.737558 293.438712 
L 1079.920701 293.323885 
L 1080.292271 293.153363 
L 1081.199183 292.54066 
L 1081.436917 292.15808 
L 1081.482703 292.044205 
L 1081.790877 291.573653 
L 1082.127226 291.317001 
L 1082.352634 291.152347 
L 1082.613261 290.824715 
L 1083.580046 290.348239 
L 1083.925201 290.054318 
L 1084.059037 289.923027 
L 1084.594379 289.430964 
L 1085.138526 289.050908 
L 1085.39387 288.938025 
L 1085.555881 288.851406 
L 1085.756634 288.740995 
L 1086.010218 288.585538 
L 1087.061531 288.014092 
L 1087.399642 287.815899 
L 1087.651464 287.699039 
L 1087.938506 287.531336 
L 1088.382276 287.302353 
L 1088.586551 287.090141 
L 1088.949316 286.665753 
L 1089.102522 286.599619 
L 1089.528683 286.378927 
L 1089.990063 285.808932 
L 1090.153836 285.588362 
L 1090.419746 285.278036 
L 1090.863516 284.806685 
L 1091.071313 284.621226 
L 1091.358355 284.393245 
L 1091.775711 284.129523 
L 1092.024011 283.982542 
L 1092.432562 283.838614 
L 1092.846395 283.63732 
L 1093.29897 283.352877 
L 1093.508529 283.243996 
L 1093.908274 283.09846 
L 1094.197077 282.775988 
L 1095.209649 281.826264 
L 1095.70801 280.91994 
L 1096.091907 280.527148 
L 1096.333163 280.29099 
L 1096.535677 279.933929 
L 1096.650142 279.784984 
L 1096.826241 279.540602 
L 1098.11881 278.285559 
L 1098.308998 278.154009 
L 1098.474531 278.041296 
L 1098.736919 277.926402 
L 1099.219431 277.7422 
L 1099.610372 277.459624 
L 1099.738924 277.406698 
L 1099.966093 277.320221 
L 1100.239047 277.207523 
L 1100.939922 276.891838 
L 1102.426201 276.113708 
L 1102.748463 275.979197 
L 1103.706443 275.719253 
L 1104.104428 275.505966 
L 1105.985169 274.77668 
L 1106.231708 274.316192 
L 1106.397242 274.171416 
L 1106.754723 273.833632 
L 1106.823402 273.722839 
L 1106.997741 273.511653 
L 1107.184406 273.283672 
L 1108.332574 272.247141 
L 1108.519239 272.105879 
L 1108.704143 271.992783 
L 1109.206027 271.674743 
L 1109.38917 271.49657 
L 1109.63747 271.304206 
L 1109.873443 271.038424 
L 1110.380609 270.703186 
L 1110.96702 270.332476 
L 1111.113183 270.282741 
L 1111.519972 270.111643 
L 1112.145125 269.554551 
L 1112.456821 269.370519 
L 1112.868894 269.024318 
L 1113.229897 268.842284 
L 1113.791654 268.375887 
L 1114.089262 268.091401 
L 1114.867621 267.558965 
L 1115.469881 266.964928 
L 1116.440189 266.188653 
L 1116.785344 266.044706 
L 1117.063581 265.872639 
L 1117.988102 265.437504 
L 1118.484702 265.279426 
L 1118.722437 265.22474 
L 1119.233125 264.959369 
L 1119.514884 264.766038 
L 1120.390098 264.378658 
L 1120.96066 264.18137 
L 1121.279399 264.034828 
L 1121.547071 263.905196 
L 1121.74078 263.788036 
L 1122.221531 263.556748 
L 1122.711087 263.368497 
L 1122.975236 263.255919 
L 1123.415485 263.069081 
L 1123.632087 262.909157 
L 1123.845167 262.713081 
L 1124.132209 262.437729 
L 1124.341768 262.293994 
L 1124.551326 262.179812 
L 1124.952832 261.645808 
L 1125.153586 261.496473 
L 1125.3561 261.373733 
L 1125.585029 261.209975 
L 1125.771694 261.07611 
L 1126.324646 260.733469 
L 1126.498985 260.676156 
L 1126.86175 260.51083 
L 1128.224759 259.380627 
L 1128.904502 258.989138 
L 1129.193305 258.802522 
L 1130.188267 258.274807 
L 1130.3538 258.16213 
L 1130.595056 258.001645 
L 1130.809897 257.877783 
L 1131.477314 256.986363 
L 1131.676306 256.669259 
L 1131.977436 256.184005 
L 1132.086618 255.971138 
L 1132.382465 255.668476 
L 1132.576174 255.472421 
L 1132.956549 254.724898 
L 1133.240069 254.289849 
L 1133.354533 254.161701 
L 1133.602833 253.873326 
L 1134.032516 253.579634 
L 1134.30547 253.272606 
L 1134.507984 253.161924 
L 1135.29867 252.387144 
L 1135.733636 252.105447 
L 1135.863949 252.054813 
L 1136.078791 251.88023 
L 1136.723314 251.281127 
L 1137.05262 250.573319 
L 1137.156519 250.43742 
L 1138.234247 249.316378 
L 1138.526572 249.182993 
L 1138.697388 249.052808 
L 1138.958015 248.857815 
L 1139.223925 248.664728 
L 1139.546187 248.510974 
L 1139.910713 248.007534 
L 1140.04807 247.900352 
L 1140.210082 247.772801 
L 1140.456621 247.62607 
L 1141.893592 246.784634 
L 1142.259878 246.660878 
L 1143.103394 246.188383 
L 1143.434461 246.053601 
L 1144.073702 245.46825 
L 1144.30087 245.072129 
L 1144.95596 243.978897 
L 1145.290549 243.605912 
L 1145.619854 242.876357 
L 1145.670923 242.758459 
L 1145.894569 242.296372 
L 1146.033688 242.149453 
L 1146.67469 241.653105 
L 1147.873926 241.078503 
L 1148.03946 240.92455 
L 1148.516689 240.391195 
L 1148.652286 240.279587 
L 1148.965743 239.92801 
L 1149.078446 239.809863 
L 1149.310897 239.556955 
L 1149.529261 239.433322 
L 1150.416801 238.725916 
L 1150.543593 238.612436 
L 1151.628365 238.162682 
L 1151.934778 238.017421 
L 1152.970242 237.48793 
L 1153.200932 237.088139 
L 1153.454515 236.755699 
L 1153.627093 236.523648 
L 1153.8525 236.264538 
L 1153.935267 236.145639 
L 1154.116649 235.959756 
L 1154.549854 235.284447 
L 1154.704821 235.157823 
L 1155.204943 234.851417 
L 1155.433872 234.755893 
L 1155.747329 234.617543 
L 1157.466059 232.754822 
L 1157.621027 232.604147 
L 1157.853478 232.419453 
L 1158.094734 232.326902 
L 1158.341273 232.198864 
L 1158.910074 231.881811 
L 1159.109066 231.767158 
L 1160.625282 230.837053 
L 1160.811947 230.764638 
L 1161.176473 230.617675 
L 1161.479364 230.413523 
L 1161.681878 230.252148 
L 1162.009423 230.02789 
L 1162.439105 229.901575 
L 1162.669796 229.725847 
L 1162.99734 229.590352 
L 1163.212182 229.477167 
L 1163.377715 229.362601 
L 1165.261978 228.390301 
L 1166.397819 227.456257 
L 1166.454171 227.344935 
L 1166.707754 227.069867 
L 1167.084607 226.787092 
L 1167.436805 226.413716 
L 1167.55127 226.291542 
L 1169.909241 224.935506 
L 1170.610116 224.731274 
L 1170.955271 224.587174 
L 1172.640542 224.062011 
L 1173.022678 223.945141 
L 1173.253368 223.889271 
L 1173.642547 223.719078 
L 1173.882042 223.513617 
L 1174.052859 223.360694 
L 1174.260656 223.223665 
L 1175.459893 222.660683 
L 1175.665929 222.530306 
L 1175.894858 222.433472 
L 1176.65913 222.139137 
L 1181.117966 219.599951 
L 1181.33809 219.374009 
L 1181.484252 219.245033 
L 1182.236197 218.465701 
L 1182.459843 218.151485 
L 1182.695816 217.92034 
L 1182.829651 217.754501 
L 1183.190655 217.435733 
L 1183.299837 217.323527 
L 1183.919707 216.797795 
L 1186.3534 215.475627 
L 1186.629876 215.316605 
L 1187.182828 215.117436 
L 1187.631881 214.992159 
L 1188.100306 214.893544 
L 1188.642692 214.779701 
L 1190.109599 214.009117 
L 1190.37551 213.765336 
L 1190.546326 213.64931 
L 1191.3511 213.213198 
L 1191.587073 213.100937 
L 1191.808958 212.984358 
L 1192.161157 212.770492 
L 1192.536249 212.580955 
L 1192.80392 212.407305 
L 1193.448444 212.156006 
L 1193.918629 212.008114 
L 1194.316613 211.803735 
L 1194.531455 211.68068 
L 1194.793843 211.482907 
L 1195.003401 211.303828 
L 1195.352078 211.166602 
L 1197.634326 209.619203 
L 1198.986769 209.049056 
L 1199.176956 208.934478 
L 1199.32488 208.778319 
L 1199.958837 208.262238 
L 1201.932911 207.510522 
L 1202.401336 207.082341 
L 1202.607372 206.905985 
L 1202.848628 206.683785 
L 1203.364599 206.282457 
L 1203.54422 206.158733 
L 1204.005601 205.959708 
L 1204.521572 205.813805 
L 1205.380937 205.281398 
L 1205.944455 204.606768 
L 1206.618915 203.72059 
L 1206.837279 203.508078 
L 1208.393997 201.764651 
L 1208.621165 201.445236 
L 1208.820158 201.162682 
L 1209.547448 200.171617 
L 1209.753484 200.046666 
L 1209.987696 199.894881 
L 1210.18845 199.711014 
L 1210.445555 199.532195 
L 1210.535365 199.423387 
L 1211.142908 197.647536 
L 1211.273222 197.382494 
L 1211.484541 196.979533 
L 1211.74869 196.517407 
L 1212.072713 195.872368 
L 1212.352711 195.216091 
L 1212.460132 195.087855 
L 1212.784154 194.53013 
L 1213.013084 194.036714 
L 1213.155724 193.805494 
L 1213.370565 193.436471 
L 1213.472703 193.296037 
L 1213.895341 192.729228 
L 1214.127793 192.466061 
L 1214.772316 191.661892 
L 1214.95546 191.348169 
L 1215.082251 191.158925 
L 1215.371054 190.689083 
L 1215.654574 190.514398 
L 1215.772561 190.383191 
L 1216.293815 189.87077 
L 1216.776327 189.57943 
L 1216.985885 189.436534 
L 1217.378587 189.004799 
L 1217.625126 188.531254 
L 1218.371787 187.700617 
L 1218.549648 187.521812 
L 1218.903608 187.200139 
L 1218.989896 187.086101 
L 1219.229391 186.792646 
L 1219.331529 186.681649 
L 1219.611527 186.356214 
L 1219.872154 186.104267 
L 1220.086995 185.929182 
L 1220.604727 185.685029 
L 1220.759695 185.52062 
L 1221.046737 185.305296 
L 1221.465853 184.975593 
L 1221.555664 184.865485 
L 1221.81453 184.678459 
L 1224.017533 183.151604 
L 1224.198916 182.994146 
L 1224.70256 182.736896 
L 1225.026583 182.618697 
L 1225.2696 182.395192 
L 1225.468592 182.13975 
L 1225.966953 181.429275 
L 1226.246951 180.883304 
L 1226.371982 180.771539 
L 1226.442422 180.656744 
L 1226.919651 180.165186 
L 1227.02355 180.04817 
L 1227.292982 179.645603 
L 1227.918134 178.927659 
L 1227.993857 178.81596 
L 1228.236874 178.453426 
L 1228.578507 178.029329 
L 1228.890203 177.709279 
L 1229.134981 177.468301 
L 1229.288187 177.302332 
L 1230.019 175.981084 
L 1230.21447 175.611424 
L 1230.281388 175.439914 
L 1230.464531 175.130766 
L 1230.94 174.564753 
L 1232.040621 173.130349 
L 1232.204393 173.002225 
L 1233.54627 172.160378 
L 1233.824507 172.041203 
L 1235.273805 171.227766 
L 1235.809147 171.059324 
L 1236.129648 170.918651 
L 1236.598072 170.745524 
L 1236.767128 170.64443 
L 1240.447605 169.182761 
L 1241.534138 168.631767 
L 1241.962059 168.513823 
L 1242.215642 168.422713 
L 1242.467464 168.307722 
L 1242.795009 168.189143 
L 1243.68255 167.903365 
L 1244.048837 167.773249 
L 1245.272727 167.4 
L 1245.272727 167.4 
" clip-path="url(#pc002455287)" style="fill: none; stroke: #ff0000; stroke-width: 1.5; stroke-linecap: square"/>
   </g>
   <g id="patch_3">
    <path d="M 180 961.2 
L 180 129.6 
" style="fill: none; stroke: #000000; stroke-width: 0.8; stroke-linejoin: miter; stroke-linecap: square"/>
   </g>
   <g id="patch_4">
    <path d="M 1296 961.2 
L 1296 129.6 
" style="fill: none; stroke: #000000; stroke-width: 0.8; stroke-linejoin: miter; stroke-linecap: square"/>
   </g>
   <g id="patch_5">
    <path d="M 180 961.2 
L 1296 961.2 
" style="fill: none; stroke: #000000; stroke-width: 0.8; stroke-linejoin: miter; stroke-linecap: square"/>
   </g>
   <g id="patch_6">
    <path d="M 180 129.6 
L 1296 129.6 
" style="fill: none; stroke: #000000; stroke-width: 0.8; stroke-linejoin: miter; stroke-linecap: square"/>
   </g>
   <g id="legend_1">
    <g id="patch_7">
     <path d="M 1131.645313 152.278125 
L 1289 152.278125 
Q 1291 152.278125 1291 150.278125 
L 1291 136.6 
Q 1291 134.6 1289 134.6 
L 1131.645313 134.6 
Q 1129.645313 134.6 1129.645313 136.6 
L 1129.645313 150.278125 
Q 1129.645313 152.278125 1131.645313 152.278125 
z
" style="fill: #ffffff; opacity: 0.8; stroke: #cccccc; stroke-linejoin: miter"/>
    </g>
    <g id="line2d_15">
     <path d="M 1133.645313 142.698438 
L 1143.645313 142.698438 
L 1153.645313 142.698438 
" style="fill: none; stroke: #ff0000; stroke-width: 1.5; stroke-linecap: square"/>
    </g>
    <g id="text_13">
     <!-- Board Time U2 (minutes) -->
     <g transform="translate(1161.645313 146.198438) scale(0.1 -0.1)">
      <defs>
       <path id="DejaVuSans-42" d="M 1259 2228 
L 1259 519 
L 2272 519 
Q 2781 519 3026 730 
Q 3272 941 3272 1375 
Q 3272 1813 3026 2020 
Q 2781 2228 2272 2228 
L 1259 2228 
z
M 1259 4147 
L 1259 2741 
L 2194 2741 
Q 2656 2741 2882 2914 
Q 3109 3088 3109 3444 
Q 3109 3797 2882 3972 
Q 2656 4147 2194 4147 
L 1259 4147 
z
M 628 4666 
L 2241 4666 
Q 2963 4666 3353 4366 
Q 3744 4066 3744 3513 
Q 3744 3084 3544 2831 
Q 3344 2578 2956 2516 
Q 3422 2416 3680 2098 
Q 3938 1781 3938 1306 
Q 3938 681 3513 340 
Q 3088 0 2303 0 
L 628 0 
L 628 4666 
z
" transform="scale(0.015625)"/>
       <path id="DejaVuSans-6f" d="M 1959 3097 
Q 1497 3097 1228 2736 
Q 959 2375 959 1747 
Q 959 1119 1226 758 
Q 1494 397 1959 397 
Q 2419 397 2687 759 
Q 2956 1122 2956 1747 
Q 2956 2369 2687 2733 
Q 2419 3097 1959 3097 
z
M 1959 3584 
Q 2709 3584 3137 3096 
Q 3566 2609 3566 1747 
Q 3566 888 3137 398 
Q 2709 -91 1959 -91 
Q 1206 -91 779 398 
Q 353 888 353 1747 
Q 353 2609 779 3096 
Q 1206 3584 1959 3584 
z
" transform="scale(0.015625)"/>
       <path id="DejaVuSans-61" d="M 2194 1759 
Q 1497 1759 1228 1600 
Q 959 1441 959 1056 
Q 959 750 1161 570 
Q 1363 391 1709 391 
Q 2188 391 2477 730 
Q 2766 1069 2766 1631 
L 2766 1759 
L 2194 1759 
z
M 3341 1997 
L 3341 0 
L 2766 0 
L 2766 531 
Q 2569 213 2275 61 
Q 1981 -91 1556 -91 
Q 1019 -91 701 211 
Q 384 513 384 1019 
Q 384 1609 779 1909 
Q 1175 2209 1959 2209 
L 2766 2209 
L 2766 2266 
Q 2766 2663 2505 2880 
Q 2244 3097 1772 3097 
Q 1472 3097 1187 3025 
Q 903 2953 641 2809 
L 641 3341 
Q 956 3463 1253 3523 
Q 1550 3584 1831 3584 
Q 2591 3584 2966 3190 
Q 3341 2797 3341 1997 
z
" transform="scale(0.015625)"/>
       <path id="DejaVuSans-72" d="M 2631 2963 
Q 2534 3019 2420 3045 
Q 2306 3072 2169 3072 
Q 1681 3072 1420 2755 
Q 1159 2438 1159 1844 
L 1159 0 
L 581 0 
L 581 3500 
L 1159 3500 
L 1159 2956 
Q 1341 3275 1631 3429 
Q 1922 3584 2338 3584 
Q 2397 3584 2469 3576 
Q 2541 3569 2628 3553 
L 2631 2963 
z
" transform="scale(0.015625)"/>
       <path id="DejaVuSans-64" d="M 2906 2969 
L 2906 4863 
L 3481 4863 
L 3481 0 
L 2906 0 
L 2906 525 
Q 2725 213 2448 61 
Q 2172 -91 1784 -91 
Q 1150 -91 751 415 
Q 353 922 353 1747 
Q 353 2572 751 3078 
Q 1150 3584 1784 3584 
Q 2172 3584 2448 3432 
Q 2725 3281 2906 2969 
z
M 947 1747 
Q 947 1113 1208 752 
Q 1469 391 1925 391 
Q 2381 391 2643 752 
Q 2906 1113 2906 1747 
Q 2906 2381 2643 2742 
Q 2381 3103 1925 3103 
Q 1469 3103 1208 2742 
Q 947 2381 947 1747 
z
" transform="scale(0.015625)"/>
       <path id="DejaVuSans-20" transform="scale(0.015625)"/>
       <path id="DejaVuSans-54" d="M -19 4666 
L 3928 4666 
L 3928 4134 
L 2272 4134 
L 2272 0 
L 1638 0 
L 1638 4134 
L -19 4134 
L -19 4666 
z
" transform="scale(0.015625)"/>
       <path id="DejaVuSans-69" d="M 603 3500 
L 1178 3500 
L 1178 0 
L 603 0 
L 603 3500 
z
M 603 4863 
L 1178 4863 
L 1178 4134 
L 603 4134 
L 603 4863 
z
" transform="scale(0.015625)"/>
       <path id="DejaVuSans-6d" d="M 3328 2828 
Q 3544 3216 3844 3400 
Q 4144 3584 4550 3584 
Q 5097 3584 5394 3201 
Q 5691 2819 5691 2113 
L 5691 0 
L 5113 0 
L 5113 2094 
Q 5113 2597 4934 2840 
Q 4756 3084 4391 3084 
Q 3944 3084 3684 2787 
Q 3425 2491 3425 1978 
L 3425 0 
L 2847 0 
L 2847 2094 
Q 2847 2600 2669 2842 
Q 2491 3084 2119 3084 
Q 1678 3084 1418 2786 
Q 1159 2488 1159 1978 
L 1159 0 
L 581 0 
L 581 3500 
L 1159 3500 
L 1159 2956 
Q 1356 3278 1631 3431 
Q 1906 3584 2284 3584 
Q 2666 3584 2933 3390 
Q 3200 3197 3328 2828 
z
" transform="scale(0.015625)"/>
       <path id="DejaVuSans-65" d="M 3597 1894 
L 3597 1613 
L 953 1613 
Q 991 1019 1311 708 
Q 1631 397 2203 397 
Q 2534 397 2845 478 
Q 3156 559 3463 722 
L 3463 178 
Q 3153 47 2828 -22 
Q 2503 -91 2169 -91 
Q 1331 -91 842 396 
Q 353 884 353 1716 
Q 353 2575 817 3079 
Q 1281 3584 2069 3584 
Q 2775 3584 3186 3129 
Q 3597 2675 3597 1894 
z
M 3022 2063 
Q 3016 2534 2758 2815 
Q 2500 3097 2075 3097 
Q 1594 3097 1305 2825 
Q 1016 2553 972 2059 
L 3022 2063 
z
" transform="scale(0.015625)"/>
       <path id="DejaVuSans-55" d="M 556 4666 
L 1191 4666 
L 1191 1831 
Q 1191 1081 1462 751 
Q 1734 422 2344 422 
Q 2950 422 3222 751 
Q 3494 1081 3494 1831 
L 3494 4666 
L 4128 4666 
L 4128 1753 
Q 4128 841 3676 375 
Q 3225 -91 2344 -91 
Q 1459 -91 1007 375 
Q 556 841 556 1753 
L 556 4666 
z
" transform="scale(0.015625)"/>
       <path id="DejaVuSans-28" d="M 1984 4856 
Q 1566 4138 1362 3434 
Q 1159 2731 1159 2009 
Q 1159 1288 1364 580 
Q 1569 -128 1984 -844 
L 1484 -844 
Q 1016 -109 783 600 
Q 550 1309 550 2009 
Q 550 2706 781 3412 
Q 1013 4119 1484 4856 
L 1984 4856 
z
" transform="scale(0.015625)"/>
       <path id="DejaVuSans-6e" d="M 3513 2113 
L 3513 0 
L 2938 0 
L 2938 2094 
Q 2938 2591 2744 2837 
Q 2550 3084 2163 3084 
Q 1697 3084 1428 2787 
Q 1159 2491 1159 1978 
L 1159 0 
L 581 0 
L 581 3500 
L 1159 3500 
L 1159 2956 
Q 1366 3272 1645 3428 
Q 1925 3584 2291 3584 
Q 2894 3584 3203 3211 
Q 3513 2838 3513 2113 
z
" transform="scale(0.015625)"/>
       <path id="DejaVuSans-75" d="M 544 1381 
L 544 3500 
L 1119 3500 
L 1119 1403 
Q 1119 906 1312 657 
Q 1506 409 1894 409 
Q 2359 409 2629 706 
Q 2900 1003 2900 1516 
L 2900 3500 
L 3475 3500 
L 3475 0 
L 2900 0 
L 2900 538 
Q 2691 219 2414 64 
Q 2138 -91 1772 -91 
Q 1169 -91 856 284 
Q 544 659 544 1381 
z
M 1991 3584 
L 1991 3584 
z
" transform="scale(0.015625)"/>
       <path id="DejaVuSans-74" d="M 1172 4494 
L 1172 3500 
L 2356 3500 
L 2356 3053 
L 1172 3053 
L 1172 1153 
Q 1172 725 1289 603 
Q 1406 481 1766 481 
L 2356 481 
L 2356 0 
L 1766 0 
Q 1100 0 847 248 
Q 594 497 594 1153 
L 594 3053 
L 172 3053 
L 172 3500 
L 594 3500 
L 594 4494 
L 1172 4494 
z
" transform="scale(0.015625)"/>
       <path id="DejaVuSans-73" d="M 2834 3397 
L 2834 2853 
Q 2591 2978 2328 3040 
Q 2066 3103 1784 3103 
Q 1356 3103 1142 2972 
Q 928 2841 928 2578 
Q 928 2378 1081 2264 
Q 1234 2150 1697 2047 
L 1894 2003 
Q 2506 1872 2764 1633 
Q 3022 1394 3022 966 
Q 3022 478 2636 193 
Q 2250 -91 1575 -91 
Q 1294 -91 989 -36 
Q 684 19 347 128 
L 347 722 
Q 666 556 975 473 
Q 1284 391 1588 391 
Q 1994 391 2212 530 
Q 2431 669 2431 922 
Q 2431 1156 2273 1281 
Q 2116 1406 1581 1522 
L 1381 1569 
Q 847 1681 609 1914 
Q 372 2147 372 2553 
Q 372 3047 722 3315 
Q 1072 3584 1716 3584 
Q 2034 3584 2315 3537 
Q 2597 3491 2834 3397 
z
" transform="scale(0.015625)"/>
       <path id="DejaVuSans-29" d="M 513 4856 
L 1013 4856 
Q 1481 4119 1714 3412 
Q 1947 2706 1947 2009 
Q 1947 1309 1714 600 
Q 1481 -109 1013 -844 
L 513 -844 
Q 928 -128 1133 580 
Q 1338 1288 1338 2009 
Q 1338 2731 1133 3434 
Q 928 4138 513 4856 
z
" transform="scale(0.015625)"/>
      </defs>
      <use xlink:href="#DejaVuSans-42"/>
      <use xlink:href="#DejaVuSans-6f" transform="translate(68.603516 0)"/>
      <use xlink:href="#DejaVuSans-61" transform="translate(129.785156 0)"/>
      <use xlink:href="#DejaVuSans-72" transform="translate(191.064453 0)"/>
      <use xlink:href="#DejaVuSans-64" transform="translate(230.427734 0)"/>
      <use xlink:href="#DejaVuSans-20" transform="translate(293.904297 0)"/>
      <use xlink:href="#DejaVuSans-54" transform="translate(325.691406 0)"/>
      <use xlink:href="#DejaVuSans-69" transform="translate(383.650391 0)"/>
      <use xlink:href="#DejaVuSans-6d" transform="translate(411.433594 0)"/>
      <use xlink:href="#DejaVuSans-65" transform="translate(508.845703 0)"/>
      <use xlink:href="#DejaVuSans-20" transform="translate(570.369141 0)"/>
      <use xlink:href="#DejaVuSans-55" transform="translate(602.15625 0)"/>
      <use xlink:href="#DejaVuSans-32" transform="translate(675.349609 0)"/>
      <use xlink:href="#DejaVuSans-20" transform="translate(738.972656 0)"/>
      <use xlink:href="#DejaVuSans-28" transform="translate(770.759766 0)"/>
      <use xlink:href="#DejaVuSans-6d" transform="translate(809.773438 0)"/>
      <use xlink:href="#DejaVuSans-69" transform="translate(907.185547 0)"/>
      <use xlink:href="#DejaVuSans-6e" transform="translate(934.96875 0)"/>
      <use xlink:href="#DejaVuSans-75" transform="translate(998.347656 0)"/>
      <use xlink:href="#DejaVuSans-74" transform="translate(1061.726562 0)"/>
      <use xlink:href="#DejaVuSans-65" transform="translate(1100.935547 0)"/>
      <use xlink:href="#DejaVuSans-73" transform="translate(1162.458984 0)"/>
      <use xlink:href="#DejaVuSans-29" transform="translate(1214.558594 0)"/>
     </g>
    </g>
   </g>
  </g>
 </g>
 <defs>
  <clipPath id="pc002455287">
   <rect x="180" y="129.6" width="1116" height="831.6"/>
  </clipPath>
 </defs>
</svg>
