<?xml version="1.0" encoding="utf-8" standalone="no"?>
<!DOCTYPE svg PUBLIC "-//W3C//DTD SVG 1.1//EN"
  "http://www.w3.org/Graphics/SVG/1.1/DTD/svg11.dtd">
<svg xmlns:xlink="http://www.w3.org/1999/xlink" width="1440pt" height="1080pt" viewBox="0 0 1440 1080" xmlns="http://www.w3.org/2000/svg" version="1.1">
 <metadata>
  <rdf:RDF xmlns:dc="http://purl.org/dc/elements/1.1/" xmlns:cc="http://creativecommons.org/ns#" xmlns:rdf="http://www.w3.org/1999/02/22-rdf-syntax-ns#">
   <cc:Work>
    <dc:type rdf:resource="http://purl.org/dc/dcmitype/StillImage"/>
    <dc:date>2025-07-14T18:08:10.988398</dc:date>
    <dc:format>image/svg+xml</dc:format>
    <dc:creator>
     <cc:Agent>
      <dc:title>Matplotlib v3.10.3, https://matplotlib.org/</dc:title>
     </cc:Agent>
    </dc:creator>
   </cc:Work>
  </rdf:RDF>
 </metadata>
 <defs>
  <style type="text/css">*{stroke-linejoin: round; stroke-linecap: butt}</style>
 </defs>
 <g id="figure_1">
  <g id="patch_1">
   <path d="M 0 1080 
L 1440 1080 
L 1440 0 
L 0 0 
z
" style="fill: #ffffff"/>
  </g>
  <g id="axes_1">
   <g id="patch_2">
    <path d="M 180 961.2 
L 1296 961.2 
L 1296 129.6 
L 180 129.6 
z
" style="fill: #ffffff"/>
   </g>
   <g id="matplotlib.axis_1">
    <g id="xtick_1">
     <g id="line2d_1">
      <defs>
       <path id="m415854fcf5" d="M 0 0 
L 0 3.5 
" style="stroke: #000000; stroke-width: 0.8"/>
      </defs>
      <g>
       <use xlink:href="#m415854fcf5" x="230.727273" y="961.2" style="stroke: #000000; stroke-width: 0.8"/>
      </g>
     </g>
     <g id="text_1">
      <!-- 0.0 -->
      <g transform="translate(222.77571 975.798437) scale(0.1 -0.1)">
       <defs>
        <path id="DejaVuSans-30" d="M 2034 4250 
Q 1547 4250 1301 3770 
Q 1056 3291 1056 2328 
Q 1056 1369 1301 889 
Q 1547 409 2034 409 
Q 2525 409 2770 889 
Q 3016 1369 3016 2328 
Q 3016 3291 2770 3770 
Q 2525 4250 2034 4250 
z
M 2034 4750 
Q 2819 4750 3233 4129 
Q 3647 3509 3647 2328 
Q 3647 1150 3233 529 
Q 2819 -91 2034 -91 
Q 1250 -91 836 529 
Q 422 1150 422 2328 
Q 422 3509 836 4129 
Q 1250 4750 2034 4750 
z
" transform="scale(0.015625)"/>
        <path id="DejaVuSans-2e" d="M 684 794 
L 1344 794 
L 1344 0 
L 684 0 
L 684 794 
z
" transform="scale(0.015625)"/>
       </defs>
       <use xlink:href="#DejaVuSans-30"/>
       <use xlink:href="#DejaVuSans-2e" transform="translate(63.623047 0)"/>
       <use xlink:href="#DejaVuSans-30" transform="translate(95.410156 0)"/>
      </g>
     </g>
    </g>
    <g id="xtick_2">
     <g id="line2d_2">
      <g>
       <use xlink:href="#m415854fcf5" x="433.636659" y="961.2" style="stroke: #000000; stroke-width: 0.8"/>
      </g>
     </g>
     <g id="text_2">
      <!-- 0.2 -->
      <g transform="translate(425.685096 975.798437) scale(0.1 -0.1)">
       <defs>
        <path id="DejaVuSans-32" d="M 1228 531 
L 3431 531 
L 3431 0 
L 469 0 
L 469 531 
Q 828 903 1448 1529 
Q 2069 2156 2228 2338 
Q 2531 2678 2651 2914 
Q 2772 3150 2772 3378 
Q 2772 3750 2511 3984 
Q 2250 4219 1831 4219 
Q 1534 4219 1204 4116 
Q 875 4013 500 3803 
L 500 4441 
Q 881 4594 1212 4672 
Q 1544 4750 1819 4750 
Q 2544 4750 2975 4387 
Q 3406 4025 3406 3419 
Q 3406 3131 3298 2873 
Q 3191 2616 2906 2266 
Q 2828 2175 2409 1742 
Q 1991 1309 1228 531 
z
" transform="scale(0.015625)"/>
       </defs>
       <use xlink:href="#DejaVuSans-30"/>
       <use xlink:href="#DejaVuSans-2e" transform="translate(63.623047 0)"/>
       <use xlink:href="#DejaVuSans-32" transform="translate(95.410156 0)"/>
      </g>
     </g>
    </g>
    <g id="xtick_3">
     <g id="line2d_3">
      <g>
       <use xlink:href="#m415854fcf5" x="636.546044" y="961.2" style="stroke: #000000; stroke-width: 0.8"/>
      </g>
     </g>
     <g id="text_3">
      <!-- 0.4 -->
      <g transform="translate(628.594482 975.798437) scale(0.1 -0.1)">
       <defs>
        <path id="DejaVuSans-34" d="M 2419 4116 
L 825 1625 
L 2419 1625 
L 2419 4116 
z
M 2253 4666 
L 3047 4666 
L 3047 1625 
L 3713 1625 
L 3713 1100 
L 3047 1100 
L 3047 0 
L 2419 0 
L 2419 1100 
L 313 1100 
L 313 1709 
L 2253 4666 
z
" transform="scale(0.015625)"/>
       </defs>
       <use xlink:href="#DejaVuSans-30"/>
       <use xlink:href="#DejaVuSans-2e" transform="translate(63.623047 0)"/>
       <use xlink:href="#DejaVuSans-34" transform="translate(95.410156 0)"/>
      </g>
     </g>
    </g>
    <g id="xtick_4">
     <g id="line2d_4">
      <g>
       <use xlink:href="#m415854fcf5" x="839.45543" y="961.2" style="stroke: #000000; stroke-width: 0.8"/>
      </g>
     </g>
     <g id="text_4">
      <!-- 0.6 -->
      <g transform="translate(831.503868 975.798437) scale(0.1 -0.1)">
       <defs>
        <path id="DejaVuSans-36" d="M 2113 2584 
Q 1688 2584 1439 2293 
Q 1191 2003 1191 1497 
Q 1191 994 1439 701 
Q 1688 409 2113 409 
Q 2538 409 2786 701 
Q 3034 994 3034 1497 
Q 3034 2003 2786 2293 
Q 2538 2584 2113 2584 
z
M 3366 4563 
L 3366 3988 
Q 3128 4100 2886 4159 
Q 2644 4219 2406 4219 
Q 1781 4219 1451 3797 
Q 1122 3375 1075 2522 
Q 1259 2794 1537 2939 
Q 1816 3084 2150 3084 
Q 2853 3084 3261 2657 
Q 3669 2231 3669 1497 
Q 3669 778 3244 343 
Q 2819 -91 2113 -91 
Q 1303 -91 875 529 
Q 447 1150 447 2328 
Q 447 3434 972 4092 
Q 1497 4750 2381 4750 
Q 2619 4750 2861 4703 
Q 3103 4656 3366 4563 
z
" transform="scale(0.015625)"/>
       </defs>
       <use xlink:href="#DejaVuSans-30"/>
       <use xlink:href="#DejaVuSans-2e" transform="translate(63.623047 0)"/>
       <use xlink:href="#DejaVuSans-36" transform="translate(95.410156 0)"/>
      </g>
     </g>
    </g>
    <g id="xtick_5">
     <g id="line2d_5">
      <g>
       <use xlink:href="#m415854fcf5" x="1042.364816" y="961.2" style="stroke: #000000; stroke-width: 0.8"/>
      </g>
     </g>
     <g id="text_5">
      <!-- 0.8 -->
      <g transform="translate(1034.413253 975.798437) scale(0.1 -0.1)">
       <defs>
        <path id="DejaVuSans-38" d="M 2034 2216 
Q 1584 2216 1326 1975 
Q 1069 1734 1069 1313 
Q 1069 891 1326 650 
Q 1584 409 2034 409 
Q 2484 409 2743 651 
Q 3003 894 3003 1313 
Q 3003 1734 2745 1975 
Q 2488 2216 2034 2216 
z
M 1403 2484 
Q 997 2584 770 2862 
Q 544 3141 544 3541 
Q 544 4100 942 4425 
Q 1341 4750 2034 4750 
Q 2731 4750 3128 4425 
Q 3525 4100 3525 3541 
Q 3525 3141 3298 2862 
Q 3072 2584 2669 2484 
Q 3125 2378 3379 2068 
Q 3634 1759 3634 1313 
Q 3634 634 3220 271 
Q 2806 -91 2034 -91 
Q 1263 -91 848 271 
Q 434 634 434 1313 
Q 434 1759 690 2068 
Q 947 2378 1403 2484 
z
M 1172 3481 
Q 1172 3119 1398 2916 
Q 1625 2713 2034 2713 
Q 2441 2713 2670 2916 
Q 2900 3119 2900 3481 
Q 2900 3844 2670 4047 
Q 2441 4250 2034 4250 
Q 1625 4250 1398 4047 
Q 1172 3844 1172 3481 
z
" transform="scale(0.015625)"/>
       </defs>
       <use xlink:href="#DejaVuSans-30"/>
       <use xlink:href="#DejaVuSans-2e" transform="translate(63.623047 0)"/>
       <use xlink:href="#DejaVuSans-38" transform="translate(95.410156 0)"/>
      </g>
     </g>
    </g>
    <g id="xtick_6">
     <g id="line2d_6">
      <g>
       <use xlink:href="#m415854fcf5" x="1245.274202" y="961.2" style="stroke: #000000; stroke-width: 0.8"/>
      </g>
     </g>
     <g id="text_6">
      <!-- 1.0 -->
      <g transform="translate(1237.322639 975.798437) scale(0.1 -0.1)">
       <defs>
        <path id="DejaVuSans-31" d="M 794 531 
L 1825 531 
L 1825 4091 
L 703 3866 
L 703 4441 
L 1819 4666 
L 2450 4666 
L 2450 531 
L 3481 531 
L 3481 0 
L 794 0 
L 794 531 
z
" transform="scale(0.015625)"/>
       </defs>
       <use xlink:href="#DejaVuSans-31"/>
       <use xlink:href="#DejaVuSans-2e" transform="translate(63.623047 0)"/>
       <use xlink:href="#DejaVuSans-30" transform="translate(95.410156 0)"/>
      </g>
     </g>
    </g>
   </g>
   <g id="matplotlib.axis_2">
    <g id="ytick_1">
     <g id="line2d_7">
      <defs>
       <path id="mc5cb239d97" d="M 0 0 
L -3.5 0 
" style="stroke: #000000; stroke-width: 0.8"/>
      </defs>
      <g>
       <use xlink:href="#mc5cb239d97" x="180" y="923.4" style="stroke: #000000; stroke-width: 0.8"/>
      </g>
     </g>
     <g id="text_7">
      <!-- 0.0 -->
      <g transform="translate(157.096875 927.199219) scale(0.1 -0.1)">
       <use xlink:href="#DejaVuSans-30"/>
       <use xlink:href="#DejaVuSans-2e" transform="translate(63.623047 0)"/>
       <use xlink:href="#DejaVuSans-30" transform="translate(95.410156 0)"/>
      </g>
     </g>
    </g>
    <g id="ytick_2">
     <g id="line2d_8">
      <g>
       <use xlink:href="#mc5cb239d97" x="180" y="772.2" style="stroke: #000000; stroke-width: 0.8"/>
      </g>
     </g>
     <g id="text_8">
      <!-- 0.2 -->
      <g transform="translate(157.096875 775.999219) scale(0.1 -0.1)">
       <use xlink:href="#DejaVuSans-30"/>
       <use xlink:href="#DejaVuSans-2e" transform="translate(63.623047 0)"/>
       <use xlink:href="#DejaVuSans-32" transform="translate(95.410156 0)"/>
      </g>
     </g>
    </g>
    <g id="ytick_3">
     <g id="line2d_9">
      <g>
       <use xlink:href="#mc5cb239d97" x="180" y="621" style="stroke: #000000; stroke-width: 0.8"/>
      </g>
     </g>
     <g id="text_9">
      <!-- 0.4 -->
      <g transform="translate(157.096875 624.799219) scale(0.1 -0.1)">
       <use xlink:href="#DejaVuSans-30"/>
       <use xlink:href="#DejaVuSans-2e" transform="translate(63.623047 0)"/>
       <use xlink:href="#DejaVuSans-34" transform="translate(95.410156 0)"/>
      </g>
     </g>
    </g>
    <g id="ytick_4">
     <g id="line2d_10">
      <g>
       <use xlink:href="#mc5cb239d97" x="180" y="469.8" style="stroke: #000000; stroke-width: 0.8"/>
      </g>
     </g>
     <g id="text_10">
      <!-- 0.6 -->
      <g transform="translate(157.096875 473.599219) scale(0.1 -0.1)">
       <use xlink:href="#DejaVuSans-30"/>
       <use xlink:href="#DejaVuSans-2e" transform="translate(63.623047 0)"/>
       <use xlink:href="#DejaVuSans-36" transform="translate(95.410156 0)"/>
      </g>
     </g>
    </g>
    <g id="ytick_5">
     <g id="line2d_11">
      <g>
       <use xlink:href="#mc5cb239d97" x="180" y="318.6" style="stroke: #000000; stroke-width: 0.8"/>
      </g>
     </g>
     <g id="text_11">
      <!-- 0.8 -->
      <g transform="translate(157.096875 322.399219) scale(0.1 -0.1)">
       <use xlink:href="#DejaVuSans-30"/>
       <use xlink:href="#DejaVuSans-2e" transform="translate(63.623047 0)"/>
       <use xlink:href="#DejaVuSans-38" transform="translate(95.410156 0)"/>
      </g>
     </g>
    </g>
    <g id="ytick_6">
     <g id="line2d_12">
      <g>
       <use xlink:href="#mc5cb239d97" x="180" y="167.4" style="stroke: #000000; stroke-width: 0.8"/>
      </g>
     </g>
     <g id="text_12">
      <!-- 1.0 -->
      <g transform="translate(157.096875 171.199219) scale(0.1 -0.1)">
       <use xlink:href="#DejaVuSans-31"/>
       <use xlink:href="#DejaVuSans-2e" transform="translate(63.623047 0)"/>
       <use xlink:href="#DejaVuSans-30" transform="translate(95.410156 0)"/>
      </g>
     </g>
    </g>
   </g>
   <g id="line2d_13">
    <path d="M 180 961.199945 
L 1296 129.601154 
" clip-path="url(#p2cdcba8d48)" style="fill: none; stroke: #1f77b4; stroke-width: 1.5; stroke-linecap: square"/>
   </g>
   <g id="line2d_14">
    <path d="M 230.727273 923.399973 
L 231.359826 923.28209 
L 231.678314 923.213446 
L 231.964363 923.08746 
L 232.455366 922.832271 
L 232.682436 922.664196 
L 232.938996 922.527241 
L 233.289923 922.349814 
L 233.542059 922.199706 
L 234.112684 921.793591 
L 234.385463 921.553425 
L 234.588941 921.402243 
L 234.787997 921.263024 
L 235.010643 921.098777 
L 236.877338 920.372275 
L 237.169285 920.269196 
L 237.540855 920.157189 
L 237.841649 920.079274 
L 238.52286 919.894751 
L 239.179004 919.588445 
L 239.56237 919.369355 
L 239.736359 919.239144 
L 240.38808 918.848152 
L 240.654961 918.723252 
L 241.196096 918.419588 
L 242.0395 917.788474 
L 242.248876 917.621918 
L 242.508385 917.42008 
L 243.123244 917.016192 
L 243.294284 916.893884 
L 243.550844 916.709974 
L 243.833945 916.571879 
L 244.006459 916.516787 
L 246.15183 915.636899 
L 246.464421 915.473644 
L 246.781434 915.281821 
L 247.919735 914.732938 
L 248.334064 914.173985 
L 248.47414 913.98318 
L 248.897316 913.139761 
L 249.260039 912.62912 
L 249.801174 912.100838 
L 249.96779 911.986102 
L 250.634256 911.31257 
L 250.811194 911.200776 
L 251.085448 910.998798 
L 251.333161 910.874638 
L 252.981632 910.136981 
L 253.221972 910.033483 
L 253.453466 909.914488 
L 253.623031 909.869372 
L 253.957739 909.711517 
L 254.164166 909.540263 
L 254.274753 909.392828 
L 254.444318 909.23436 
L 255.113733 908.994026 
L 255.34965 908.810295 
L 255.523639 908.691161 
L 256.619179 908.067735 
L 257.497971 907.532896 
L 257.71177 907.408454 
L 258.252905 907.091424 
L 258.487348 906.975833 
L 260.377634 906.042973 
L 261.433363 905.487201 
L 261.635367 905.353153 
L 261.980396 905.208494 
L 262.234007 905.020754 
L 263.177676 904.427586 
L 264.277639 904.046091 
L 264.640362 903.917759 
L 265.091554 903.801556 
L 265.505883 903.659353 
L 266.56751 903.309584 
L 266.78131 903.195575 
L 267.003957 903.100995 
L 267.879799 902.89205 
L 268.985661 902.291756 
L 269.430955 902.09517 
L 269.893942 901.85087 
L 270.095946 901.741179 
L 270.429179 901.594748 
L 271.824039 900.503271 
L 272.031941 900.268464 
L 272.674815 899.678364 
L 273.033114 899.219711 
L 273.207103 899.08583 
L 273.667142 898.810197 
L 273.889789 898.603082 
L 274.202379 898.329195 
L 274.537086 898.044302 
L 275.274327 897.437443 
L 276.018941 897.148201 
L 276.172287 897.056655 
L 276.443592 896.945879 
L 277.017165 896.72322 
L 278.373689 896.264832 
L 278.802763 896.147373 
L 279.790666 895.729494 
L 280.026583 895.53366 
L 280.909798 894.958352 
L 281.185526 894.839653 
L 286.779711 892.748583 
L 287.101149 892.48786 
L 288.565309 891.752788 
L 289.087276 891.591283 
L 289.392494 891.378443 
L 289.591549 891.256558 
L 289.756691 891.209256 
L 290.143005 891.024576 
L 290.482136 890.905435 
L 291.018848 890.209349 
L 292.509549 888.329398 
L 292.735145 887.905798 
L 293.639002 886.17643 
L 293.784976 886.044809 
L 294.099041 885.770238 
L 294.345279 885.584442 
L 294.621007 885.384955 
L 294.761083 885.298036 
L 294.914429 885.12506 
L 295.265356 884.355923 
L 296.713298 881.87781 
L 298.89848 880.411976 
L 300.026459 879.161798 
L 300.137045 879.051876 
L 300.362641 878.869177 
L 300.532206 878.758851 
L 300.738634 878.605375 
L 301.55992 877.888279 
L 301.988995 877.12732 
L 302.279468 876.839483 
L 302.509487 876.605921 
L 302.965102 876.258355 
L 305.371457 874.854984 
L 305.947979 874.332058 
L 306.185371 874.160004 
L 306.388849 874.018148 
L 307.631838 873.439704 
L 308.624164 872.655351 
L 308.886622 872.507532 
L 310.291804 871.79738 
L 311.058534 871.409001 
L 311.292977 870.985603 
L 311.57018 870.545002 
L 311.727949 870.417406 
L 311.91226 870.272769 
L 312.112789 870.091306 
L 312.509425 869.724444 
L 312.911958 869.530016 
L 313.613812 869.135643 
L 314.098917 868.92756 
L 314.426252 868.408511 
L 314.651847 868.207437 
L 315.007198 867.756925 
L 315.45544 867.296185 
L 315.738541 867.002237 
L 318.871815 864.271171 
L 319.081192 864.11325 
L 320.287318 863.509768 
L 320.608755 863.359332 
L 321.104181 862.99453 
L 321.287017 862.862995 
L 321.769173 862.521023 
L 322.050799 862.373368 
L 322.419419 862.133083 
L 322.761499 861.936657 
L 323.01511 861.74158 
L 323.175829 861.578625 
L 323.593107 860.972777 
L 323.815754 860.816151 
L 324.442409 860.220123 
L 325.276966 859.401994 
L 325.654433 858.827484 
L 327.807177 856.01521 
L 328.018028 855.685151 
L 328.174323 855.461229 
L 329.106196 853.970146 
L 330.198787 852.968419 
L 331.496331 852.369109 
L 331.820718 852.254755 
L 333.38072 851.407817 
L 333.601892 851.269654 
L 333.971987 851.102488 
L 335.809192 849.889647 
L 336.000874 849.762969 
L 336.711575 849.379247 
L 336.88114 849.27798 
L 337.237965 849.088938 
L 337.681784 848.707398 
L 338.156567 848.500956 
L 339.166588 847.837509 
L 339.446739 847.469503 
L 339.561749 847.331958 
L 339.903829 846.984714 
L 340.738386 846.439791 
L 341.104057 846.131916 
L 341.363566 845.944291 
L 341.60833 845.774234 
L 342.522509 845.512205 
L 343.674079 844.922014 
L 344.131169 844.662653 
L 344.498315 844.514223 
L 344.887578 844.071979 
L 345.275367 843.661405 
L 346.858961 842.549309 
L 347.186296 842.221814 
L 347.307203 842.111101 
L 347.622743 841.749467 
L 347.753972 841.586984 
L 348.187469 841.291669 
L 348.563462 841.0582 
L 348.792007 840.968507 
L 349.097225 840.852351 
L 349.243199 840.658002 
L 349.620666 840.02416 
L 349.977491 839.535985 
L 350.46407 839.024683 
L 351.81617 838.011154 
L 352.038817 837.856379 
L 352.366152 837.672157 
L 352.551936 837.50976 
L 352.739196 837.357601 
L 355.81644 835.663082 
L 356.159994 835.425871 
L 356.606762 835.10793 
L 357.146423 834.988914 
L 357.366121 834.92638 
L 357.65217 834.815825 
L 357.98098 834.672669 
L 358.55013 834.432433 
L 358.811113 834.359393 
L 359.17531 834.247643 
L 361.269075 832.832437 
L 361.451911 832.73244 
L 361.678981 832.582513 
L 361.869189 832.476829 
L 362.404426 832.27784 
L 365.242804 831.037421 
L 365.629119 830.427648 
L 365.807531 830.302448 
L 366.074412 830.202136 
L 366.319176 830.090357 
L 366.546246 829.788917 
L 367.19207 829.260672 
L 367.416191 828.970406 
L 367.526777 828.774857 
L 367.753847 828.389599 
L 367.849689 828.269415 
L 368.106249 827.969129 
L 368.30088 827.686156 
L 368.542695 827.382217 
L 368.670975 827.243713 
L 368.943754 827.034016 
L 370.289957 826.123214 
L 370.514078 825.939988 
L 371.220355 825.56322 
L 371.500506 824.90436 
L 371.558011 824.792153 
L 372.879147 822.576584 
L 373.194686 822.1609 
L 373.501379 821.551001 
L 373.544139 821.433675 
L 373.948147 820.48852 
L 374.42293 820.046212 
L 374.741418 819.749754 
L 375.002402 819.543002 
L 375.195559 819.452713 
L 375.515521 819.29604 
L 375.648225 819.253737 
L 375.760285 819.118006 
L 376.184936 818.133913 
L 376.236543 818.022766 
L 376.761459 816.956203 
L 377.76853 815.123947 
L 377.895336 814.99103 
L 378.148946 814.400326 
L 378.364221 814.186521 
L 378.691556 813.450916 
L 378.890611 813.311325 
L 378.989401 813.098368 
L 380.354772 811.33347 
L 380.511067 811.189786 
L 380.795642 811.000727 
L 381.04188 810.758679 
L 381.230614 810.627389 
L 382.283394 810.194498 
L 383.858141 809.629323 
L 384.111752 809.403058 
L 384.95958 809.048949 
L 385.207293 808.951329 
L 385.881131 808.569237 
L 386.106727 808.443283 
L 386.692096 808.067192 
L 386.928013 807.985063 
L 387.357087 807.874284 
L 387.62102 807.649318 
L 387.831871 807.464815 
L 388.070737 807.349431 
L 388.990814 806.838786 
L 389.244425 806.569092 
L 389.411041 806.383406 
L 389.582081 806.262635 
L 389.953651 806.058348 
L 390.16745 805.895447 
L 390.569984 805.571758 
L 390.829493 805.339131 
L 391.162726 805.153744 
L 392.205185 804.460652 
L 392.551688 804.185155 
L 392.721254 804.066813 
L 393.048589 803.803925 
L 393.409837 803.577106 
L 393.782881 803.184726 
L 394.433127 802.657733 
L 394.62481 802.561594 
L 394.902013 802.449245 
L 395.357628 802.250442 
L 396.690559 801.875406 
L 397.050333 801.761393 
L 397.252337 801.708002 
L 397.678462 801.601435 
L 398.218123 801.46124 
L 398.393586 801.336957 
L 398.564626 801.225051 
L 398.863946 800.883064 
L 398.968634 800.766645 
L 399.158843 800.623479 
L 399.256158 800.498127 
L 399.499448 800.246585 
L 399.576121 800.131881 
L 399.829732 799.823664 
L 400.050904 799.65568 
L 400.164439 799.544301 
L 400.354648 799.353097 
L 400.574345 799.127207 
L 401.085991 799.008827 
L 401.336653 798.928735 
L 401.556351 798.815081 
L 403.368489 797.55263 
L 403.577866 797.371636 
L 404.076241 797.100019 
L 404.307734 796.957285 
L 404.623273 796.819948 
L 407.050271 795.135241 
L 407.348116 795.024122 
L 407.791936 794.831975 
L 408.044072 794.718436 
L 408.235755 794.672889 
L 408.526228 794.545122 
L 410.117194 793.802035 
L 410.376703 793.560639 
L 410.817573 793.227766 
L 411.233377 793.032306 
L 411.576931 792.834381 
L 411.854134 792.731893 
L 412.236025 792.531673 
L 412.387896 792.46971 
L 412.542717 792.330349 
L 412.924608 791.884094 
L 413.094173 791.77044 
L 413.318295 791.512944 
L 413.58665 791.104607 
L 413.745894 790.982339 
L 414.062908 790.619303 
L 414.272285 790.443709 
L 414.489033 790.147392 
L 414.705782 790.003952 
L 414.88272 789.885261 
L 415.913383 789.377395 
L 416.168469 789.249225 
L 416.408809 789.115575 
L 416.890965 788.958629 
L 417.057581 788.896435 
L 417.892138 788.360903 
L 418.088244 788.208929 
L 418.27108 788.089416 
L 418.48488 787.974555 
L 418.787149 787.818833 
L 419.068775 787.648364 
L 419.462462 787.46959 
L 419.764731 787.33815 
L 420.327983 787.09402 
L 420.711348 786.964465 
L 421.572446 786.614124 
L 421.811312 786.479883 
L 422.409951 786.245279 
L 422.825755 786.10499 
L 423.319707 785.786689 
L 424.266325 784.68749 
L 424.776495 784.311438 
L 425.519634 783.950915 
L 426.744929 783.403103 
L 427.204967 783.098823 
L 427.42614 782.844967 
L 427.579486 782.706768 
L 427.787388 782.523498 
L 427.962851 782.373888 
L 428.237105 782.067157 
L 428.368334 781.928982 
L 428.585083 781.775835 
L 428.849015 781.56 
L 430.469471 780.717246 
L 430.718658 780.34645 
L 430.790908 780.207905 
L 431.05484 779.6819 
L 431.480966 779.334533 
L 432.538169 778.781365 
L 432.715107 778.637584 
L 433.355032 777.863422 
L 433.546715 777.591989 
L 433.708908 777.408604 
L 434.055411 777.030776 
L 434.282482 776.707815 
L 434.795601 776.08765 
L 434.950422 775.97398 
L 435.258589 775.639346 
L 435.445848 775.499887 
L 435.613939 775.372472 
L 435.967815 775.120385 
L 436.1536 774.97374 
L 436.500103 774.715802 
L 436.727173 774.593051 
L 437.032391 774.379947 
L 437.157722 774.254388 
L 437.31844 774.139952 
L 438.787025 773.530205 
L 439.030314 773.413739 
L 439.714474 772.929893 
L 439.888463 772.73874 
L 440.02559 772.625579 
L 440.299843 772.428247 
L 440.948615 772.093021 
L 441.672586 771.803014 
L 441.927672 771.522524 
L 442.544005 771.272498 
L 442.840376 771.156305 
L 443.599734 770.753964 
L 444.11138 770.350895 
L 444.549301 770.146545 
L 444.774897 770.079276 
L 445.327827 769.969153 
L 445.579964 769.839178 
L 445.804085 769.619058 
L 446.122573 769.208523 
L 446.264124 769.05255 
L 446.526581 768.791357 
L 446.848019 768.428694 
L 447.036752 768.242002 
L 447.403898 767.805475 
L 447.629494 767.582833 
L 448.046773 767.336562 
L 448.434561 767.064443 
L 448.669004 766.943448 
L 449.357587 766.560353 
L 450.677249 765.181901 
L 450.93086 764.782721 
L 451.464622 764.066789 
L 451.72708 763.696388 
L 451.89812 763.44615 
L 452.142884 763.123856 
L 452.22398 762.984017 
L 452.452525 762.724303 
L 452.599973 762.546668 
L 452.819671 762.33866 
L 453.139634 762.130441 
L 453.69109 761.228824 
L 455.958844 758.152117 
L 456.185914 757.898967 
L 456.272908 757.746323 
L 456.532417 757.331288 
L 456.589922 757.199614 
L 456.89514 756.810243 
L 457.192985 756.614708 
L 457.456918 756.412598 
L 457.645651 756.285238 
L 457.850604 756.007644 
L 458.001001 755.898051 
L 458.298847 755.588118 
L 458.492004 755.468501 
L 458.652723 755.371837 
L 459.146674 754.906348 
L 459.485805 754.111853 
L 460.206827 752.974953 
L 460.305617 752.838925 
L 460.573973 752.361617 
L 460.678661 752.230927 
L 460.873293 752.009134 
L 461.07972 751.840258 
L 461.389361 751.568749 
L 461.489626 751.440219 
L 461.778625 751.181514 
L 462.023389 750.964339 
L 462.253408 750.671094 
L 462.95821 750.108865 
L 463.288494 749.884422 
L 463.533258 749.401424 
L 464.053751 748.576843 
L 464.345698 748.274853 
L 464.581615 748.101317 
L 464.686304 747.963681 
L 465.290841 747.236076 
L 465.706645 747.079261 
L 466.005965 746.817287 
L 466.244831 746.664924 
L 467.052847 745.949448 
L 467.197347 745.830995 
L 467.374284 745.722802 
L 467.51436 745.586357 
L 467.880032 745.123925 
L 468.117423 744.939556 
L 468.586309 744.750333 
L 468.758823 744.645251 
L 468.910695 744.469858 
L 469.099429 744.19079 
L 469.524079 743.639521 
L 469.668579 743.48221 
L 469.933985 743.037727 
L 470.506085 742.080285 
L 471.324422 741.182649 
L 471.446804 741.060021 
L 471.819848 740.574485 
L 472.060189 740.406283 
L 472.318223 740.254744 
L 472.54087 740.122524 
L 472.860833 739.650581 
L 472.980266 739.538287 
L 473.227979 739.077175 
L 473.399019 738.993733 
L 473.483064 738.88254 
L 474.540268 737.894148 
L 474.947225 737.622394 
L 475.270136 737.438634 
L 475.595997 737.308203 
L 475.914485 737.047194 
L 476.120913 736.774956 
L 476.449722 736.657269 
L 476.623711 736.481825 
L 476.834562 736.345774 
L 477.035091 736.237952 
L 477.237096 736.096207 
L 477.527569 735.884037 
L 477.732522 735.772485 
L 478.037739 735.282676 
L 478.226473 735.147731 
L 478.41963 734.96352 
L 478.574451 734.827352 
L 479.680312 733.48097 
L 479.826286 733.307636 
L 480.141825 733.008798 
L 480.713924 732.737817 
L 481.08107 732.602941 
L 481.884663 732.254128 
L 482.014418 732.185012 
L 490.262671 728.870739 
L 490.500062 728.685243 
L 490.684373 728.545182 
L 490.942407 728.355904 
L 491.694393 727.925874 
L 492.238477 727.739739 
L 492.449328 727.687366 
L 493.182145 727.480195 
L 493.45345 727.399878 
L 494.975116 726.99393 
L 495.74627 726.845316 
L 496.224002 726.613947 
L 496.393568 726.494838 
L 497.275308 726.192949 
L 497.586424 726.07642 
L 498.025819 725.95767 
L 498.220451 725.771194 
L 498.813193 725.275307 
L 499.100717 725.064718 
L 499.3617 724.929957 
L 499.967712 724.667835 
L 500.175614 724.550748 
L 500.535388 724.414898 
L 501.623556 723.957651 
L 502.65127 723.749521 
L 503.441592 723.506801 
L 503.702576 723.37359 
L 505.144619 722.743854 
L 505.64152 722.592856 
L 507.077665 722.244972 
L 507.376985 722.194135 
L 508.095058 721.982147 
L 508.636193 721.789188 
L 509.495816 721.48116 
L 509.88213 721.228094 
L 510.755024 720.600342 
L 511.029277 720.394772 
L 511.431811 720.162606 
L 511.695743 719.967749 
L 512.729355 719.606537 
L 513.426785 719.413602 
L 513.858809 719.103494 
L 514.242174 718.881661 
L 514.507581 718.720068 
L 514.78036 718.60207 
L 514.976466 718.526252 
L 515.233026 718.413853 
L 519.066679 716.7362 
L 519.339459 716.538587 
L 519.823089 716.361741 
L 520.527891 716.191894 
L 521.076399 715.793312 
L 521.377193 715.59332 
L 521.654396 715.478042 
L 522.002373 715.185529 
L 522.239765 715.049686 
L 523.376591 714.414195 
L 524.21852 714.206514 
L 524.858445 713.700245 
L 525.110582 713.52996 
L 525.336178 713.388011 
L 525.651717 713.243236 
L 525.982001 713.131324 
L 526.266576 712.986465 
L 526.520187 712.653143 
L 527.021511 712.342326 
L 527.57739 711.699773 
L 527.839848 711.326888 
L 529.650512 709.744589 
L 529.895276 709.587452 
L 530.128245 709.474203 
L 531.32405 709.066156 
L 535.560237 705.826419 
L 535.948026 705.705169 
L 536.632185 705.35646 
L 537.067158 705.156662 
L 537.636308 705.015739 
L 537.926781 704.882165 
L 538.010826 704.685633 
L 538.260014 704.215028 
L 538.774608 703.815288 
L 539.155024 703.503637 
L 539.597369 703.127272 
L 539.678465 703.011064 
L 541.278279 701.714351 
L 541.508298 701.571053 
L 541.890189 701.340171 
L 542.07155 701.22067 
L 542.316314 700.928903 
L 542.690832 700.571968 
L 542.8545 700.402982 
L 544.200702 699.802604 
L 544.669587 699.624469 
L 547.139345 698.066395 
L 547.475527 697.725138 
L 547.9798 697.486001 
L 548.837948 697.047216 
L 549.438063 696.914153 
L 551.198594 696.48043 
L 551.558368 696.334489 
L 552.416517 695.696541 
L 552.64801 695.58399 
L 553.510582 695.104272 
L 553.7465 695.010766 
L 554.839091 694.506955 
L 555.160528 694.389202 
L 555.42446 694.291616 
L 555.826994 694.162542 
L 556.298828 694.032644 
L 557.482837 693.730663 
L 559.578076 691.226627 
L 559.729948 691.096995 
L 560.114788 690.78887 
L 560.931651 690.371821 
L 561.152823 690.264739 
L 561.515546 690.096361 
L 561.714601 689.897444 
L 563.1419 689.038433 
L 563.451541 688.922711 
L 563.772978 688.757041 
L 563.969084 688.644531 
L 564.148971 688.511659 
L 566.468331 687.414392 
L 566.835478 687.201721 
L 567.212945 686.94951 
L 567.683305 686.728199 
L 567.964931 686.569802 
L 569.709243 685.999209 
L 569.980548 685.828419 
L 572.06694 684.277162 
L 572.326449 684.123288 
L 572.571213 683.997923 
L 572.882329 683.827639 
L 573.289286 683.679798 
L 573.560591 683.545225 
L 573.999986 683.150945 
L 574.125317 682.988051 
L 574.682671 682.305732 
L 574.881727 682.155241 
L 575.071935 681.98818 
L 575.296056 681.786541 
L 575.411066 681.67462 
L 575.677947 681.372521 
L 576.214658 681.080323 
L 576.997608 680.788578 
L 577.998782 679.688779 
L 578.324642 679.116556 
L 578.588575 678.764766 
L 579.318443 677.854696 
L 579.464417 677.729872 
L 581.497728 676.383357 
L 581.810318 676.267499 
L 582.313117 676.06041 
L 582.450243 675.991335 
L 582.606539 675.860019 
L 582.849828 675.743133 
L 583.457315 675.561157 
L 584.502723 675.097778 
L 585.086618 674.86351 
L 585.309264 674.77359 
L 585.750134 674.565662 
L 586.006694 674.400209 
L 586.968057 674.045634 
L 587.298341 673.85842 
L 588.848021 672.941071 
L 589.504166 672.513744 
L 590.055622 672.203745 
L 590.301861 672.091568 
L 590.559895 671.966663 
L 591.211616 671.625163 
L 591.561069 671.511324 
L 591.965077 671.340035 
L 592.19657 671.15706 
L 592.454605 671.037292 
L 592.786363 670.850373 
L 592.947082 670.738266 
L 593.1078 670.64521 
L 593.211014 670.521523 
L 593.924663 669.93626 
L 594.144361 669.828092 
L 594.296233 669.714313 
L 594.880128 669.151543 
L 595.397671 668.877932 
L 595.580507 668.730626 
L 595.806103 668.612629 
L 596.050867 668.460275 
L 596.372304 668.209001 
L 596.671624 668.063154 
L 600.466941 665.891484 
L 600.623236 665.819158 
L 601.050836 665.697621 
L 601.597869 665.401873 
L 601.869173 665.282502 
L 602.566603 664.858512 
L 602.762709 664.741312 
L 603.555981 664.183239 
L 603.803694 664.001644 
L 604.639725 663.595133 
L 605.216248 663.397256 
L 605.533261 663.285897 
L 606.758556 662.706121 
L 607.469256 662.309766 
L 609.094136 661.421709 
L 609.316783 661.253142 
L 609.526159 661.136621 
L 609.810734 661.008441 
L 610.183778 660.802649 
L 611.490169 660.115133 
L 611.711342 660.000834 
L 612.035728 659.883757 
L 612.640265 659.66248 
L 612.815729 659.584678 
L 616.686244 657.760644 
L 618.056038 657.440713 
L 619.458271 656.879915 
L 619.732524 656.726082 
L 619.965493 656.586268 
L 620.272185 656.424961 
L 620.427006 656.312103 
L 620.589199 656.257601 
L 620.867876 656.134131 
L 623.378919 655.062934 
L 623.723948 654.815515 
L 624.235593 654.552564 
L 624.641076 654.42938 
L 625.136502 654.25405 
L 625.441719 654.136967 
L 625.785274 654.053246 
L 626.130302 653.940477 
L 626.821835 653.658915 
L 627.107884 653.510217 
L 627.781722 653.253082 
L 628.190154 653.132129 
L 628.414275 652.986325 
L 628.948038 652.772622 
L 629.079267 652.661892 
L 630.390081 651.583581 
L 630.705621 651.394417 
L 630.960706 651.278324 
L 631.439913 651.151824 
L 631.914696 651.05781 
L 632.236133 650.868281 
L 632.733034 650.648234 
L 633.054471 650.457281 
L 633.262373 650.315318 
L 633.974547 649.766138 
L 634.254699 649.581277 
L 636.243775 648.787928 
L 636.650733 648.671416 
L 637.078332 648.518174 
L 638.352285 647.986693 
L 638.598523 647.810727 
L 638.790206 647.699431 
L 639.105745 647.528613 
L 639.727977 647.256359 
L 641.749492 645.969738 
L 642.023746 645.622481 
L 642.205107 645.498603 
L 642.390892 645.383057 
L 642.70938 645.045139 
L 643.067679 644.865483 
L 643.315392 644.630815 
L 643.532141 644.375033 
L 643.70613 644.293757 
L 643.98923 644.152571 
L 644.27528 643.855318 
L 644.487605 643.699287 
L 644.661594 643.54971 
L 645.254336 642.963519 
L 645.661293 642.751806 
L 647.073847 641.720552 
L 647.24931 641.531124 
L 647.629727 641.067181 
L 648.521788 640.481077 
L 650.249881 639.442732 
L 650.544778 639.29765 
L 651.049051 639.066655 
L 652.174081 638.712055 
L 652.414421 638.653618 
L 652.741756 638.536039 
L 652.942286 638.445413 
L 653.515859 638.227069 
L 654.294386 637.8438 
L 654.643838 637.54512 
L 655.171703 637.275848 
L 656.001836 636.869367 
L 656.211213 636.7561 
L 656.526752 636.58856 
L 657.589854 636.259273 
L 657.986489 636.150364 
L 658.138361 636.099753 
L 658.44063 635.976017 
L 658.821046 635.747394 
L 659.173447 635.597607 
L 659.418211 635.482115 
L 659.748495 635.359765 
L 660.123014 635.161946 
L 662.420257 634.145395 
L 663.030693 633.860727 
L 664.011223 633.572021 
L 664.586271 633.005468 
L 664.795648 632.787596 
L 665.643475 632.273089 
L 665.883816 632.151682 
L 666.276028 631.989203 
L 666.469185 631.875765 
L 666.777352 631.678616 
L 667.069299 631.424732 
L 667.409905 631.26412 
L 667.715122 631.145893 
L 668.327032 631.024955 
L 668.859321 630.784407 
L 669.086391 630.602238 
L 669.365068 630.416226 
L 669.665862 630.263249 
L 669.959284 630.113124 
L 670.235012 630.004301 
L 671.327604 629.468969 
L 671.547301 629.341735 
L 671.851045 629.201527 
L 672.134145 629.069622 
L 672.625148 628.905993 
L 672.809458 628.858594 
L 673.313731 628.742207 
L 673.527531 628.676288 
L 674.083411 628.561976 
L 676.733055 627.115357 
L 677.10315 626.945467 
L 677.514531 626.747754 
L 677.976044 626.532671 
L 678.285685 626.36539 
L 678.941829 626.098443 
L 679.226404 625.960324 
L 679.55374 625.849871 
L 680.06391 625.757266 
L 680.403041 625.623052 
L 680.653703 625.457208 
L 680.854233 625.316655 
L 681.062135 625.194486 
L 681.427806 624.93774 
L 681.598846 624.864935 
L 681.911436 624.729454 
L 682.076578 624.661815 
L 682.259414 624.523554 
L 682.529244 624.310847 
L 682.66932 624.201497 
L 682.825615 624.126031 
L 683.138206 623.937066 
L 683.378546 623.795158 
L 683.825314 623.618317 
L 684.484408 622.934829 
L 684.599417 622.80062 
L 684.956242 622.334073 
L 685.069777 622.220768 
L 685.258511 622.049508 
L 685.874844 621.616136 
L 686.121083 621.486308 
L 686.874543 621.167567 
L 687.207776 621.046127 
L 687.872768 620.710026 
L 688.229592 620.204156 
L 688.30774 620.08267 
L 688.812013 619.370033 
L 689.033185 619.094424 
L 689.2057 619.002724 
L 689.329556 618.880141 
L 689.705549 618.395292 
L 690.242261 617.829665 
L 690.44279 617.627074 
L 690.689029 617.419305 
L 690.809936 617.242563 
L 691.067971 616.960487 
L 691.246383 616.809454 
L 691.635646 616.447592 
L 691.948236 616.192459 
L 692.328653 615.815626 
L 692.908124 615.274931 
L 695.62412 613.669634 
L 695.860038 613.450505 
L 696.001588 613.313321 
L 696.202117 613.162349 
L 697.008659 612.319765 
L 697.568962 612.041424 
L 697.868282 611.813243 
L 698.052593 611.699885 
L 698.671875 611.069051 
L 698.778038 610.934486 
L 699.429759 610.490707 
L 699.541819 610.3794 
L 699.970894 610.08808 
L 700.476641 609.749598 
L 700.669798 609.632088 
L 700.831991 609.574757 
L 701.126888 609.458803 
L 701.527947 609.244383 
L 702.036643 609.132677 
L 702.862353 608.925299 
L 702.998006 608.905159 
L 703.968215 608.749591 
L 704.307346 608.610811 
L 704.674492 608.477482 
L 704.956118 608.36309 
L 705.991204 608.008742 
L 706.869996 607.661848 
L 707.259259 607.548251 
L 707.720772 607.428744 
L 708.169014 607.307788 
L 708.916577 607.085756 
L 710.078469 606.767567 
L 710.563573 606.526187 
L 710.941041 606.288367 
L 711.309661 606.079421 
L 711.547053 605.966154 
L 711.788868 605.88907 
L 712.285769 605.767834 
L 712.623425 605.646772 
L 713.807434 605.394959 
L 714.005015 605.343322 
L 714.867587 605.175117 
L 715.644639 605.027608 
L 716.215264 604.871984 
L 717.703016 604.277899 
L 717.99054 604.16758 
L 718.192544 604.068936 
L 718.643736 603.849892 
L 720.940979 603.042709 
L 722.630735 602.284852 
L 722.87255 602.116481 
L 723.519848 601.702107 
L 724.021172 601.361316 
L 726.061855 600.171487 
L 726.579399 599.739414 
L 727.220798 599.488626 
L 727.767831 599.230074 
L 728.136452 599.100211 
L 728.537511 598.582485 
L 728.611235 598.463833 
L 728.987228 597.766216 
L 729.108135 597.598869 
L 729.376491 597.268339 
L 729.482654 597.148097 
L 729.730367 596.883431 
L 730.343751 596.096202 
L 730.933544 595.488574 
L 731.290369 595.34209 
L 731.440766 595.271457 
L 731.745984 595.160516 
L 732.105758 595.017388 
L 732.699974 594.725983 
L 733.303037 594.275522 
L 733.571393 594.157708 
L 735.2582 593.536259 
L 735.541301 593.423721 
L 735.81408 593.276397 
L 736.998089 592.704249 
L 737.205991 592.576583 
L 738.252874 591.982128 
L 738.830871 591.520418 
L 739.065313 591.406735 
L 739.8866 590.637465 
L 740.065012 590.458181 
L 740.54127 589.879084 
L 740.881875 589.428606 
L 741.104522 589.174209 
L 741.187093 589.01308 
L 741.62354 588.480717 
L 741.822595 588.359623 
L 743.370801 587.379557 
L 743.631785 587.230112 
L 744.299725 586.858649 
L 744.484035 586.803143 
L 744.759763 586.640405 
L 745.612014 586.445045 
L 746.141353 586.322753 
L 746.971487 585.991071 
L 747.515571 585.76571 
L 748.322112 585.4781 
L 748.560978 585.232196 
L 748.696631 585.12051 
L 748.951716 584.871909 
L 749.360148 584.706624 
L 749.721396 584.527765 
L 749.945517 584.390628 
L 750.197654 584.191423 
L 750.408504 583.99849 
L 751.126577 583.425429 
L 752.68363 582.644389 
L 752.85467 582.500447 
L 753.092062 582.375561 
L 753.322081 582.263894 
L 755.811007 581.45124 
L 756.011537 581.340651 
L 756.527605 581.211355 
L 756.748778 581.111899 
L 756.958154 580.985278 
L 757.516983 580.778377 
L 758.041899 580.639866 
L 758.22326 580.559215 
L 758.612523 580.217171 
L 758.817476 580.057856 
L 759.48984 579.463741 
L 760.190219 578.635543 
L 760.317024 578.519291 
L 760.738726 578.198375 
L 761.968444 577.323304 
L 762.511054 577.083824 
L 762.745497 577.024006 
L 764.554686 576.453456 
L 764.994082 576.315251 
L 765.432003 576.158295 
L 766.278356 575.847081 
L 766.567354 575.735379 
L 766.974311 575.58573 
L 767.536089 575.39399 
L 768.363274 575.057108 
L 769.759608 574.559995 
L 771.067474 574.143822 
L 771.387436 573.977011 
L 771.680858 573.849282 
L 772.876663 573.494394 
L 773.49742 573.37623 
L 774.968954 572.693632 
L 775.197498 572.607904 
L 775.639843 572.526874 
L 775.955382 572.411336 
L 776.461129 572.080634 
L 776.876933 571.750856 
L 777.07304 571.632271 
L 777.677577 571.091024 
L 777.929714 570.922569 
L 778.102228 570.859398 
L 778.87928 570.441782 
L 779.045897 570.335421 
L 779.268543 570.229955 
L 779.858336 569.902417 
L 780.042647 569.778474 
L 780.167978 569.662367 
L 780.356711 569.511159 
L 781.147034 568.861058 
L 781.418338 568.728378 
L 782.488812 568.085505 
L 783.333691 567.534635 
L 784.682842 566.857743 
L 785.045565 566.567038 
L 785.947948 566.108941 
L 786.262012 565.817055 
L 786.990406 565.377911 
L 788.739142 564.391856 
L 789.103339 564.101138 
L 789.768331 563.737856 
L 790.387613 563.576519 
L 790.622056 563.424351 
L 790.670714 563.313585 
L 791.114533 562.750659 
L 791.239864 562.638785 
L 791.505271 562.461826 
L 791.726443 562.271944 
L 791.898958 562.096609 
L 792.276425 561.321945 
L 792.36047 561.182101 
L 792.580168 560.867805 
L 792.985651 560.445282 
L 793.212721 560.330233 
L 793.862968 559.800649 
L 794.02811 559.686986 
L 794.622326 559.199591 
L 795.048451 559.017581 
L 795.290266 558.86139 
L 795.558622 558.674759 
L 795.85057 558.483638 
L 796.400552 558.237462 
L 796.850269 557.998608 
L 797.466602 557.794033 
L 798.078512 557.591385 
L 798.992691 557.351364 
L 800.638213 556.381668 
L 802.845513 553.706113 
L 803.240674 553.028219 
L 803.685968 552.48049 
L 803.886497 552.161091 
L 804.238899 551.629159 
L 804.508729 551.454293 
L 805.386046 550.396154 
L 805.682417 550.030047 
L 805.837237 549.898718 
L 806.573004 549.047451 
L 806.679167 548.928474 
L 806.864951 548.707792 
L 806.95342 548.596122 
L 807.447372 547.997875 
L 807.597769 547.83892 
L 807.811569 547.563457 
L 809.271306 546.243619 
L 809.504274 546.127875 
L 809.77263 545.856695 
L 809.88764 545.743909 
L 810.530514 545.197159 
L 810.881441 545.001643 
L 811.258908 544.418876 
L 811.370969 544.30834 
L 811.774977 543.887892 
L 811.990251 543.773165 
L 812.603636 543.448734 
L 813.665263 543.063917 
L 814.943639 540.963725 
L 815.25328 540.402635 
L 815.589462 539.935938 
L 816.390106 539.531197 
L 816.546401 539.372697 
L 816.807384 538.952172 
L 817.060995 538.830348 
L 817.139143 538.71366 
L 817.481223 537.869759 
L 818.078388 536.682303 
L 818.156536 536.57196 
L 818.672604 535.3827 
L 818.908521 534.983856 
L 819.861037 533.639693 
L 819.959827 533.521246 
L 820.235555 533.109983 
L 820.356463 532.971813 
L 820.639564 532.535325 
L 820.834195 532.241564 
L 821.295708 531.715518 
L 821.521304 531.586126 
L 822.392723 530.844148 
L 822.472345 530.724382 
L 822.618319 530.557805 
L 822.832118 530.435956 
L 823.32607 530.06811 
L 823.523651 529.94179 
L 823.733027 529.826619 
L 823.999908 529.656765 
L 824.191591 529.560086 
L 824.725354 529.3335 
L 825.040893 528.733175 
L 825.208984 528.478388 
L 825.43163 528.237538 
L 826.223427 527.293876 
L 826.578778 526.954062 
L 826.79995 526.796504 
L 828.719726 525.841721 
L 828.980709 525.732023 
L 829.122259 525.646356 
L 830.111637 525.158182 
L 830.304794 525.05796 
L 830.807592 524.85079 
L 831.120183 524.576729 
L 831.96801 523.909503 
L 832.223095 523.740102 
L 832.607935 523.494217 
L 832.821735 523.308177 
L 832.960336 523.228254 
L 833.280299 523.098278 
L 833.553078 522.550669 
L 833.814061 522.100197 
L 834.865367 519.313063 
L 835.239886 518.270336 
L 835.449262 517.920596 
L 835.589338 517.711122 
L 835.870964 516.926016 
L 836.269074 516.125543 
L 836.378186 515.987616 
L 838.532404 510.759776 
L 838.613501 510.625214 
L 839.163483 509.564295 
L 839.235732 509.434646 
L 839.974448 508.455296 
L 840.133692 508.342036 
L 840.584883 507.805629 
L 840.769194 507.646592 
L 840.931387 507.417331 
L 841.438609 506.971937 
L 842.382277 506.313142 
L 842.736153 505.915465 
L 843.181447 505.457458 
L 843.427685 505.176945 
L 843.771239 504.904546 
L 844.328594 504.549818 
L 845.738199 501.72612 
L 845.856157 501.557017 
L 846.186441 500.998057 
L 846.356007 500.839366 
L 846.67302 500.366062 
L 846.820468 500.146731 
L 847.206783 499.899926 
L 847.311471 499.788768 
L 847.588674 499.467943 
L 847.703683 499.346447 
L 848.277257 498.822701 
L 848.511699 498.416892 
L 848.657673 498.27009 
L 848.967314 497.90139 
L 849.282854 497.761071 
L 849.574801 497.580415 
L 850.086446 497.401292 
L 850.247165 497.274012 
L 850.388715 497.138698 
L 850.70278 496.979075 
L 850.900361 496.861321 
L 851.106788 496.69613 
L 851.395787 496.47456 
L 851.695106 496.22753 
L 852.332083 495.82526 
L 852.576847 495.641192 
L 852.904182 495.481392 
L 853.551479 495.192809 
L 853.799192 495.081475 
L 854.31821 494.743829 
L 854.514316 494.627418 
L 854.629326 494.516206 
L 854.854922 494.331555 
L 855.316435 494.003507 
L 855.928345 493.852536 
L 857.339424 493.52037 
L 857.758177 493.39773 
L 858.750503 492.847092 
L 858.961354 492.744142 
L 859.147139 492.614919 
L 859.362414 492.504456 
L 859.88438 492.298847 
L 860.272169 491.974635 
L 860.508086 491.855072 
L 861.232057 491.643603 
L 861.59478 491.510982 
L 862.653458 491.034181 
L 864.489188 490.446743 
L 865.000833 490.333906 
L 865.811798 489.39224 
L 865.981364 489.263114 
L 866.165674 489.108647 
L 866.543142 488.90608 
L 866.787906 488.770352 
L 867.107868 488.597652 
L 868.324316 487.899733 
L 868.566131 487.785609 
L 868.700309 487.750593 
L 869.478836 487.488345 
L 869.879895 487.35834 
L 870.416606 487.115837 
L 870.823563 486.844864 
L 877.551625 484.096415 
L 877.889282 483.975212 
L 878.369963 483.661795 
L 878.564595 483.50061 
L 878.837374 483.259886 
L 879.079189 483.066721 
L 879.427167 482.724016 
L 880.252877 482.093698 
L 880.649512 481.917818 
L 880.939985 481.797702 
L 881.414769 481.645353 
L 881.551895 481.62562 
L 884.064413 480.69551 
L 884.758894 480.508117 
L 885.031673 480.406297 
L 885.388498 480.274302 
L 885.841164 480.111166 
L 886.258442 479.989804 
L 886.501732 479.940736 
L 887.856781 479.537095 
L 888.064683 479.483493 
L 888.700185 479.350904 
L 888.974438 479.131314 
L 889.2251 478.830431 
L 889.329789 478.692356 
L 889.59667 478.287695 
L 890.658297 476.871507 
L 890.80722 476.778077 
L 892.51467 474.895394 
L 892.778602 474.717144 
L 893.420002 474.371056 
L 893.978831 474.161437 
L 894.211799 473.919909 
L 895.143672 473.425094 
L 895.417925 472.865704 
L 895.456262 472.742181 
L 895.68923 472.281054 
L 895.911877 472.141722 
L 896.315885 471.752857 
L 896.588664 471.503824 
L 897.427645 470.604419 
L 897.678307 470.005599 
L 897.979101 469.358894 
L 898.210595 468.849752 
L 898.974376 467.126618 
L 899.878234 465.241335 
L 900.145115 465.125348 
L 900.347119 464.758151 
L 900.807158 463.99703 
L 900.964927 463.838876 
L 901.262773 463.361333 
L 902.113549 462.690591 
L 902.181375 462.549558 
L 902.474797 461.932737 
L 902.676801 461.523569 
L 902.927463 460.749272 
L 902.982019 460.560358 
L 903.186972 460.093287 
L 903.284288 459.982265 
L 903.729581 458.914828 
L 903.801831 458.767032 
L 904.067238 458.158177 
L 904.362134 457.732586 
L 904.453552 457.549975 
L 904.677673 457.20944 
L 904.791208 457.042833 
L 904.994687 456.68147 
L 905.283685 456.54543 
L 905.913289 455.635387 
L 906.240624 455.011782 
L 906.562061 454.701767 
L 906.873177 454.471878 
L 907.181344 454.349006 
L 907.324369 454.300338 
L 907.57798 454.188575 
L 907.990835 453.698686 
L 908.214956 453.173741 
L 908.813596 451.038635 
L 909.02887 450.559867 
L 909.109967 450.396531 
L 910.376547 447.773431 
L 910.618362 447.453265 
L 910.812994 447.143771 
L 911.029742 447.007301 
L 912.628081 446.307053 
L 912.806493 446.187504 
L 913.322562 444.705053 
L 913.54226 444.463958 
L 913.968385 444.232913 
L 914.412204 442.401653 
L 914.749861 440.948959 
L 915.02264 440.084645 
L 915.357347 439.756996 
L 915.546081 439.636015 
L 915.7761 438.982081 
L 916.501546 436.185894 
L 917.65754 431.937074 
L 918.060073 430.365541 
L 918.089563 430.250555 
L 918.458183 428.989236 
L 918.531908 428.842429 
L 918.800263 428.233786 
L 919.039129 427.62923 
L 920.142042 424.775735 
L 920.226088 424.55783 
L 920.420719 424.204276 
L 920.457581 424.093158 
L 920.664009 423.666485 
L 921.228735 422.783744 
L 921.336373 422.665185 
L 921.550172 422.383901 
L 921.597356 422.250086 
L 921.968925 421.447584 
L 922.038226 421.316879 
L 922.546922 420.577241 
L 922.76662 420.321823 
L 923.654259 418.972161 
L 923.803181 418.850704 
L 925.280612 417.278965 
L 925.811426 416.724958 
L 926.103373 416.604803 
L 926.228704 416.544409 
L 926.520652 416.426479 
L 926.641559 416.396309 
L 927.169424 416.244022 
L 927.863905 415.994017 
L 928.234 415.877945 
L 928.428632 415.636059 
L 928.668972 415.518643 
L 928.885721 414.641854 
L 929.142281 414.004051 
L 929.62886 413.171229 
L 929.683416 413.057934 
L 930.8689 410.312671 
L 931.70788 409.425813 
L 931.864175 409.278565 
L 932.097143 409.042976 
L 932.368448 408.725984 
L 932.800471 408.09908 
L 932.980358 407.976173 
L 933.067353 407.713966 
L 933.468412 406.541297 
L 934.338356 404.685524 
L 934.605237 404.117775 
L 934.743839 403.985877 
L 934.838206 403.788711 
L 935.370494 402.846708 
L 935.445692 402.735213 
L 936.090041 402.186517 
L 936.210948 402.078808 
L 936.436544 401.577418 
L 936.609059 401.371462 
L 937.069097 400.617178 
L 937.156092 400.502407 
L 937.380213 400.176974 
L 937.467207 400.058961 
L 937.779797 399.287752 
L 937.975904 398.865171 
L 938.208872 398.555042 
L 938.494921 398.258857 
L 938.95496 397.933948 
L 939.204147 397.299716 
L 939.591936 396.556123 
L 939.932541 396.027994 
L 940.927817 394.193544 
L 940.976475 394.081528 
L 941.177004 393.680053 
L 941.449784 393.360875 
L 942.548273 390.945109 
L 942.670655 390.808569 
L 942.902148 390.401733 
L 943.018633 390.290912 
L 943.300259 390.06209 
L 943.673303 389.733093 
L 943.862036 389.519105 
L 944.114173 389.170927 
L 945.029826 387.646662 
L 945.252473 387.372792 
L 945.467747 387.25496 
L 945.604874 387.16958 
L 946.190244 386.735031 
L 946.39962 386.529047 
L 946.914214 386.161687 
L 947.198789 385.971455 
L 947.804802 385.399904 
L 947.899168 385.289132 
L 948.254519 384.41526 
L 948.351834 384.278637 
L 948.611343 383.873627 
L 948.673272 383.757331 
L 950.072555 382.279696 
L 950.501629 382.15324 
L 950.977887 381.746597 
L 951.228549 381.371423 
L 952.223825 380.521246 
L 952.520195 380.377594 
L 953.266283 379.883967 
L 953.496303 379.700399 
L 953.87377 379.480085 
L 955.72572 378.585051 
L 956.023565 378.441456 
L 956.67971 378.143918 
L 956.97608 378.021096 
L 957.677934 377.63821 
L 957.997897 377.508167 
L 958.432869 377.341663 
L 958.754306 377.214215 
L 959.155365 377.066219 
L 960.085763 376.839668 
L 960.334951 376.727859 
L 960.514838 376.614533 
L 960.840698 376.384237 
L 961.255028 376.031822 
L 961.40395 375.920028 
L 961.610378 375.800245 
L 961.925917 375.619868 
L 962.474424 375.333481 
L 962.816504 375.073965 
L 963.101079 374.947634 
L 963.335522 374.836439 
L 965.07836 374.182806 
L 965.29216 374.091632 
L 967.859233 373.167821 
L 968.292731 372.903425 
L 968.508005 372.790206 
L 968.841238 372.294382 
L 968.985738 372.131428 
L 969.372052 371.668053 
L 970.52952 371.040564 
L 970.95712 370.924792 
L 971.642754 370.741679 
L 971.962717 370.628655 
L 972.226649 370.478981 
L 972.686688 370.244587 
L 972.847406 370.128943 
L 973.050885 369.628632 
L 973.47701 367.801368 
L 973.537464 367.69043 
L 974.305669 365.460301 
L 974.432475 365.299877 
L 974.837957 364.21588 
L 974.958865 363.929847 
L 975.469036 362.631723 
L 975.557504 362.473333 
L 975.7831 362.067378 
L 975.902533 361.901608 
L 976.132553 361.540694 
L 976.219547 361.416111 
L 976.535086 360.783551 
L 976.812289 360.381852 
L 979.094787 357.303089 
L 979.169986 357.171655 
L 979.345449 356.947197 
L 979.391158 356.822484 
L 979.622652 356.593888 
L 979.798115 356.357771 
L 979.945563 356.265256 
L 980.306811 355.915954 
L 980.51029 355.753616 
L 980.917247 355.448237 
L 981.212143 355.250222 
L 981.653014 354.976421 
L 982.357816 354.560826 
L 982.573091 354.441554 
L 983.090634 354.146375 
L 983.86916 353.420335 
L 984.134567 353.301117 
L 984.461902 353.057053 
L 984.932262 352.710054 
L 985.017782 352.600452 
L 985.213888 352.417535 
L 985.432111 352.276322 
L 986.467198 351.453578 
L 988.139261 350.784817 
L 988.788033 350.402014 
L 989.296729 350.205841 
L 989.542968 350.009968 
L 990.042817 349.673746 
L 990.171097 349.549731 
L 990.417336 349.339323 
L 990.575105 349.215118 
L 990.781533 349.08285 
L 991.021873 348.959842 
L 991.260739 348.812824 
L 991.440626 348.697252 
L 991.739946 348.490848 
L 992.058434 348.188949 
L 992.245693 348.058472 
L 992.46834 347.920412 
L 992.81042 347.795689 
L 993.137755 347.615772 
L 994.851103 346.814023 
L 995.036888 346.71708 
L 995.393713 346.555752 
L 995.772655 346.387807 
L 995.995301 346.315828 
L 998.566798 345.489808 
L 998.827782 345.410483 
L 999.641696 345.122967 
L 1000.253606 344.639505 
L 1001.33735 343.8355 
L 1001.462681 343.726481 
L 1001.646992 343.614408 
L 1001.856368 343.551818 
L 1001.955158 343.4394 
L 1002.572966 342.988372 
L 1003.497467 342.479691 
L 1003.954556 342.135398 
L 1004.214065 341.999724 
L 1004.423441 341.840334 
L 1005.566165 341.426938 
L 1005.835995 341.279003 
L 1006.213463 341.142877 
L 1007.481517 340.626799 
L 1008.391273 339.829007 
L 1008.646358 339.599677 
L 1008.957474 339.458804 
L 1009.33789 339.123817 
L 1009.416038 338.989008 
L 1009.818572 338.45554 
L 1009.8805 338.339631 
L 1010.902316 337.081684 
L 1011.036494 336.970736 
L 1011.276834 336.797525 
L 1011.413961 336.677621 
L 1011.807648 336.15937 
L 1012.084851 335.758128 
L 1012.279482 335.571645 
L 1012.394492 335.406165 
L 1012.646628 335.080362 
L 1012.771959 334.869719 
L 1013.195136 334.333974 
L 1013.547537 334.144122 
L 1013.79525 334.001982 
L 1014.019371 333.809367 
L 1014.557557 333.379217 
L 1014.852454 333.152745 
L 1015.054458 333.018202 
L 1015.257936 332.898688 
L 1015.430451 332.787401 
L 1015.778428 332.689873 
L 1016.158845 332.570067 
L 1016.958014 332.354688 
L 1022.54925 330.309457 
L 1022.786642 330.172224 
L 1023.721464 329.61108 
L 1024.895152 328.45156 
L 1024.982146 328.322909 
L 1025.383205 327.859294 
L 1025.835871 327.455873 
L 1026.071788 327.267555 
L 1026.256099 327.139573 
L 1026.580485 326.942901 
L 1026.809029 326.818347 
L 1027.14816 326.556698 
L 1027.824948 326.172412 
L 1028.287935 325.663707 
L 1028.702264 325.234866 
L 1030.605821 323.796417 
L 1030.862381 323.563806 
L 1031.074706 323.38645 
L 1031.475765 323.08698 
L 1031.673346 322.951573 
L 1032.07588 322.762506 
L 1032.252817 322.639437 
L 1033.548887 321.870331 
L 1033.889493 321.649454 
L 1034.297924 321.442865 
L 1034.601667 321.320371 
L 1034.927528 320.935748 
L 1035.240118 320.61112 
L 1035.467188 320.3887 
L 1035.849079 320.046938 
L 1037.578647 318.609729 
L 1037.945793 318.294579 
L 1038.143374 318.114116 
L 1039.432071 317.172568 
L 1039.791845 317.058638 
L 1039.989425 316.99601 
L 1040.614606 316.633149 
L 1041.1292 316.387767 
L 1041.72784 316.149507 
L 1041.96818 315.99247 
L 1042.173133 315.847149 
L 1042.428219 315.684392 
L 1042.798314 315.497807 
L 1043.119751 315.328373 
L 1045.828375 314.346289 
L 1046.132118 314.126207 
L 1046.300209 314.012495 
L 1047.106751 313.557323 
L 1047.978169 313.288633 
L 1049.554391 312.803465 
L 1049.716584 312.756821 
L 1050.635186 312.464601 
L 1052.314621 311.565419 
L 1052.541692 311.449707 
L 1053.048914 311.230675 
L 1053.815644 310.953943 
L 1054.151826 310.720891 
L 1054.387743 310.601257 
L 1054.945098 310.338283 
L 1055.338784 310.227154 
L 1056.667293 309.325759 
L 1056.842756 309.189021 
L 1057.013796 309.015357 
L 1057.65667 308.301616 
L 1057.761359 308.179266 
L 1057.938296 308.071396 
L 1058.267106 307.958299 
L 1058.514819 307.664675 
L 1058.758108 307.429999 
L 1059.426049 306.285608 
L 1059.496824 306.176231 
L 1060.974255 303.407917 
L 1061.561099 302.629755 
L 1062.131724 301.820044 
L 1062.537206 301.493662 
L 1062.78197 301.35534 
L 1063.125525 301.170145 
L 1064.59116 300.023737 
L 1064.701746 299.912292 
L 1065.427191 299.39365 
L 1065.794337 299.184361 
L 1066.02878 298.81728 
L 1066.095132 298.698525 
L 1066.687873 297.454604 
L 1066.832373 297.291989 
L 1067.130218 296.849041 
L 1067.487043 296.602325 
L 1067.644812 296.465605 
L 1067.706741 296.34708 
L 1067.927913 296.039309 
L 1068.466099 295.463008 
L 1068.584057 295.350836 
L 1068.777215 295.206995 
L 1069.005759 295.085022 
L 1069.489389 294.881539 
L 1070.107197 294.709018 
L 1070.338691 294.577464 
L 1070.56871 294.456425 
L 1070.968295 294.312649 
L 1071.431282 294.200828 
L 1071.817597 293.954997 
L 1072.338089 293.827691 
L 1073.196238 293.546557 
L 1073.36138 293.420188 
L 1073.662174 293.126644 
L 1073.75949 293.000658 
L 1074.257865 292.414086 
L 1074.68399 292.135693 
L 1074.900739 291.941601 
L 1075.291477 291.807751 
L 1075.879795 291.516739 
L 1076.124559 291.300993 
L 1076.482858 291.09311 
L 1076.698133 291.004652 
L 1076.873596 290.88954 
L 1077.099192 290.799848 
L 1077.752387 290.540254 
L 1078.060554 290.366108 
L 1079.063202 289.869293 
L 1080.062901 288.89208 
L 1080.210349 288.769 
L 1081.762979 287.317183 
L 1081.969406 287.182289 
L 1082.17141 287.041721 
L 1083.32593 286.506143 
L 1084.713418 285.575645 
L 1084.928692 285.44101 
L 1085.337124 285.171584 
L 1085.552398 285.018838 
L 1085.807483 284.882265 
L 1086.186425 284.523346 
L 1086.962003 283.917124 
L 1087.416143 283.750183 
L 1089.122119 282.872878 
L 1089.372781 282.757935 
L 1091.571234 281.891187 
L 1091.860233 281.648583 
L 1093.499857 281.106459 
L 1094.153052 280.930772 
L 1096.258613 279.622168 
L 1097.569427 279.028353 
L 1097.879069 278.880136 
L 1098.219674 278.728643 
L 1098.961339 278.458538 
L 1099.443494 278.318901 
L 1100.235291 278.097115 
L 1100.488902 277.955561 
L 1100.93567 277.748982 
L 1101.2055 277.60903 
L 1101.560851 277.444321 
L 1102.237638 277.232389 
L 1102.492723 277.114719 
L 1103.306637 276.828573 
L 1105.118776 275.860349 
L 1106.308683 273.775533 
L 1106.411897 273.660903 
L 1106.575564 273.502442 
L 1107.121123 273.201692 
L 1107.560518 272.749824 
L 1107.747778 272.551693 
L 1108.339045 272.126169 
L 1108.486493 272.014199 
L 1109.730956 271.139093 
L 1110.161505 271.001221 
L 1110.50211 270.691594 
L 1110.569936 270.576008 
L 1111.630089 269.016989 
L 1111.880751 268.956135 
L 1113.066235 268.398106 
L 1113.334591 268.170033 
L 1113.487937 268.013108 
L 1113.681094 267.782318 
L 1113.99221 267.445468 
L 1114.154403 267.326815 
L 1114.605594 266.913855 
L 1114.963893 266.752191 
L 1115.121663 266.604984 
L 1115.347259 266.446836 
L 1116.034367 266.221836 
L 1116.548962 265.936363 
L 1117.588472 265.628748 
L 1117.76246 265.506947 
L 1118.380268 264.880886 
L 1119.379967 264.195582 
L 1120.02579 263.91024 
L 1120.429799 263.674078 
L 1120.847077 263.265835 
L 1121.057928 263.064145 
L 1121.323335 262.873028 
L 1121.734715 262.625961 
L 1123.563073 261.901996 
L 1123.878612 261.784881 
L 1124.194152 261.671169 
L 1124.912224 261.432735 
L 1125.142244 261.27757 
L 1125.420921 261.072579 
L 1125.689276 260.884904 
L 1125.867689 260.749341 
L 1126.103606 260.599584 
L 1126.279069 260.471426 
L 1126.513512 260.342938 
L 1126.77597 260.229811 
L 1127.177029 259.996763 
L 1127.467502 259.829067 
L 1128.163457 259.564436 
L 1128.414119 259.46262 
L 1128.989167 259.264963 
L 1130.995938 256.694759 
L 1131.178773 256.507739 
L 1131.392573 256.293835 
L 1134.545016 253.161738 
L 1134.692464 253.050221 
L 1134.859081 252.901229 
L 1135.080253 252.791125 
L 1135.243921 252.652377 
L 1135.552087 252.060963 
L 1135.87205 251.516973 
L 1136.448573 250.832616 
L 1136.579802 250.718412 
L 1137.169594 250.164991 
L 1137.371598 250.002791 
L 1137.541164 249.815664 
L 1138.089671 249.216145 
L 1138.42143 248.774199 
L 1138.872621 248.210586 
L 1139.049559 248.095255 
L 1139.794173 247.749305 
L 1140.162793 247.57895 
L 1140.891187 246.392892 
L 1141.286349 245.642701 
L 1141.452965 245.530895 
L 1142.219696 245.130424 
L 1142.492475 245.014515 
L 1142.813912 244.779874 
L 1143.0631 244.62464 
L 1143.357996 244.441805 
L 1143.896182 244.03046 
L 1144.087865 243.918642 
L 1144.496296 243.57085 
L 1144.704198 243.270957 
L 1144.978452 243.008607 
L 1145.049227 242.896094 
L 1145.348547 242.605924 
L 1145.692101 242.395009 
L 1145.958982 242.280187 
L 1146.741932 241.925852 
L 1147.03388 241.738911 
L 1147.784391 241.396329 
L 1148.153012 241.136467 
L 1148.61305 240.82646 
L 1149.311955 240.333294 
L 1149.842768 240.107186 
L 1150.059517 239.993788 
L 1150.192221 239.850999 
L 1150.532826 239.423998 
L 1150.942732 238.882833 
L 1151.19192 238.457736 
L 1151.579708 238.058076 
L 1151.907043 237.678797 
L 1152.004359 237.566717 
L 1152.347914 237.187603 
L 1152.61332 237.032147 
L 1152.782886 236.863387 
L 1152.981941 236.567016 
L 1153.152981 236.455959 
L 1153.402168 236.108832 
L 1153.576157 235.8824 
L 1153.944778 235.268991 
L 1154.269164 234.839079 
L 1154.459372 234.653886 
L 1154.645157 234.502726 
L 1154.816197 234.376615 
L 1155.003456 234.201145 
L 1155.330791 233.926912 
L 1155.523948 233.742507 
L 1156.376199 232.88078 
L 1156.610641 232.702007 
L 1157.094272 232.328282 
L 1159.388566 231.255012 
L 1159.863349 230.903787 
L 1160.531289 229.643563 
L 1162.274127 227.946341 
L 1162.415678 227.822675 
L 1162.673712 227.592399 
L 1162.925848 227.42706 
L 1163.226643 227.164941 
L 1163.34755 227.049383 
L 1163.726492 226.73333 
L 1163.991899 226.549297 
L 1164.151143 226.439272 
L 1164.347249 226.258514 
L 1164.474055 226.146596 
L 1165.003394 225.468108 
L 1165.128725 225.359493 
L 1165.317459 225.178686 
L 1165.646268 224.982975 
L 1165.805512 224.894708 
L 1166.635646 224.462034 
L 1166.90695 224.21871 
L 1168.413871 223.027885 
L 1169.105403 222.657194 
L 1169.361963 222.468066 
L 1170.371983 221.816228 
L 1170.793685 221.366811 
L 1171.404121 221.091897 
L 1172.493763 220.688069 
L 1172.738527 220.517779 
L 1174.201213 219.681148 
L 1174.42386 219.555962 
L 1174.93698 219.2629 
L 1175.115392 219.193494 
L 1175.747945 218.810804 
L 1176.017775 218.64335 
L 1176.945225 218.327099 
L 1177.381671 218.20369 
L 1177.617589 218.129922 
L 1178.257514 217.890076 
L 1178.472788 217.720362 
L 1179.441523 217.380189 
L 1179.907459 217.22431 
L 1180.307044 216.9147 
L 1180.472186 216.778908 
L 1180.721373 216.596989 
L 1181.48663 216.085734 
L 1181.676838 215.977383 
L 1182.788597 215.474964 
L 1183.070224 215.33688 
L 1183.63495 215.100424 
L 1184.090565 214.906835 
L 1184.400206 214.78442 
L 1184.706899 214.665041 
L 1185.106483 214.532238 
L 1185.831929 214.267839 
L 1186.384859 214.045545 
L 1186.695975 213.931013 
L 1187.178131 213.788244 
L 1187.501042 213.60102 
L 1187.863765 213.452128 
L 1189.507813 212.908196 
L 1190.472124 212.7016 
L 1191.799158 212.312143 
L 1191.970198 212.226389 
L 1192.835719 211.819193 
L 1193.295757 211.705375 
L 1193.917989 211.350712 
L 1194.174549 211.177683 
L 1194.624266 210.923456 
L 1195.057763 210.74451 
L 1195.705061 210.552064 
L 1197.001131 210.30173 
L 1197.977238 210.03931 
L 1198.345859 209.894095 
L 1198.539016 209.783165 
L 1199.097844 209.502214 
L 1199.540189 209.366237 
L 1203.947416 207.934456 
L 1204.52099 207.765278 
L 1204.780499 207.675903 
L 1205.1329 207.519236 
L 1206.14292 207.031227 
L 1206.561673 206.907231 
L 1207.145568 206.676054 
L 1208.06417 206.26701 
L 1208.707045 206.056998 
L 1209.344021 205.779132 
L 1209.789314 205.595209 
L 1210.346669 205.132303 
L 1212.160282 202.119964 
L 1213.456352 201.403535 
L 1213.864783 200.57585 
L 1214.150833 200.255751 
L 1214.352837 200.122076 
L 1214.416239 200.011662 
L 1215.008981 198.705573 
L 1215.113669 198.583264 
L 1215.346638 198.2874 
L 1215.834691 197.789092 
L 1216.163501 197.127066 
L 1216.216582 197.0185 
L 1216.418586 196.644585 
L 1216.827018 195.553114 
L 1216.928757 195.312834 
L 1217.136659 195.053305 
L 1217.200062 194.937104 
L 1217.540667 194.527721 
L 1217.674845 194.377559 
L 1217.862104 194.08777 
L 1218.13046 193.485385 
L 1218.478438 192.523591 
L 1218.7291 191.696368 
L 1218.96944 191.192118 
L 1219.044639 191.071235 
L 1219.46929 190.401409 
L 1219.584299 190.237572 
L 1219.924905 189.789057 
L 1220.430652 189.203373 
L 1220.872997 188.633802 
L 1221.119235 188.295691 
L 1221.352203 187.973966 
L 1221.501126 187.784023 
L 1222.083547 187.278521 
L 1222.754436 186.786963 
L 1222.95644 186.620916 
L 1223.009521 186.512766 
L 1223.211525 186.325203 
L 1223.375193 186.214829 
L 1223.786573 185.426445 
L 1223.932547 185.314071 
L 1224.172888 185.167701 
L 1224.33803 185.090139 
L 1224.562151 184.969971 
L 1224.761206 184.889703 
L 1225.252209 184.742933 
L 1225.666538 184.54654 
L 1226.533534 183.545227 
L 1226.776823 183.14616 
L 1227.129224 182.875356 
L 1227.474253 182.419768 
L 1227.803063 181.983306 
L 1229.268698 180.508564 
L 1230.007414 179.199006 
L 1230.169607 178.972805 
L 1230.353917 178.798031 
L 1230.750553 178.416121 
L 1231.148663 178.092795 
L 1231.288739 178.009763 
L 1232.93721 177.057111 
L 1233.307305 176.928948 
L 1234.286361 176.25904 
L 1234.438232 176.196554 
L 1234.740501 176.037632 
L 1235.078158 175.527083 
L 1235.37158 175.264836 
L 1235.589803 175.120913 
L 1236.604247 173.623446 
L 1237.580354 172.83585 
L 1237.748445 172.607568 
L 1239.249468 170.787978 
L 1239.486859 170.473301 
L 1239.64168 170.325175 
L 1239.830414 170.157742 
L 1240.560282 169.537308 
L 1242.971061 168.592732 
L 1243.204029 168.353095 
L 1243.454691 168.209192 
L 1244.26713 167.904855 
L 1244.520741 167.773581 
L 1245.272727 167.4 
L 1245.272727 167.4 
" clip-path="url(#p2cdcba8d48)" style="fill: none; stroke: #ff0000; stroke-width: 1.5; stroke-linecap: square"/>
   </g>
   <g id="patch_3">
    <path d="M 180 961.2 
L 180 129.6 
" style="fill: none; stroke: #000000; stroke-width: 0.8; stroke-linejoin: miter; stroke-linecap: square"/>
   </g>
   <g id="patch_4">
    <path d="M 1296 961.2 
L 1296 129.6 
" style="fill: none; stroke: #000000; stroke-width: 0.8; stroke-linejoin: miter; stroke-linecap: square"/>
   </g>
   <g id="patch_5">
    <path d="M 180 961.2 
L 1296 961.2 
" style="fill: none; stroke: #000000; stroke-width: 0.8; stroke-linejoin: miter; stroke-linecap: square"/>
   </g>
   <g id="patch_6">
    <path d="M 180 129.6 
L 1296 129.6 
" style="fill: none; stroke: #000000; stroke-width: 0.8; stroke-linejoin: miter; stroke-linecap: square"/>
   </g>
   <g id="legend_1">
    <g id="patch_7">
     <path d="M 1131.645313 152.278125 
L 1289 152.278125 
Q 1291 152.278125 1291 150.278125 
L 1291 136.6 
Q 1291 134.6 1289 134.6 
L 1131.645313 134.6 
Q 1129.645313 134.6 1129.645313 136.6 
L 1129.645313 150.278125 
Q 1129.645313 152.278125 1131.645313 152.278125 
z
" style="fill: #ffffff; opacity: 0.8; stroke: #cccccc; stroke-linejoin: miter"/>
    </g>
    <g id="line2d_15">
     <path d="M 1133.645313 142.698438 
L 1143.645313 142.698438 
L 1153.645313 142.698438 
" style="fill: none; stroke: #ff0000; stroke-width: 1.5; stroke-linecap: square"/>
    </g>
    <g id="text_13">
     <!-- Board Time U6 (minutes) -->
     <g transform="translate(1161.645313 146.198438) scale(0.1 -0.1)">
      <defs>
       <path id="DejaVuSans-42" d="M 1259 2228 
L 1259 519 
L 2272 519 
Q 2781 519 3026 730 
Q 3272 941 3272 1375 
Q 3272 1813 3026 2020 
Q 2781 2228 2272 2228 
L 1259 2228 
z
M 1259 4147 
L 1259 2741 
L 2194 2741 
Q 2656 2741 2882 2914 
Q 3109 3088 3109 3444 
Q 3109 3797 2882 3972 
Q 2656 4147 2194 4147 
L 1259 4147 
z
M 628 4666 
L 2241 4666 
Q 2963 4666 3353 4366 
Q 3744 4066 3744 3513 
Q 3744 3084 3544 2831 
Q 3344 2578 2956 2516 
Q 3422 2416 3680 2098 
Q 3938 1781 3938 1306 
Q 3938 681 3513 340 
Q 3088 0 2303 0 
L 628 0 
L 628 4666 
z
" transform="scale(0.015625)"/>
       <path id="DejaVuSans-6f" d="M 1959 3097 
Q 1497 3097 1228 2736 
Q 959 2375 959 1747 
Q 959 1119 1226 758 
Q 1494 397 1959 397 
Q 2419 397 2687 759 
Q 2956 1122 2956 1747 
Q 2956 2369 2687 2733 
Q 2419 3097 1959 3097 
z
M 1959 3584 
Q 2709 3584 3137 3096 
Q 3566 2609 3566 1747 
Q 3566 888 3137 398 
Q 2709 -91 1959 -91 
Q 1206 -91 779 398 
Q 353 888 353 1747 
Q 353 2609 779 3096 
Q 1206 3584 1959 3584 
z
" transform="scale(0.015625)"/>
       <path id="DejaVuSans-61" d="M 2194 1759 
Q 1497 1759 1228 1600 
Q 959 1441 959 1056 
Q 959 750 1161 570 
Q 1363 391 1709 391 
Q 2188 391 2477 730 
Q 2766 1069 2766 1631 
L 2766 1759 
L 2194 1759 
z
M 3341 1997 
L 3341 0 
L 2766 0 
L 2766 531 
Q 2569 213 2275 61 
Q 1981 -91 1556 -91 
Q 1019 -91 701 211 
Q 384 513 384 1019 
Q 384 1609 779 1909 
Q 1175 2209 1959 2209 
L 2766 2209 
L 2766 2266 
Q 2766 2663 2505 2880 
Q 2244 3097 1772 3097 
Q 1472 3097 1187 3025 
Q 903 2953 641 2809 
L 641 3341 
Q 956 3463 1253 3523 
Q 1550 3584 1831 3584 
Q 2591 3584 2966 3190 
Q 3341 2797 3341 1997 
z
" transform="scale(0.015625)"/>
       <path id="DejaVuSans-72" d="M 2631 2963 
Q 2534 3019 2420 3045 
Q 2306 3072 2169 3072 
Q 1681 3072 1420 2755 
Q 1159 2438 1159 1844 
L 1159 0 
L 581 0 
L 581 3500 
L 1159 3500 
L 1159 2956 
Q 1341 3275 1631 3429 
Q 1922 3584 2338 3584 
Q 2397 3584 2469 3576 
Q 2541 3569 2628 3553 
L 2631 2963 
z
" transform="scale(0.015625)"/>
       <path id="DejaVuSans-64" d="M 2906 2969 
L 2906 4863 
L 3481 4863 
L 3481 0 
L 2906 0 
L 2906 525 
Q 2725 213 2448 61 
Q 2172 -91 1784 -91 
Q 1150 -91 751 415 
Q 353 922 353 1747 
Q 353 2572 751 3078 
Q 1150 3584 1784 3584 
Q 2172 3584 2448 3432 
Q 2725 3281 2906 2969 
z
M 947 1747 
Q 947 1113 1208 752 
Q 1469 391 1925 391 
Q 2381 391 2643 752 
Q 2906 1113 2906 1747 
Q 2906 2381 2643 2742 
Q 2381 3103 1925 3103 
Q 1469 3103 1208 2742 
Q 947 2381 947 1747 
z
" transform="scale(0.015625)"/>
       <path id="DejaVuSans-20" transform="scale(0.015625)"/>
       <path id="DejaVuSans-54" d="M -19 4666 
L 3928 4666 
L 3928 4134 
L 2272 4134 
L 2272 0 
L 1638 0 
L 1638 4134 
L -19 4134 
L -19 4666 
z
" transform="scale(0.015625)"/>
       <path id="DejaVuSans-69" d="M 603 3500 
L 1178 3500 
L 1178 0 
L 603 0 
L 603 3500 
z
M 603 4863 
L 1178 4863 
L 1178 4134 
L 603 4134 
L 603 4863 
z
" transform="scale(0.015625)"/>
       <path id="DejaVuSans-6d" d="M 3328 2828 
Q 3544 3216 3844 3400 
Q 4144 3584 4550 3584 
Q 5097 3584 5394 3201 
Q 5691 2819 5691 2113 
L 5691 0 
L 5113 0 
L 5113 2094 
Q 5113 2597 4934 2840 
Q 4756 3084 4391 3084 
Q 3944 3084 3684 2787 
Q 3425 2491 3425 1978 
L 3425 0 
L 2847 0 
L 2847 2094 
Q 2847 2600 2669 2842 
Q 2491 3084 2119 3084 
Q 1678 3084 1418 2786 
Q 1159 2488 1159 1978 
L 1159 0 
L 581 0 
L 581 3500 
L 1159 3500 
L 1159 2956 
Q 1356 3278 1631 3431 
Q 1906 3584 2284 3584 
Q 2666 3584 2933 3390 
Q 3200 3197 3328 2828 
z
" transform="scale(0.015625)"/>
       <path id="DejaVuSans-65" d="M 3597 1894 
L 3597 1613 
L 953 1613 
Q 991 1019 1311 708 
Q 1631 397 2203 397 
Q 2534 397 2845 478 
Q 3156 559 3463 722 
L 3463 178 
Q 3153 47 2828 -22 
Q 2503 -91 2169 -91 
Q 1331 -91 842 396 
Q 353 884 353 1716 
Q 353 2575 817 3079 
Q 1281 3584 2069 3584 
Q 2775 3584 3186 3129 
Q 3597 2675 3597 1894 
z
M 3022 2063 
Q 3016 2534 2758 2815 
Q 2500 3097 2075 3097 
Q 1594 3097 1305 2825 
Q 1016 2553 972 2059 
L 3022 2063 
z
" transform="scale(0.015625)"/>
       <path id="DejaVuSans-55" d="M 556 4666 
L 1191 4666 
L 1191 1831 
Q 1191 1081 1462 751 
Q 1734 422 2344 422 
Q 2950 422 3222 751 
Q 3494 1081 3494 1831 
L 3494 4666 
L 4128 4666 
L 4128 1753 
Q 4128 841 3676 375 
Q 3225 -91 2344 -91 
Q 1459 -91 1007 375 
Q 556 841 556 1753 
L 556 4666 
z
" transform="scale(0.015625)"/>
       <path id="DejaVuSans-28" d="M 1984 4856 
Q 1566 4138 1362 3434 
Q 1159 2731 1159 2009 
Q 1159 1288 1364 580 
Q 1569 -128 1984 -844 
L 1484 -844 
Q 1016 -109 783 600 
Q 550 1309 550 2009 
Q 550 2706 781 3412 
Q 1013 4119 1484 4856 
L 1984 4856 
z
" transform="scale(0.015625)"/>
       <path id="DejaVuSans-6e" d="M 3513 2113 
L 3513 0 
L 2938 0 
L 2938 2094 
Q 2938 2591 2744 2837 
Q 2550 3084 2163 3084 
Q 1697 3084 1428 2787 
Q 1159 2491 1159 1978 
L 1159 0 
L 581 0 
L 581 3500 
L 1159 3500 
L 1159 2956 
Q 1366 3272 1645 3428 
Q 1925 3584 2291 3584 
Q 2894 3584 3203 3211 
Q 3513 2838 3513 2113 
z
" transform="scale(0.015625)"/>
       <path id="DejaVuSans-75" d="M 544 1381 
L 544 3500 
L 1119 3500 
L 1119 1403 
Q 1119 906 1312 657 
Q 1506 409 1894 409 
Q 2359 409 2629 706 
Q 2900 1003 2900 1516 
L 2900 3500 
L 3475 3500 
L 3475 0 
L 2900 0 
L 2900 538 
Q 2691 219 2414 64 
Q 2138 -91 1772 -91 
Q 1169 -91 856 284 
Q 544 659 544 1381 
z
M 1991 3584 
L 1991 3584 
z
" transform="scale(0.015625)"/>
       <path id="DejaVuSans-74" d="M 1172 4494 
L 1172 3500 
L 2356 3500 
L 2356 3053 
L 1172 3053 
L 1172 1153 
Q 1172 725 1289 603 
Q 1406 481 1766 481 
L 2356 481 
L 2356 0 
L 1766 0 
Q 1100 0 847 248 
Q 594 497 594 1153 
L 594 3053 
L 172 3053 
L 172 3500 
L 594 3500 
L 594 4494 
L 1172 4494 
z
" transform="scale(0.015625)"/>
       <path id="DejaVuSans-73" d="M 2834 3397 
L 2834 2853 
Q 2591 2978 2328 3040 
Q 2066 3103 1784 3103 
Q 1356 3103 1142 2972 
Q 928 2841 928 2578 
Q 928 2378 1081 2264 
Q 1234 2150 1697 2047 
L 1894 2003 
Q 2506 1872 2764 1633 
Q 3022 1394 3022 966 
Q 3022 478 2636 193 
Q 2250 -91 1575 -91 
Q 1294 -91 989 -36 
Q 684 19 347 128 
L 347 722 
Q 666 556 975 473 
Q 1284 391 1588 391 
Q 1994 391 2212 530 
Q 2431 669 2431 922 
Q 2431 1156 2273 1281 
Q 2116 1406 1581 1522 
L 1381 1569 
Q 847 1681 609 1914 
Q 372 2147 372 2553 
Q 372 3047 722 3315 
Q 1072 3584 1716 3584 
Q 2034 3584 2315 3537 
Q 2597 3491 2834 3397 
z
" transform="scale(0.015625)"/>
       <path id="DejaVuSans-29" d="M 513 4856 
L 1013 4856 
Q 1481 4119 1714 3412 
Q 1947 2706 1947 2009 
Q 1947 1309 1714 600 
Q 1481 -109 1013 -844 
L 513 -844 
Q 928 -128 1133 580 
Q 1338 1288 1338 2009 
Q 1338 2731 1133 3434 
Q 928 4138 513 4856 
z
" transform="scale(0.015625)"/>
      </defs>
      <use xlink:href="#DejaVuSans-42"/>
      <use xlink:href="#DejaVuSans-6f" transform="translate(68.603516 0)"/>
      <use xlink:href="#DejaVuSans-61" transform="translate(129.785156 0)"/>
      <use xlink:href="#DejaVuSans-72" transform="translate(191.064453 0)"/>
      <use xlink:href="#DejaVuSans-64" transform="translate(230.427734 0)"/>
      <use xlink:href="#DejaVuSans-20" transform="translate(293.904297 0)"/>
      <use xlink:href="#DejaVuSans-54" transform="translate(325.691406 0)"/>
      <use xlink:href="#DejaVuSans-69" transform="translate(383.650391 0)"/>
      <use xlink:href="#DejaVuSans-6d" transform="translate(411.433594 0)"/>
      <use xlink:href="#DejaVuSans-65" transform="translate(508.845703 0)"/>
      <use xlink:href="#DejaVuSans-20" transform="translate(570.369141 0)"/>
      <use xlink:href="#DejaVuSans-55" transform="translate(602.15625 0)"/>
      <use xlink:href="#DejaVuSans-36" transform="translate(675.349609 0)"/>
      <use xlink:href="#DejaVuSans-20" transform="translate(738.972656 0)"/>
      <use xlink:href="#DejaVuSans-28" transform="translate(770.759766 0)"/>
      <use xlink:href="#DejaVuSans-6d" transform="translate(809.773438 0)"/>
      <use xlink:href="#DejaVuSans-69" transform="translate(907.185547 0)"/>
      <use xlink:href="#DejaVuSans-6e" transform="translate(934.96875 0)"/>
      <use xlink:href="#DejaVuSans-75" transform="translate(998.347656 0)"/>
      <use xlink:href="#DejaVuSans-74" transform="translate(1061.726562 0)"/>
      <use xlink:href="#DejaVuSans-65" transform="translate(1100.935547 0)"/>
      <use xlink:href="#DejaVuSans-73" transform="translate(1162.458984 0)"/>
      <use xlink:href="#DejaVuSans-29" transform="translate(1214.558594 0)"/>
     </g>
    </g>
   </g>
  </g>
 </g>
 <defs>
  <clipPath id="p2cdcba8d48">
   <rect x="180" y="129.6" width="1116" height="831.6"/>
  </clipPath>
 </defs>
</svg>
