<?xml version="1.0" encoding="utf-8" standalone="no"?>
<!DOCTYPE svg PUBLIC "-//W3C//DTD SVG 1.1//EN"
  "http://www.w3.org/Graphics/SVG/1.1/DTD/svg11.dtd">
<svg xmlns:xlink="http://www.w3.org/1999/xlink" width="1440pt" height="1080pt" viewBox="0 0 1440 1080" xmlns="http://www.w3.org/2000/svg" version="1.1">
 <metadata>
  <rdf:RDF xmlns:dc="http://purl.org/dc/elements/1.1/" xmlns:cc="http://creativecommons.org/ns#" xmlns:rdf="http://www.w3.org/1999/02/22-rdf-syntax-ns#">
   <cc:Work>
    <dc:type rdf:resource="http://purl.org/dc/dcmitype/StillImage"/>
    <dc:date>2025-07-14T18:08:08.534660</dc:date>
    <dc:format>image/svg+xml</dc:format>
    <dc:creator>
     <cc:Agent>
      <dc:title>Matplotlib v3.10.3, https://matplotlib.org/</dc:title>
     </cc:Agent>
    </dc:creator>
   </cc:Work>
  </rdf:RDF>
 </metadata>
 <defs>
  <style type="text/css">*{stroke-linejoin: round; stroke-linecap: butt}</style>
 </defs>
 <g id="figure_1">
  <g id="patch_1">
   <path d="M 0 1080 
L 1440 1080 
L 1440 0 
L 0 0 
z
" style="fill: #ffffff"/>
  </g>
  <g id="axes_1">
   <g id="patch_2">
    <path d="M 180 961.2 
L 1296 961.2 
L 1296 129.6 
L 180 129.6 
z
" style="fill: #ffffff"/>
   </g>
   <g id="matplotlib.axis_1">
    <g id="xtick_1">
     <g id="line2d_1">
      <defs>
       <path id="md17afd2c28" d="M 0 0 
L 0 3.5 
" style="stroke: #000000; stroke-width: 0.8"/>
      </defs>
      <g>
       <use xlink:href="#md17afd2c28" x="230.727273" y="961.2" style="stroke: #000000; stroke-width: 0.8"/>
      </g>
     </g>
     <g id="text_1">
      <!-- 0.0 -->
      <g transform="translate(222.77571 975.798437) scale(0.1 -0.1)">
       <defs>
        <path id="DejaVuSans-30" d="M 2034 4250 
Q 1547 4250 1301 3770 
Q 1056 3291 1056 2328 
Q 1056 1369 1301 889 
Q 1547 409 2034 409 
Q 2525 409 2770 889 
Q 3016 1369 3016 2328 
Q 3016 3291 2770 3770 
Q 2525 4250 2034 4250 
z
M 2034 4750 
Q 2819 4750 3233 4129 
Q 3647 3509 3647 2328 
Q 3647 1150 3233 529 
Q 2819 -91 2034 -91 
Q 1250 -91 836 529 
Q 422 1150 422 2328 
Q 422 3509 836 4129 
Q 1250 4750 2034 4750 
z
" transform="scale(0.015625)"/>
        <path id="DejaVuSans-2e" d="M 684 794 
L 1344 794 
L 1344 0 
L 684 0 
L 684 794 
z
" transform="scale(0.015625)"/>
       </defs>
       <use xlink:href="#DejaVuSans-30"/>
       <use xlink:href="#DejaVuSans-2e" transform="translate(63.623047 0)"/>
       <use xlink:href="#DejaVuSans-30" transform="translate(95.410156 0)"/>
      </g>
     </g>
    </g>
    <g id="xtick_2">
     <g id="line2d_2">
      <g>
       <use xlink:href="#md17afd2c28" x="433.636658" y="961.2" style="stroke: #000000; stroke-width: 0.8"/>
      </g>
     </g>
     <g id="text_2">
      <!-- 0.2 -->
      <g transform="translate(425.685095 975.798437) scale(0.1 -0.1)">
       <defs>
        <path id="DejaVuSans-32" d="M 1228 531 
L 3431 531 
L 3431 0 
L 469 0 
L 469 531 
Q 828 903 1448 1529 
Q 2069 2156 2228 2338 
Q 2531 2678 2651 2914 
Q 2772 3150 2772 3378 
Q 2772 3750 2511 3984 
Q 2250 4219 1831 4219 
Q 1534 4219 1204 4116 
Q 875 4013 500 3803 
L 500 4441 
Q 881 4594 1212 4672 
Q 1544 4750 1819 4750 
Q 2544 4750 2975 4387 
Q 3406 4025 3406 3419 
Q 3406 3131 3298 2873 
Q 3191 2616 2906 2266 
Q 2828 2175 2409 1742 
Q 1991 1309 1228 531 
z
" transform="scale(0.015625)"/>
       </defs>
       <use xlink:href="#DejaVuSans-30"/>
       <use xlink:href="#DejaVuSans-2e" transform="translate(63.623047 0)"/>
       <use xlink:href="#DejaVuSans-32" transform="translate(95.410156 0)"/>
      </g>
     </g>
    </g>
    <g id="xtick_3">
     <g id="line2d_3">
      <g>
       <use xlink:href="#md17afd2c28" x="636.546043" y="961.2" style="stroke: #000000; stroke-width: 0.8"/>
      </g>
     </g>
     <g id="text_3">
      <!-- 0.4 -->
      <g transform="translate(628.59448 975.798437) scale(0.1 -0.1)">
       <defs>
        <path id="DejaVuSans-34" d="M 2419 4116 
L 825 1625 
L 2419 1625 
L 2419 4116 
z
M 2253 4666 
L 3047 4666 
L 3047 1625 
L 3713 1625 
L 3713 1100 
L 3047 1100 
L 3047 0 
L 2419 0 
L 2419 1100 
L 313 1100 
L 313 1709 
L 2253 4666 
z
" transform="scale(0.015625)"/>
       </defs>
       <use xlink:href="#DejaVuSans-30"/>
       <use xlink:href="#DejaVuSans-2e" transform="translate(63.623047 0)"/>
       <use xlink:href="#DejaVuSans-34" transform="translate(95.410156 0)"/>
      </g>
     </g>
    </g>
    <g id="xtick_4">
     <g id="line2d_4">
      <g>
       <use xlink:href="#md17afd2c28" x="839.455427" y="961.2" style="stroke: #000000; stroke-width: 0.8"/>
      </g>
     </g>
     <g id="text_4">
      <!-- 0.6 -->
      <g transform="translate(831.503865 975.798437) scale(0.1 -0.1)">
       <defs>
        <path id="DejaVuSans-36" d="M 2113 2584 
Q 1688 2584 1439 2293 
Q 1191 2003 1191 1497 
Q 1191 994 1439 701 
Q 1688 409 2113 409 
Q 2538 409 2786 701 
Q 3034 994 3034 1497 
Q 3034 2003 2786 2293 
Q 2538 2584 2113 2584 
z
M 3366 4563 
L 3366 3988 
Q 3128 4100 2886 4159 
Q 2644 4219 2406 4219 
Q 1781 4219 1451 3797 
Q 1122 3375 1075 2522 
Q 1259 2794 1537 2939 
Q 1816 3084 2150 3084 
Q 2853 3084 3261 2657 
Q 3669 2231 3669 1497 
Q 3669 778 3244 343 
Q 2819 -91 2113 -91 
Q 1303 -91 875 529 
Q 447 1150 447 2328 
Q 447 3434 972 4092 
Q 1497 4750 2381 4750 
Q 2619 4750 2861 4703 
Q 3103 4656 3366 4563 
z
" transform="scale(0.015625)"/>
       </defs>
       <use xlink:href="#DejaVuSans-30"/>
       <use xlink:href="#DejaVuSans-2e" transform="translate(63.623047 0)"/>
       <use xlink:href="#DejaVuSans-36" transform="translate(95.410156 0)"/>
      </g>
     </g>
    </g>
    <g id="xtick_5">
     <g id="line2d_5">
      <g>
       <use xlink:href="#md17afd2c28" x="1042.364812" y="961.2" style="stroke: #000000; stroke-width: 0.8"/>
      </g>
     </g>
     <g id="text_5">
      <!-- 0.8 -->
      <g transform="translate(1034.41325 975.798437) scale(0.1 -0.1)">
       <defs>
        <path id="DejaVuSans-38" d="M 2034 2216 
Q 1584 2216 1326 1975 
Q 1069 1734 1069 1313 
Q 1069 891 1326 650 
Q 1584 409 2034 409 
Q 2484 409 2743 651 
Q 3003 894 3003 1313 
Q 3003 1734 2745 1975 
Q 2488 2216 2034 2216 
z
M 1403 2484 
Q 997 2584 770 2862 
Q 544 3141 544 3541 
Q 544 4100 942 4425 
Q 1341 4750 2034 4750 
Q 2731 4750 3128 4425 
Q 3525 4100 3525 3541 
Q 3525 3141 3298 2862 
Q 3072 2584 2669 2484 
Q 3125 2378 3379 2068 
Q 3634 1759 3634 1313 
Q 3634 634 3220 271 
Q 2806 -91 2034 -91 
Q 1263 -91 848 271 
Q 434 634 434 1313 
Q 434 1759 690 2068 
Q 947 2378 1403 2484 
z
M 1172 3481 
Q 1172 3119 1398 2916 
Q 1625 2713 2034 2713 
Q 2441 2713 2670 2916 
Q 2900 3119 2900 3481 
Q 2900 3844 2670 4047 
Q 2441 4250 2034 4250 
Q 1625 4250 1398 4047 
Q 1172 3844 1172 3481 
z
" transform="scale(0.015625)"/>
       </defs>
       <use xlink:href="#DejaVuSans-30"/>
       <use xlink:href="#DejaVuSans-2e" transform="translate(63.623047 0)"/>
       <use xlink:href="#DejaVuSans-38" transform="translate(95.410156 0)"/>
      </g>
     </g>
    </g>
    <g id="xtick_6">
     <g id="line2d_6">
      <g>
       <use xlink:href="#md17afd2c28" x="1245.274197" y="961.2" style="stroke: #000000; stroke-width: 0.8"/>
      </g>
     </g>
     <g id="text_6">
      <!-- 1.0 -->
      <g transform="translate(1237.322635 975.798437) scale(0.1 -0.1)">
       <defs>
        <path id="DejaVuSans-31" d="M 794 531 
L 1825 531 
L 1825 4091 
L 703 3866 
L 703 4441 
L 1819 4666 
L 2450 4666 
L 2450 531 
L 3481 531 
L 3481 0 
L 794 0 
L 794 531 
z
" transform="scale(0.015625)"/>
       </defs>
       <use xlink:href="#DejaVuSans-31"/>
       <use xlink:href="#DejaVuSans-2e" transform="translate(63.623047 0)"/>
       <use xlink:href="#DejaVuSans-30" transform="translate(95.410156 0)"/>
      </g>
     </g>
    </g>
   </g>
   <g id="matplotlib.axis_2">
    <g id="ytick_1">
     <g id="line2d_7">
      <defs>
       <path id="ma330ed7967" d="M 0 0 
L -3.5 0 
" style="stroke: #000000; stroke-width: 0.8"/>
      </defs>
      <g>
       <use xlink:href="#ma330ed7967" x="180" y="923.4" style="stroke: #000000; stroke-width: 0.8"/>
      </g>
     </g>
     <g id="text_7">
      <!-- 0.0 -->
      <g transform="translate(157.096875 927.199219) scale(0.1 -0.1)">
       <use xlink:href="#DejaVuSans-30"/>
       <use xlink:href="#DejaVuSans-2e" transform="translate(63.623047 0)"/>
       <use xlink:href="#DejaVuSans-30" transform="translate(95.410156 0)"/>
      </g>
     </g>
    </g>
    <g id="ytick_2">
     <g id="line2d_8">
      <g>
       <use xlink:href="#ma330ed7967" x="180" y="772.2" style="stroke: #000000; stroke-width: 0.8"/>
      </g>
     </g>
     <g id="text_8">
      <!-- 0.2 -->
      <g transform="translate(157.096875 775.999219) scale(0.1 -0.1)">
       <use xlink:href="#DejaVuSans-30"/>
       <use xlink:href="#DejaVuSans-2e" transform="translate(63.623047 0)"/>
       <use xlink:href="#DejaVuSans-32" transform="translate(95.410156 0)"/>
      </g>
     </g>
    </g>
    <g id="ytick_3">
     <g id="line2d_9">
      <g>
       <use xlink:href="#ma330ed7967" x="180" y="621" style="stroke: #000000; stroke-width: 0.8"/>
      </g>
     </g>
     <g id="text_9">
      <!-- 0.4 -->
      <g transform="translate(157.096875 624.799219) scale(0.1 -0.1)">
       <use xlink:href="#DejaVuSans-30"/>
       <use xlink:href="#DejaVuSans-2e" transform="translate(63.623047 0)"/>
       <use xlink:href="#DejaVuSans-34" transform="translate(95.410156 0)"/>
      </g>
     </g>
    </g>
    <g id="ytick_4">
     <g id="line2d_10">
      <g>
       <use xlink:href="#ma330ed7967" x="180" y="469.8" style="stroke: #000000; stroke-width: 0.8"/>
      </g>
     </g>
     <g id="text_10">
      <!-- 0.6 -->
      <g transform="translate(157.096875 473.599219) scale(0.1 -0.1)">
       <use xlink:href="#DejaVuSans-30"/>
       <use xlink:href="#DejaVuSans-2e" transform="translate(63.623047 0)"/>
       <use xlink:href="#DejaVuSans-36" transform="translate(95.410156 0)"/>
      </g>
     </g>
    </g>
    <g id="ytick_5">
     <g id="line2d_11">
      <g>
       <use xlink:href="#ma330ed7967" x="180" y="318.6" style="stroke: #000000; stroke-width: 0.8"/>
      </g>
     </g>
     <g id="text_11">
      <!-- 0.8 -->
      <g transform="translate(157.096875 322.399219) scale(0.1 -0.1)">
       <use xlink:href="#DejaVuSans-30"/>
       <use xlink:href="#DejaVuSans-2e" transform="translate(63.623047 0)"/>
       <use xlink:href="#DejaVuSans-38" transform="translate(95.410156 0)"/>
      </g>
     </g>
    </g>
    <g id="ytick_6">
     <g id="line2d_12">
      <g>
       <use xlink:href="#ma330ed7967" x="180" y="167.4" style="stroke: #000000; stroke-width: 0.8"/>
      </g>
     </g>
     <g id="text_12">
      <!-- 1.0 -->
      <g transform="translate(157.096875 171.199219) scale(0.1 -0.1)">
       <use xlink:href="#DejaVuSans-31"/>
       <use xlink:href="#DejaVuSans-2e" transform="translate(63.623047 0)"/>
       <use xlink:href="#DejaVuSans-30" transform="translate(95.410156 0)"/>
      </g>
     </g>
    </g>
   </g>
   <g id="line2d_13">
    <path d="M 180 961.199945 
L 1296 129.60115 
" clip-path="url(#p9edc6734fb)" style="fill: none; stroke: #1f77b4; stroke-width: 1.5; stroke-linecap: square"/>
   </g>
   <g id="line2d_14">
    <path d="M 230.727273 923.399939 
L 231.149178 923.22128 
L 231.47994 923.102359 
L 231.812172 922.98992 
L 231.970938 922.932433 
L 232.359032 922.694312 
L 233.038196 922.066451 
L 233.210193 921.958962 
L 233.463042 921.828668 
L 234.390645 921.023324 
L 234.50972 920.897222 
L 234.719937 920.651941 
L 235.07275 920.330012 
L 235.244746 920.178501 
L 235.393222 920.108946 
L 235.490245 919.927362 
L 235.779846 919.349299 
L 235.990063 919.136281 
L 236.767721 917.55542 
L 237.02057 917.078847 
L 237.079373 916.950537 
L 237.27195 916.687711 
L 237.526269 916.326233 
L 237.599771 916.20122 
L 237.799699 916.030671 
L 238.040787 915.808179 
L 238.203963 915.684138 
L 238.615578 915.465807 
L 238.958101 915.324968 
L 239.372656 915.048553 
L 240.448735 914.379794 
L 240.688353 913.87641 
L 240.755976 913.732251 
L 241.004415 913.51222 
L 241.207282 913.401379 
L 241.71886 912.685096 
L 241.929078 912.126149 
L 241.97465 911.987161 
L 242.231909 911.220714 
L 242.283361 911.104613 
L 243.402071 907.644509 
L 244.301744 905.313295 
L 244.423758 905.0409 
L 244.697188 904.460276 
L 245.882051 902.861061 
L 245.986425 902.710797 
L 246.508294 901.094058 
L 246.633248 900.905982 
L 246.903738 900.513907 
L 247.166878 899.951602 
L 247.22421 899.83957 
L 247.493229 899.383504 
L 247.616714 899.209846 
L 247.896024 898.827785 
L 251.121321 894.716779 
L 251.463843 894.564659 
L 251.590268 894.464528 
L 251.997472 894.278659 
L 252.388507 894.108711 
L 252.679577 893.946765 
L 253.194096 893.649279 
L 253.386673 893.450091 
L 253.58513 893.317827 
L 253.730665 893.265375 
L 253.952643 893.151661 
L 254.264294 892.789203 
L 256.06511 891.529231 
L 256.35618 891.275554 
L 256.63108 891.13128 
L 257.032405 890.860264 
L 257.310245 890.749152 
L 258.167286 890.221151 
L 258.340752 890.099413 
L 258.725906 889.864708 
L 259.206613 889.147096 
L 259.369789 889.023037 
L 260.120986 888.347915 
L 260.398826 887.955416 
L 260.614924 887.808264 
L 261.410223 886.617295 
L 261.720404 886.137178 
L 261.907101 885.846132 
L 262.101148 885.557668 
L 262.556865 885.151169 
L 263.337463 884.38882 
L 263.975466 883.500847 
L 264.08572 883.387476 
L 264.401781 883.066153 
L 264.613469 882.955091 
L 265.085356 882.708986 
L 265.226481 882.626877 
L 265.541073 882.379706 
L 266.492197 881.734459 
L 266.652433 881.622991 
L 267.033177 881.089593 
L 267.278675 880.863042 
L 267.515354 880.713826 
L 267.697641 880.581965 
L 267.882867 880.399202 
L 268.606133 879.97717 
L 269.138293 879.764537 
L 269.511686 879.582647 
L 270.093827 879.366482 
L 270.324626 879.213277 
L 270.527493 879.048065 
L 270.789162 878.847532 
L 270.943518 878.726521 
L 271.200777 878.542513 
L 271.491848 878.392014 
L 271.846131 878.21077 
L 272.147492 878.02293 
L 273.802772 877.433 
L 274.082082 877.320867 
L 275.875547 876.660936 
L 276.25482 876.547665 
L 276.966326 876.070281 
L 278.346706 874.710178 
L 278.506942 874.574219 
L 279.074382 874.001672 
L 279.325761 873.767265 
L 279.630062 873.561918 
L 279.775598 873.428712 
L 280.1093 873.195057 
L 280.473873 873.036477 
L 280.626758 872.983722 
L 280.95605 872.774625 
L 281.173618 872.69128 
L 281.530841 872.509622 
L 281.917465 872.327273 
L 282.389352 872.042928 
L 283.43162 871.472035 
L 284.385685 871.109198 
L 284.938425 870.707868 
L 285.829277 869.771396 
L 286.690728 869.214144 
L 286.889185 869.03596 
L 287.01855 868.914672 
L 287.552179 868.471268 
L 287.821199 868.318877 
L 288.031416 868.185398 
L 288.290146 868.062471 
L 289.254501 867.557565 
L 289.447078 867.507419 
L 290.728964 867.031619 
L 291.009744 866.934656 
L 291.807983 866.65631 
L 292.141685 866.539148 
L 292.753227 866.31496 
L 293.439742 865.915087 
L 293.598508 865.776066 
L 293.819016 865.606658 
L 293.910159 865.491766 
L 294.133607 865.318106 
L 294.274732 865.200757 
L 294.514351 865.009849 
L 294.936256 864.630884 
L 295.118543 864.502974 
L 295.743316 864.169054 
L 300.324001 862.355768 
L 301.733782 861.060597 
L 302.033673 860.805571 
L 302.437938 860.455004 
L 302.661386 860.34039 
L 303.018609 860.105813 
L 303.858009 859.804669 
L 304.584215 859.388868 
L 304.745921 859.329467 
L 305.069333 859.206642 
L 305.451547 859.059401 
L 305.597082 858.90791 
L 305.81318 858.702966 
L 306.036628 858.423433 
L 306.204214 858.327119 
L 306.290947 858.196105 
L 306.515865 858.040017 
L 306.764304 857.801381 
L 306.977462 857.570359 
L 307.168569 857.403797 
L 307.688968 857.028027 
L 307.894775 856.902954 
L 309.247224 856.463526 
L 309.719111 856.329241 
L 310.864283 855.979303 
L 311.181814 855.789828 
L 311.414083 855.663358 
L 311.669872 855.410487 
L 312.529853 854.730709 
L 312.798873 854.567593 
L 313.084063 854.359322 
L 313.253119 854.240637 
L 313.586821 853.902433 
L 313.924933 853.607961 
L 314.205714 853.307221 
L 314.480614 853.164113 
L 316.175585 852.324903 
L 316.419614 852.103001 
L 316.622481 851.974739 
L 316.820938 851.843746 
L 317.15023 851.640493 
L 317.489813 851.466371 
L 317.832335 851.318894 
L 318.113115 851.218762 
L 319.519956 850.712027 
L 319.858068 850.536539 
L 320.135908 850.317351 
L 320.894456 849.470778 
L 321.363403 848.92862 
L 321.648593 848.562912 
L 321.776488 848.443804 
L 322.157231 848.083844 
L 322.532095 847.788017 
L 322.748193 847.690891 
L 324.122693 846.832728 
L 324.32409 846.670909 
L 324.665142 846.355183 
L 324.956213 846.133386 
L 325.072347 846.019177 
L 325.614797 845.388408 
L 325.71182 845.277125 
L 326.014651 844.946756 
L 326.174887 844.836345 
L 326.415976 844.65745 
L 326.629133 844.532599 
L 326.896683 844.375873 
L 327.465594 844.131464 
L 327.758134 843.946595 
L 328.118297 843.805496 
L 328.46523 843.534967 
L 328.582834 843.42171 
L 329.705955 841.633444 
L 330.042597 841.010394 
L 330.291036 840.73662 
L 330.624738 840.60616 
L 330.842306 840.450972 
L 331.046643 840.251513 
L 331.315663 839.83406 
L 331.409746 839.723305 
L 331.644955 839.428963 
L 331.734628 839.270457 
L 331.969837 838.913641 
L 332.177114 838.801576 
L 332.61225 838.424603 
L 332.875389 838.044582 
L 333.079727 837.85146 
L 333.185571 837.67335 
L 333.373737 837.452617 
L 336.122737 834.871605 
L 337.459015 834.2987 
L 338.049977 834.177353 
L 339.033442 833.868118 
L 339.480338 833.748603 
L 339.79493 833.683746 
L 341.210591 832.961364 
L 341.45021 832.771981 
L 341.676598 832.659963 
L 341.895636 832.497148 
L 341.985309 832.378028 
L 342.28667 832.027252 
L 342.739446 831.665393 
L 342.85117 831.551819 
L 343.265725 831.125501 
L 343.39068 830.996519 
L 343.575907 830.80711 
L 343.827286 830.526332 
L 346.508663 828.6878 
L 347.217228 828.385803 
L 347.675885 828.135211 
L 348.09338 827.880678 
L 348.337409 827.695985 
L 348.610839 827.54971 
L 348.875448 827.286786 
L 349.266482 826.681406 
L 349.47082 826.438162 
L 349.610475 826.286257 
L 350.077952 825.660075 
L 350.160275 825.546701 
L 350.424884 825.247486 
L 350.529258 825.110629 
L 350.736536 824.893819 
L 350.880601 824.782086 
L 351.117279 824.60175 
L 352.438857 823.090337 
L 352.610853 822.924091 
L 354.357277 821.675229 
L 354.670398 821.552054 
L 355.01439 821.391326 
L 355.27753 821.209852 
L 355.445116 821.004304 
L 356.355079 820.086994 
L 356.493264 819.951716 
L 356.791685 819.496258 
L 356.881358 819.332468 
L 357.135677 819.020901 
L 357.930976 818.258984 
L 358.207346 818.022314 
L 358.344061 817.905118 
L 358.710104 817.687718 
L 358.933552 817.56115 
L 359.176111 817.246055 
L 361.08571 815.433972 
L 361.35473 815.0367 
L 361.473804 814.925107 
L 361.820737 814.70281 
L 362.133858 814.585101 
L 362.507252 814.450021 
L 363.367233 813.937725 
L 363.83912 813.325177 
L 364.363929 812.474262 
L 364.484473 812.303155 
L 364.857867 811.865497 
L 365.419427 811.307989 
L 367.198191 810.092157 
L 367.420169 809.979274 
L 367.737701 809.829593 
L 368.089044 809.703064 
L 370.574904 808.393501 
L 370.901255 808.218261 
L 371.155575 808.023452 
L 371.333451 807.912968 
L 371.499567 807.785516 
L 371.758296 807.686421 
L 372.028786 807.492694 
L 372.269875 807.183714 
L 372.456572 807.061798 
L 373.076934 806.531732 
L 373.438567 806.367524 
L 373.736988 806.240014 
L 374.088331 806.063253 
L 374.33971 805.921333 
L 376.443356 804.89617 
L 376.759417 804.484659 
L 376.965225 804.150245 
L 378.067765 802.44196 
L 378.21624 802.315775 
L 380.43014 800.782272 
L 380.668289 800.512873 
L 381.072553 799.894268 
L 381.147526 799.776649 
L 381.384205 799.516268 
L 381.850212 799.394248 
L 382.106001 799.28323 
L 382.986563 798.509767 
L 383.215891 798.1064 
L 383.831843 797.72158 
L 383.992079 797.610058 
L 384.203767 797.446478 
L 384.387523 797.347805 
L 384.585981 797.211516 
L 385.94431 795.322264 
L 386.633765 795.02758 
L 387.458465 794.058529 
L 387.706904 793.655552 
L 387.950932 793.31108 
L 389.021131 792.355649 
L 389.2681 792.039401 
L 389.641494 791.712134 
L 390.326538 791.313438 
L 390.63672 791.198503 
L 391.154178 790.89025 
L 392.080312 790.199187 
L 392.400783 790.068934 
L 392.700674 789.962477 
L 393.104939 789.801021 
L 393.456282 789.660472 
L 393.751762 789.52819 
L 393.988441 789.450388 
L 394.358894 789.334923 
L 394.770509 789.165289 
L 395.052759 789.058843 
L 395.599619 788.876576 
L 397.316641 788.350606 
L 397.613592 788.106464 
L 397.759127 787.992598 
L 399.21742 787.203968 
L 399.580523 787.073943 
L 400.447855 786.237117 
L 400.755096 785.87016 
L 400.987364 785.794074 
L 401.540104 785.577469 
L 401.842935 785.196529 
L 402.441247 784.874896 
L 402.797 784.571824 
L 402.927834 784.45618 
L 403.317398 784.101452 
L 403.618759 783.964036 
L 404.230301 783.523897 
L 404.699248 783.259247 
L 404.962388 783.058925 
L 405.338722 782.8735 
L 405.498957 782.722478 
L 405.865001 782.27494 
L 406.010536 782.163528 
L 406.167832 781.989458 
L 406.519174 781.334988 
L 407.104255 780.428592 
L 407.179228 780.317766 
L 407.443838 779.820112 
L 407.928955 779.484289 
L 408.165634 779.169433 
L 408.466995 778.997593 
L 408.666922 778.822532 
L 412.059805 776.634224 
L 412.383217 776.32047 
L 412.552273 776.186035 
L 412.944777 775.978406 
L 413.257898 775.866005 
L 414.654449 775.317528 
L 415.058713 774.977143 
L 415.351254 774.610203 
L 415.536481 774.421848 
L 415.78639 774.221573 
L 416.055409 774.001392 
L 416.240636 773.917179 
L 416.919801 773.685475 
L 417.125608 773.613326 
L 417.341706 773.472609 
L 417.510762 773.375107 
L 418.899962 772.525874 
L 419.11312 772.229836 
L 419.286586 772.06658 
L 419.474753 771.842853 
L 419.755533 771.726325 
L 419.959871 771.675119 
L 420.143627 771.563582 
L 420.334734 771.172813 
L 420.614044 770.576236 
L 420.831612 770.376425 
L 420.958037 770.258855 
L 421.134443 770.091514 
L 421.188835 769.984161 
L 421.401993 769.544888 
L 422.016475 769.2988 
L 422.167891 769.185054 
L 422.284025 768.953871 
L 422.679469 768.289094 
L 422.795603 768.140629 
L 423.448307 767.294034 
L 423.579142 767.159739 
L 423.80994 766.915611 
L 424.64787 766.037331 
L 424.799286 765.924933 
L 425.043315 765.658761 
L 425.413768 765.404157 
L 425.671027 765.14705 
L 425.879775 764.944227 
L 426.225237 764.559459 
L 426.957324 764.060216 
L 427.276325 763.897465 
L 427.510064 763.73287 
L 427.698231 763.540956 
L 427.879047 763.434933 
L 428.159827 763.195664 
L 428.345054 763.073757 
L 428.543511 762.85322 
L 429.32999 762.254219 
L 429.665162 762.131031 
L 429.757775 762.010366 
L 430.090007 761.569788 
L 430.239953 761.385476 
L 430.500152 761.161721 
L 430.895596 761.052444 
L 431.658554 759.804115 
L 432.139261 759.658085 
L 432.65672 758.844898 
L 432.958081 758.154899 
L 433.388807 757.372374 
L 433.635776 756.990682 
L 434.181165 755.795291 
L 435.205792 754.066103 
L 435.367498 753.874994 
L 435.752652 753.161552 
L 435.915828 753.05213 
L 436.149567 752.637929 
L 436.281871 752.515617 
L 437.590219 750.895501 
L 437.769565 750.778457 
L 438.932377 750.017125 
L 439.28078 749.894821 
L 439.513048 749.734503 
L 439.740907 749.616473 
L 440.37891 748.972302 
L 440.470053 748.85059 
L 440.994862 748.181115 
L 441.678437 747.848929 
L 442.557528 747.09989 
L 442.907401 746.878838 
L 443.224933 746.739479 
L 445.203624 745.65712 
L 445.982752 745.374414 
L 446.148868 745.283105 
L 446.363496 745.125178 
L 447.282279 744.565513 
L 447.518958 744.414764 
L 448.217233 743.920518 
L 451.370497 742.206469 
L 451.651278 742.027293 
L 452.220188 741.488589 
L 452.946394 740.940788 
L 453.37271 740.708623 
L 453.638789 740.538898 
L 453.900459 740.424561 
L 454.135667 740.346137 
L 454.532582 740.192254 
L 454.878044 740.054718 
L 455.119133 739.946014 
L 456.090838 739.625561 
L 456.775883 739.322391 
L 457.021382 739.105445 
L 457.177208 738.974313 
L 457.302162 738.836659 
L 457.51238 738.619267 
L 458.428223 737.880187 
L 458.685482 737.70345 
L 458.933921 737.556933 
L 459.327895 737.418738 
L 459.516062 737.343292 
L 459.802723 737.207818 
L 461.233084 736.345127 
L 461.915189 736.12891 
L 463.267638 734.81037 
L 463.516077 734.480767 
L 464.108508 733.764547 
L 464.251104 733.652977 
L 464.553934 733.398644 
L 466.344459 731.855767 
L 466.522336 731.70875 
L 466.709032 731.476618 
L 466.856038 731.412382 
L 466.964822 731.298001 
L 467.113297 731.22845 
L 467.570484 731.011257 
L 468.329031 730.231506 
L 468.415764 730.101661 
L 468.637742 729.881539 
L 468.805328 729.771116 
L 469.41246 729.122428 
L 471.119192 728.274485 
L 473.121405 727.430031 
L 473.391894 727.247827 
L 473.866721 727.003661 
L 474.0887 726.870951 
L 479.669021 724.074368 
L 479.9057 723.983303 
L 480.786262 723.63232 
L 480.968549 723.567663 
L 482.135771 723.087245 
L 482.40479 723.003253 
L 483.160398 722.708759 
L 483.627875 722.55834 
L 483.961577 722.424792 
L 484.415823 722.260291 
L 484.60546 722.15936 
L 484.768636 722.04734 
L 485.083227 721.853139 
L 485.730051 721.43622 
L 486.024061 721.219874 
L 486.276911 721.027765 
L 487.122191 720.399063 
L 487.664641 720.217022 
L 487.961592 719.757092 
L 488.958288 718.637249 
L 489.131754 718.503183 
L 491.050173 717.350416 
L 491.416217 717.181732 
L 492.223276 716.904567 
L 492.61578 716.790321 
L 492.933311 716.614401 
L 494.141695 715.867969 
L 494.470987 715.57751 
L 494.781168 715.315959 
L 495.126631 714.861 
L 495.257466 714.720835 
L 495.519135 714.462631 
L 497.228807 713.075458 
L 497.57868 712.890078 
L 498.800294 711.740884 
L 499.039912 711.580359 
L 499.389785 711.281652 
L 499.661745 711.136849 
L 499.907244 710.951658 
L 500.590819 710.503744 
L 500.993613 710.362109 
L 501.165609 710.312712 
L 501.359656 710.154685 
L 501.716879 709.92001 
L 502.01677 709.732478 
L 502.251979 709.487293 
L 502.976715 708.667384 
L 503.993992 707.411633 
L 504.529091 707.077912 
L 504.975987 706.829487 
L 505.209726 706.622358 
L 505.312629 706.488095 
L 505.736005 705.547003 
L 506.322556 704.830585 
L 506.884116 704.466748 
L 507.24869 704.244459 
L 508.686402 703.151119 
L 509.178869 702.964971 
L 510.212317 702.188705 
L 510.441645 701.855246 
L 510.728305 701.673057 
L 511.435401 701.069812 
L 511.602987 700.955768 
L 512.004312 700.674536 
L 512.50266 700.459962 
L 512.746688 700.353657 
L 513.499356 700.008989 
L 513.984473 699.578358 
L 514.487231 699.301864 
L 514.934128 699.061624 
L 516.398301 698.363523 
L 516.630569 698.236684 
L 516.830496 698.112077 
L 517.659606 697.414943 
L 517.856593 697.283922 
L 518.157954 697.137757 
L 518.32113 697.061407 
L 518.563689 696.942698 
L 518.787137 696.831106 
L 519.944069 695.887935 
L 520.295412 695.697314 
L 520.79229 695.451213 
L 521.686082 695.019426 
L 522.132978 694.869801 
L 522.46374 694.680343 
L 522.685718 694.5692 
L 523.404574 694.31755 
L 523.697115 694.20418 
L 523.894102 694.142493 
L 524.354229 693.917984 
L 524.790834 693.710018 
L 525.161288 693.580797 
L 525.681687 693.435859 
L 526.203555 693.277684 
L 527.045896 693.023251 
L 527.517783 692.837993 
L 528.033772 692.65001 
L 528.54829 692.477833 
L 529.318598 691.931615 
L 529.65083 691.588213 
L 530.027164 691.280362 
L 530.316764 691.123131 
L 530.507871 691.005271 
L 530.713679 690.873619 
L 531.697144 690.23704 
L 531.967634 690.108339 
L 533.190718 689.671855 
L 533.445038 689.551194 
L 533.652315 689.430441 
L 533.962496 689.283573 
L 535.137069 688.707366 
L 535.985289 687.787275 
L 536.146995 687.626373 
L 536.389554 687.389107 
L 537.402421 686.630176 
L 537.686141 686.414615 
L 538.657846 685.772198 
L 538.865124 685.654084 
L 539.263508 685.479689 
L 544.254339 683.075912 
L 544.55717 682.846216 
L 544.980545 682.474327 
L 545.226044 682.283731 
L 545.420091 682.138894 
L 545.743503 681.899033 
L 545.903738 681.787031 
L 546.865153 681.203922 
L 547.107712 681.069682 
L 548.452811 680.368922 
L 548.673319 680.136983 
L 548.773282 680.025176 
L 548.962919 679.887617 
L 549.437746 679.564949 
L 549.653844 679.378341 
L 549.856711 679.210905 
L 550.36094 678.953543 
L 550.793135 678.606743 
L 550.975422 678.48532 
L 551.19152 678.356905 
L 551.360576 678.244126 
L 551.807472 678.111325 
L 552.417544 677.836897 
L 552.646872 677.704214 
L 553.364258 677.168822 
L 553.581826 677.008929 
L 553.731772 676.783793 
L 554.216889 675.923959 
L 554.405056 675.737321 
L 554.751989 675.183614 
L 557.84057 672.608834 
L 558.227194 672.491473 
L 558.422711 672.271142 
L 561.033526 671.115986 
L 561.402509 670.986155 
L 561.814124 670.67726 
L 562.139006 670.521218 
L 563.617879 669.896207 
L 563.851618 669.703275 
L 564.4514 669.149769 
L 565.084993 668.999888 
L 567.244501 667.874704 
L 567.49441 667.728217 
L 567.79136 667.566806 
L 569.308455 667.067228 
L 569.521613 666.984413 
L 569.815624 666.826083 
L 571.297437 665.988988 
L 571.63408 665.796262 
L 571.895749 665.708222 
L 572.073625 665.502517 
L 572.280903 665.341704 
L 573.656873 664.300286 
L 574.171391 664.125678 
L 574.522734 663.968283 
L 574.869667 663.81852 
L 575.360664 663.542003 
L 576.442624 662.72279 
L 576.771915 662.543324 
L 577.104147 662.415615 
L 577.73921 662.212627 
L 578.062622 662.09716 
L 578.406615 661.981614 
L 578.659464 661.79337 
L 579.475343 661.252379 
L 579.739953 661.125529 
L 580.022203 660.953727 
L 580.192729 660.790093 
L 580.48674 660.521661 
L 580.657266 660.408113 
L 580.842493 660.256924 
L 581.013019 660.09886 
L 581.261458 659.851254 
L 581.412873 659.737919 
L 581.689243 659.448891 
L 584.141292 657.112262 
L 584.35151 657.000986 
L 584.486755 656.96363 
L 584.946881 656.762924 
L 586.234648 656.105878 
L 586.663903 655.922326 
L 588.156007 654.965952 
L 588.445608 654.738552 
L 590.734481 653.568576 
L 591.441576 653.292043 
L 591.691485 653.211751 
L 592.667601 652.779363 
L 596.961626 650.718922 
L 597.198305 650.501113 
L 597.318849 650.387414 
L 599.01676 649.579627 
L 599.475417 649.429947 
L 599.625362 649.389043 
L 600.076669 649.257444 
L 600.873438 648.933747 
L 602.902111 647.679646 
L 603.922328 647.365351 
L 604.430966 646.491523 
L 604.738207 645.898452 
L 605.674631 644.649519 
L 605.855448 644.49649 
L 606.143578 644.321802 
L 606.355266 644.206912 
L 606.693378 644.094795 
L 607.035901 643.979186 
L 607.526898 643.715274 
L 609.862813 642.813898 
L 610.089201 642.701712 
L 610.688983 642.462214 
L 611.318166 642.192312 
L 616.932299 639.492937 
L 617.299812 639.379323 
L 618.885999 638.777723 
L 619.569574 638.446597 
L 619.700409 638.336102 
L 619.887106 638.211651 
L 620.067922 638.047966 
L 620.442786 637.69266 
L 620.55451 637.565253 
L 620.83088 637.303765 
L 621.058738 637.176041 
L 621.354219 637.046407 
L 621.477703 636.935835 
L 621.805525 636.647686 
L 622.092186 636.523416 
L 622.950697 636.157305 
L 623.169735 636.032511 
L 623.353491 635.913518 
L 623.613691 635.749324 
L 623.909171 635.586786 
L 624.500133 635.287464 
L 625.270441 634.22823 
L 625.388045 634.093816 
L 625.608553 633.821673 
L 625.889333 633.682095 
L 626.462654 632.986244 
L 626.561147 632.864174 
L 626.786065 632.675946 
L 627.212381 632.398375 
L 627.404958 632.247472 
L 627.575484 632.070598 
L 627.918006 631.540759 
L 628.02679 631.382112 
L 628.339912 630.926549 
L 628.414884 630.80671 
L 628.829439 630.363967 
L 628.967624 630.215106 
L 629.377769 629.61121 
L 629.864357 629.113833 
L 630.068694 628.896874 
L 630.350944 628.549103 
L 630.425917 628.430396 
L 631.113902 627.153832 
L 631.231506 626.983891 
L 631.512286 626.647851 
L 631.762195 626.32063 
L 632.023865 625.869337 
L 634.206894 623.516757 
L 634.389181 623.368857 
L 634.589108 623.085199 
L 634.872828 622.655793 
L 635.040414 622.543773 
L 635.250632 622.359529 
L 636.094442 621.78277 
L 636.511937 621.477788 
L 636.87357 621.141505 
L 638.23778 620.127915 
L 638.411246 619.951782 
L 638.758179 619.723672 
L 639.566708 619.292101 
L 639.869539 619.087157 
L 640.357596 618.700422 
L 640.72952 618.432254 
L 640.973549 617.863274 
L 641.413095 616.94349 
L 641.529229 616.645786 
L 642.142241 615.084327 
L 642.702331 613.865373 
L 643.518211 611.737252 
L 643.709318 611.208174 
L 643.951877 610.7636 
L 644.060661 610.561364 
L 644.87948 609.19927 
L 647.218335 604.596267 
L 647.831347 603.950291 
L 648.001873 603.81905 
L 648.079786 603.711258 
L 648.262073 603.484495 
L 648.325285 603.374329 
L 648.832453 602.521645 
L 649.105883 602.089523 
L 649.604231 601.154018 
L 649.746826 600.907593 
L 649.917352 600.754861 
L 650.190782 600.582784 
L 650.299566 600.467317 
L 651.112506 599.716737 
L 651.388876 599.572829 
L 651.643195 599.159975 
L 651.743159 598.98712 
L 651.982777 598.537516 
L 652.262087 598.321251 
L 652.472305 598.192919 
L 652.698693 597.992393 
L 652.985353 597.325191 
L 653.185281 596.876665 
L 653.43519 596.30844 
L 653.688039 595.777192 
L 653.768892 595.635092 
L 653.846805 595.486539 
L 654.365733 594.488939 
L 655.077239 593.799386 
L 655.233065 593.687172 
L 655.422702 593.568509 
L 655.707892 593.369932 
L 655.900469 593.222263 
L 656.050414 593.107662 
L 656.778091 592.381053 
L 657.003009 592.246182 
L 657.179415 592.148164 
L 657.414624 592.023169 
L 657.761556 591.863294 
L 657.932082 591.752309 
L 658.084968 591.685659 
L 658.290775 591.513747 
L 658.502463 591.115889 
L 658.9817 590.484279 
L 659.099305 590.373185 
L 660.015148 589.27988 
L 660.365021 588.400673 
L 660.463514 588.280121 
L 660.744294 587.627539 
L 660.88983 587.487718 
L 661.266163 586.83969 
L 661.427869 586.565426 
L 661.473441 586.454075 
L 661.714529 586.021609 
L 661.793912 585.908651 
L 661.964438 585.745297 
L 662.074692 585.616818 
L 662.458376 584.895893 
L 662.527469 584.781963 
L 662.790608 584.2454 
L 663.203693 583.715984 
L 663.334528 583.555289 
L 663.572677 583.228977 
L 664.235671 582.787349 
L 664.534091 582.59347 
L 664.814872 582.450666 
L 665.441114 581.973363 
L 670.737716 579.037581 
L 671.015556 578.925371 
L 672.578223 577.850406 
L 672.882524 577.766063 
L 673.380872 577.580647 
L 673.992414 577.347398 
L 674.44078 577.140182 
L 674.775952 576.935867 
L 675.094954 576.82104 
L 675.791759 576.606773 
L 676.028437 576.472188 
L 677.423518 575.480973 
L 677.692538 575.238532 
L 678.886221 573.988962 
L 679.009705 573.877188 
L 679.630068 573.569867 
L 679.802064 573.45761 
L 679.97112 573.359395 
L 680.79288 572.905496 
L 681.289758 572.016416 
L 681.463224 571.70318 
L 681.735184 571.221678 
L 682.110047 570.573774 
L 682.498141 570.221666 
L 682.967088 570.029997 
L 684.473893 569.032857 
L 685.244201 567.337692 
L 685.357395 567.089662 
L 685.632295 566.601025 
L 685.78224 566.389725 
L 686.174745 565.769221 
L 686.806867 565.311586 
L 687.050896 564.943543 
L 687.174381 564.731149 
L 687.572765 564.249998 
L 687.669789 564.139592 
L 687.99026 563.640963 
L 688.310732 563.423493 
L 688.468028 563.325687 
L 688.851711 562.876358 
L 689.001657 562.757228 
L 689.08104 562.513561 
L 689.267736 562.226591 
L 689.402981 562.088231 
L 689.569097 561.89639 
L 689.680821 561.767862 
L 689.91162 561.377987 
L 690.029224 561.199697 
L 690.455539 560.551696 
L 690.534922 560.411792 
L 690.676047 560.334318 
L 691.261129 560.155315 
L 691.428715 559.990804 
L 692.109349 559.723145 
L 692.329857 559.295403 
L 692.613578 558.896264 
L 692.806155 558.638154 
L 692.9708 558.466523 
L 693.003142 558.357458 
L 693.23541 557.72269 
L 693.970437 556.243311 
L 694.152723 555.906784 
L 694.34677 555.584638 
L 694.529057 555.276279 
L 694.90098 554.673733 
L 695.190581 554.39439 
L 695.409619 554.027104 
L 696.190217 552.609282 
L 696.28577 552.504606 
L 696.432776 552.343681 
L 696.575371 552.125198 
L 696.784118 551.684975 
L 697.201614 551.330673 
L 697.361849 551.232722 
L 697.586768 550.824769 
L 697.770524 550.48301 
L 698.853953 548.696993 
L 699.074461 548.226876 
L 699.246458 547.981111 
L 699.483136 547.657281 
L 699.524298 547.518866 
L 699.699234 547.173512 
L 700.200522 546.22683 
L 700.291665 546.116546 
L 700.450431 545.886185 
L 700.606257 545.694725 
L 700.878217 545.003947 
L 700.998761 544.819426 
L 701.388325 543.919053 
L 701.433897 543.791143 
L 701.744078 543.089343 
L 701.80435 542.98188 
L 701.989577 542.664501 
L 702.246836 542.08747 
L 703.293514 541.254112 
L 703.478741 540.952824 
L 703.544893 540.793901 
L 703.749231 540.419709 
L 704.138795 539.784307 
L 704.322551 539.576999 
L 704.582751 539.310663 
L 704.800319 538.955698 
L 705.039937 538.721738 
L 705.176652 538.615143 
L 705.317777 538.483395 
L 705.538285 538.355333 
L 705.755853 538.192465 
L 706.066034 537.811947 
L 706.239501 537.664814 
L 706.452658 537.536523 
L 707.140643 537.193388 
L 707.286179 537.12966 
L 707.850679 536.924852 
L 708.340207 536.756859 
L 708.70037 536.299495 
L 708.895887 536.08522 
L 709.650024 535.001423 
L 710.65407 534.638599 
L 710.889279 534.389412 
L 711.217101 533.972833 
L 711.515522 533.766041 
L 711.813942 533.511339 
L 711.996229 533.379696 
L 712.740076 532.957531 
L 713.072308 532.843722 
L 713.738242 532.706164 
L 714.22336 532.594001 
L 716.762141 531.324732 
L 717.922013 530.422336 
L 718.048438 530.310934 
L 718.521795 530.054855 
L 718.702612 529.94139 
L 719.547892 529.242177 
L 719.843373 529.122079 
L 720.197656 528.982388 
L 720.800378 528.798277 
L 721.100268 528.716756 
L 722.53504 528.148631 
L 722.720267 528.06492 
L 723.177454 527.887059 
L 723.443533 527.799543 
L 723.708143 527.679698 
L 725.351662 526.61284 
L 725.617742 526.244167 
L 725.811789 526.120973 
L 726.067578 525.780215 
L 726.157251 525.631318 
L 726.349828 525.430178 
L 727.077505 524.635526 
L 728.130063 523.892604 
L 728.779826 523.559273 
L 729.079717 523.403222 
L 729.244363 523.276274 
L 729.44282 523.143867 
L 729.566305 523.033363 
L 729.797103 522.870582 
L 730.105814 522.748966 
L 730.339553 522.663817 
L 730.832021 522.535469 
L 731.052529 522.389485 
L 732.631366 520.733219 
L 732.798952 520.579005 
L 733.079732 520.215808 
L 733.30612 520.069428 
L 733.548679 519.87608 
L 733.957354 519.659467 
L 734.351328 519.495443 
L 734.542435 519.390546 
L 734.782054 519.257187 
L 736.185954 517.680979 
L 739.39214 515.901477 
L 739.6494 515.504578 
L 739.821396 515.349554 
L 740.016913 515.254379 
L 740.255062 515.089225 
L 740.507911 514.691176 
L 740.675497 514.526478 
L 740.934226 514.166162 
L 742.443971 513.484934 
L 742.829125 513.178221 
L 743.134896 512.938333 
L 745.003333 512.26644 
L 745.237072 512.153298 
L 747.223114 511.562934 
L 747.68177 511.204038 
L 747.833186 511.087997 
L 749.570789 510.041916 
L 749.969173 509.801689 
L 750.236723 509.684709 
L 750.477812 509.539853 
L 750.757122 509.425746 
L 750.933528 509.360978 
L 751.376014 509.125629 
L 751.880242 508.857579 
L 752.169843 508.674269 
L 752.65349 508.358605 
L 752.872528 508.22054 
L 753.113617 508.056095 
L 753.298844 507.934767 
L 753.75015 507.586994 
L 754.02211 507.442938 
L 754.614541 507.199714 
L 756.153687 506.163377 
L 756.369785 505.960344 
L 756.593233 505.77871 
L 757.247407 505.429338 
L 758.655717 504.885464 
L 759.090853 504.640278 
L 759.459837 504.419192 
L 759.790599 504.209566 
L 760.246315 504.044128 
L 760.466823 503.92799 
L 760.631469 503.813041 
L 760.800525 503.697013 
L 761.066605 503.551437 
L 761.362085 503.359596 
L 761.717838 503.207279 
L 762.929162 502.286898 
L 763.805314 501.761902 
L 764.097854 501.387484 
L 764.344823 501.157615 
L 764.599143 500.835949 
L 764.998997 500.483379 
L 766.835093 499.241253 
L 767.337852 499.018741 
L 767.723006 498.811175 
L 768.331608 498.562466 
L 768.690301 498.432753 
L 771.011515 497.598355 
L 771.217322 497.483948 
L 771.958229 497.167487 
L 772.444816 496.97113 
L 772.737357 496.798438 
L 772.897593 496.66517 
L 773.343019 496.064941 
L 773.475324 495.946776 
L 773.700242 495.706069 
L 774.868934 494.866981 
L 775.135014 494.692117 
L 775.31436 494.558175 
L 775.58044 494.32555 
L 775.750966 494.27276 
L 776.034686 494.140352 
L 776.449241 493.98875 
L 777.010802 493.738667 
L 778.05748 493.440021 
L 778.35737 493.188461 
L 779.333486 492.613238 
L 779.670128 492.501778 
L 780.26991 492.196228 
L 780.438966 492.129171 
L 780.684465 492.015655 
L 783.87448 490.827536 
L 784.453681 490.642067 
L 785.748798 489.795113 
L 785.926674 489.673511 
L 786.189814 489.461504 
L 786.554387 489.183046 
L 786.767545 489.063767 
L 787.242372 488.909354 
L 787.73925 488.749659 
L 788.605111 488.156056 
L 788.827089 487.96614 
L 789.056418 487.808668 
L 789.234294 487.710273 
L 789.585637 487.545019 
L 789.798795 487.483513 
L 790.061934 487.34297 
L 791.271788 486.765178 
L 792.44342 486.290467 
L 792.968229 485.167401 
L 793.032912 484.98653 
L 793.353383 484.51772 
L 793.629753 484.19222 
L 793.923764 483.862709 
L 794.170733 483.622288 
L 795.609915 481.61956 
L 795.814252 481.458244 
L 796.061221 480.954258 
L 796.174415 480.834238 
L 796.31848 480.739128 
L 796.618371 480.620503 
L 796.812418 480.413337 
L 796.978534 480.234427 
L 797.240204 479.746477 
L 797.41073 479.545745 
L 797.644468 478.949787 
L 797.68857 478.806988 
L 798.082544 478.129794 
L 798.136936 477.999019 
L 798.338334 477.544335 
L 798.664685 477.230361 
L 798.894014 476.972739 
L 799.005738 476.738962 
L 799.424703 475.456475 
L 799.602579 474.992133 
L 799.918641 474.168845 
L 799.967152 474.036221 
L 800.361127 472.960884 
L 800.44051 472.827617 
L 800.890346 472.000675 
L 801.213758 471.23821 
L 801.450436 470.939857 
L 801.578331 470.635878 
L 801.991416 469.721728 
L 802.188403 469.604558 
L 803.298293 468.545618 
L 803.440888 468.42812 
L 804.187675 467.775895 
L 804.296459 467.632653 
L 804.59341 467.499524 
L 804.858019 467.386465 
L 805.052066 467.160944 
L 805.544534 466.496195 
L 805.644498 466.382476 
L 805.826785 466.199058 
L 805.875296 466.078739 
L 806.729397 464.57971 
L 807.110141 464.340874 
L 807.390921 464.138054 
L 807.654061 463.920434 
L 807.887799 463.653019 
L 808.087726 463.509963 
L 808.425839 463.199543 
L 808.552263 463.079088 
L 808.713969 462.971107 
L 809.800338 462.263462 
L 809.937053 462.199966 
L 810.297216 462.074534 
L 810.476563 461.862058 
L 810.592697 461.746572 
L 810.695601 461.620145 
L 811.251281 461.332184 
L 811.454148 461.240258 
L 811.970137 460.942521 
L 812.293549 460.391109 
L 812.565508 459.881873 
L 812.858049 459.494667 
L 812.971243 459.35152 
L 813.302005 459.022628 
L 813.748901 458.514231 
L 813.960589 458.312247 
L 814.136995 458.180323 
L 814.651514 457.640423 
L 814.739717 457.511727 
L 815.063129 457.166357 
L 815.205724 457.046886 
L 817.146194 455.911988 
L 817.497537 455.795636 
L 817.769497 455.724986 
L 818.204632 455.609847 
L 818.508933 455.49512 
L 819.52915 454.889695 
L 819.720257 454.758565 
L 821.238822 453.827306 
L 821.696009 453.709638 
L 821.963558 453.500592 
L 822.741217 452.810776 
L 822.961725 452.696903 
L 823.421851 452.524973 
L 823.732032 452.41021 
L 825.5843 451.656271 
L 825.947403 451.282589 
L 826.344317 451.149743 
L 826.794153 450.915643 
L 827.002901 450.75902 
L 828.190704 449.731775 
L 828.790486 449.395329 
L 829.009523 449.315311 
L 829.385857 449.200068 
L 829.587254 449.03734 
L 829.75631 449.001416 
L 830.467816 448.828678 
L 831.557126 448.061474 
L 832.162788 447.806357 
L 832.393586 447.528073 
L 832.524421 447.419401 
L 832.747869 447.204191 
L 835.232259 445.362207 
L 836.054018 445.005938 
L 836.462693 444.865848 
L 836.606758 444.817959 
L 837.274163 444.528672 
L 837.603454 444.377236 
L 838.334071 443.993554 
L 838.642782 443.818272 
L 839.013235 443.595081 
L 839.458662 443.349053 
L 847.491032 440.48402 
L 847.761522 440.36076 
L 848.223119 440.183741 
L 848.639144 439.76202 
L 848.850831 439.650472 
L 848.944915 439.424432 
L 849.215405 438.6627 
L 849.425622 438.199002 
L 849.672591 437.633904 
L 850.222391 436.193389 
L 850.284133 436.03661 
L 850.539923 435.423788 
L 851.733606 433.645213 
L 852.068778 433.082391 
L 852.11729 432.971366 
L 852.336328 432.565 
L 852.837616 431.882775 
L 852.893478 431.77278 
L 853.069884 431.547617 
L 853.521191 430.826835 
L 853.721118 430.556799 
L 854.3356 429.817395 
L 854.470845 429.694797 
L 855.892386 428.328454 
L 856.171696 428.178887 
L 857.493274 427.402635 
L 857.806396 427.288143 
L 858.159208 427.066881 
L 858.454689 426.805219 
L 858.910406 426.479964 
L 859.255868 426.285277 
L 859.436685 426.152934 
L 859.674833 426.042136 
L 859.911512 425.921675 
L 860.206992 425.736231 
L 860.740622 425.510579 
L 860.940549 425.389754 
L 861.143416 425.282633 
L 861.971056 425.059562 
L 864.035011 424.168035 
L 864.630383 423.911476 
L 865.200763 423.701051 
L 865.419801 423.64427 
L 865.990182 423.479946 
L 866.281252 423.344318 
L 866.714918 423.158269 
L 867.061851 422.991738 
L 867.449945 422.911495 
L 867.738075 422.789863 
L 868.43635 422.591984 
L 868.834735 422.280418 
L 869.083174 422.046923 
L 869.24929 421.934345 
L 869.721177 421.557192 
L 870.016657 421.240235 
L 870.182773 421.062318 
L 870.501775 420.739143 
L 870.604679 420.628604 
L 870.792846 420.460377 
L 871.508761 419.807216 
L 871.835113 419.564111 
L 872.067382 419.361357 
L 872.189396 419.227062 
L 872.684804 418.92611 
L 873.287526 418.667734 
L 873.519794 418.405025 
L 873.659449 418.178015 
L 873.925529 417.713624 
L 874.141627 417.467567 
L 874.459158 417.234646 
L 875.594039 416.270996 
L 876.040935 416.091842 
L 876.204111 416.032085 
L 876.483421 415.920225 
L 876.686289 415.843859 
L 877.033221 415.708591 
L 877.287541 415.518694 
L 877.566851 415.258897 
L 877.935834 415.144709 
L 878.884018 414.180875 
L 879.116287 414.011529 
L 879.363256 413.823873 
L 879.554363 413.701675 
L 879.710188 413.553627 
L 879.792511 413.42954 
L 880.073291 413.051801 
L 880.246758 412.818683 
L 880.429044 412.595159 
L 880.58487 412.512768 
L 880.87594 412.310768 
L 881.044997 412.135322 
L 881.222873 412.004977 
L 881.397809 411.850597 
L 881.70064 411.546159 
L 881.954959 411.415297 
L 882.101965 411.366286 
L 883.300058 410.953757 
L 883.62788 410.826325 
L 884.246772 410.489747 
L 884.518732 410.343302 
L 884.792162 410.194548 
L 886.732632 409.116032 
L 886.959021 408.889756 
L 888.343811 407.991609 
L 888.564319 407.856967 
L 891.394171 406.69645 
L 891.710232 406.572231 
L 892.915676 405.557893 
L 893.440485 405.058381 
L 893.58896 404.931092 
L 894.181392 404.436438 
L 894.329867 404.31111 
L 894.570956 404.145489 
L 895.23836 403.766757 
L 895.380955 403.727882 
L 895.567652 403.613313 
L 895.907234 403.343961 
L 896.877469 402.59886 
L 897.287614 402.124591 
L 897.496362 401.8885 
L 897.575745 401.778105 
L 897.853585 401.442972 
L 898.022641 401.349169 
L 898.137305 401.236721 
L 898.54892 400.836516 
L 898.593022 400.721875 
L 898.870862 400.205453 
L 898.966415 400.082664 
L 899.10019 399.829478 
L 899.572077 399.01826 
L 899.683801 398.857513 
L 900.362966 397.375148 
L 900.49527 397.18086 
L 900.831913 396.543105 
L 900.930406 396.431424 
L 903.035522 393.694847 
L 903.206049 393.584054 
L 903.81024 393.086946 
L 904.164523 392.775927 
L 904.36445 392.522838 
L 904.658461 392.312276 
L 904.90984 392.187617 
L 905.800692 391.545212 
L 906.00062 391.42363 
L 906.334322 391.162273 
L 906.493087 391.041318 
L 906.987025 390.867669 
L 907.257515 390.732794 
L 907.751453 390.311098 
L 907.94697 390.160773 
L 908.314483 389.847413 
L 908.443848 389.72087 
L 908.705518 389.513787 
L 909.105372 389.204865 
L 909.433194 388.872952 
L 909.825698 388.600424 
L 910.128529 388.419666 
L 910.882666 387.523008 
L 911.442757 386.784567 
L 911.54419 386.630827 
L 911.744117 386.395132 
L 911.866132 386.272065 
L 912.032248 386.157132 
L 912.976022 385.319773 
L 913.422918 384.723673 
L 913.678707 384.548801 
L 914.366692 384.004781 
L 914.623952 383.695282 
L 914.713625 383.580174 
L 915.589777 382.774795 
L 915.939649 382.431786 
L 916.263061 382.27694 
L 917.220066 381.725132 
L 917.549358 381.54133 
L 918.034475 381.259757 
L 918.7107 380.960797 
L 919.150245 380.804848 
L 919.332532 380.7061 
L 919.701515 380.461683 
L 919.82647 380.350352 
L 920.974582 379.667989 
L 923.916158 378.46618 
L 924.179297 378.33934 
L 924.421856 378.220871 
L 924.999587 378.010847 
L 925.168643 377.944335 
L 925.547917 377.827403 
L 928.66149 376.479648 
L 929.633195 375.840275 
L 929.841942 375.641762 
L 930.160944 375.435084 
L 930.556388 375.217854 
L 931.16205 374.97588 
L 932.439526 374.207557 
L 932.912884 373.774389 
L 933.065769 373.651242 
L 933.275987 373.514472 
L 934.763681 372.682335 
L 934.990069 372.550504 
L 935.247328 372.354678 
L 935.954424 371.948217 
L 936.164641 371.750527 
L 936.310176 371.637959 
L 936.851156 371.359795 
L 937.080484 371.175656 
L 937.356854 370.983487 
L 937.677326 370.749546 
L 938.571118 369.850024 
L 939.069466 369.074728 
L 939.131209 368.963232 
L 939.367887 368.573129 
L 940.414565 367.712471 
L 940.632133 367.595523 
L 940.957015 367.438355 
L 941.11284 367.309164 
L 941.93166 366.488959 
L 942.20215 366.194205 
L 943.654562 364.471354 
L 944.091168 364.143609 
L 944.252874 364.080833 
L 944.533654 363.96449 
L 945.661185 363.269849 
L 945.914034 363.049425 
L 946.213925 362.760976 
L 946.428553 362.650078 
L 946.744614 362.372914 
L 947.560494 361.820603 
L 948.00886 361.568598 
L 948.335212 361.458824 
L 948.685084 361.335627 
L 949.161382 361.155145 
L 949.743523 360.592811 
L 949.981671 360.41165 
L 950.250691 360.269032 
L 950.749039 359.942674 
L 950.966607 359.830891 
L 951.106262 359.784964 
L 951.309129 359.670539 
L 951.757495 359.379886 
L 952.827694 358.637334 
L 953.206968 358.340837 
L 953.439236 358.21338 
L 953.753828 358.052113 
L 954.021377 357.930455 
L 955.123917 357.329969 
L 955.528182 357.173916 
L 955.707528 357.049131 
L 957.6921 356.136514 
L 958.149287 355.742353 
L 958.352154 355.627379 
L 958.605003 355.457942 
L 958.976927 355.178691 
L 959.304749 355.026637 
L 959.584059 354.793766 
L 959.88689 354.514809 
L 960.204421 354.072094 
L 960.339666 353.942018 
L 960.676308 353.455941 
L 962.077269 352.012556 
L 962.324238 351.702401 
L 962.487414 351.510058 
L 962.796125 351.183795 
L 962.912259 351.035564 
L 963.168048 350.799687 
L 963.313584 350.68599 
L 963.961877 350.177134 
L 964.220607 349.974767 
L 964.527848 349.736429 
L 965.623037 349.178576 
L 966.044943 349.043605 
L 966.577102 348.753161 
L 967.101911 348.549947 
L 967.594379 348.404724 
L 967.928081 348.285979 
L 969.446646 347.770938 
L 969.877371 347.592557 
L 970.037607 347.502763 
L 970.290456 347.394002 
L 970.828496 347.193939 
L 971.21512 346.907347 
L 971.357715 346.796163 
L 971.629675 346.640108 
L 972.05893 346.48315 
L 972.391162 346.349043 
L 972.644011 346.263852 
L 973.196751 346.025272 
L 973.476061 345.910478 
L 974.497748 345.090233 
L 974.694736 344.899416 
L 974.862322 344.741449 
L 975.040198 344.591116 
L 975.275407 344.395314 
L 975.700252 343.865278 
L 976.026604 343.619853 
L 976.266222 343.376806 
L 976.708708 343.128686 
L 977.115913 342.856852 
L 977.31731 342.682335 
L 978.265495 341.96465 
L 978.437491 341.838884 
L 978.671229 341.611475 
L 978.940249 341.15947 
L 979.285712 340.679471 
L 979.563552 340.18317 
L 979.728198 340.034668 
L 979.948706 339.855551 
L 980.120702 339.640113 
L 980.180974 339.530909 
L 980.375021 339.227812 
L 980.561718 339.116017 
L 980.796926 338.733063 
L 980.930701 338.602181 
L 981.112988 338.431748 
L 981.268813 338.307281 
L 981.429049 338.179373 
L 981.770102 338.014857 
L 982.033241 337.848052 
L 982.774148 337.305315 
L 982.994656 337.081399 
L 983.204874 336.878046 
L 983.456253 336.651464 
L 983.641479 336.540446 
L 983.838466 336.433946 
L 984.066325 336.320626 
L 984.2001 336.277024 
L 985.770116 335.816005 
L 986.13616 335.588872 
L 986.378718 335.47616 
L 986.760932 335.130816 
L 987.038772 334.7911 
L 987.309262 334.514772 
L 987.52977 334.392505 
L 988.022238 334.065924 
L 988.523526 333.761135 
L 988.654361 333.645689 
L 989.021874 333.425916 
L 989.312945 333.306639 
L 989.74808 333.00343 
L 990.716845 332.485928 
L 991.201963 331.934284 
L 992.191309 331.26905 
L 993.04982 330.375028 
L 994.121489 329.943149 
L 994.394918 329.807617 
L 994.828584 329.664659 
L 995.069673 329.437062 
L 995.756188 329.034544 
L 995.916424 328.856074 
L 996.066369 328.627505 
L 996.36185 328.316865 
L 996.463283 328.205512 
L 996.730833 327.980015 
L 997.127747 327.662874 
L 997.320324 327.551369 
L 997.664317 327.365934 
L 998.068581 327.047122 
L 998.377293 326.768661 
L 998.661013 326.629297 
L 1000.629414 325.299562 
L 1000.846982 325.196379 
L 1002.766871 324.549024 
L 1004.902859 323.867562 
L 1005.243911 323.663752 
L 1005.445308 323.549495 
L 1006.222966 323.030657 
L 1006.390553 322.915646 
L 1006.666923 322.824943 
L 1007.043256 322.712439 
L 1008.407466 322.009155 
L 1008.652964 321.734282 
L 1008.926394 321.33673 
L 1009.121911 321.120082 
L 1009.233635 320.965097 
L 1009.584978 320.585372 
L 1009.759914 320.440372 
L 1009.845178 320.317716 
L 1010.112727 320.16133 
L 1010.811003 319.748493 
L 1011.28436 318.871461 
L 1011.875321 318.149042 
L 1012.219313 317.958295 
L 1013.383596 316.645721 
L 1013.627624 316.235502 
L 1013.752579 316.122119 
L 1013.978967 315.676145 
L 1014.034829 315.566715 
L 1014.214176 315.379665 
L 1016.138475 313.036199 
L 1016.314882 312.91564 
L 1016.55303 312.762211 
L 1016.847041 312.626076 
L 1017.274826 312.469599 
L 1018.139218 312.212204 
L 1018.525842 312.043829 
L 1018.955097 311.929914 
L 1019.431394 311.814078 
L 1019.912102 311.695589 
L 1020.044407 311.661802 
L 1020.752972 311.48709 
L 1021.130776 311.343049 
L 1021.558561 311.226708 
L 1021.79818 311.135183 
L 1023.535783 310.511688 
L 1024.758867 310.124504 
L 1025.011716 310.028867 
L 1026.747849 309.251267 
L 1026.965417 309.149029 
L 1027.282949 308.991858 
L 1027.771006 308.716334 
L 1028.629517 308.159647 
L 1029.699716 307.732782 
L 1029.868772 307.648418 
L 1030.37006 307.52361 
L 1030.680242 307.465322 
L 1031.344706 307.341417 
L 1032.28407 307.098335 
L 1032.438425 306.99644 
L 1032.813289 306.814793 
L 1033.327807 306.170807 
L 1033.67474 305.626712 
L 1033.877607 305.358917 
L 1034.23483 304.876592 
L 1034.296572 304.76566 
L 1034.520021 304.488299 
L 1034.756699 304.376975 
L 1035.312379 304.138088 
L 1035.494666 304.022776 
L 1037.773248 301.708717 
L 1037.984936 301.543747 
L 1038.988982 300.67561 
L 1039.150688 300.595312 
L 1039.463809 300.436125 
L 1039.875424 300.030582 
L 1040.119453 299.776271 
L 1041.174951 299.003791 
L 1041.296966 298.869681 
L 1041.751212 298.327841 
L 1041.890867 298.203719 
L 1042.151067 297.975203 
L 1042.352464 297.708056 
L 1042.599433 297.428075 
L 1042.931665 297.179992 
L 1044.035675 296.527241 
L 1044.435529 296.332173 
L 1045.055892 295.916848 
L 1045.363133 295.800358 
L 1046.278976 295.458158 
L 1046.498014 295.380999 
L 1046.902279 295.138045 
L 1047.106616 295.011567 
L 1047.360935 294.856961 
L 1047.712278 294.622015 
L 1047.973947 294.405755 
L 1048.669283 293.979022 
L 1048.797177 293.868013 
L 1049.069137 293.668033 
L 1050.328973 292.872535 
L 1051.190424 292.159133 
L 1052.122438 291.71523 
L 1052.320895 291.513193 
L 1052.584034 291.330025 
L 1053.493997 290.773186 
L 1053.746846 290.540949 
L 1054.299586 290.329445 
L 1054.662689 290.117938 
L 1054.911128 289.998559 
L 1055.325683 289.874695 
L 1058.164356 288.727472 
L 1058.53922 288.305405 
L 1058.846461 288.193409 
L 1059.538856 287.355426 
L 1059.629999 287.233219 
L 1059.9196 286.866005 
L 1060.335625 286.6322 
L 1060.692848 286.369948 
L 1060.863374 286.255424 
L 1060.957457 286.140053 
L 1061.132394 285.982919 
L 1061.702774 285.581343 
L 1063.056693 284.942131 
L 1063.477128 284.748579 
L 1066.261409 283.687728 
L 1066.506908 283.566417 
L 1066.646563 283.427614 
L 1066.911173 283.208942 
L 1067.300737 282.991796 
L 1067.546236 282.859915 
L 1067.752043 282.755572 
L 1068.348885 282.519613 
L 1069.901261 282.039269 
L 1070.356977 281.927209 
L 1071.584472 281.418331 
L 1071.850551 281.28882 
L 1072.256286 281.13352 
L 1072.470914 281.017038 
L 1072.763454 280.819618 
L 1074.121784 280.076093 
L 1074.318771 279.864099 
L 1074.553979 279.69411 
L 1074.774487 279.347993 
L 1076.397426 277.812601 
L 1076.597353 277.610958 
L 1077.014848 277.397281 
L 1077.200075 277.282648 
L 1078.296735 276.356083 
L 1078.44668 276.240363 
L 1078.649547 276.022806 
L 1078.746571 275.902387 
L 1079.421325 275.324937 
L 1079.731507 275.104107 
L 1079.985826 274.964187 
L 1082.624571 273.746191 
L 1082.839199 273.632255 
L 1085.62789 272.354663 
L 1086.72602 271.80302 
L 1087.033261 271.488605 
L 1087.337562 271.307656 
L 1087.502208 271.251733 
L 1087.884422 271.125005 
L 1088.182842 271.025176 
L 1088.989902 270.686025 
L 1089.932206 270.357565 
L 1090.543748 269.619778 
L 1090.737795 269.465618 
L 1090.962713 269.035172 
L 1091.555145 268.042727 
L 1092.701786 266.661101 
L 1093.63086 266.101609 
L 1094.636376 265.442754 
L 1095.112673 265.31637 
L 1095.628662 265.145114 
L 1095.869751 265.03111 
L 1096.820875 264.283159 
L 1097.036973 264.086596 
L 1097.420657 263.658509 
L 1097.723488 263.356058 
L 1097.902834 263.218354 
L 1098.118932 263.068451 
L 1098.318859 262.95527 
L 1098.770166 262.762936 
L 1099.070056 262.623328 
L 1102.726079 260.900408 
L 1103.386133 260.418449 
L 1103.553719 260.297728 
L 1103.727185 260.217843 
L 1103.959453 260.089165 
L 1104.160851 260.010596 
L 1104.4137 259.899435 
L 1104.710651 259.818349 
L 1105.996947 259.312712 
L 1106.255676 258.993675 
L 1106.33947 258.86777 
L 1106.662881 258.546046 
L 1106.980413 258.317773 
L 1107.17593 258.218924 
L 1108.740066 257.430234 
L 1109.213424 257.197801 
L 1109.572117 256.911919 
L 1113.117885 255.156147 
L 1113.472168 255.006841 
L 1113.698556 254.875873 
L 1116.654833 253.282431 
L 1117.182582 252.637421 
L 1117.361928 252.492728 
L 1117.589787 252.336378 
L 1117.69269 252.209601 
L 1117.96024 251.859125 
L 1118.092545 251.737492 
L 1119.037789 250.888454 
L 1119.289168 250.680554 
L 1119.505266 250.570178 
L 1119.705193 250.468644 
L 1119.955102 250.348497 
L 1120.459331 250.113169 
L 1120.791563 249.983801 
L 1121.057642 249.82923 
L 1121.395754 249.685088 
L 1121.578041 249.628923 
L 1122.10579 249.473752 
L 1122.302777 249.398081 
L 1122.510055 249.285521 
L 1122.740853 249.195369 
L 1124.698964 248.462448 
L 1125.122339 248.271407 
L 1127.458254 247.449337 
L 1127.747854 247.328504 
L 1128.19328 247.006688 
L 1128.249142 246.879997 
L 1128.541683 246.326629 
L 1129.182626 245.913272 
L 1129.404604 245.584195 
L 1129.755947 245.384424 
L 1130.577707 244.467558 
L 1130.877598 243.992292 
L 1131.061354 243.73434 
L 1131.274512 243.402009 
L 1131.348015 243.288783 
L 1131.631735 242.613079 
L 1131.834602 242.39039 
L 1132.085981 242.039798 
L 1132.202115 241.831731 
L 1132.6005 241.034538 
L 1132.941552 240.876566 
L 1133.16353 240.469822 
L 1133.42814 240.204721 
L 1133.520753 240.030333 
L 1133.745671 239.646392 
L 1133.814764 239.523669 
L 1134.320462 238.476715 
L 1134.589482 238.205977 
L 1134.892313 237.941156 
L 1135.058429 237.826461 
L 1135.3789 237.633071 
L 1135.747884 236.977165 
L 1135.853728 236.854427 
L 1136.043364 236.613279 
L 1136.574054 236.122303 
L 1136.643146 235.995574 
L 1136.794562 235.784464 
L 1137.932383 234.531399 
L 1138.029406 234.419443 
L 1138.927609 232.879576 
L 1139.127536 232.584895 
L 1139.264251 232.454468 
L 1139.819931 231.782824 
L 1140.275648 231.458723 
L 1140.60935 231.164548 
L 1140.724014 231.037599 
L 1141.076827 230.648679 
L 1141.240003 230.477785 
L 1141.401708 230.358607 
L 1141.703069 230.172964 
L 1141.983849 230.015158 
L 1142.224938 229.885305 
L 1146.172031 226.345659 
L 1146.311686 226.229367 
L 1146.68802 225.881438 
L 1146.812974 225.764715 
L 1147.089344 225.623395 
L 1147.445097 225.398048 
L 1148.0831 224.500221 
L 1148.249216 224.339035 
L 1148.374171 224.181231 
L 1148.550577 224.046209 
L 1148.838708 223.926545 
L 1149.098907 223.797808 
L 1149.367927 223.602972 
L 1149.663407 223.520721 
L 1150.224968 223.321949 
L 1150.939414 222.392547 
L 1151.143751 222.117407 
L 1151.278996 221.905744 
L 1152.024313 220.947722 
L 1154.197051 219.708465 
L 1154.285255 219.587938 
L 1155.26284 218.594018 
L 1155.955235 217.937165 
L 1156.184563 217.748948 
L 1158.082402 216.797025 
L 1158.620441 216.392395 
L 1160.24485 215.486486 
L 1160.547681 215.362716 
L 1161.094541 215.176167 
L 1163.183487 214.566345 
L 1163.421635 214.45005 
L 1163.643613 214.337395 
L 1163.959675 214.165593 
L 1165.072505 213.516133 
L 1165.357695 213.256514 
L 1165.742849 213.002926 
L 1166.144174 212.756061 
L 1166.492576 212.61217 
L 1168.982846 211.382713 
L 1171.204097 210.418642 
L 1171.384913 210.364059 
L 1171.727436 210.205373 
L 1176.074383 208.447369 
L 1176.363984 208.33036 
L 1176.602132 208.252965 
L 1177.032858 208.132174 
L 1177.221025 207.986411 
L 1177.660571 207.522669 
L 1177.991332 207.367927 
L 1178.295633 207.125034 
L 1178.410298 206.966921 
L 1178.664617 206.555453 
L 1178.977738 206.156943 
L 1179.31585 205.641211 
L 1179.630442 205.37427 
L 1180.450731 204.681347 
L 1180.553635 204.570839 
L 1180.802074 204.39418 
L 1183.529023 202.891285 
L 1183.930347 202.776972 
L 1184.487498 202.505599 
L 1184.994666 202.35364 
L 1185.66207 202.074704 
L 1186.014883 201.790843 
L 1186.522051 201.384917 
L 1186.76608 201.241609 
L 1187.280599 201.095774 
L 1189.037312 200.043913 
L 1189.24606 199.843148 
L 1189.554771 199.681562 
L 1189.757638 199.511917 
L 1189.857602 199.384541 
L 1190.095751 199.110031 
L 1191.921557 198.023381 
L 1192.28907 197.909359 
L 1199.279173 194.782626 
L 1199.681967 194.635743 
L 1200.071532 194.465669 
L 1200.30233 194.341145 
L 1200.608101 194.14434 
L 1201.185832 193.856325 
L 1204.16269 192.802752 
L 1205.925283 191.963947 
L 1206.169312 191.852174 
L 1206.358949 191.659875 
L 1207.283613 190.7235 
L 1207.470309 190.604891 
L 1208.214156 190.325611 
L 1208.634591 189.920968 
L 1208.974174 189.754049 
L 1211.274807 188.545525 
L 1211.485025 188.359299 
L 1211.62321 188.234257 
L 1211.843718 187.998945 
L 1212.078926 187.860547 
L 1212.687528 187.318529 
L 1213.772427 186.779048 
L 1214.316347 186.667677 
L 1214.614768 186.440179 
L 1215.029323 186.295518 
L 1215.273352 186.148984 
L 1215.620284 185.942975 
L 1216.189195 185.683186 
L 1216.558178 185.563297 
L 1216.950682 185.412974 
L 1217.284384 185.174764 
L 1217.45197 185.048323 
L 1217.907687 184.709641 
L 1218.228159 184.558312 
L 1219.568847 183.935844 
L 1220.327395 183.261268 
L 1220.696378 182.821106 
L 1220.806632 182.704566 
L 1221.0242 182.473843 
L 1221.378483 182.267266 
L 1221.669553 181.95686 
L 1222.626558 181.503213 
L 1224.287718 180.17563 
L 1224.490585 180.037734 
L 1224.655231 179.97837 
L 1224.811057 179.858757 
L 1225.844504 178.970203 
L 1226.153215 178.770249 
L 1226.411945 178.529697 
L 1226.83532 178.123482 
L 1227.076409 177.904279 
L 1227.318968 177.741436 
L 1227.614448 177.606778 
L 1228.030473 177.421313 
L 1229.224157 176.378039 
L 1229.356461 176.263465 
L 1229.845989 175.805675 
L 1230.066497 175.64918 
L 1230.397259 175.408091 
L 1230.728021 175.238443 
L 1231.055843 175.09979 
L 1231.239599 174.998437 
L 1231.749708 174.815767 
L 1236.78611 172.753369 
L 1236.999268 172.533439 
L 1238.783912 171.146819 
L 1238.966199 171.011396 
L 1239.391044 170.558261 
L 1240.043748 170.028739 
L 1240.340699 169.904234 
L 1240.550916 169.821888 
L 1240.772894 169.669963 
L 1240.952241 169.60573 
L 1242.57371 168.812933 
L 1242.786867 168.608298 
L 1243.520424 168.282939 
L 1243.945269 168.096013 
L 1245.272727 167.4 
L 1245.272727 167.4 
" clip-path="url(#p9edc6734fb)" style="fill: none; stroke: #ff0000; stroke-width: 1.5; stroke-linecap: square"/>
   </g>
   <g id="patch_3">
    <path d="M 180 961.2 
L 180 129.6 
" style="fill: none; stroke: #000000; stroke-width: 0.8; stroke-linejoin: miter; stroke-linecap: square"/>
   </g>
   <g id="patch_4">
    <path d="M 1296 961.2 
L 1296 129.6 
" style="fill: none; stroke: #000000; stroke-width: 0.8; stroke-linejoin: miter; stroke-linecap: square"/>
   </g>
   <g id="patch_5">
    <path d="M 180 961.2 
L 1296 961.2 
" style="fill: none; stroke: #000000; stroke-width: 0.8; stroke-linejoin: miter; stroke-linecap: square"/>
   </g>
   <g id="patch_6">
    <path d="M 180 129.6 
L 1296 129.6 
" style="fill: none; stroke: #000000; stroke-width: 0.8; stroke-linejoin: miter; stroke-linecap: square"/>
   </g>
   <g id="legend_1">
    <g id="patch_7">
     <path d="M 1131.645313 152.278125 
L 1289 152.278125 
Q 1291 152.278125 1291 150.278125 
L 1291 136.6 
Q 1291 134.6 1289 134.6 
L 1131.645313 134.6 
Q 1129.645313 134.6 1129.645313 136.6 
L 1129.645313 150.278125 
Q 1129.645313 152.278125 1131.645313 152.278125 
z
" style="fill: #ffffff; opacity: 0.8; stroke: #cccccc; stroke-linejoin: miter"/>
    </g>
    <g id="line2d_15">
     <path d="M 1133.645313 142.698438 
L 1143.645313 142.698438 
L 1153.645313 142.698438 
" style="fill: none; stroke: #ff0000; stroke-width: 1.5; stroke-linecap: square"/>
    </g>
    <g id="text_13">
     <!-- Board Time U1 (minutes) -->
     <g transform="translate(1161.645313 146.198438) scale(0.1 -0.1)">
      <defs>
       <path id="DejaVuSans-42" d="M 1259 2228 
L 1259 519 
L 2272 519 
Q 2781 519 3026 730 
Q 3272 941 3272 1375 
Q 3272 1813 3026 2020 
Q 2781 2228 2272 2228 
L 1259 2228 
z
M 1259 4147 
L 1259 2741 
L 2194 2741 
Q 2656 2741 2882 2914 
Q 3109 3088 3109 3444 
Q 3109 3797 2882 3972 
Q 2656 4147 2194 4147 
L 1259 4147 
z
M 628 4666 
L 2241 4666 
Q 2963 4666 3353 4366 
Q 3744 4066 3744 3513 
Q 3744 3084 3544 2831 
Q 3344 2578 2956 2516 
Q 3422 2416 3680 2098 
Q 3938 1781 3938 1306 
Q 3938 681 3513 340 
Q 3088 0 2303 0 
L 628 0 
L 628 4666 
z
" transform="scale(0.015625)"/>
       <path id="DejaVuSans-6f" d="M 1959 3097 
Q 1497 3097 1228 2736 
Q 959 2375 959 1747 
Q 959 1119 1226 758 
Q 1494 397 1959 397 
Q 2419 397 2687 759 
Q 2956 1122 2956 1747 
Q 2956 2369 2687 2733 
Q 2419 3097 1959 3097 
z
M 1959 3584 
Q 2709 3584 3137 3096 
Q 3566 2609 3566 1747 
Q 3566 888 3137 398 
Q 2709 -91 1959 -91 
Q 1206 -91 779 398 
Q 353 888 353 1747 
Q 353 2609 779 3096 
Q 1206 3584 1959 3584 
z
" transform="scale(0.015625)"/>
       <path id="DejaVuSans-61" d="M 2194 1759 
Q 1497 1759 1228 1600 
Q 959 1441 959 1056 
Q 959 750 1161 570 
Q 1363 391 1709 391 
Q 2188 391 2477 730 
Q 2766 1069 2766 1631 
L 2766 1759 
L 2194 1759 
z
M 3341 1997 
L 3341 0 
L 2766 0 
L 2766 531 
Q 2569 213 2275 61 
Q 1981 -91 1556 -91 
Q 1019 -91 701 211 
Q 384 513 384 1019 
Q 384 1609 779 1909 
Q 1175 2209 1959 2209 
L 2766 2209 
L 2766 2266 
Q 2766 2663 2505 2880 
Q 2244 3097 1772 3097 
Q 1472 3097 1187 3025 
Q 903 2953 641 2809 
L 641 3341 
Q 956 3463 1253 3523 
Q 1550 3584 1831 3584 
Q 2591 3584 2966 3190 
Q 3341 2797 3341 1997 
z
" transform="scale(0.015625)"/>
       <path id="DejaVuSans-72" d="M 2631 2963 
Q 2534 3019 2420 3045 
Q 2306 3072 2169 3072 
Q 1681 3072 1420 2755 
Q 1159 2438 1159 1844 
L 1159 0 
L 581 0 
L 581 3500 
L 1159 3500 
L 1159 2956 
Q 1341 3275 1631 3429 
Q 1922 3584 2338 3584 
Q 2397 3584 2469 3576 
Q 2541 3569 2628 3553 
L 2631 2963 
z
" transform="scale(0.015625)"/>
       <path id="DejaVuSans-64" d="M 2906 2969 
L 2906 4863 
L 3481 4863 
L 3481 0 
L 2906 0 
L 2906 525 
Q 2725 213 2448 61 
Q 2172 -91 1784 -91 
Q 1150 -91 751 415 
Q 353 922 353 1747 
Q 353 2572 751 3078 
Q 1150 3584 1784 3584 
Q 2172 3584 2448 3432 
Q 2725 3281 2906 2969 
z
M 947 1747 
Q 947 1113 1208 752 
Q 1469 391 1925 391 
Q 2381 391 2643 752 
Q 2906 1113 2906 1747 
Q 2906 2381 2643 2742 
Q 2381 3103 1925 3103 
Q 1469 3103 1208 2742 
Q 947 2381 947 1747 
z
" transform="scale(0.015625)"/>
       <path id="DejaVuSans-20" transform="scale(0.015625)"/>
       <path id="DejaVuSans-54" d="M -19 4666 
L 3928 4666 
L 3928 4134 
L 2272 4134 
L 2272 0 
L 1638 0 
L 1638 4134 
L -19 4134 
L -19 4666 
z
" transform="scale(0.015625)"/>
       <path id="DejaVuSans-69" d="M 603 3500 
L 1178 3500 
L 1178 0 
L 603 0 
L 603 3500 
z
M 603 4863 
L 1178 4863 
L 1178 4134 
L 603 4134 
L 603 4863 
z
" transform="scale(0.015625)"/>
       <path id="DejaVuSans-6d" d="M 3328 2828 
Q 3544 3216 3844 3400 
Q 4144 3584 4550 3584 
Q 5097 3584 5394 3201 
Q 5691 2819 5691 2113 
L 5691 0 
L 5113 0 
L 5113 2094 
Q 5113 2597 4934 2840 
Q 4756 3084 4391 3084 
Q 3944 3084 3684 2787 
Q 3425 2491 3425 1978 
L 3425 0 
L 2847 0 
L 2847 2094 
Q 2847 2600 2669 2842 
Q 2491 3084 2119 3084 
Q 1678 3084 1418 2786 
Q 1159 2488 1159 1978 
L 1159 0 
L 581 0 
L 581 3500 
L 1159 3500 
L 1159 2956 
Q 1356 3278 1631 3431 
Q 1906 3584 2284 3584 
Q 2666 3584 2933 3390 
Q 3200 3197 3328 2828 
z
" transform="scale(0.015625)"/>
       <path id="DejaVuSans-65" d="M 3597 1894 
L 3597 1613 
L 953 1613 
Q 991 1019 1311 708 
Q 1631 397 2203 397 
Q 2534 397 2845 478 
Q 3156 559 3463 722 
L 3463 178 
Q 3153 47 2828 -22 
Q 2503 -91 2169 -91 
Q 1331 -91 842 396 
Q 353 884 353 1716 
Q 353 2575 817 3079 
Q 1281 3584 2069 3584 
Q 2775 3584 3186 3129 
Q 3597 2675 3597 1894 
z
M 3022 2063 
Q 3016 2534 2758 2815 
Q 2500 3097 2075 3097 
Q 1594 3097 1305 2825 
Q 1016 2553 972 2059 
L 3022 2063 
z
" transform="scale(0.015625)"/>
       <path id="DejaVuSans-55" d="M 556 4666 
L 1191 4666 
L 1191 1831 
Q 1191 1081 1462 751 
Q 1734 422 2344 422 
Q 2950 422 3222 751 
Q 3494 1081 3494 1831 
L 3494 4666 
L 4128 4666 
L 4128 1753 
Q 4128 841 3676 375 
Q 3225 -91 2344 -91 
Q 1459 -91 1007 375 
Q 556 841 556 1753 
L 556 4666 
z
" transform="scale(0.015625)"/>
       <path id="DejaVuSans-28" d="M 1984 4856 
Q 1566 4138 1362 3434 
Q 1159 2731 1159 2009 
Q 1159 1288 1364 580 
Q 1569 -128 1984 -844 
L 1484 -844 
Q 1016 -109 783 600 
Q 550 1309 550 2009 
Q 550 2706 781 3412 
Q 1013 4119 1484 4856 
L 1984 4856 
z
" transform="scale(0.015625)"/>
       <path id="DejaVuSans-6e" d="M 3513 2113 
L 3513 0 
L 2938 0 
L 2938 2094 
Q 2938 2591 2744 2837 
Q 2550 3084 2163 3084 
Q 1697 3084 1428 2787 
Q 1159 2491 1159 1978 
L 1159 0 
L 581 0 
L 581 3500 
L 1159 3500 
L 1159 2956 
Q 1366 3272 1645 3428 
Q 1925 3584 2291 3584 
Q 2894 3584 3203 3211 
Q 3513 2838 3513 2113 
z
" transform="scale(0.015625)"/>
       <path id="DejaVuSans-75" d="M 544 1381 
L 544 3500 
L 1119 3500 
L 1119 1403 
Q 1119 906 1312 657 
Q 1506 409 1894 409 
Q 2359 409 2629 706 
Q 2900 1003 2900 1516 
L 2900 3500 
L 3475 3500 
L 3475 0 
L 2900 0 
L 2900 538 
Q 2691 219 2414 64 
Q 2138 -91 1772 -91 
Q 1169 -91 856 284 
Q 544 659 544 1381 
z
M 1991 3584 
L 1991 3584 
z
" transform="scale(0.015625)"/>
       <path id="DejaVuSans-74" d="M 1172 4494 
L 1172 3500 
L 2356 3500 
L 2356 3053 
L 1172 3053 
L 1172 1153 
Q 1172 725 1289 603 
Q 1406 481 1766 481 
L 2356 481 
L 2356 0 
L 1766 0 
Q 1100 0 847 248 
Q 594 497 594 1153 
L 594 3053 
L 172 3053 
L 172 3500 
L 594 3500 
L 594 4494 
L 1172 4494 
z
" transform="scale(0.015625)"/>
       <path id="DejaVuSans-73" d="M 2834 3397 
L 2834 2853 
Q 2591 2978 2328 3040 
Q 2066 3103 1784 3103 
Q 1356 3103 1142 2972 
Q 928 2841 928 2578 
Q 928 2378 1081 2264 
Q 1234 2150 1697 2047 
L 1894 2003 
Q 2506 1872 2764 1633 
Q 3022 1394 3022 966 
Q 3022 478 2636 193 
Q 2250 -91 1575 -91 
Q 1294 -91 989 -36 
Q 684 19 347 128 
L 347 722 
Q 666 556 975 473 
Q 1284 391 1588 391 
Q 1994 391 2212 530 
Q 2431 669 2431 922 
Q 2431 1156 2273 1281 
Q 2116 1406 1581 1522 
L 1381 1569 
Q 847 1681 609 1914 
Q 372 2147 372 2553 
Q 372 3047 722 3315 
Q 1072 3584 1716 3584 
Q 2034 3584 2315 3537 
Q 2597 3491 2834 3397 
z
" transform="scale(0.015625)"/>
       <path id="DejaVuSans-29" d="M 513 4856 
L 1013 4856 
Q 1481 4119 1714 3412 
Q 1947 2706 1947 2009 
Q 1947 1309 1714 600 
Q 1481 -109 1013 -844 
L 513 -844 
Q 928 -128 1133 580 
Q 1338 1288 1338 2009 
Q 1338 2731 1133 3434 
Q 928 4138 513 4856 
z
" transform="scale(0.015625)"/>
      </defs>
      <use xlink:href="#DejaVuSans-42"/>
      <use xlink:href="#DejaVuSans-6f" transform="translate(68.603516 0)"/>
      <use xlink:href="#DejaVuSans-61" transform="translate(129.785156 0)"/>
      <use xlink:href="#DejaVuSans-72" transform="translate(191.064453 0)"/>
      <use xlink:href="#DejaVuSans-64" transform="translate(230.427734 0)"/>
      <use xlink:href="#DejaVuSans-20" transform="translate(293.904297 0)"/>
      <use xlink:href="#DejaVuSans-54" transform="translate(325.691406 0)"/>
      <use xlink:href="#DejaVuSans-69" transform="translate(383.650391 0)"/>
      <use xlink:href="#DejaVuSans-6d" transform="translate(411.433594 0)"/>
      <use xlink:href="#DejaVuSans-65" transform="translate(508.845703 0)"/>
      <use xlink:href="#DejaVuSans-20" transform="translate(570.369141 0)"/>
      <use xlink:href="#DejaVuSans-55" transform="translate(602.15625 0)"/>
      <use xlink:href="#DejaVuSans-31" transform="translate(675.349609 0)"/>
      <use xlink:href="#DejaVuSans-20" transform="translate(738.972656 0)"/>
      <use xlink:href="#DejaVuSans-28" transform="translate(770.759766 0)"/>
      <use xlink:href="#DejaVuSans-6d" transform="translate(809.773438 0)"/>
      <use xlink:href="#DejaVuSans-69" transform="translate(907.185547 0)"/>
      <use xlink:href="#DejaVuSans-6e" transform="translate(934.96875 0)"/>
      <use xlink:href="#DejaVuSans-75" transform="translate(998.347656 0)"/>
      <use xlink:href="#DejaVuSans-74" transform="translate(1061.726562 0)"/>
      <use xlink:href="#DejaVuSans-65" transform="translate(1100.935547 0)"/>
      <use xlink:href="#DejaVuSans-73" transform="translate(1162.458984 0)"/>
      <use xlink:href="#DejaVuSans-29" transform="translate(1214.558594 0)"/>
     </g>
    </g>
   </g>
  </g>
 </g>
 <defs>
  <clipPath id="p9edc6734fb">
   <rect x="180" y="129.6" width="1116" height="831.6"/>
  </clipPath>
 </defs>
</svg>
