<?xml version="1.0" encoding="utf-8" standalone="no"?>
<!DOCTYPE svg PUBLIC "-//W3C//DTD SVG 1.1//EN"
  "http://www.w3.org/Graphics/SVG/1.1/DTD/svg11.dtd">
<svg xmlns:xlink="http://www.w3.org/1999/xlink" width="1440pt" height="1080pt" viewBox="0 0 1440 1080" xmlns="http://www.w3.org/2000/svg" version="1.1">
 <metadata>
  <rdf:RDF xmlns:dc="http://purl.org/dc/elements/1.1/" xmlns:cc="http://creativecommons.org/ns#" xmlns:rdf="http://www.w3.org/1999/02/22-rdf-syntax-ns#">
   <cc:Work>
    <dc:type rdf:resource="http://purl.org/dc/dcmitype/StillImage"/>
    <dc:date>2025-07-14T18:08:10.377989</dc:date>
    <dc:format>image/svg+xml</dc:format>
    <dc:creator>
     <cc:Agent>
      <dc:title>Matplotlib v3.10.3, https://matplotlib.org/</dc:title>
     </cc:Agent>
    </dc:creator>
   </cc:Work>
  </rdf:RDF>
 </metadata>
 <defs>
  <style type="text/css">*{stroke-linejoin: round; stroke-linecap: butt}</style>
 </defs>
 <g id="figure_1">
  <g id="patch_1">
   <path d="M 0 1080 
L 1440 1080 
L 1440 0 
L 0 0 
z
" style="fill: #ffffff"/>
  </g>
  <g id="axes_1">
   <g id="patch_2">
    <path d="M 180 961.2 
L 1296 961.2 
L 1296 129.6 
L 180 129.6 
z
" style="fill: #ffffff"/>
   </g>
   <g id="matplotlib.axis_1">
    <g id="xtick_1">
     <g id="line2d_1">
      <defs>
       <path id="mf614f52f9e" d="M 0 0 
L 0 3.5 
" style="stroke: #000000; stroke-width: 0.8"/>
      </defs>
      <g>
       <use xlink:href="#mf614f52f9e" x="230.727273" y="961.2" style="stroke: #000000; stroke-width: 0.8"/>
      </g>
     </g>
     <g id="text_1">
      <!-- 0.0 -->
      <g transform="translate(222.77571 975.798437) scale(0.1 -0.1)">
       <defs>
        <path id="DejaVuSans-30" d="M 2034 4250 
Q 1547 4250 1301 3770 
Q 1056 3291 1056 2328 
Q 1056 1369 1301 889 
Q 1547 409 2034 409 
Q 2525 409 2770 889 
Q 3016 1369 3016 2328 
Q 3016 3291 2770 3770 
Q 2525 4250 2034 4250 
z
M 2034 4750 
Q 2819 4750 3233 4129 
Q 3647 3509 3647 2328 
Q 3647 1150 3233 529 
Q 2819 -91 2034 -91 
Q 1250 -91 836 529 
Q 422 1150 422 2328 
Q 422 3509 836 4129 
Q 1250 4750 2034 4750 
z
" transform="scale(0.015625)"/>
        <path id="DejaVuSans-2e" d="M 684 794 
L 1344 794 
L 1344 0 
L 684 0 
L 684 794 
z
" transform="scale(0.015625)"/>
       </defs>
       <use xlink:href="#DejaVuSans-30"/>
       <use xlink:href="#DejaVuSans-2e" transform="translate(63.623047 0)"/>
       <use xlink:href="#DejaVuSans-30" transform="translate(95.410156 0)"/>
      </g>
     </g>
    </g>
    <g id="xtick_2">
     <g id="line2d_2">
      <g>
       <use xlink:href="#mf614f52f9e" x="433.636715" y="961.2" style="stroke: #000000; stroke-width: 0.8"/>
      </g>
     </g>
     <g id="text_2">
      <!-- 0.2 -->
      <g transform="translate(425.685153 975.798437) scale(0.1 -0.1)">
       <defs>
        <path id="DejaVuSans-32" d="M 1228 531 
L 3431 531 
L 3431 0 
L 469 0 
L 469 531 
Q 828 903 1448 1529 
Q 2069 2156 2228 2338 
Q 2531 2678 2651 2914 
Q 2772 3150 2772 3378 
Q 2772 3750 2511 3984 
Q 2250 4219 1831 4219 
Q 1534 4219 1204 4116 
Q 875 4013 500 3803 
L 500 4441 
Q 881 4594 1212 4672 
Q 1544 4750 1819 4750 
Q 2544 4750 2975 4387 
Q 3406 4025 3406 3419 
Q 3406 3131 3298 2873 
Q 3191 2616 2906 2266 
Q 2828 2175 2409 1742 
Q 1991 1309 1228 531 
z
" transform="scale(0.015625)"/>
       </defs>
       <use xlink:href="#DejaVuSans-30"/>
       <use xlink:href="#DejaVuSans-2e" transform="translate(63.623047 0)"/>
       <use xlink:href="#DejaVuSans-32" transform="translate(95.410156 0)"/>
      </g>
     </g>
    </g>
    <g id="xtick_3">
     <g id="line2d_3">
      <g>
       <use xlink:href="#mf614f52f9e" x="636.546157" y="961.2" style="stroke: #000000; stroke-width: 0.8"/>
      </g>
     </g>
     <g id="text_3">
      <!-- 0.4 -->
      <g transform="translate(628.594595 975.798437) scale(0.1 -0.1)">
       <defs>
        <path id="DejaVuSans-34" d="M 2419 4116 
L 825 1625 
L 2419 1625 
L 2419 4116 
z
M 2253 4666 
L 3047 4666 
L 3047 1625 
L 3713 1625 
L 3713 1100 
L 3047 1100 
L 3047 0 
L 2419 0 
L 2419 1100 
L 313 1100 
L 313 1709 
L 2253 4666 
z
" transform="scale(0.015625)"/>
       </defs>
       <use xlink:href="#DejaVuSans-30"/>
       <use xlink:href="#DejaVuSans-2e" transform="translate(63.623047 0)"/>
       <use xlink:href="#DejaVuSans-34" transform="translate(95.410156 0)"/>
      </g>
     </g>
    </g>
    <g id="xtick_4">
     <g id="line2d_4">
      <g>
       <use xlink:href="#mf614f52f9e" x="839.4556" y="961.2" style="stroke: #000000; stroke-width: 0.8"/>
      </g>
     </g>
     <g id="text_4">
      <!-- 0.6 -->
      <g transform="translate(831.504037 975.798437) scale(0.1 -0.1)">
       <defs>
        <path id="DejaVuSans-36" d="M 2113 2584 
Q 1688 2584 1439 2293 
Q 1191 2003 1191 1497 
Q 1191 994 1439 701 
Q 1688 409 2113 409 
Q 2538 409 2786 701 
Q 3034 994 3034 1497 
Q 3034 2003 2786 2293 
Q 2538 2584 2113 2584 
z
M 3366 4563 
L 3366 3988 
Q 3128 4100 2886 4159 
Q 2644 4219 2406 4219 
Q 1781 4219 1451 3797 
Q 1122 3375 1075 2522 
Q 1259 2794 1537 2939 
Q 1816 3084 2150 3084 
Q 2853 3084 3261 2657 
Q 3669 2231 3669 1497 
Q 3669 778 3244 343 
Q 2819 -91 2113 -91 
Q 1303 -91 875 529 
Q 447 1150 447 2328 
Q 447 3434 972 4092 
Q 1497 4750 2381 4750 
Q 2619 4750 2861 4703 
Q 3103 4656 3366 4563 
z
" transform="scale(0.015625)"/>
       </defs>
       <use xlink:href="#DejaVuSans-30"/>
       <use xlink:href="#DejaVuSans-2e" transform="translate(63.623047 0)"/>
       <use xlink:href="#DejaVuSans-36" transform="translate(95.410156 0)"/>
      </g>
     </g>
    </g>
    <g id="xtick_5">
     <g id="line2d_5">
      <g>
       <use xlink:href="#mf614f52f9e" x="1042.365042" y="961.2" style="stroke: #000000; stroke-width: 0.8"/>
      </g>
     </g>
     <g id="text_5">
      <!-- 0.8 -->
      <g transform="translate(1034.413479 975.798437) scale(0.1 -0.1)">
       <defs>
        <path id="DejaVuSans-38" d="M 2034 2216 
Q 1584 2216 1326 1975 
Q 1069 1734 1069 1313 
Q 1069 891 1326 650 
Q 1584 409 2034 409 
Q 2484 409 2743 651 
Q 3003 894 3003 1313 
Q 3003 1734 2745 1975 
Q 2488 2216 2034 2216 
z
M 1403 2484 
Q 997 2584 770 2862 
Q 544 3141 544 3541 
Q 544 4100 942 4425 
Q 1341 4750 2034 4750 
Q 2731 4750 3128 4425 
Q 3525 4100 3525 3541 
Q 3525 3141 3298 2862 
Q 3072 2584 2669 2484 
Q 3125 2378 3379 2068 
Q 3634 1759 3634 1313 
Q 3634 634 3220 271 
Q 2806 -91 2034 -91 
Q 1263 -91 848 271 
Q 434 634 434 1313 
Q 434 1759 690 2068 
Q 947 2378 1403 2484 
z
M 1172 3481 
Q 1172 3119 1398 2916 
Q 1625 2713 2034 2713 
Q 2441 2713 2670 2916 
Q 2900 3119 2900 3481 
Q 2900 3844 2670 4047 
Q 2441 4250 2034 4250 
Q 1625 4250 1398 4047 
Q 1172 3844 1172 3481 
z
" transform="scale(0.015625)"/>
       </defs>
       <use xlink:href="#DejaVuSans-30"/>
       <use xlink:href="#DejaVuSans-2e" transform="translate(63.623047 0)"/>
       <use xlink:href="#DejaVuSans-38" transform="translate(95.410156 0)"/>
      </g>
     </g>
    </g>
    <g id="xtick_6">
     <g id="line2d_6">
      <g>
       <use xlink:href="#mf614f52f9e" x="1245.274484" y="961.2" style="stroke: #000000; stroke-width: 0.8"/>
      </g>
     </g>
     <g id="text_6">
      <!-- 1.0 -->
      <g transform="translate(1237.322922 975.798437) scale(0.1 -0.1)">
       <defs>
        <path id="DejaVuSans-31" d="M 794 531 
L 1825 531 
L 1825 4091 
L 703 3866 
L 703 4441 
L 1819 4666 
L 2450 4666 
L 2450 531 
L 3481 531 
L 3481 0 
L 794 0 
L 794 531 
z
" transform="scale(0.015625)"/>
       </defs>
       <use xlink:href="#DejaVuSans-31"/>
       <use xlink:href="#DejaVuSans-2e" transform="translate(63.623047 0)"/>
       <use xlink:href="#DejaVuSans-30" transform="translate(95.410156 0)"/>
      </g>
     </g>
    </g>
   </g>
   <g id="matplotlib.axis_2">
    <g id="ytick_1">
     <g id="line2d_7">
      <defs>
       <path id="mda7ad5f927" d="M 0 0 
L -3.5 0 
" style="stroke: #000000; stroke-width: 0.8"/>
      </defs>
      <g>
       <use xlink:href="#mda7ad5f927" x="180" y="923.4" style="stroke: #000000; stroke-width: 0.8"/>
      </g>
     </g>
     <g id="text_7">
      <!-- 0.0 -->
      <g transform="translate(157.096875 927.199219) scale(0.1 -0.1)">
       <use xlink:href="#DejaVuSans-30"/>
       <use xlink:href="#DejaVuSans-2e" transform="translate(63.623047 0)"/>
       <use xlink:href="#DejaVuSans-30" transform="translate(95.410156 0)"/>
      </g>
     </g>
    </g>
    <g id="ytick_2">
     <g id="line2d_8">
      <g>
       <use xlink:href="#mda7ad5f927" x="180" y="772.2" style="stroke: #000000; stroke-width: 0.8"/>
      </g>
     </g>
     <g id="text_8">
      <!-- 0.2 -->
      <g transform="translate(157.096875 775.999219) scale(0.1 -0.1)">
       <use xlink:href="#DejaVuSans-30"/>
       <use xlink:href="#DejaVuSans-2e" transform="translate(63.623047 0)"/>
       <use xlink:href="#DejaVuSans-32" transform="translate(95.410156 0)"/>
      </g>
     </g>
    </g>
    <g id="ytick_3">
     <g id="line2d_9">
      <g>
       <use xlink:href="#mda7ad5f927" x="180" y="621" style="stroke: #000000; stroke-width: 0.8"/>
      </g>
     </g>
     <g id="text_9">
      <!-- 0.4 -->
      <g transform="translate(157.096875 624.799219) scale(0.1 -0.1)">
       <use xlink:href="#DejaVuSans-30"/>
       <use xlink:href="#DejaVuSans-2e" transform="translate(63.623047 0)"/>
       <use xlink:href="#DejaVuSans-34" transform="translate(95.410156 0)"/>
      </g>
     </g>
    </g>
    <g id="ytick_4">
     <g id="line2d_10">
      <g>
       <use xlink:href="#mda7ad5f927" x="180" y="469.8" style="stroke: #000000; stroke-width: 0.8"/>
      </g>
     </g>
     <g id="text_10">
      <!-- 0.6 -->
      <g transform="translate(157.096875 473.599219) scale(0.1 -0.1)">
       <use xlink:href="#DejaVuSans-30"/>
       <use xlink:href="#DejaVuSans-2e" transform="translate(63.623047 0)"/>
       <use xlink:href="#DejaVuSans-36" transform="translate(95.410156 0)"/>
      </g>
     </g>
    </g>
    <g id="ytick_5">
     <g id="line2d_11">
      <g>
       <use xlink:href="#mda7ad5f927" x="180" y="318.6" style="stroke: #000000; stroke-width: 0.8"/>
      </g>
     </g>
     <g id="text_11">
      <!-- 0.8 -->
      <g transform="translate(157.096875 322.399219) scale(0.1 -0.1)">
       <use xlink:href="#DejaVuSans-30"/>
       <use xlink:href="#DejaVuSans-2e" transform="translate(63.623047 0)"/>
       <use xlink:href="#DejaVuSans-38" transform="translate(95.410156 0)"/>
      </g>
     </g>
    </g>
    <g id="ytick_6">
     <g id="line2d_12">
      <g>
       <use xlink:href="#mda7ad5f927" x="180" y="167.4" style="stroke: #000000; stroke-width: 0.8"/>
      </g>
     </g>
     <g id="text_12">
      <!-- 1.0 -->
      <g transform="translate(157.096875 171.199219) scale(0.1 -0.1)">
       <use xlink:href="#DejaVuSans-31"/>
       <use xlink:href="#DejaVuSans-2e" transform="translate(63.623047 0)"/>
       <use xlink:href="#DejaVuSans-30" transform="translate(95.410156 0)"/>
      </g>
     </g>
    </g>
   </g>
   <g id="line2d_13">
    <path d="M 180 961.199935 
L 1296 129.601375 
" clip-path="url(#pface4bb7eb)" style="fill: none; stroke: #1f77b4; stroke-width: 1.5; stroke-linecap: square"/>
   </g>
   <g id="line2d_14">
    <path d="M 230.727273 923.399975 
L 231.287733 923.288201 
L 231.619792 923.134418 
L 232.113489 922.973395 
L 233.306444 922.578988 
L 233.585796 922.138323 
L 233.763245 922.070035 
L 234.288567 921.671603 
L 234.552106 921.28607 
L 234.66455 921.156691 
L 235.82588 919.419494 
L 236.050766 919.07189 
L 236.472429 918.490158 
L 237.558211 917.118336 
L 237.946492 916.735616 
L 238.071234 916.584038 
L 238.503439 916.103874 
L 238.665076 915.957619 
L 238.896991 915.755718 
L 240.283207 914.701494 
L 240.559045 914.447069 
L 240.762849 914.33538 
L 241.01409 914.158049 
L 241.200324 914.046687 
L 241.484947 913.823756 
L 241.985671 913.385448 
L 242.229884 913.170174 
L 242.384494 913.036931 
L 243.331479 912.276442 
L 243.573935 912.102707 
L 243.812877 911.920109 
L 244.078173 911.775733 
L 244.993533 911.045193 
L 245.374787 910.693992 
L 245.655895 910.503078 
L 246.049447 910.321093 
L 246.24798 910.209089 
L 246.444756 910.125057 
L 246.615178 910.000889 
L 246.80317 909.839896 
L 246.970078 909.748423 
L 247.184423 909.636175 
L 247.426879 909.52105 
L 247.630683 909.410071 
L 248.131408 909.025852 
L 248.358051 908.852642 
L 248.802554 908.518217 
L 248.948379 908.37654 
L 249.143398 908.189287 
L 250.455824 907.180909 
L 250.661385 907.064405 
L 251.216574 906.809213 
L 251.385239 906.760447 
L 252.407772 906.410612 
L 253.825613 905.438616 
L 254.194568 905.154969 
L 255.252239 903.513191 
L 255.512265 903.366239 
L 255.844324 903.048427 
L 256.042857 902.798694 
L 257.195402 901.494672 
L 259.881746 900.180888 
L 260.552893 899.971458 
L 260.705746 899.915459 
L 261.02375 899.768567 
L 261.666786 899.430469 
L 262.072636 899.308753 
L 263.627518 898.231502 
L 263.845377 898.091401 
L 264.210818 897.868578 
L 264.416379 897.723663 
L 264.67289 897.559398 
L 265.041845 897.248545 
L 265.51973 897.05099 
L 265.785026 896.940904 
L 266.129384 896.827571 
L 266.732011 896.578171 
L 267.058799 896.451148 
L 267.274902 896.20234 
L 267.712377 895.828248 
L 268.09363 895.492044 
L 269.360376 894.25129 
L 269.664325 894.126028 
L 270.17032 893.827938 
L 270.395207 893.716128 
L 270.572657 893.623842 
L 270.829168 893.562437 
L 271.041757 893.445541 
L 271.326379 893.307103 
L 271.538967 893.186687 
L 271.835888 893.049142 
L 272.856664 892.78168 
L 273.113175 892.703742 
L 273.707017 892.543198 
L 273.851086 892.483383 
L 274.15152 892.367581 
L 274.462497 892.243003 
L 274.603051 892.178043 
L 275.448134 891.937565 
L 275.637882 891.838587 
L 276.200099 891.64102 
L 276.403903 891.481021 
L 276.693796 891.353013 
L 277.117216 890.82985 
L 277.32102 890.57629 
L 277.614427 890.221932 
L 277.976354 889.864065 
L 279.279995 888.665892 
L 279.429334 888.543725 
L 279.712199 888.215645 
L 279.856267 887.979058 
L 280.279687 887.398944 
L 280.817307 886.692855 
L 282.35462 885.59201 
L 283.503651 885.105917 
L 283.703941 884.98253 
L 283.905988 884.787241 
L 284.034244 884.674925 
L 284.236291 884.550465 
L 284.784452 884.061739 
L 285.007582 883.937739 
L 286.608144 882.670721 
L 286.773295 882.539313 
L 287.140494 882.112382 
L 287.446199 881.821185 
L 287.51999 881.710643 
L 288.066395 881.068375 
L 288.345747 880.912354 
L 288.582932 880.737011 
L 288.784979 880.622895 
L 289.798727 879.972827 
L 290.229174 879.838333 
L 290.35743 879.68013 
L 290.541907 879.606343 
L 290.859911 879.476996 
L 291.098854 879.317256 
L 292.353301 878.933969 
L 292.66252 878.81824 
L 293.750059 878.267352 
L 294.2297 877.985107 
L 294.438775 877.859956 
L 294.628523 877.759667 
L 294.841112 877.645743 
L 295.013291 877.595726 
L 295.261018 877.472703 
L 296.376667 876.733088 
L 296.576957 876.530733 
L 296.868607 876.261662 
L 297.265673 876.00481 
L 297.458935 875.890002 
L 297.711933 875.735974 
L 298.007097 875.649046 
L 298.18279 875.536642 
L 298.746764 875.10518 
L 299.08058 874.985707 
L 300.294618 874.439666 
L 300.458012 874.34117 
L 300.7971 874.115142 
L 300.953466 874.005718 
L 301.144971 873.831447 
L 301.336477 873.690348 
L 301.549065 873.569696 
L 301.807334 873.423812 
L 302.169261 873.254286 
L 302.50132 873.094959 
L 305.56189 871.217496 
L 306.134649 871.025186 
L 306.315612 870.970511 
L 306.714435 870.842889 
L 307.208132 870.564114 
L 307.478699 870.390221 
L 308.590835 869.526285 
L 310.08071 868.634314 
L 310.314382 868.348017 
L 311.250825 867.45254 
L 311.454629 867.220928 
L 311.553017 867.107508 
L 312.224163 866.654772 
L 313.671872 866.201519 
L 314.012717 866.071159 
L 314.276256 865.975331 
L 314.587232 865.818173 
L 315.342712 865.49325 
L 318.549106 864.564918 
L 318.909277 864.347557 
L 319.037532 864.22889 
L 319.329183 864.02649 
L 319.612048 863.820511 
L 320.33766 863.476268 
L 320.759323 863.085684 
L 320.949071 862.848244 
L 321.226666 862.616305 
L 321.623731 862.296795 
L 324.23277 860.812172 
L 324.884591 860.263355 
L 325.055013 860.147129 
L 326.242697 859.687959 
L 326.450014 859.563299 
L 326.650304 859.402735 
L 327.22482 858.679336 
L 327.488359 858.181021 
L 327.980299 857.31245 
L 328.069902 857.149069 
L 328.329928 856.686973 
L 328.774431 856.261954 
L 328.927284 856.14938 
L 329.08365 856.034438 
L 329.558021 855.851423 
L 329.972656 855.675111 
L 330.116724 855.604425 
L 330.457568 855.377133 
L 331.09182 854.503512 
L 331.336033 854.279665 
L 331.422122 854.059468 
L 331.791077 853.411235 
L 331.952715 853.274482 
L 332.244365 852.652743 
L 332.356808 852.540559 
L 332.585209 852.16301 
L 332.706437 852.052377 
L 333.071878 851.390715 
L 333.152697 851.231728 
L 333.435562 850.770194 
L 333.721942 850.287491 
L 334.219153 849.505333 
L 335.222359 848.482123 
L 337.146196 847.403686 
L 337.430818 847.138811 
L 337.871807 846.99707 
L 338.634314 846.57613 
L 338.955832 846.066231 
L 339.098143 845.953962 
L 339.823755 845.614514 
L 340.331507 845.382228 
L 340.556394 845.170778 
L 340.870884 844.52032 
L 341.215242 843.997257 
L 341.464726 843.844726 
L 341.607037 843.75256 
L 341.912743 843.506574 
L 342.141144 843.218075 
L 342.301024 843.085489 
L 342.518883 842.734553 
L 342.634841 842.604727 
L 342.803506 842.458503 
L 343.135565 842.125469 
L 343.323557 842.0033 
L 343.85942 841.688451 
L 344.087821 841.42935 
L 344.541108 841.129521 
L 344.685176 841.018281 
L 344.838029 840.891915 
L 345.022507 840.762341 
L 346.426293 840.142339 
L 346.886608 839.947245 
L 347.032433 839.88807 
L 347.310028 839.743218 
L 347.52613 839.655091 
L 347.94955 839.47013 
L 348.163895 839.399222 
L 348.694487 839.223928 
L 349.430641 838.939106 
L 349.817165 838.823183 
L 350.149224 838.735966 
L 352.329573 837.768728 
L 352.471884 837.69081 
L 352.642306 837.58076 
L 353.053427 837.251926 
L 353.352105 837.136223 
L 353.649026 836.997895 
L 356.925698 835.375603 
L 357.178696 835.260017 
L 357.772538 834.946522 
L 358.343539 834.764123 
L 358.615863 834.616186 
L 359.116588 834.465378 
L 360.288459 833.933643 
L 361.616697 833.492112 
L 362.03836 833.051549 
L 362.718292 832.491987 
L 363.457959 831.928157 
L 363.71447 831.76139 
L 363.956926 831.606158 
L 364.308312 831.311979 
L 364.506845 831.158267 
L 365.214887 830.649485 
L 365.641821 830.198792 
L 366.030102 829.940923 
L 366.267287 829.825763 
L 367.035065 829.498263 
L 367.463756 829.254473 
L 367.783517 829.110981 
L 368.29654 828.836201 
L 368.600489 828.714137 
L 369.512335 828.059833 
L 369.782902 827.677823 
L 370.972342 826.862164 
L 371.239395 826.741312 
L 371.647003 826.594804 
L 371.993118 826.463962 
L 373.858976 825.551876 
L 374.842856 824.805319 
L 375.304928 824.473106 
L 375.517517 824.357093 
L 376.005943 823.908258 
L 376.357328 823.485181 
L 376.513695 823.31555 
L 376.789533 823.060799 
L 377.733004 822.359299 
L 377.994786 822.247481 
L 378.184534 822.156555 
L 378.428747 822.041375 
L 378.662419 821.847716 
L 378.952312 821.612767 
L 379.085839 821.501957 
L 379.549668 821.048307 
L 379.639271 820.928129 
L 379.725361 820.766019 
L 379.992414 820.426186 
L 380.159322 820.280162 
L 380.573957 819.775203 
L 380.777761 819.522797 
L 381.048328 819.230012 
L 381.545539 818.576691 
L 381.835432 818.166034 
L 382.411704 817.508561 
L 382.655917 817.330102 
L 382.80877 817.225551 
L 382.961623 817.074054 
L 383.154885 816.983902 
L 383.404369 816.838962 
L 384.521776 816.3545 
L 384.713281 816.013767 
L 384.867891 815.904192 
L 384.997903 815.758182 
L 385.326449 815.443758 
L 385.519711 815.232557 
L 385.730543 814.982855 
L 386.399932 814.498406 
L 386.674013 814.256449 
L 386.851463 814.057087 
L 387.115002 813.784739 
L 387.237987 813.673613 
L 387.471659 813.45098 
L 387.59113 813.340715 
L 387.807232 813.173214 
L 387.99698 813.029094 
L 388.731377 812.576888 
L 389.068707 812.420259 
L 389.311163 812.30861 
L 389.64498 812.191914 
L 390.288015 811.987963 
L 390.476007 811.860756 
L 391.431776 810.786205 
L 391.670718 810.480695 
L 391.958854 810.051211 
L 392.427954 809.506428 
L 392.547426 809.363626 
L 393.074504 808.789996 
L 393.269523 808.673515 
L 393.594555 808.259558 
L 393.719297 808.124385 
L 394.05487 807.658519 
L 394.165557 807.526172 
L 394.52397 807.031178 
L 395.620294 806.038393 
L 395.959381 805.856048 
L 396.51457 805.577 
L 396.871227 805.456819 
L 397.004753 805.408141 
L 397.726851 804.990674 
L 397.937683 804.875182 
L 398.327721 804.720397 
L 398.594774 804.592317 
L 398.988326 804.424746 
L 399.142936 804.34543 
L 399.79827 804.161895 
L 401.007037 803.599031 
L 402.020785 803.219454 
L 402.839513 802.984822 
L 403.01872 802.924247 
L 403.661756 802.715648 
L 404.246813 802.299395 
L 404.515623 802.186367 
L 405.174472 801.736838 
L 405.664655 801.357206 
L 406.927886 800.733952 
L 407.642956 800.196442 
L 408.280721 799.612025 
L 409.069582 798.642753 
L 410.57527 797.655258 
L 410.842323 797.428341 
L 411.46779 796.751685 
L 411.592532 796.640972 
L 412.643175 795.983247 
L 412.889145 795.865627 
L 413.150927 795.750945 
L 414.338611 795.301748 
L 415.522781 794.90034 
L 415.946201 794.770553 
L 416.193928 794.659372 
L 416.534772 794.466819 
L 422.394129 791.439015 
L 422.669967 791.184007 
L 423.063519 790.919147 
L 423.32003 790.683861 
L 423.694256 790.450754 
L 424.34959 789.978737 
L 424.894238 789.637393 
L 425.091014 789.495105 
L 425.298332 789.340381 
L 427.172975 788.221014 
L 427.385563 788.100165 
L 427.912642 787.921821 
L 428.573247 787.723208 
L 428.958014 787.598548 
L 429.110867 787.476792 
L 429.462253 787.210942 
L 429.880402 786.971839 
L 430.101775 786.770518 
L 430.577902 786.548988 
L 430.801032 786.380248 
L 431.422985 786.20836 
L 431.818294 786.096396 
L 432.088861 785.909454 
L 432.254012 785.790215 
L 432.519308 785.55384 
L 432.825014 785.363738 
L 433.000707 785.269071 
L 435.177541 783.431642 
L 435.351477 783.24008 
L 435.502573 783.094774 
L 435.632586 782.896326 
L 435.889098 782.570415 
L 436.222914 782.239971 
L 436.634035 781.784679 
L 436.807971 781.674528 
L 437.011775 781.519107 
L 438.11864 780.731092 
L 438.325957 780.577327 
L 439.144686 779.717267 
L 440.230468 779.07841 
L 441.1388 778.555391 
L 441.483158 778.428336 
L 441.769538 778.308889 
L 442.50042 778.036671 
L 442.739362 777.912904 
L 443.345503 777.548212 
L 443.724999 777.220772 
L 443.897178 777.109098 
L 444.415472 776.653248 
L 444.916197 776.268797 
L 445.11473 776.136796 
L 445.473143 775.983473 
L 446.116179 775.208016 
L 446.318226 775.076712 
L 446.474592 774.966724 
L 447.245884 774.480224 
L 447.685116 774.129289 
L 447.751879 774.021991 
L 447.973252 773.683246 
L 448.199896 773.572303 
L 448.331666 773.400347 
L 448.653184 772.933016 
L 448.734003 772.766395 
L 448.969431 772.468251 
L 449.159179 772.352854 
L 449.615981 772.019288 
L 449.811 771.866703 
L 449.962096 771.821518 
L 451.242897 771.104549 
L 451.46427 770.915025 
L 451.727809 770.778347 
L 452.007161 770.635328 
L 454.832302 769.373109 
L 455.781043 768.107183 
L 456.019986 767.865777 
L 456.186894 767.763443 
L 456.424079 767.632911 
L 456.624369 767.523203 
L 456.861554 767.410934 
L 456.991567 767.364369 
L 458.788905 766.645072 
L 459.126235 766.517032 
L 460.298107 765.905876 
L 460.600298 765.787901 
L 461.036017 765.474303 
L 461.557825 765.06113 
L 461.733517 764.944331 
L 462.162208 764.69314 
L 463.181227 764.244957 
L 464.404049 763.842964 
L 464.711511 763.722869 
L 465.017217 763.609208 
L 468.580268 762.21516 
L 469.098562 761.685787 
L 469.321692 761.570007 
L 469.627398 761.304686 
L 469.952429 761.079784 
L 470.237052 760.875471 
L 470.361794 760.765155 
L 470.58141 760.603057 
L 470.911712 760.396519 
L 471.147141 760.198339 
L 471.49677 759.965474 
L 474.13919 757.431877 
L 474.436111 757.307348 
L 474.622346 757.209447 
L 474.950891 757.093841 
L 475.216188 756.925942 
L 475.520136 756.763512 
L 475.845168 756.566588 
L 476.136818 756.397933 
L 476.535641 756.264518 
L 476.757014 756.165223 
L 477.124212 756.025538 
L 477.278822 755.977924 
L 477.524792 755.86011 
L 478.491102 755.383952 
L 478.707205 755.261335 
L 479.104271 755.108586 
L 480.269114 754.626801 
L 480.569549 754.373888 
L 480.989455 754.175582 
L 481.300431 754.051113 
L 481.788857 753.758713 
L 482.305394 753.481408 
L 482.568934 753.357293 
L 483.183859 753.08014 
L 483.324413 753.023177 
L 483.802298 752.737339 
L 484.053538 752.34044 
L 484.136114 752.224046 
L 484.469931 751.6508 
L 484.580617 751.523103 
L 484.858212 750.931018 
L 484.961871 750.81782 
L 485.429214 750.399123 
L 485.573282 750.296253 
L 487.168573 749.541563 
L 487.572666 749.111564 
L 487.693895 748.992511 
L 487.918781 748.826094 
L 488.161238 748.624636 
L 488.373826 748.352995 
L 488.531949 748.172409 
L 488.784947 747.961893 
L 489.062542 747.839629 
L 489.703821 747.617302 
L 489.946277 747.493919 
L 490.248469 747.159037 
L 490.680673 747.049625 
L 491.032059 746.85184 
L 491.290327 746.630736 
L 491.750643 746.379803 
L 492.04405 746.213349 
L 492.277721 746.101189 
L 493.846659 745.544822 
L 494.110198 745.430044 
L 494.501993 745.285461 
L 497.45539 744.198385 
L 498.01585 743.740986 
L 498.453325 743.545402 
L 499.929145 742.854305 
L 500.264719 742.741613 
L 500.886671 742.40593 
L 502.046244 741.660806 
L 502.250048 741.530886 
L 502.794696 741.137499 
L 503.341101 740.549027 
L 503.458815 740.379821 
L 504.29687 739.383809 
L 504.479591 739.248018 
L 504.704477 739.014652 
L 505.076946 738.813588 
L 505.368596 738.698732 
L 505.821884 738.508076 
L 506.343692 738.270233 
L 506.554523 738.050691 
L 506.833875 737.918636 
L 507.04822 737.803794 
L 507.278378 737.70596 
L 507.564757 737.502269 
L 507.791401 737.24124 
L 508.803392 736.503167 
L 509.267221 735.768461 
L 509.630905 735.358785 
L 509.850521 735.127983 
L 510.078922 734.948342 
L 510.511126 734.503177 
L 511.177002 734.103376 
L 511.874503 733.585784 
L 512.16791 733.302855 
L 513.57521 732.264709 
L 514.13567 731.946979 
L 514.655721 731.673581 
L 514.905205 731.563012 
L 515.070356 731.49441 
L 515.353222 731.385967 
L 515.532428 731.306343 
L 516.467114 731.011895 
L 517.363148 730.183498 
L 517.953476 729.565165 
L 518.141467 729.401581 
L 519.474976 728.174983 
L 519.624315 728.035089 
L 520.067061 727.656235 
L 520.46237 727.034564 
L 520.629278 726.794468 
L 520.79443 726.607621 
L 521.133517 725.992592 
L 521.217849 725.869616 
L 522.76746 724.050182 
L 523.756611 723.277572 
L 524.401404 722.982021 
L 525.116474 722.520134 
L 525.341361 722.402867 
L 525.945744 722.124862 
L 526.163603 721.991225 
L 526.548371 721.826667 
L 527.022742 721.510874 
L 528.280702 720.461212 
L 528.46518 720.338478 
L 528.8886 720.058736 
L 530.093853 719.495596 
L 530.193998 719.384469 
L 530.441725 719.115242 
L 532.887369 716.424823 
L 534.182226 715.35982 
L 534.421168 715.112622 
L 534.714575 714.829496 
L 535.355854 714.180411 
L 535.586012 713.968116 
L 535.749406 713.818421 
L 535.909286 713.760637 
L 536.193909 713.597032 
L 537.2059 712.913441 
L 537.692569 712.761221 
L 538.130044 712.352209 
L 539.68844 710.554948 
L 540.00293 710.075278 
L 540.250657 709.884941 
L 540.812874 709.41727 
L 541.23278 708.817827 
L 541.554298 708.646798 
L 542.773607 707.721515 
L 543.414885 707.471363 
L 543.625717 707.383941 
L 544.628923 707.104073 
L 544.799345 707.040345 
L 545.308855 706.78736 
L 545.651456 706.118192 
L 546.812785 704.433079 
L 547.020103 704.304578 
L 547.794908 703.689916 
L 547.972358 703.51513 
L 548.402806 703.036769 
L 548.587283 702.866157 
L 548.740136 702.749196 
L 548.908801 702.636926 
L 549.082737 702.502134 
L 549.356818 702.297862 
L 549.513185 702.208465 
L 549.862813 701.909173 
L 550.061346 701.792827 
L 550.252852 701.678473 
L 550.433815 701.564866 
L 550.628834 701.363743 
L 550.997789 701.225063 
L 551.150642 701.129185 
L 551.328092 701.013163 
L 551.507299 700.938278 
L 552.129251 700.658543 
L 552.666872 700.33546 
L 552.926897 700.216276 
L 553.366129 700.07262 
L 554.494077 699.625311 
L 554.650444 699.510489 
L 554.93858 699.398285 
L 555.362 699.205861 
L 557.113658 698.305714 
L 557.324489 698.166542 
L 557.538835 698.043694 
L 558.09051 697.821036 
L 558.898697 697.41714 
L 559.134126 697.301425 
L 559.283465 697.159038 
L 559.580386 696.870937 
L 559.896633 696.619094 
L 560.260317 696.38275 
L 560.453579 696.274394 
L 560.710091 696.141601 
L 560.971873 695.900908 
L 561.275822 695.683862 
L 561.695728 695.309424 
L 562.131446 695.118814 
L 562.623386 694.937023 
L 562.78151 694.890134 
L 563.115326 694.769497 
L 564.143129 694.180422 
L 564.431266 693.744601 
L 564.635069 693.556607 
L 564.821304 693.35026 
L 564.921449 693.230388 
L 565.141065 693.044738 
L 565.290404 692.865142 
L 565.49245 692.637934 
L 565.645303 692.523375 
L 566.413081 691.700294 
L 566.525524 691.582875 
L 566.702974 691.454339 
L 567.621848 690.426998 
L 568.120816 689.995495 
L 568.282453 689.928012 
L 568.739254 689.752107 
L 570.095603 689.097609 
L 570.659577 688.885349 
L 571.227065 688.656568 
L 571.624131 688.506131 
L 572.096745 688.37098 
L 574.790117 687.29977 
L 575.123933 686.929225 
L 575.301383 686.768896 
L 575.649255 686.510472 
L 575.819677 686.388727 
L 577.007361 685.469596 
L 577.334149 685.205785 
L 577.559036 685.077089 
L 577.799735 684.581354 
L 578.012324 684.237182 
L 578.205586 683.931856 
L 579.21582 682.166935 
L 579.409082 681.929982 
L 579.55315 681.572303 
L 580.120638 680.550323 
L 580.807597 679.512266 
L 581.034241 679.196538 
L 581.201149 678.958333 
L 581.408467 678.672741 
L 581.485772 678.544106 
L 581.654437 678.341001 
L 582.585609 677.625941 
L 582.917668 677.423234 
L 583.081063 677.266765 
L 583.26554 677.124083 
L 583.471101 676.922631 
L 585.045309 675.709323 
L 585.45643 675.517607 
L 585.598741 675.44078 
L 585.744567 675.312556 
L 585.890392 675.220569 
L 586.847918 674.764074 
L 587.08686 674.618269 
L 587.508523 674.470181 
L 587.649077 674.419207 
L 589.472769 673.565785 
L 590.180811 672.822799 
L 590.830875 672.334508 
L 591.194559 672.120268 
L 591.465126 671.98392 
L 592.261015 671.619176 
L 592.56672 671.507028 
L 593.065688 671.315764 
L 593.316929 671.215781 
L 593.541816 671.104099 
L 595.613235 670.295093 
L 595.911912 670.023932 
L 596.070036 669.877521 
L 596.345874 669.614806 
L 596.424936 669.503551 
L 596.70253 669.193298 
L 596.858897 669.083371 
L 597.111895 668.799176 
L 597.528287 668.610395 
L 598.561361 667.9891 
L 599.232507 667.289996 
L 599.696337 667.189053 
L 600.738195 666.862796 
L 600.966596 666.63843 
L 601.177427 666.510484 
L 602.697171 665.353853 
L 603.002876 664.663377 
L 603.282228 663.871304 
L 603.391157 663.757904 
L 603.912965 662.69754 
L 603.960402 662.579224 
L 604.223942 662.101372 
L 604.280163 661.984707 
L 605.669894 659.079862 
L 605.905322 658.87645 
L 606.219813 658.510713 
L 606.875147 657.36449 
L 607.354788 657.100295 
L 607.606029 656.545407 
L 608.164733 655.2238 
L 608.466924 654.619257 
L 608.832365 654.26027 
L 608.990489 654.163477 
L 609.21889 653.969794 
L 609.702045 653.396767 
L 609.884766 653.284672 
L 610.028834 653.229535 
L 610.236151 653.042403 
L 610.592808 652.470282 
L 610.678897 652.326282 
L 610.859861 652.047696 
L 611.645208 650.753373 
L 611.782249 650.663918 
L 612.84519 649.583041 
L 613.386324 649.227359 
L 613.612968 649.007345 
L 614.863901 648.004618 
L 615.183662 647.574196 
L 615.27678 647.463861 
L 615.684387 646.893331 
L 615.775747 646.77914 
L 616.116591 646.370809 
L 617.877034 645.285243 
L 618.168684 645.125803 
L 618.441008 645.05046 
L 619.322986 644.774359 
L 622.114746 643.34066 
L 622.313279 643.227538 
L 622.552221 643.13223 
L 622.773594 643.019332 
L 623.156604 642.663044 
L 623.469338 642.407383 
L 623.666114 642.267828 
L 623.808425 642.120166 
L 624.02277 641.943735 
L 624.189678 641.785326 
L 624.404024 641.605477 
L 624.82393 641.359807 
L 625.003136 641.244299 
L 625.228023 641.108735 
L 625.58468 640.923706 
L 625.988773 640.65812 
L 626.152168 640.536197 
L 626.772363 640.188703 
L 627.738674 639.423155 
L 628.033838 639.133145 
L 629.400729 638.240612 
L 629.560609 638.166018 
L 629.864558 638.035464 
L 630.068362 637.912949 
L 630.901146 637.268024 
L 631.068054 637.065942 
L 631.403627 636.928016 
L 631.978143 635.988479 
L 632.853093 634.302857 
L 633.176368 634.070397 
L 633.441664 633.451331 
L 633.496129 633.303898 
L 633.86157 632.267497 
L 634.889374 629.783503 
L 634.936811 629.669101 
L 635.813518 627.876867 
L 636.16139 626.743635 
L 636.249236 626.544319 
L 636.47588 626.084727 
L 636.862404 625.329574 
L 636.929168 625.182402 
L 637.136485 624.942902 
L 637.275283 624.832367 
L 637.472059 624.526568 
L 637.902506 624.117617 
L 638.239836 623.83072 
L 638.79854 623.213645 
L 639.005857 623.095831 
L 641.040381 621.079914 
L 641.200261 620.872977 
L 641.388253 620.738077 
L 641.678146 620.373298 
L 641.929387 620.177843 
L 642.345779 619.865914 
L 642.496875 619.752009 
L 642.923808 619.507116 
L 643.445616 619.123885 
L 644.125547 618.846952 
L 644.389087 618.721871 
L 644.608703 618.590372 
L 644.87927 618.38396 
L 645.03915 618.161511 
L 645.344856 618.013561 
L 646.130203 617.65454 
L 646.281299 617.514102 
L 646.773239 616.987432 
L 646.887439 616.877497 
L 647.351268 616.438782 
L 647.583183 616.328231 
L 648.020658 616.018883 
L 648.208649 615.874941 
L 648.56882 615.518596 
L 650.211548 613.6029 
L 650.362644 613.463907 
L 650.503198 613.339109 
L 651.288545 612.520416 
L 651.455454 612.330257 
L 651.522217 612.212803 
L 651.699667 612.035669 
L 652.075649 611.774793 
L 652.288238 611.591899 
L 652.725713 611.277786 
L 652.940058 611.13447 
L 653.098182 611.006607 
L 653.417943 610.595205 
L 653.518088 610.483404 
L 653.574309 610.356113 
L 653.84839 609.777071 
L 654.127742 609.215372 
L 654.266539 608.959914 
L 654.482642 608.596438 
L 655.34178 607.652693 
L 655.837233 607.396556 
L 656.30809 606.981268 
L 656.873821 606.524442 
L 657.135604 606.33239 
L 657.471177 606.169991 
L 657.980686 605.812696 
L 658.307475 605.680603 
L 658.827526 605.391209 
L 658.978622 605.348511 
L 659.229863 605.233603 
L 660.101299 604.969213 
L 660.788258 604.655137 
L 661.046527 604.52901 
L 662.091899 604.103636 
L 662.362466 603.684948 
L 662.469639 603.506189 
L 662.771831 603.077552 
L 666.11878 599.280558 
L 666.522873 598.684245 
L 667.08509 598.450282 
L 667.281866 598.314108 
L 667.494455 598.056829 
L 667.714071 597.864993 
L 667.930173 597.543074 
L 668.153303 597.432528 
L 668.425627 597.069851 
L 668.478335 596.958266 
L 669.291793 595.636414 
L 669.527221 595.402817 
L 671.15238 593.937475 
L 671.531877 593.692707 
L 671.681216 593.603656 
L 673.025266 592.888556 
L 673.174605 592.761792 
L 673.399492 592.552492 
L 673.940626 592.314676 
L 674.501086 592.106924 
L 674.947346 591.727576 
L 675.286433 591.455777 
L 675.792429 591.057253 
L 675.976906 590.926966 
L 677.29636 590.115626 
L 677.707481 589.903083 
L 677.881417 589.792057 
L 678.327677 589.611704 
L 678.557834 589.463799 
L 679.227224 589.11477 
L 679.525902 588.973855 
L 679.73849 588.85964 
L 680.917389 588.241094 
L 681.184443 588.075339 
L 681.425142 587.918486 
L 681.730847 587.676705 
L 682.006685 587.543735 
L 682.389696 587.371811 
L 682.978267 587.165255 
L 683.266403 587.030138 
L 683.486019 586.978937 
L 684.578829 586.498007 
L 685.155101 586.014749 
L 685.378231 585.841108 
L 685.710291 585.619944 
L 686.548346 585.198601 
L 686.971765 584.72763 
L 687.13516 584.597435 
L 687.305582 584.406495 
L 687.788737 584.008201 
L 688.057547 583.746473 
L 688.303517 583.576246 
L 688.498536 583.462334 
L 688.744506 583.345017 
L 689.93219 582.674439 
L 690.331013 582.406669 
L 690.610365 582.186122 
L 690.861605 581.976805 
L 691.095277 581.827925 
L 691.228803 581.606389 
L 691.497614 581.424492 
L 691.682091 581.309817 
L 691.971984 581.058874 
L 692.140649 580.947403 
L 692.328641 580.889797 
L 692.485007 580.705953 
L 692.801255 580.385697 
L 692.954107 580.260232 
L 693.228188 579.994553 
L 693.340632 579.876489 
L 693.62174 579.578138 
L 694.363164 578.979962 
L 696.453909 577.562753 
L 696.886114 577.236792 
L 697.084646 577.07506 
L 697.402651 576.851449 
L 697.662676 576.678192 
L 698.059742 576.43614 
L 699.02781 576.105453 
L 699.317703 576.034811 
L 699.618138 575.906065 
L 699.901003 575.710994 
L 700.236576 575.555876 
L 701.57887 574.651528 
L 701.830111 574.511423 
L 702.634784 574.043843 
L 704.583218 573.214903 
L 705.639132 572.555081 
L 706.371771 572.197436 
L 706.651123 572.002024 
L 706.802219 571.88735 
L 707.071029 571.594427 
L 707.301186 571.391658 
L 707.473365 571.254448 
L 707.786099 570.979529 
L 707.967062 570.86175 
L 708.817416 570.30488 
L 709.258405 570.169618 
L 710.228229 569.81418 
L 710.621781 569.404377 
L 710.72544 569.291773 
L 711.201568 568.900373 
L 711.758514 568.400985 
L 711.879742 568.281674 
L 712.08706 568.134069 
L 712.364655 567.994246 
L 712.680902 567.76881 
L 712.995392 567.613634 
L 713.174599 567.511399 
L 715.066811 566.71292 
L 715.669437 566.447536 
L 716.170162 566.224913 
L 716.574256 566.113885 
L 716.922127 565.963261 
L 717.22959 565.815231 
L 717.688148 565.551325 
L 718.19063 565.332041 
L 718.376864 565.246803 
L 718.940838 564.981839 
L 719.248301 564.838438 
L 719.808761 564.608425 
L 720.717093 564.236875 
L 720.950765 563.9027 
L 721.029827 563.786543 
L 721.405809 563.207362 
L 721.563933 563.028976 
L 721.839771 562.567738 
L 722.089254 562.295266 
L 722.345766 561.843111 
L 722.505647 561.669885 
L 722.776214 561.306758 
L 722.900956 561.162714 
L 723.208418 560.791543 
L 723.767121 560.099195 
L 723.876051 559.964929 
L 724.13959 559.749601 
L 724.24852 559.637145 
L 724.478677 559.434408 
L 726.33048 558.476769 
L 726.539555 558.400334 
L 727.251111 558.085867 
L 727.776432 557.877818 
L 734.326262 554.965748 
L 734.735627 554.838585 
L 735.155533 554.64297 
L 735.679097 554.360623 
L 736.213204 554.107187 
L 740.067905 552.201507 
L 740.255896 552.107076 
L 740.445645 551.982628 
L 740.749593 551.789823 
L 740.944612 551.677892 
L 741.102736 551.531486 
L 741.366275 551.264668 
L 741.914437 550.737554 
L 742.144595 550.537064 
L 742.283392 550.414716 
L 742.643562 550.053245 
L 742.798172 549.933336 
L 743.509728 549.417722 
L 744.001668 549.137947 
L 745.904422 548.154242 
L 746.231211 548.02992 
L 746.40339 547.896142 
L 746.709095 547.554815 
L 747.390783 547.009698 
L 747.555935 546.894677 
L 747.891508 546.695971 
L 748.128693 546.559688 
L 748.64523 545.869239 
L 748.859576 545.601301 
L 749.005401 545.454999 
L 749.402467 545.105557 
L 749.660735 544.858134 
L 749.859268 544.672903 
L 750.191328 544.403296 
L 751.756751 543.681397 
L 753.786004 542.64439 
L 754.149688 542.302564 
L 754.286728 542.171055 
L 754.595948 541.913938 
L 754.747044 541.802461 
L 755.108971 541.582091 
L 755.238984 541.470023 
L 755.497252 541.306184 
L 755.889047 541.04733 
L 756.637499 540.569593 
L 756.930906 540.445268 
L 757.90073 539.660217 
L 758.134402 539.432051 
L 759.938768 538.182103 
L 760.033642 538.060681 
L 760.218119 537.89626 
L 760.581803 537.533838 
L 760.76101 537.419565 
L 760.954272 537.301984 
L 761.32147 537.098879 
L 762.32819 536.63409 
L 762.598757 536.547505 
L 762.99758 536.401423 
L 763.185572 536.355786 
L 764.064036 535.972407 
L 764.411908 535.628893 
L 764.700044 535.449396 
L 765.053187 535.073147 
L 765.357135 534.938438 
L 765.555668 534.785658 
L 765.757715 534.668202 
L 766.121399 534.281107 
L 766.637936 533.919252 
L 766.889177 533.749928 
L 766.968239 533.639192 
L 767.277458 533.369972 
L 767.846703 532.847738 
L 768.020639 532.715329 
L 768.329859 532.538764 
L 768.681244 532.404684 
L 768.897347 532.296515 
L 769.069526 532.104719 
L 769.261031 531.943726 
L 769.47889 531.748965 
L 769.7477 531.360667 
L 769.881227 531.232588 
L 770.517235 530.585041 
L 771.248117 529.868382 
L 771.504629 529.699306 
L 772.625549 529.021293 
L 772.815297 528.908847 
L 773.064781 528.706004 
L 774.120695 528.126807 
L 774.35261 527.869455 
L 775.134443 527.384269 
L 776.197385 526.745272 
L 776.490792 526.612815 
L 776.815824 526.481875 
L 777.193563 526.364195 
L 778.55694 525.75478 
L 778.727362 525.629574 
L 778.98036 525.475322 
L 779.686645 525.005758 
L 780.155745 524.784523 
L 780.378875 524.701125 
L 782.035659 523.982763 
L 782.227164 523.824819 
L 782.351906 523.707267 
L 782.640042 523.427123 
L 782.812221 523.309291 
L 783.172392 523.094129 
L 783.551888 522.81379 
L 783.848809 522.53987 
L 784.922292 521.603 
L 785.660202 521.198745 
L 785.818326 521.123632 
L 786.283912 520.888596 
L 786.730172 520.772377 
L 786.972628 520.630126 
L 787.650803 520.334487 
L 790.198349 518.977456 
L 790.488242 518.861996 
L 791.004779 518.485341 
L 791.289402 518.262934 
L 791.545913 518.147544 
L 792.283823 517.522629 
L 792.643994 517.280016 
L 792.960241 517.074394 
L 793.701665 516.780281 
L 794.337673 516.216159 
L 794.829613 516.087677 
L 795.426969 515.554203 
L 795.943506 515.043776 
L 796.4618 514.729256 
L 796.899275 514.34747 
L 797.530012 514.209895 
L 797.663539 514.173077 
L 798.594711 513.555783 
L 798.807299 513.33545 
L 798.928527 513.225009 
L 799.336135 512.975444 
L 799.852672 512.73913 
L 800.084586 512.575382 
L 801.021029 512.157238 
L 801.281055 512.008702 
L 801.4954 511.890301 
L 801.676364 511.77445 
L 802.203442 511.536329 
L 803.637096 510.543881 
L 803.865497 510.330328 
L 804.308243 510.027952 
L 804.53313 509.894071 
L 804.768558 509.788885 
L 804.975876 509.673933 
L 806.764429 508.814751 
L 807.128113 508.657742 
L 807.453145 508.51001 
L 807.785204 508.349354 
L 807.952113 508.196916 
L 808.106722 508.018173 
L 808.354449 507.799528 
L 808.704078 507.676561 
L 808.941263 507.532511 
L 809.173178 507.280876 
L 809.582542 506.91004 
L 809.78986 506.679718 
L 810.12192 506.39066 
L 810.316939 506.137107 
L 810.801851 505.534353 
L 810.981058 505.405513 
L 811.404477 504.609198 
L 811.615309 504.206632 
L 812.008861 503.517419 
L 812.179283 503.368618 
L 812.971658 502.355894 
L 813.177218 502.122876 
L 813.379265 501.915342 
L 813.532118 501.768085 
L 813.818497 501.444876 
L 813.983649 501.241839 
L 814.140015 501.100124 
L 814.298139 500.931879 
L 814.642497 500.607422 
L 814.837516 500.423278 
L 815.090514 500.29664 
L 819.45121 497.379663 
L 819.799082 497.092092 
L 820.440361 496.608018 
L 820.749581 496.384764 
L 822.66639 495.429103 
L 823.107379 495.230729 
L 823.702978 494.813179 
L 823.982329 494.609819 
L 824.396964 494.466916 
L 824.77119 494.290509 
L 825.105007 494.078658 
L 825.382601 493.965548 
L 825.66371 493.808283 
L 825.855215 493.679586 
L 827.67715 492.632927 
L 828.263964 492.421869 
L 828.754147 492.287192 
L 829.347989 492.163173 
L 829.785465 491.970045 
L 830.284432 491.723817 
L 830.368765 491.562388 
L 830.516347 491.447986 
L 830.618249 491.32416 
L 830.850163 490.971669 
L 831.057481 490.759599 
L 831.32102 490.433633 
L 831.56699 490.050468 
L 831.63551 489.934592 
L 831.839314 489.661116 
L 831.993924 489.47931 
L 832.471808 488.798741 
L 833.294051 487.75596 
L 833.410008 487.626724 
L 833.670034 487.350063 
L 833.887893 487.235193 
L 834.351722 486.815536 
L 834.643372 486.634201 
L 834.915696 486.376807 
L 835.238971 486.247717 
L 835.419935 486.127343 
L 835.701043 485.959646 
L 837.540547 484.441493 
L 837.732053 484.292935 
L 840.878712 482.740677 
L 841.437415 482.499372 
L 841.758933 482.324252 
L 842.038285 482.212806 
L 842.528468 482.041277 
L 843.730207 481.504957 
L 844.120245 481.347849 
L 844.570019 481.210865 
L 845.323741 480.90434 
L 845.648773 480.775902 
L 846.014214 480.694755 
L 846.29708 480.579822 
L 846.50264 480.458363 
L 847.447868 479.934384 
L 847.792226 479.702066 
L 848.403637 479.302581 
L 848.73921 479.126695 
L 848.992208 478.895614 
L 849.261018 478.652881 
L 850.197461 477.568475 
L 850.43289 477.425697 
L 851.290271 476.856455 
L 851.506373 476.666256 
L 851.856002 476.357837 
L 855.081723 474.530545 
L 855.91275 474.244428 
L 856.561057 473.791893 
L 856.729722 473.678536 
L 856.952852 473.61031 
L 858.288117 473.117205 
L 858.990889 472.835034 
L 859.31065 472.664891 
L 859.591758 472.550036 
L 859.785021 472.494446 
L 860.001123 472.350066 
L 860.285745 472.062572 
L 860.435084 471.95203 
L 860.733762 471.665811 
L 860.94108 471.552956 
L 861.234487 471.346491 
L 861.543706 471.200441 
L 861.840627 471.013 
L 862.234179 470.862282 
L 862.415143 470.810726 
L 862.835049 470.649588 
L 863.13197 470.420213 
L 863.5835 470.304841 
L 864.047329 470.146962 
L 864.801052 469.836362 
L 865.045265 469.724642 
L 865.303533 469.469524 
L 865.477469 469.210436 
L 865.628565 469.1546 
L 865.726953 469.040308 
L 866.287413 467.786625 
L 866.566765 467.112585 
L 866.652855 466.984287 
L 867.155336 466.203302 
L 867.253724 466.095276 
L 867.721067 465.261775 
L 867.779046 465.151221 
L 867.963523 464.91756 
L 868.216521 464.448009 
L 868.437894 464.115855 
L 868.617101 463.957835 
L 869.221484 463.208133 
L 870.98017 462.185739 
L 871.227897 461.803844 
L 871.326285 461.682769 
L 872.673849 460.1844 
L 872.946173 460.072208 
L 873.388919 459.696926 
L 873.525959 459.585518 
L 873.728006 459.508605 
L 874.088176 459.358255 
L 874.460645 459.195021 
L 874.618769 459.104028 
L 874.896364 458.98636 
L 875.532372 458.669767 
L 876.10513 458.304568 
L 876.416107 457.891139 
L 876.526793 457.776449 
L 876.893991 457.422558 
L 877.647714 457.0858 
L 877.956933 456.932487 
L 878.13614 456.845899 
L 878.686059 456.666569 
L 879.016361 456.417123 
L 879.193811 456.279167 
L 879.52587 456.039677 
L 879.741973 455.920721 
L 881.37943 455.143801 
L 881.71149 454.897545 
L 881.96273 454.750282 
L 882.217485 454.581657 
L 882.844709 454.180275 
L 885.077765 452.820117 
L 885.608357 452.272067 
L 885.769995 452.097215 
L 885.936903 451.989822 
L 887.370557 451.396437 
L 887.537465 451.309502 
L 887.786949 451.236497 
L 892.207381 449.960185 
L 892.55701 449.841507 
L 893.612924 449.391612 
L 893.760506 449.278742 
L 894.080267 449.030169 
L 894.320966 448.885568 
L 895.26268 448.333182 
L 897.583583 446.315185 
L 899.28429 445.591302 
L 899.73582 445.283055 
L 900.064366 444.965133 
L 900.398182 444.724922 
L 900.610771 444.604448 
L 900.883095 444.381235 
L 901.081628 444.267387 
L 901.350438 444.098454 
L 901.693039 443.905071 
L 901.921439 443.778401 
L 902.402838 443.479171 
L 902.587315 443.414557 
L 903.572952 443.044441 
L 903.862846 442.929375 
L 905.507331 442.20416 
L 906.287407 441.717497 
L 906.728396 441.605622 
L 907.46982 440.996482 
L 907.952975 440.812999 
L 908.0988 440.696624 
L 908.420318 440.511612 
L 908.552088 440.382156 
L 908.87712 440.122531 
L 909.602731 439.905677 
L 909.987499 439.715594 
L 910.282663 439.601917 
L 910.89056 439.469892 
L 911.043413 439.41934 
L 911.472103 439.180795 
L 911.80592 438.855747 
L 912.512205 438.35682 
L 912.788043 438.244916 
L 913.719215 437.540183 
L 913.808818 437.422149 
L 914.061816 437.141356 
L 914.634575 436.658678 
L 914.887573 436.548046 
L 915.251257 436.003259 
L 915.40938 435.889531 
L 915.588587 435.689803 
L 915.887265 435.212315 
L 915.999708 435.080636 
L 916.540842 434.375527 
L 916.981832 434.023669 
L 917.408765 433.365214 
L 917.573916 433.156162 
L 918.095724 432.41421 
L 918.216952 432.29858 
L 919.497753 430.884286 
L 919.683988 430.771004 
L 919.984423 430.599207 
L 920.212823 430.45099 
L 920.418384 430.305148 
L 920.667868 430.188401 
L 921.634178 429.73254 
L 921.795816 429.618419 
L 922.46872 429.279251 
L 923.32083 428.969921 
L 923.473683 428.871185 
L 923.905887 428.471721 
L 924.345119 428.027885 
L 924.487431 427.915262 
L 925.285076 427.497479 
L 925.4432 427.434299 
L 925.641733 427.175749 
L 925.861349 427.00357 
L 926.186381 426.888623 
L 928.078593 426.00861 
L 928.168196 425.895827 
L 928.386055 425.727137 
L 928.677705 425.613278 
L 929.065987 425.416501 
L 930.770207 424.36819 
L 930.96874 424.209961 
L 931.713678 423.697241 
L 932.170479 423.484895 
L 932.388339 423.283052 
L 932.597413 423.159203 
L 932.764321 423.065418 
L 933.484662 422.572667 
L 934.022282 422.299883 
L 934.515979 422.11692 
L 935.041301 421.897524 
L 935.654469 421.739249 
L 935.942605 421.578276 
L 936.320345 421.456605 
L 936.634835 421.302723 
L 937.34112 420.881751 
L 937.657367 420.74421 
L 937.912122 420.612101 
L 938.254723 420.421507 
L 938.653546 420.16433 
L 938.989119 419.917385 
L 939.333477 419.681792 
L 939.742842 419.491205 
L 940.02395 419.357174 
L 941.373271 418.690928 
L 942.355395 417.746238 
L 942.738405 417.539007 
L 943.103846 417.261065 
L 943.290081 417.142651 
L 943.720528 416.887752 
L 944.439112 416.585458 
L 944.639402 416.428385 
L 945.057551 416.074021 
L 947.280065 414.816829 
L 947.594556 414.698627 
L 948.85076 413.969063 
L 949.711655 413.314745 
L 950.159671 413.00647 
L 950.382801 412.840482 
L 950.560251 412.699102 
L 950.862443 412.494023 
L 951.243696 412.299076 
L 951.932412 411.859292 
L 952.246903 411.669957 
L 953.056847 411.034757 
L 954.184795 408.601689 
L 954.291968 408.480297 
L 954.662679 408.009548 
L 955.04569 407.558178 
L 955.17746 407.485743 
L 955.525331 407.266839 
L 955.667643 407.214935 
L 955.936453 407.092152 
L 956.082278 407.019307 
L 956.150798 406.907765 
L 957.35078 404.882401 
L 957.544042 404.585038 
L 957.661757 404.424575 
L 957.872588 404.119389 
L 957.937594 404.009032 
L 958.176537 403.767213 
L 958.264383 403.618334 
L 958.726455 402.93104 
L 958.902148 402.708616 
L 959.00405 402.584065 
L 959.343137 402.167207 
L 959.524101 402.043658 
L 960.518523 401.42388 
L 960.690702 401.267675 
L 960.843554 401.128946 
L 961.019247 400.970813 
L 961.200211 400.85959 
L 961.913524 400.486359 
L 962.075161 400.368204 
L 962.930786 399.872503 
L 963.039715 399.757275 
L 963.391101 399.596841 
L 963.693293 399.477155 
L 963.92345 399.364551 
L 964.280107 399.250049 
L 964.413633 399.188555 
L 965.163842 398.865436 
L 965.791065 398.633449 
L 968.306987 397.543438 
L 968.66013 397.215951 
L 968.770816 397.103835 
L 969.067737 396.936304 
L 969.424394 396.69849 
L 969.902278 396.198882 
L 970.107839 396.043325 
L 970.466252 395.736144 
L 970.786013 395.536902 
L 971.241058 395.374848 
L 971.444862 395.266862 
L 971.734755 395.086515 
L 972.043974 394.87056 
L 972.295215 394.725165 
L 972.583351 394.559087 
L 973.200033 394.213646 
L 973.532093 394.08909 
L 974.060928 393.299357 
L 974.949934 392.872501 
L 975.164279 392.512066 
L 975.32416 392.336718 
L 975.536748 392.141842 
L 975.689601 392.029318 
L 976.640099 391.546223 
L 976.734974 391.434373 
L 977.002027 391.079734 
L 977.416662 390.798637 
L 977.562487 390.730808 
L 977.977122 390.475096 
L 978.168627 390.277304 
L 978.300397 390.242807 
L 978.472576 390.106309 
L 979.136695 389.423078 
L 980.24356 388.862372 
L 980.514127 388.539244 
L 980.60373 388.427499 
L 980.953359 388.034857 
L 981.167705 387.942533 
L 981.868719 387.461666 
L 982.57149 386.654325 
L 982.682177 386.525007 
L 982.977341 386.262985 
L 983.123166 386.136197 
L 984.876581 384.463425 
L 985.052274 384.295748 
L 985.535429 383.974583 
L 985.753288 383.847638 
L 986.029126 383.706674 
L 986.352401 383.552701 
L 986.552691 383.477665 
L 986.847855 383.359752 
L 987.43994 382.882197 
L 987.736861 382.696422 
L 988.014455 382.532048 
L 988.485312 382.353917 
L 989.045772 382.049944 
L 989.38486 381.923536 
L 989.727461 381.765141 
L 989.924237 381.670363 
L 990.177234 381.599794 
L 990.570786 381.465005 
L 990.955554 381.347679 
L 991.714547 381.06513 
L 991.93592 381.016741 
L 992.557873 380.800408 
L 992.846009 380.618905 
L 993.132388 380.50738 
L 993.49783 380.344977 
L 993.712175 380.244535 
L 993.937062 380.09389 
L 994.748763 379.61823 
L 995.145829 379.434332 
L 995.344361 379.236316 
L 995.924148 379.033447 
L 996.184173 378.904672 
L 996.49515 378.724447 
L 996.802612 378.479973 
L 997.951644 377.902708 
L 998.596436 377.517417 
L 998.912683 377.393306 
L 999.311506 377.018232 
L 1001.570916 375.566977 
L 1002.361534 375.340606 
L 1002.700622 375.266967 
L 1002.937807 375.095048 
L 1003.15918 374.912867 
L 1004.185226 374.259318 
L 1004.645542 374.102975 
L 1005.386965 373.823971 
L 1008.603902 372.694116 
L 1008.772567 372.636772 
L 1009.180174 372.42012 
L 1009.998903 372.014949 
L 1010.56112 371.85878 
L 1010.991568 371.720986 
L 1011.274433 371.605285 
L 1011.530945 371.527464 
L 1012.226689 371.293369 
L 1012.393597 371.181985 
L 1012.621997 371.051961 
L 1012.824044 370.936863 
L 1013.135021 370.734184 
L 1013.973076 370.387823 
L 1014.257698 370.260714 
L 1014.475557 370.212078 
L 1015.378618 369.725083 
L 1015.728247 369.319195 
L 1015.884614 369.208511 
L 1016.879035 368.299676 
L 1017.049458 368.163891 
L 1017.441253 367.80803 
L 1017.615189 367.628527 
L 1019.006676 366.317394 
L 1019.231563 366.198006 
L 1020.2172 365.564439 
L 1020.391136 365.440393 
L 1020.522905 365.315205 
L 1020.707383 365.218064 
L 1023.32345 363.856909 
L 1023.676592 363.698097 
L 1023.933104 363.555441 
L 1024.133394 363.444026 
L 1024.89063 363.020916 
L 1025.516097 362.675402 
L 1025.881538 362.55 
L 1026.821494 361.816589 
L 1027.682389 361.116304 
L 1028.053101 360.886639 
L 1028.270961 360.728067 
L 1028.483549 360.583355 
L 1028.747088 360.241032 
L 1028.984274 360.115649 
L 1029.151182 359.952889 
L 1029.384853 359.751307 
L 1029.567574 359.541787 
L 1029.792461 359.343002 
L 1030.312512 359.128919 
L 1030.488204 359.029508 
L 1031.848067 358.357169 
L 1032.197696 358.027879 
L 1032.643956 357.397621 
L 1032.819649 357.207159 
L 1033.164007 356.820464 
L 1033.578642 356.578933 
L 1034.093422 356.292237 
L 1035.121225 355.844297 
L 1035.337327 355.738565 
L 1036.80612 354.938773 
L 1036.98884 354.800748 
L 1038.299509 354.327464 
L 1038.608729 354.119487 
L 1038.916191 353.899694 
L 1039.105939 353.772692 
L 1039.221897 353.659544 
L 1039.423943 353.492824 
L 1039.606664 353.341682 
L 1039.812225 353.189639 
L 1040.829486 352.558497 
L 1040.989367 352.41942 
L 1041.360079 352.000762 
L 1041.541042 351.872563 
L 1041.737818 351.778137 
L 1042.143669 351.593038 
L 1042.293008 351.536091 
L 1043.053758 351.200593 
L 1043.262832 351.097715 
L 1043.744231 350.97843 
L 1043.930465 350.899657 
L 1046.390165 349.733657 
L 1046.901432 349.433439 
L 1047.219436 349.281633 
L 1048.415904 348.786462 
L 1048.751477 348.663107 
L 1048.94474 348.594017 
L 1049.375187 348.482846 
L 1049.798607 348.359761 
L 1052.674699 347.055899 
L 1052.892558 346.914104 
L 1053.895764 346.155956 
L 1054.129436 345.947174 
L 1054.248907 345.784829 
L 1054.786527 344.923315 
L 1054.974519 344.666326 
L 1055.062365 344.556322 
L 1055.357529 344.245385 
L 1055.534979 344.115261 
L 1055.694859 343.963104 
L 1056.000565 343.736602 
L 1056.267618 343.608458 
L 1056.597921 342.977727 
L 1056.826321 342.651187 
L 1057.000257 342.515809 
L 1057.2392 341.961691 
L 1057.407865 341.741707 
L 1057.451788 341.635296 
L 1057.696001 341.030225 
L 1057.78209 340.770691 
L 1058.077254 340.054647 
L 1058.293357 339.739803 
L 1058.630687 339.103716 
L 1059.913245 337.899881 
L 1060.076639 337.788231 
L 1060.382345 337.653304 
L 1061.418933 337.139503 
L 1061.865193 336.044003 
L 1062.480118 335.570226 
L 1062.849073 335.504486 
L 1063.254923 335.356003 
L 1063.530761 335.188943 
L 1063.764432 335.123183 
L 1064.073652 335.049061 
L 1064.53221 334.923374 
L 1064.757097 334.638349 
L 1064.943331 334.182779 
L 1065.052261 334.062028 
L 1065.726922 332.694631 
L 1065.835851 332.542728 
L 1066.227646 332.003306 
L 1066.329548 331.878891 
L 1066.535109 331.686365 
L 1066.724857 331.429833 
L 1066.886495 331.298586 
L 1067.007723 331.17948 
L 1067.520746 330.769179 
L 1067.689411 330.647401 
L 1068.225274 330.091521 
L 1068.564361 328.756657 
L 1068.646937 328.534798 
L 1068.901692 327.992673 
L 1069.579866 327.057503 
L 1069.745017 326.931539 
L 1069.876787 326.864856 
L 1070.019098 326.745121 
L 1070.265068 326.447026 
L 1072.44366 324.793307 
L 1072.770448 324.463884 
L 1072.984794 324.322994 
L 1073.193868 324.198988 
L 1073.290499 324.081633 
L 1073.531199 323.863579 
L 1073.687565 323.696942 
L 1073.865015 323.617318 
L 1074.37101 323.333562 
L 1074.551974 323.192693 
L 1074.750507 323.077461 
L 1075.082567 322.700207 
L 1075.64127 322.289956 
L 1076.630421 321.582618 
L 1076.981806 321.44185 
L 1077.493073 321.250066 
L 1077.872569 321.139923 
L 1078.018394 321.057174 
L 1078.601695 320.806137 
L 1078.74752 320.753138 
L 1079.148099 320.610694 
L 1079.590845 320.216528 
L 1079.789378 320.000514 
L 1079.961557 319.867868 
L 1080.123195 319.76426 
L 1080.441199 319.584436 
L 1081.017471 319.380014 
L 1081.219518 319.290387 
L 1081.713215 319.077852 
L 1081.857283 319.0048 
L 1082.380848 318.85354 
L 1082.635603 318.795011 
L 1082.909683 318.668988 
L 1083.231201 318.533832 
L 1083.990195 318.294027 
L 1085.18842 317.734715 
L 1085.337759 317.682251 
L 1085.729554 317.42736 
L 1085.956198 317.247187 
L 1086.671268 316.756608 
L 1086.904939 316.642478 
L 1087.885305 315.849088 
L 1088.064512 315.71512 
L 1088.308725 315.517391 
L 1088.549424 315.404009 
L 1091.903401 313.121206 
L 1092.45859 312.894798 
L 1092.651853 312.795066 
L 1092.864441 312.68271 
L 1093.238667 312.475701 
L 1093.605865 312.352522 
L 1093.802641 312.222718 
L 1094.255928 311.815865 
L 1095.397932 310.992933 
L 1095.910955 310.589618 
L 1096.058537 310.508795 
L 1096.300993 310.391113 
L 1096.54345 309.969111 
L 1096.618997 309.856372 
L 1096.826315 309.57338 
L 1097.189999 309.327721 
L 1097.420157 309.004096 
L 1097.57828 308.840433 
L 1097.966562 308.486614 
L 1098.105359 308.164185 
L 1098.351329 307.509494 
L 1098.709742 307.0812 
L 1098.836241 306.969508 
L 1098.999636 306.906849 
L 1099.242092 306.784583 
L 1099.412514 306.460517 
L 1099.554825 306.332402 
L 1100.076633 305.807962 
L 1100.350714 305.654122 
L 1100.480727 305.598535 
L 1100.626552 305.550412 
L 1101.181741 305.425027 
L 1101.497988 305.284358 
L 1102.18319 305.017439 
L 1102.399293 304.487877 
L 1102.956239 303.859766 
L 1103.133689 303.723041 
L 1103.240861 303.517229 
L 1103.778482 301.375906 
L 1103.811863 301.238633 
L 1103.969987 300.410323 
L 1104.245825 299.247612 
L 1104.309074 299.126566 
L 1104.525176 298.550404 
L 1104.832639 297.885297 
L 1105.017116 297.620322 
L 1105.169969 297.413077 
L 1105.24376 297.279871 
L 1105.407154 296.940285 
L 1106.102898 295.697628 
L 1106.34184 295.308165 
L 1106.782829 293.116433 
L 1107.237874 291.413679 
L 1107.452219 290.650284 
L 1107.550607 290.451457 
L 1107.768466 289.658112 
L 1107.905507 289.422198 
L 1109.920704 281.581378 
L 1109.987467 281.478268 
L 1110.446026 279.447024 
L 1111.581001 275.544791 
L 1112.072942 274.390694 
L 1112.33121 273.791262 
L 1112.654485 273.005569 
L 1112.705436 272.895518 
L 1113.814058 270.089972 
L 1113.951098 269.518663 
L 1114.102194 269.215732 
L 1114.151388 269.104122 
L 1114.462364 268.519577 
L 1114.775098 268.118434 
L 1114.864701 267.998515 
L 1115.056206 267.354719 
L 1115.126483 267.24281 
L 1115.818713 265.174034 
L 1116.099822 264.239783 
L 1116.37566 263.516133 
L 1116.725288 262.485216 
L 1117.294533 261.023391 
L 1117.415761 260.74216 
L 1118.190567 258.777488 
L 1118.259087 258.668553 
L 1118.487488 258.075934 
L 1118.608716 257.869053 
L 1119.074302 256.864292 
L 1120.045884 254.795683 
L 1120.105619 254.674816 
L 1121.017465 253.413972 
L 1121.493593 252.984631 
L 1121.711452 252.548014 
L 1121.801055 252.417525 
L 1121.957422 252.129792 
L 1122.089192 252.032839 
L 1122.358002 251.915315 
L 1122.676006 251.615975 
L 1123.022121 250.865838 
L 1123.41743 250.300107 
L 1123.545685 250.064515 
L 1123.818009 249.566223 
L 1123.898828 249.463515 
L 1124.220346 248.388543 
L 1124.290623 248.115917 
L 1124.478614 247.746274 
L 1124.543621 247.638787 
L 1124.800132 246.861602 
L 1125.420328 245.925937 
L 1125.599535 245.711237 
L 1127.240506 242.917572 
L 1127.379304 242.770501 
L 1127.706092 242.318314 
L 1128.479141 241.717511 
L 1128.769034 241.296844 
L 1129.136232 240.712585 
L 1129.34355 240.565728 
L 1130.88789 239.801673 
L 1131.023174 239.714719 
L 1131.20238 239.603503 
L 1131.747028 239.349896 
L 1132.084358 239.109171 
L 1132.263565 238.93006 
L 1132.448043 238.764145 
L 1132.876733 238.297804 
L 1134.586225 237.171308 
L 1135.218719 236.574355 
L 1136.172731 236.11101 
L 1136.318556 236.004904 
L 1136.703324 235.853197 
L 1137.079306 235.667216 
L 1137.253242 235.548227 
L 1137.769779 235.321165 
L 1138.33024 235.031619 
L 1138.830964 234.412475 
L 1138.915297 234.285092 
L 1139.108559 234.121244 
L 1139.618068 233.789829 
L 1139.857011 233.62288 
L 1140.07487 233.483915 
L 1140.289215 233.322157 
L 1140.983202 233.031445 
L 1141.313504 232.89848 
L 1141.566502 232.786587 
L 1141.729896 232.693351 
L 1142.752429 232.227066 
L 1143.035294 232.098822 
L 1143.38668 231.966631 
L 1143.804829 231.852134 
L 1144.020931 231.781717 
L 1144.375831 231.621668 
L 1144.688564 231.425253 
L 1145.101442 231.234558 
L 1145.366739 231.121349 
L 1145.621493 231.032538 
L 1146.080052 230.920451 
L 1146.793365 230.775148 
L 1147.566413 230.656071 
L 1148.258643 230.42296 
L 1148.662737 230.221479 
L 1149.182788 229.951819 
L 1149.486736 229.836516 
L 1149.790685 229.520176 
L 1150.047197 229.290382 
L 1150.58306 229.030666 
L 1151.024049 228.803396 
L 1151.865618 227.963908 
L 1151.981575 227.851584 
L 1152.222274 227.64926 
L 1152.540278 227.333168 
L 1152.889907 226.95857 
L 1153.053301 226.822499 
L 1153.401173 226.578341 
L 1153.673497 226.460546 
L 1154.585343 226.140963 
L 1154.697787 226.030033 
L 1155.022818 225.811565 
L 1155.330281 225.694868 
L 1162.565313 223.447292 
L 1162.802498 223.354028 
L 1164.415359 222.774774 
L 1164.691196 222.62615 
L 1164.996902 222.483909 
L 1165.351802 222.368209 
L 1165.726027 222.121137 
L 1167.233472 221.429612 
L 1167.521608 221.31386 
L 1168.261275 221.051757 
L 1168.756729 220.486369 
L 1169.169608 219.996367 
L 1169.264482 219.876519 
L 1170.90721 218.511008 
L 1171.086417 218.400016 
L 1171.381581 218.008961 
L 1171.476455 217.857046 
L 1171.71364 217.579298 
L 1171.859465 217.442938 
L 1172.145845 217.197259 
L 1172.593861 216.904232 
L 1172.925921 216.51721 
L 1173.085801 216.345358 
L 1173.28082 216.169567 
L 1173.421375 216.05827 
L 1173.941426 215.569879 
L 1174.366602 215.034353 
L 1175.222227 214.111253 
L 1175.419003 213.893899 
L 1176.023386 213.541049 
L 1176.165697 213.353228 
L 1176.40464 213.064112 
L 1176.550465 212.877028 
L 1177.061731 212.188903 
L 1178.941644 210.496534 
L 1180.210147 209.871226 
L 1181.355664 209.201012 
L 1181.578794 208.967804 
L 1181.735161 208.856858 
L 1182.074248 208.648885 
L 1183.161787 207.99641 
L 1183.407757 207.902951 
L 1183.971731 207.672751 
L 1187.735072 206.300657 
L 1188.436087 206.137563 
L 1188.666244 205.925758 
L 1189.012359 205.707238 
L 1189.300496 205.517756 
L 1189.527139 205.307749 
L 1192.935581 203.72121 
L 1193.272911 203.597728 
L 1193.922975 203.118543 
L 1194.179486 203.006279 
L 1194.611691 202.777112 
L 1195.611383 202.305767 
L 1195.917089 202.143569 
L 1196.430112 201.941245 
L 1196.626888 201.871341 
L 1196.980031 201.751726 
L 1198.048243 201.366321 
L 1198.4049 201.163567 
L 1198.69655 201.053293 
L 1198.954818 200.948877 
L 1199.520549 200.762627 
L 1200.321709 200.280179 
L 1200.673094 199.86018 
L 1200.769726 199.747774 
L 1201.080702 199.516784 
L 1201.203687 199.405235 
L 1202.319337 198.539428 
L 1202.67775 198.356695 
L 1203.312001 197.598016 
L 1203.459583 197.425592 
L 1203.645818 197.22464 
L 1204.090321 196.718638 
L 1204.179924 196.581621 
L 1204.408325 196.207032 
L 1205.297331 195.269091 
L 1205.490593 195.034726 
L 1206.012401 194.741978 
L 1206.685304 194.434815 
L 1207.15089 194.019914 
L 1207.449568 193.666958 
L 1207.70608 193.531325 
L 1208.387768 193.237558 
L 1208.661849 193.108903 
L 1209.213524 192.909205 
L 1209.563153 192.794896 
L 1210.151724 192.616436 
L 1210.557575 192.463564 
L 1210.965182 192.168297 
L 1211.096952 192.052208 
L 1211.272645 191.970534 
L 1212.035152 191.794029 
L 1212.730896 191.484143 
L 1213.154315 191.190901 
L 1213.372174 191.066966 
L 1213.577735 190.979753 
L 1213.781539 190.822833 
L 1214.066161 190.560641 
L 1214.867321 190.019923 
L 1215.383858 189.491654 
L 1215.80025 189.190534 
L 1216.135823 188.998286 
L 1216.46964 188.878533 
L 1216.896573 188.562968 
L 1217.149571 188.375731 
L 1217.369187 188.192733 
L 1217.557178 188.053545 
L 1217.940189 187.739461 
L 1219.19815 186.796125 
L 1219.737527 186.52606 
L 1220.229467 186.316626 
L 1220.608963 186.160661 
L 1221.009543 185.96544 
L 1221.438234 185.799945 
L 1221.954771 185.511976 
L 1223.521951 184.792674 
L 1223.868066 184.529981 
L 1224.099981 184.365597 
L 1225.835826 183.197701 
L 1228.432567 182.593624 
L 1228.771654 182.51182 
L 1229.75202 182.177069 
L 1230.06651 181.900433 
L 1230.82726 181.311865 
L 1231.024036 181.062835 
L 1231.241895 180.728557 
L 1231.573955 180.14122 
L 1231.805869 179.778813 
L 1231.907771 179.66646 
L 1232.192394 179.15645 
L 1232.299566 179.034779 
L 1232.851242 178.521496 
L 1234.255028 176.35235 
L 1234.409638 176.215407 
L 1234.618712 176.110241 
L 1235.572724 175.401687 
L 1235.836264 175.14509 
L 1236.10156 174.985585 
L 1236.338745 174.740814 
L 1236.890421 174.067212 
L 1237.057329 173.895597 
L 1237.275188 173.704487 
L 1237.477235 173.593863 
L 1237.707393 173.280833 
L 1237.984987 173.147881 
L 1238.496254 172.943462 
L 1239.525814 172.287901 
L 1239.85963 171.839372 
L 1240.107357 171.662763 
L 1240.792559 170.848749 
L 1240.996363 170.606839 
L 1241.08948 170.49026 
L 1241.31261 170.179492 
L 1242.134853 169.572309 
L 1242.29649 169.457458 
L 1242.61098 169.236753 
L 1243.329564 168.892331 
L 1243.942732 168.286579 
L 1244.139508 168.114079 
L 1244.408318 167.880823 
L 1244.663073 167.737532 
L 1244.970536 167.584654 
L 1245.241103 167.431924 
L 1245.272727 167.4 
L 1245.272727 167.4 
" clip-path="url(#pface4bb7eb)" style="fill: none; stroke: #ff0000; stroke-width: 1.5; stroke-linecap: square"/>
   </g>
   <g id="patch_3">
    <path d="M 180 961.2 
L 180 129.6 
" style="fill: none; stroke: #000000; stroke-width: 0.8; stroke-linejoin: miter; stroke-linecap: square"/>
   </g>
   <g id="patch_4">
    <path d="M 1296 961.2 
L 1296 129.6 
" style="fill: none; stroke: #000000; stroke-width: 0.8; stroke-linejoin: miter; stroke-linecap: square"/>
   </g>
   <g id="patch_5">
    <path d="M 180 961.2 
L 1296 961.2 
" style="fill: none; stroke: #000000; stroke-width: 0.8; stroke-linejoin: miter; stroke-linecap: square"/>
   </g>
   <g id="patch_6">
    <path d="M 180 129.6 
L 1296 129.6 
" style="fill: none; stroke: #000000; stroke-width: 0.8; stroke-linejoin: miter; stroke-linecap: square"/>
   </g>
   <g id="legend_1">
    <g id="patch_7">
     <path d="M 1131.645313 152.278125 
L 1289 152.278125 
Q 1291 152.278125 1291 150.278125 
L 1291 136.6 
Q 1291 134.6 1289 134.6 
L 1131.645313 134.6 
Q 1129.645313 134.6 1129.645313 136.6 
L 1129.645313 150.278125 
Q 1129.645313 152.278125 1131.645313 152.278125 
z
" style="fill: #ffffff; opacity: 0.8; stroke: #cccccc; stroke-linejoin: miter"/>
    </g>
    <g id="line2d_15">
     <path d="M 1133.645313 142.698438 
L 1143.645313 142.698438 
L 1153.645313 142.698438 
" style="fill: none; stroke: #ff0000; stroke-width: 1.5; stroke-linecap: square"/>
    </g>
    <g id="text_13">
     <!-- Board Time U4 (minutes) -->
     <g transform="translate(1161.645313 146.198438) scale(0.1 -0.1)">
      <defs>
       <path id="DejaVuSans-42" d="M 1259 2228 
L 1259 519 
L 2272 519 
Q 2781 519 3026 730 
Q 3272 941 3272 1375 
Q 3272 1813 3026 2020 
Q 2781 2228 2272 2228 
L 1259 2228 
z
M 1259 4147 
L 1259 2741 
L 2194 2741 
Q 2656 2741 2882 2914 
Q 3109 3088 3109 3444 
Q 3109 3797 2882 3972 
Q 2656 4147 2194 4147 
L 1259 4147 
z
M 628 4666 
L 2241 4666 
Q 2963 4666 3353 4366 
Q 3744 4066 3744 3513 
Q 3744 3084 3544 2831 
Q 3344 2578 2956 2516 
Q 3422 2416 3680 2098 
Q 3938 1781 3938 1306 
Q 3938 681 3513 340 
Q 3088 0 2303 0 
L 628 0 
L 628 4666 
z
" transform="scale(0.015625)"/>
       <path id="DejaVuSans-6f" d="M 1959 3097 
Q 1497 3097 1228 2736 
Q 959 2375 959 1747 
Q 959 1119 1226 758 
Q 1494 397 1959 397 
Q 2419 397 2687 759 
Q 2956 1122 2956 1747 
Q 2956 2369 2687 2733 
Q 2419 3097 1959 3097 
z
M 1959 3584 
Q 2709 3584 3137 3096 
Q 3566 2609 3566 1747 
Q 3566 888 3137 398 
Q 2709 -91 1959 -91 
Q 1206 -91 779 398 
Q 353 888 353 1747 
Q 353 2609 779 3096 
Q 1206 3584 1959 3584 
z
" transform="scale(0.015625)"/>
       <path id="DejaVuSans-61" d="M 2194 1759 
Q 1497 1759 1228 1600 
Q 959 1441 959 1056 
Q 959 750 1161 570 
Q 1363 391 1709 391 
Q 2188 391 2477 730 
Q 2766 1069 2766 1631 
L 2766 1759 
L 2194 1759 
z
M 3341 1997 
L 3341 0 
L 2766 0 
L 2766 531 
Q 2569 213 2275 61 
Q 1981 -91 1556 -91 
Q 1019 -91 701 211 
Q 384 513 384 1019 
Q 384 1609 779 1909 
Q 1175 2209 1959 2209 
L 2766 2209 
L 2766 2266 
Q 2766 2663 2505 2880 
Q 2244 3097 1772 3097 
Q 1472 3097 1187 3025 
Q 903 2953 641 2809 
L 641 3341 
Q 956 3463 1253 3523 
Q 1550 3584 1831 3584 
Q 2591 3584 2966 3190 
Q 3341 2797 3341 1997 
z
" transform="scale(0.015625)"/>
       <path id="DejaVuSans-72" d="M 2631 2963 
Q 2534 3019 2420 3045 
Q 2306 3072 2169 3072 
Q 1681 3072 1420 2755 
Q 1159 2438 1159 1844 
L 1159 0 
L 581 0 
L 581 3500 
L 1159 3500 
L 1159 2956 
Q 1341 3275 1631 3429 
Q 1922 3584 2338 3584 
Q 2397 3584 2469 3576 
Q 2541 3569 2628 3553 
L 2631 2963 
z
" transform="scale(0.015625)"/>
       <path id="DejaVuSans-64" d="M 2906 2969 
L 2906 4863 
L 3481 4863 
L 3481 0 
L 2906 0 
L 2906 525 
Q 2725 213 2448 61 
Q 2172 -91 1784 -91 
Q 1150 -91 751 415 
Q 353 922 353 1747 
Q 353 2572 751 3078 
Q 1150 3584 1784 3584 
Q 2172 3584 2448 3432 
Q 2725 3281 2906 2969 
z
M 947 1747 
Q 947 1113 1208 752 
Q 1469 391 1925 391 
Q 2381 391 2643 752 
Q 2906 1113 2906 1747 
Q 2906 2381 2643 2742 
Q 2381 3103 1925 3103 
Q 1469 3103 1208 2742 
Q 947 2381 947 1747 
z
" transform="scale(0.015625)"/>
       <path id="DejaVuSans-20" transform="scale(0.015625)"/>
       <path id="DejaVuSans-54" d="M -19 4666 
L 3928 4666 
L 3928 4134 
L 2272 4134 
L 2272 0 
L 1638 0 
L 1638 4134 
L -19 4134 
L -19 4666 
z
" transform="scale(0.015625)"/>
       <path id="DejaVuSans-69" d="M 603 3500 
L 1178 3500 
L 1178 0 
L 603 0 
L 603 3500 
z
M 603 4863 
L 1178 4863 
L 1178 4134 
L 603 4134 
L 603 4863 
z
" transform="scale(0.015625)"/>
       <path id="DejaVuSans-6d" d="M 3328 2828 
Q 3544 3216 3844 3400 
Q 4144 3584 4550 3584 
Q 5097 3584 5394 3201 
Q 5691 2819 5691 2113 
L 5691 0 
L 5113 0 
L 5113 2094 
Q 5113 2597 4934 2840 
Q 4756 3084 4391 3084 
Q 3944 3084 3684 2787 
Q 3425 2491 3425 1978 
L 3425 0 
L 2847 0 
L 2847 2094 
Q 2847 2600 2669 2842 
Q 2491 3084 2119 3084 
Q 1678 3084 1418 2786 
Q 1159 2488 1159 1978 
L 1159 0 
L 581 0 
L 581 3500 
L 1159 3500 
L 1159 2956 
Q 1356 3278 1631 3431 
Q 1906 3584 2284 3584 
Q 2666 3584 2933 3390 
Q 3200 3197 3328 2828 
z
" transform="scale(0.015625)"/>
       <path id="DejaVuSans-65" d="M 3597 1894 
L 3597 1613 
L 953 1613 
Q 991 1019 1311 708 
Q 1631 397 2203 397 
Q 2534 397 2845 478 
Q 3156 559 3463 722 
L 3463 178 
Q 3153 47 2828 -22 
Q 2503 -91 2169 -91 
Q 1331 -91 842 396 
Q 353 884 353 1716 
Q 353 2575 817 3079 
Q 1281 3584 2069 3584 
Q 2775 3584 3186 3129 
Q 3597 2675 3597 1894 
z
M 3022 2063 
Q 3016 2534 2758 2815 
Q 2500 3097 2075 3097 
Q 1594 3097 1305 2825 
Q 1016 2553 972 2059 
L 3022 2063 
z
" transform="scale(0.015625)"/>
       <path id="DejaVuSans-55" d="M 556 4666 
L 1191 4666 
L 1191 1831 
Q 1191 1081 1462 751 
Q 1734 422 2344 422 
Q 2950 422 3222 751 
Q 3494 1081 3494 1831 
L 3494 4666 
L 4128 4666 
L 4128 1753 
Q 4128 841 3676 375 
Q 3225 -91 2344 -91 
Q 1459 -91 1007 375 
Q 556 841 556 1753 
L 556 4666 
z
" transform="scale(0.015625)"/>
       <path id="DejaVuSans-28" d="M 1984 4856 
Q 1566 4138 1362 3434 
Q 1159 2731 1159 2009 
Q 1159 1288 1364 580 
Q 1569 -128 1984 -844 
L 1484 -844 
Q 1016 -109 783 600 
Q 550 1309 550 2009 
Q 550 2706 781 3412 
Q 1013 4119 1484 4856 
L 1984 4856 
z
" transform="scale(0.015625)"/>
       <path id="DejaVuSans-6e" d="M 3513 2113 
L 3513 0 
L 2938 0 
L 2938 2094 
Q 2938 2591 2744 2837 
Q 2550 3084 2163 3084 
Q 1697 3084 1428 2787 
Q 1159 2491 1159 1978 
L 1159 0 
L 581 0 
L 581 3500 
L 1159 3500 
L 1159 2956 
Q 1366 3272 1645 3428 
Q 1925 3584 2291 3584 
Q 2894 3584 3203 3211 
Q 3513 2838 3513 2113 
z
" transform="scale(0.015625)"/>
       <path id="DejaVuSans-75" d="M 544 1381 
L 544 3500 
L 1119 3500 
L 1119 1403 
Q 1119 906 1312 657 
Q 1506 409 1894 409 
Q 2359 409 2629 706 
Q 2900 1003 2900 1516 
L 2900 3500 
L 3475 3500 
L 3475 0 
L 2900 0 
L 2900 538 
Q 2691 219 2414 64 
Q 2138 -91 1772 -91 
Q 1169 -91 856 284 
Q 544 659 544 1381 
z
M 1991 3584 
L 1991 3584 
z
" transform="scale(0.015625)"/>
       <path id="DejaVuSans-74" d="M 1172 4494 
L 1172 3500 
L 2356 3500 
L 2356 3053 
L 1172 3053 
L 1172 1153 
Q 1172 725 1289 603 
Q 1406 481 1766 481 
L 2356 481 
L 2356 0 
L 1766 0 
Q 1100 0 847 248 
Q 594 497 594 1153 
L 594 3053 
L 172 3053 
L 172 3500 
L 594 3500 
L 594 4494 
L 1172 4494 
z
" transform="scale(0.015625)"/>
       <path id="DejaVuSans-73" d="M 2834 3397 
L 2834 2853 
Q 2591 2978 2328 3040 
Q 2066 3103 1784 3103 
Q 1356 3103 1142 2972 
Q 928 2841 928 2578 
Q 928 2378 1081 2264 
Q 1234 2150 1697 2047 
L 1894 2003 
Q 2506 1872 2764 1633 
Q 3022 1394 3022 966 
Q 3022 478 2636 193 
Q 2250 -91 1575 -91 
Q 1294 -91 989 -36 
Q 684 19 347 128 
L 347 722 
Q 666 556 975 473 
Q 1284 391 1588 391 
Q 1994 391 2212 530 
Q 2431 669 2431 922 
Q 2431 1156 2273 1281 
Q 2116 1406 1581 1522 
L 1381 1569 
Q 847 1681 609 1914 
Q 372 2147 372 2553 
Q 372 3047 722 3315 
Q 1072 3584 1716 3584 
Q 2034 3584 2315 3537 
Q 2597 3491 2834 3397 
z
" transform="scale(0.015625)"/>
       <path id="DejaVuSans-29" d="M 513 4856 
L 1013 4856 
Q 1481 4119 1714 3412 
Q 1947 2706 1947 2009 
Q 1947 1309 1714 600 
Q 1481 -109 1013 -844 
L 513 -844 
Q 928 -128 1133 580 
Q 1338 1288 1338 2009 
Q 1338 2731 1133 3434 
Q 928 4138 513 4856 
z
" transform="scale(0.015625)"/>
      </defs>
      <use xlink:href="#DejaVuSans-42"/>
      <use xlink:href="#DejaVuSans-6f" transform="translate(68.603516 0)"/>
      <use xlink:href="#DejaVuSans-61" transform="translate(129.785156 0)"/>
      <use xlink:href="#DejaVuSans-72" transform="translate(191.064453 0)"/>
      <use xlink:href="#DejaVuSans-64" transform="translate(230.427734 0)"/>
      <use xlink:href="#DejaVuSans-20" transform="translate(293.904297 0)"/>
      <use xlink:href="#DejaVuSans-54" transform="translate(325.691406 0)"/>
      <use xlink:href="#DejaVuSans-69" transform="translate(383.650391 0)"/>
      <use xlink:href="#DejaVuSans-6d" transform="translate(411.433594 0)"/>
      <use xlink:href="#DejaVuSans-65" transform="translate(508.845703 0)"/>
      <use xlink:href="#DejaVuSans-20" transform="translate(570.369141 0)"/>
      <use xlink:href="#DejaVuSans-55" transform="translate(602.15625 0)"/>
      <use xlink:href="#DejaVuSans-34" transform="translate(675.349609 0)"/>
      <use xlink:href="#DejaVuSans-20" transform="translate(738.972656 0)"/>
      <use xlink:href="#DejaVuSans-28" transform="translate(770.759766 0)"/>
      <use xlink:href="#DejaVuSans-6d" transform="translate(809.773438 0)"/>
      <use xlink:href="#DejaVuSans-69" transform="translate(907.185547 0)"/>
      <use xlink:href="#DejaVuSans-6e" transform="translate(934.96875 0)"/>
      <use xlink:href="#DejaVuSans-75" transform="translate(998.347656 0)"/>
      <use xlink:href="#DejaVuSans-74" transform="translate(1061.726562 0)"/>
      <use xlink:href="#DejaVuSans-65" transform="translate(1100.935547 0)"/>
      <use xlink:href="#DejaVuSans-73" transform="translate(1162.458984 0)"/>
      <use xlink:href="#DejaVuSans-29" transform="translate(1214.558594 0)"/>
     </g>
    </g>
   </g>
  </g>
 </g>
 <defs>
  <clipPath id="pface4bb7eb">
   <rect x="180" y="129.6" width="1116" height="831.6"/>
  </clipPath>
 </defs>
</svg>
