<?xml version="1.0" encoding="utf-8" standalone="no"?>
<!DOCTYPE svg PUBLIC "-//W3C//DTD SVG 1.1//EN"
  "http://www.w3.org/Graphics/SVG/1.1/DTD/svg11.dtd">
<svg xmlns:xlink="http://www.w3.org/1999/xlink" width="1440pt" height="1080pt" viewBox="0 0 1440 1080" xmlns="http://www.w3.org/2000/svg" version="1.1">
 <metadata>
  <rdf:RDF xmlns:dc="http://purl.org/dc/elements/1.1/" xmlns:cc="http://creativecommons.org/ns#" xmlns:rdf="http://www.w3.org/1999/02/22-rdf-syntax-ns#">
   <cc:Work>
    <dc:type rdf:resource="http://purl.org/dc/dcmitype/StillImage"/>
    <dc:date>2025-07-14T18:08:07.893181</dc:date>
    <dc:format>image/svg+xml</dc:format>
    <dc:creator>
     <cc:Agent>
      <dc:title>Matplotlib v3.10.3, https://matplotlib.org/</dc:title>
     </cc:Agent>
    </dc:creator>
   </cc:Work>
  </rdf:RDF>
 </metadata>
 <defs>
  <style type="text/css">*{stroke-linejoin: round; stroke-linecap: butt}</style>
 </defs>
 <g id="figure_1">
  <g id="patch_1">
   <path d="M 0 1080 
L 1440 1080 
L 1440 0 
L 0 0 
z
" style="fill: #ffffff"/>
  </g>
  <g id="axes_1">
   <g id="patch_2">
    <path d="M 180 961.2 
L 1296 961.2 
L 1296 129.6 
L 180 129.6 
z
" style="fill: #ffffff"/>
   </g>
   <g id="matplotlib.axis_1">
    <g id="xtick_1">
     <g id="line2d_1">
      <defs>
       <path id="m9a2c073d5c" d="M 0 0 
L 0 3.5 
" style="stroke: #000000; stroke-width: 0.8"/>
      </defs>
      <g>
       <use xlink:href="#m9a2c073d5c" x="230.727273" y="961.2" style="stroke: #000000; stroke-width: 0.8"/>
      </g>
     </g>
     <g id="text_1">
      <!-- 0.0 -->
      <g transform="translate(222.77571 975.798437) scale(0.1 -0.1)">
       <defs>
        <path id="DejaVuSans-30" d="M 2034 4250 
Q 1547 4250 1301 3770 
Q 1056 3291 1056 2328 
Q 1056 1369 1301 889 
Q 1547 409 2034 409 
Q 2525 409 2770 889 
Q 3016 1369 3016 2328 
Q 3016 3291 2770 3770 
Q 2525 4250 2034 4250 
z
M 2034 4750 
Q 2819 4750 3233 4129 
Q 3647 3509 3647 2328 
Q 3647 1150 3233 529 
Q 2819 -91 2034 -91 
Q 1250 -91 836 529 
Q 422 1150 422 2328 
Q 422 3509 836 4129 
Q 1250 4750 2034 4750 
z
" transform="scale(0.015625)"/>
        <path id="DejaVuSans-2e" d="M 684 794 
L 1344 794 
L 1344 0 
L 684 0 
L 684 794 
z
" transform="scale(0.015625)"/>
       </defs>
       <use xlink:href="#DejaVuSans-30"/>
       <use xlink:href="#DejaVuSans-2e" transform="translate(63.623047 0)"/>
       <use xlink:href="#DejaVuSans-30" transform="translate(95.410156 0)"/>
      </g>
     </g>
    </g>
    <g id="xtick_2">
     <g id="line2d_2">
      <g>
       <use xlink:href="#m9a2c073d5c" x="433.636428" y="961.2" style="stroke: #000000; stroke-width: 0.8"/>
      </g>
     </g>
     <g id="text_2">
      <!-- 0.2 -->
      <g transform="translate(425.684866 975.798437) scale(0.1 -0.1)">
       <defs>
        <path id="DejaVuSans-32" d="M 1228 531 
L 3431 531 
L 3431 0 
L 469 0 
L 469 531 
Q 828 903 1448 1529 
Q 2069 2156 2228 2338 
Q 2531 2678 2651 2914 
Q 2772 3150 2772 3378 
Q 2772 3750 2511 3984 
Q 2250 4219 1831 4219 
Q 1534 4219 1204 4116 
Q 875 4013 500 3803 
L 500 4441 
Q 881 4594 1212 4672 
Q 1544 4750 1819 4750 
Q 2544 4750 2975 4387 
Q 3406 4025 3406 3419 
Q 3406 3131 3298 2873 
Q 3191 2616 2906 2266 
Q 2828 2175 2409 1742 
Q 1991 1309 1228 531 
z
" transform="scale(0.015625)"/>
       </defs>
       <use xlink:href="#DejaVuSans-30"/>
       <use xlink:href="#DejaVuSans-2e" transform="translate(63.623047 0)"/>
       <use xlink:href="#DejaVuSans-32" transform="translate(95.410156 0)"/>
      </g>
     </g>
    </g>
    <g id="xtick_3">
     <g id="line2d_3">
      <g>
       <use xlink:href="#m9a2c073d5c" x="636.545584" y="961.2" style="stroke: #000000; stroke-width: 0.8"/>
      </g>
     </g>
     <g id="text_3">
      <!-- 0.4 -->
      <g transform="translate(628.594022 975.798437) scale(0.1 -0.1)">
       <defs>
        <path id="DejaVuSans-34" d="M 2419 4116 
L 825 1625 
L 2419 1625 
L 2419 4116 
z
M 2253 4666 
L 3047 4666 
L 3047 1625 
L 3713 1625 
L 3713 1100 
L 3047 1100 
L 3047 0 
L 2419 0 
L 2419 1100 
L 313 1100 
L 313 1709 
L 2253 4666 
z
" transform="scale(0.015625)"/>
       </defs>
       <use xlink:href="#DejaVuSans-30"/>
       <use xlink:href="#DejaVuSans-2e" transform="translate(63.623047 0)"/>
       <use xlink:href="#DejaVuSans-34" transform="translate(95.410156 0)"/>
      </g>
     </g>
    </g>
    <g id="xtick_4">
     <g id="line2d_4">
      <g>
       <use xlink:href="#m9a2c073d5c" x="839.45474" y="961.2" style="stroke: #000000; stroke-width: 0.8"/>
      </g>
     </g>
     <g id="text_4">
      <!-- 0.6 -->
      <g transform="translate(831.503177 975.798437) scale(0.1 -0.1)">
       <defs>
        <path id="DejaVuSans-36" d="M 2113 2584 
Q 1688 2584 1439 2293 
Q 1191 2003 1191 1497 
Q 1191 994 1439 701 
Q 1688 409 2113 409 
Q 2538 409 2786 701 
Q 3034 994 3034 1497 
Q 3034 2003 2786 2293 
Q 2538 2584 2113 2584 
z
M 3366 4563 
L 3366 3988 
Q 3128 4100 2886 4159 
Q 2644 4219 2406 4219 
Q 1781 4219 1451 3797 
Q 1122 3375 1075 2522 
Q 1259 2794 1537 2939 
Q 1816 3084 2150 3084 
Q 2853 3084 3261 2657 
Q 3669 2231 3669 1497 
Q 3669 778 3244 343 
Q 2819 -91 2113 -91 
Q 1303 -91 875 529 
Q 447 1150 447 2328 
Q 447 3434 972 4092 
Q 1497 4750 2381 4750 
Q 2619 4750 2861 4703 
Q 3103 4656 3366 4563 
z
" transform="scale(0.015625)"/>
       </defs>
       <use xlink:href="#DejaVuSans-30"/>
       <use xlink:href="#DejaVuSans-2e" transform="translate(63.623047 0)"/>
       <use xlink:href="#DejaVuSans-36" transform="translate(95.410156 0)"/>
      </g>
     </g>
    </g>
    <g id="xtick_5">
     <g id="line2d_5">
      <g>
       <use xlink:href="#m9a2c073d5c" x="1042.363895" y="961.2" style="stroke: #000000; stroke-width: 0.8"/>
      </g>
     </g>
     <g id="text_5">
      <!-- 0.8 -->
      <g transform="translate(1034.412333 975.798437) scale(0.1 -0.1)">
       <defs>
        <path id="DejaVuSans-38" d="M 2034 2216 
Q 1584 2216 1326 1975 
Q 1069 1734 1069 1313 
Q 1069 891 1326 650 
Q 1584 409 2034 409 
Q 2484 409 2743 651 
Q 3003 894 3003 1313 
Q 3003 1734 2745 1975 
Q 2488 2216 2034 2216 
z
M 1403 2484 
Q 997 2584 770 2862 
Q 544 3141 544 3541 
Q 544 4100 942 4425 
Q 1341 4750 2034 4750 
Q 2731 4750 3128 4425 
Q 3525 4100 3525 3541 
Q 3525 3141 3298 2862 
Q 3072 2584 2669 2484 
Q 3125 2378 3379 2068 
Q 3634 1759 3634 1313 
Q 3634 634 3220 271 
Q 2806 -91 2034 -91 
Q 1263 -91 848 271 
Q 434 634 434 1313 
Q 434 1759 690 2068 
Q 947 2378 1403 2484 
z
M 1172 3481 
Q 1172 3119 1398 2916 
Q 1625 2713 2034 2713 
Q 2441 2713 2670 2916 
Q 2900 3119 2900 3481 
Q 2900 3844 2670 4047 
Q 2441 4250 2034 4250 
Q 1625 4250 1398 4047 
Q 1172 3844 1172 3481 
z
" transform="scale(0.015625)"/>
       </defs>
       <use xlink:href="#DejaVuSans-30"/>
       <use xlink:href="#DejaVuSans-2e" transform="translate(63.623047 0)"/>
       <use xlink:href="#DejaVuSans-38" transform="translate(95.410156 0)"/>
      </g>
     </g>
    </g>
    <g id="xtick_6">
     <g id="line2d_6">
      <g>
       <use xlink:href="#m9a2c073d5c" x="1245.273051" y="961.2" style="stroke: #000000; stroke-width: 0.8"/>
      </g>
     </g>
     <g id="text_6">
      <!-- 1.0 -->
      <g transform="translate(1237.321489 975.798437) scale(0.1 -0.1)">
       <defs>
        <path id="DejaVuSans-31" d="M 794 531 
L 1825 531 
L 1825 4091 
L 703 3866 
L 703 4441 
L 1819 4666 
L 2450 4666 
L 2450 531 
L 3481 531 
L 3481 0 
L 794 0 
L 794 531 
z
" transform="scale(0.015625)"/>
       </defs>
       <use xlink:href="#DejaVuSans-31"/>
       <use xlink:href="#DejaVuSans-2e" transform="translate(63.623047 0)"/>
       <use xlink:href="#DejaVuSans-30" transform="translate(95.410156 0)"/>
      </g>
     </g>
    </g>
   </g>
   <g id="matplotlib.axis_2">
    <g id="ytick_1">
     <g id="line2d_7">
      <defs>
       <path id="mf7ae35f9f2" d="M 0 0 
L -3.5 0 
" style="stroke: #000000; stroke-width: 0.8"/>
      </defs>
      <g>
       <use xlink:href="#mf7ae35f9f2" x="180" y="923.4" style="stroke: #000000; stroke-width: 0.8"/>
      </g>
     </g>
     <g id="text_7">
      <!-- 0.0 -->
      <g transform="translate(157.096875 927.199219) scale(0.1 -0.1)">
       <use xlink:href="#DejaVuSans-30"/>
       <use xlink:href="#DejaVuSans-2e" transform="translate(63.623047 0)"/>
       <use xlink:href="#DejaVuSans-30" transform="translate(95.410156 0)"/>
      </g>
     </g>
    </g>
    <g id="ytick_2">
     <g id="line2d_8">
      <g>
       <use xlink:href="#mf7ae35f9f2" x="180" y="772.2" style="stroke: #000000; stroke-width: 0.8"/>
      </g>
     </g>
     <g id="text_8">
      <!-- 0.2 -->
      <g transform="translate(157.096875 775.999219) scale(0.1 -0.1)">
       <use xlink:href="#DejaVuSans-30"/>
       <use xlink:href="#DejaVuSans-2e" transform="translate(63.623047 0)"/>
       <use xlink:href="#DejaVuSans-32" transform="translate(95.410156 0)"/>
      </g>
     </g>
    </g>
    <g id="ytick_3">
     <g id="line2d_9">
      <g>
       <use xlink:href="#mf7ae35f9f2" x="180" y="621" style="stroke: #000000; stroke-width: 0.8"/>
      </g>
     </g>
     <g id="text_9">
      <!-- 0.4 -->
      <g transform="translate(157.096875 624.799219) scale(0.1 -0.1)">
       <use xlink:href="#DejaVuSans-30"/>
       <use xlink:href="#DejaVuSans-2e" transform="translate(63.623047 0)"/>
       <use xlink:href="#DejaVuSans-34" transform="translate(95.410156 0)"/>
      </g>
     </g>
    </g>
    <g id="ytick_4">
     <g id="line2d_10">
      <g>
       <use xlink:href="#mf7ae35f9f2" x="180" y="469.8" style="stroke: #000000; stroke-width: 0.8"/>
      </g>
     </g>
     <g id="text_10">
      <!-- 0.6 -->
      <g transform="translate(157.096875 473.599219) scale(0.1 -0.1)">
       <use xlink:href="#DejaVuSans-30"/>
       <use xlink:href="#DejaVuSans-2e" transform="translate(63.623047 0)"/>
       <use xlink:href="#DejaVuSans-36" transform="translate(95.410156 0)"/>
      </g>
     </g>
    </g>
    <g id="ytick_5">
     <g id="line2d_11">
      <g>
       <use xlink:href="#mf7ae35f9f2" x="180" y="318.6" style="stroke: #000000; stroke-width: 0.8"/>
      </g>
     </g>
     <g id="text_11">
      <!-- 0.8 -->
      <g transform="translate(157.096875 322.399219) scale(0.1 -0.1)">
       <use xlink:href="#DejaVuSans-30"/>
       <use xlink:href="#DejaVuSans-2e" transform="translate(63.623047 0)"/>
       <use xlink:href="#DejaVuSans-38" transform="translate(95.410156 0)"/>
      </g>
     </g>
    </g>
    <g id="ytick_6">
     <g id="line2d_12">
      <g>
       <use xlink:href="#mf7ae35f9f2" x="180" y="167.4" style="stroke: #000000; stroke-width: 0.8"/>
      </g>
     </g>
     <g id="text_12">
      <!-- 1.0 -->
      <g transform="translate(157.096875 171.199219) scale(0.1 -0.1)">
       <use xlink:href="#DejaVuSans-31"/>
       <use xlink:href="#DejaVuSans-2e" transform="translate(63.623047 0)"/>
       <use xlink:href="#DejaVuSans-30" transform="translate(95.410156 0)"/>
      </g>
     </g>
    </g>
   </g>
   <g id="line2d_13">
    <path d="M 180 961.199988 
L 1296 129.600253 
" clip-path="url(#pd8f88c7f11)" style="fill: none; stroke: #1f77b4; stroke-width: 1.5; stroke-linecap: square"/>
   </g>
   <g id="line2d_14">
    <path d="M 230.727273 923.399998 
L 231.335282 923.280553 
L 231.729613 923.149983 
L 234.438134 921.692585 
L 234.61199 921.615641 
L 235.445655 921.132917 
L 235.592639 921.038113 
L 235.816029 920.89403 
L 236.043628 920.663347 
L 236.210037 920.525546 
L 236.47163 920.346254 
L 236.711855 920.207207 
L 236.876645 920.108821 
L 237.050501 919.939428 
L 237.222738 919.743289 
L 237.388176 919.518139 
L 237.6025 919.186501 
L 237.696389 919.066466 
L 237.880281 918.844546 
L 238.042805 918.696985 
L 238.309902 918.454456 
L 241.77374 916.291845 
L 241.980942 916.178602 
L 245.746842 913.369859 
L 245.970231 912.844656 
L 246.562053 911.76197 
L 249.740664 907.91672 
L 250.028157 907.692832 
L 250.309822 907.389727 
L 251.295651 906.477669 
L 251.891358 906.074374 
L 252.050968 905.967955 
L 252.870064 905.511234 
L 253.061726 905.343103 
L 253.287059 905.131488 
L 253.446345 904.990075 
L 254.727438 904.11069 
L 254.988059 903.948549 
L 255.332209 903.765267 
L 255.637832 903.514103 
L 255.855071 903.278351 
L 256.136413 903.095756 
L 256.531068 902.812898 
L 261.072681 900.052324 
L 261.315172 899.89596 
L 261.649286 899.635515 
L 262.305534 899.199608 
L 262.721557 898.79456 
L 263.189381 898.399066 
L 263.416656 898.141738 
L 263.717747 897.945172 
L 263.889336 897.826705 
L 264.015276 897.713679 
L 264.176505 897.55931 
L 264.291114 897.446221 
L 264.455581 897.325151 
L 264.644329 897.181702 
L 264.982975 896.93697 
L 265.275648 896.821699 
L 267.276444 895.458788 
L 267.541598 895.273077 
L 267.73067 895.158899 
L 268.080971 894.985967 
L 268.402782 894.840472 
L 272.288795 892.317061 
L 272.496968 892.119108 
L 272.655607 891.952828 
L 272.820398 891.764471 
L 272.935978 891.651369 
L 273.073573 891.560186 
L 273.861589 891.014394 
L 273.995946 890.901555 
L 274.611078 890.397282 
L 275.223619 890.11066 
L 275.366071 890.047915 
L 275.667162 889.804446 
L 275.840693 889.667838 
L 276.516367 889.230518 
L 276.894187 888.97632 
L 278.030238 888.145425 
L 278.220281 887.981772 
L 278.398022 887.867093 
L 278.687781 887.72092 
L 278.899192 887.583806 
L 282.924095 885.060373 
L 283.152017 884.948946 
L 283.350154 884.785064 
L 283.661605 884.496329 
L 283.821215 884.3513 
L 284.010611 884.22342 
L 284.182524 884.101321 
L 284.737438 883.808594 
L 284.97054 883.573353 
L 286.031804 882.763383 
L 286.612294 882.245578 
L 286.799099 882.097518 
L 287.029612 881.958344 
L 287.210266 881.817595 
L 287.374733 881.703036 
L 288.441824 880.943022 
L 288.593988 880.868991 
L 288.950117 880.676571 
L 289.201997 880.508731 
L 289.359989 880.396626 
L 289.56881 880.242592 
L 289.684714 880.131235 
L 289.875404 879.956795 
L 290.136673 879.765539 
L 290.478881 879.612066 
L 291.583851 879.04286 
L 292.091173 878.881576 
L 293.038799 878.373161 
L 293.250534 878.238742 
L 293.45288 878.121527 
L 293.608605 877.946648 
L 295.258129 876.19512 
L 296.033518 875.698404 
L 296.239102 875.38685 
L 296.365042 875.275473 
L 296.585194 874.928327 
L 297.053018 874.716293 
L 297.231406 874.589864 
L 300.412931 872.588568 
L 300.586786 872.466505 
L 300.747044 872.341888 
L 300.916367 872.176925 
L 301.065941 872.043407 
L 301.270554 871.856549 
L 301.466424 871.725742 
L 301.72996 871.481659 
L 301.796329 871.35522 
L 301.960796 871.195786 
L 302.099039 871.064377 
L 302.304622 870.908692 
L 302.487219 870.74845 
L 302.779568 870.468905 
L 303.0117 870.280776 
L 303.282034 870.123563 
L 304.852885 869.17368 
L 305.437908 868.819437 
L 305.662269 868.673265 
L 306.15664 868.341355 
L 306.496258 868.094763 
L 306.671084 868.01534 
L 308.145781 867.178427 
L 308.327083 867.06899 
L 308.996282 866.694814 
L 309.17467 866.599284 
L 309.541806 866.376858 
L 309.80696 866.248623 
L 310.165355 866.053554 
L 310.407199 865.879636 
L 310.641273 865.695782 
L 311.123989 865.26036 
L 314.835822 862.819581 
L 315.072486 862.705932 
L 315.623514 862.274691 
L 316.049897 861.956075 
L 316.310195 861.791501 
L 316.527757 861.627776 
L 316.680245 861.510788 
L 316.842446 861.444936 
L 317.002704 861.331424 
L 317.717551 860.954485 
L 317.937056 860.76584 
L 318.079184 860.647994 
L 318.22811 860.547965 
L 318.405527 860.455632 
L 318.625356 860.301083 
L 318.805363 860.189106 
L 319.225595 859.996538 
L 319.672051 859.763431 
L 319.89285 859.622163 
L 320.363588 859.240038 
L 320.697378 858.903971 
L 321.088148 858.649589 
L 321.223153 858.528671 
L 321.73954 858.124456 
L 324.420218 856.445133 
L 324.746886 856.201643 
L 325.420293 855.653319 
L 325.813329 855.322576 
L 326.104384 855.194571 
L 326.279211 855.072979 
L 326.362415 854.953811 
L 326.884306 854.473535 
L 327.024491 854.362046 
L 329.175185 852.181228 
L 329.448433 852.046845 
L 329.67765 851.849259 
L 329.905896 851.613117 
L 330.292458 851.132581 
L 330.395735 851.018987 
L 330.46081 850.874023 
L 330.618478 850.720449 
L 331.310986 850.269563 
L 331.724743 850.118432 
L 332.032633 849.864553 
L 332.337932 849.581303 
L 332.594021 849.451207 
L 333.048895 849.091907 
L 333.246384 848.955537 
L 333.503444 848.697903 
L 333.604779 848.586642 
L 333.833025 848.312369 
L 334.668633 847.385041 
L 334.874216 847.177925 
L 335.186315 846.906032 
L 335.365998 846.794034 
L 335.600719 846.596 
L 335.844505 846.422313 
L 336.237542 846.198948 
L 336.546403 846.046831 
L 336.922604 845.906404 
L 337.162506 845.792197 
L 339.363058 844.575447 
L 339.581267 844.464433 
L 339.814694 844.241392 
L 339.997938 844.10648 
L 340.227155 843.985701 
L 340.612098 843.765515 
L 340.811207 843.650671 
L 341.000279 843.561929 
L 341.309139 843.395723 
L 341.569437 843.110015 
L 341.831354 842.927924 
L 342.273925 842.595918 
L 342.422851 842.440601 
L 342.754375 842.010732 
L 342.905891 841.804695 
L 343.084279 841.538888 
L 343.243566 841.326148 
L 344.016366 840.502045 
L 344.245259 840.317053 
L 344.46444 840.09995 
L 345.267349 839.495122 
L 345.493652 839.342965 
L 345.722546 839.212973 
L 346.281345 838.844231 
L 346.545851 838.713122 
L 346.793522 838.596204 
L 346.989069 838.483748 
L 347.270411 838.320646 
L 347.548192 838.104823 
L 347.813022 837.956523 
L 348.181453 837.681196 
L 348.492257 837.544897 
L 348.888531 837.33615 
L 349.553197 836.940191 
L 349.777234 836.734854 
L 349.931341 836.598572 
L 350.446432 836.148597 
L 350.707054 835.925504 
L 351.021095 835.670444 
L 352.054839 834.859405 
L 352.22999 834.730216 
L 352.490935 834.577553 
L 352.669323 834.4491 
L 358.628329 830.885394 
L 359.133708 830.604853 
L 359.387207 830.47779 
L 359.712903 830.232003 
L 360.070003 830.03579 
L 360.253247 829.913283 
L 360.39149 829.801907 
L 360.539122 829.694046 
L 360.929892 829.366024 
L 361.251379 829.15661 
L 361.608479 828.930155 
L 361.81471 828.808354 
L 362.149147 828.657157 
L 362.373185 828.536417 
L 363.119436 828.226102 
L 363.312393 828.148149 
L 363.529956 828.033838 
L 364.058645 827.571347 
L 364.246746 827.400238 
L 364.585068 827.168282 
L 364.741117 827.05546 
L 365.558271 826.598949 
L 365.839936 826.394283 
L 366.43629 825.890608 
L 366.623096 825.761029 
L 366.871738 825.622065 
L 367.079588 825.498033 
L 367.24794 825.415949 
L 367.451581 825.304069 
L 368.040488 825.082768 
L 368.160601 824.960553 
L 368.354853 824.790485 
L 369.244851 824.141786 
L 369.476011 824.024554 
L 370.548282 823.443197 
L 370.927721 823.165053 
L 371.230107 823.017639 
L 371.526989 822.826268 
L 371.791495 822.648321 
L 372.233743 822.373877 
L 372.433822 822.259518 
L 372.773763 822.052015 
L 373.031795 821.909891 
L 373.896864 821.150815 
L 374.060359 820.972171 
L 374.677433 820.544126 
L 374.969135 820.207816 
L 375.188964 820.040308 
L 377.018171 818.709222 
L 377.273936 818.430487 
L 377.761185 817.616515 
L 377.992345 817.195097 
L 378.188539 816.975124 
L 378.534956 816.593708 
L 379.024471 816.183661 
L 379.198326 815.994454 
L 379.417831 815.799052 
L 379.569671 815.660165 
L 379.8154 815.495678 
L 379.952996 815.413161 
L 380.863714 814.81002 
L 381.015554 814.699215 
L 381.331861 814.496605 
L 382.393449 813.746734 
L 382.60486 813.54986 
L 382.752815 813.431856 
L 383.221934 813.0843 
L 383.705621 812.642295 
L 384.050743 812.412496 
L 384.922287 811.69797 
L 385.137583 811.412142 
L 385.714511 810.722969 
L 385.9447 810.515224 
L 386.17068 810.322131 
L 387.055498 809.586627 
L 387.173021 809.475507 
L 387.396734 809.279581 
L 387.537891 809.159902 
L 387.767108 808.982219 
L 387.903408 808.869526 
L 388.073379 808.747169 
L 388.322022 808.520174 
L 388.503323 808.311804 
L 389.026185 807.915736 
L 389.220114 807.764396 
L 389.537068 807.521041 
L 389.694089 807.437665 
L 390.325731 807.064213 
L 390.601569 806.925755 
L 390.845356 806.772669 
L 391.529123 806.354688 
L 392.490023 805.895862 
L 393.492687 805.228754 
L 393.722552 805.016972 
L 394.800004 804.220427 
L 394.960585 804.088099 
L 395.193688 803.923524 
L 395.318009 803.809728 
L 395.509348 803.708008 
L 395.946091 803.494366 
L 396.132573 803.387245 
L 398.910377 801.838392 
L 399.102039 801.709089 
L 399.289169 801.585739 
L 399.875486 801.130831 
L 400.102761 801.019268 
L 400.562815 800.705922 
L 400.773578 800.587819 
L 401.378026 800.26236 
L 401.664548 800.141463 
L 401.980855 799.992704 
L 402.212662 799.805935 
L 402.965065 799.094646 
L 403.080645 798.982766 
L 403.232162 798.868067 
L 405.863953 796.737844 
L 407.063783 795.786934 
L 407.244762 795.603936 
L 407.394659 795.427692 
L 407.560745 795.229378 
L 407.773451 795.100958 
L 407.925291 795.006374 
L 408.253901 794.844002 
L 408.652765 794.618477 
L 409.261422 794.152911 
L 409.55539 793.981079 
L 410.219084 793.635542 
L 410.905442 793.206166 
L 411.101312 793.049709 
L 411.246678 792.930624 
L 411.650722 792.486068 
L 411.815836 792.340563 
L 412.113689 792.166892 
L 412.386937 792.014944 
L 412.550433 791.874711 
L 412.708748 791.763228 
L 412.812673 791.650336 
L 413.063906 791.242957 
L 414.073369 790.028781 
L 414.33399 789.822903 
L 414.49522 789.692822 
L 414.64447 789.514418 
L 414.87563 789.275772 
L 414.98085 789.158076 
L 415.344101 788.817252 
L 415.493028 788.693007 
L 415.698611 788.529795 
L 415.85725 788.385856 
L 416.086144 788.21085 
L 416.215969 788.09675 
L 416.391767 787.98222 
L 416.943119 787.658655 
L 417.149026 787.546036 
L 417.366912 787.427517 
L 418.217089 786.591947 
L 418.413607 786.399358 
L 418.68556 786.150238 
L 418.971434 785.905561 
L 419.093813 785.791945 
L 419.484907 785.38635 
L 420.167703 784.723869 
L 420.430915 784.549987 
L 420.608332 784.405888 
L 421.160331 784.139801 
L 421.441025 784.017322 
L 421.772873 783.886929 
L 421.868056 783.689203 
L 422.021515 783.525857 
L 422.171413 783.376983 
L 422.32034 783.274754 
L 422.871044 782.830369 
L 423.08116 782.623532 
L 423.946877 781.723944 
L 424.070227 781.609641 
L 424.245701 781.47346 
L 424.398513 781.354283 
L 425.345815 780.504585 
L 425.637517 780.199895 
L 426.38215 779.476446 
L 426.568956 779.324177 
L 427.311646 778.679199 
L 427.541187 778.443991 
L 427.663242 778.320838 
L 428.39881 777.910241 
L 428.594357 777.744475 
L 428.756558 777.613006 
L 428.903218 777.463046 
L 429.291398 777.209329 
L 429.457808 777.085514 
L 430.912432 776.178368 
L 431.114454 776.048255 
L 431.35565 775.74942 
L 431.47382 775.638438 
L 431.649295 775.508146 
L 432.11032 775.149909 
L 432.397165 775.03356 
L 432.918084 774.728646 
L 433.089026 774.536699 
L 433.168669 774.424621 
L 433.36195 774.167965 
L 433.523503 774.027475 
L 433.760491 773.845132 
L 433.959599 773.718956 
L 434.154499 773.576238 
L 434.329973 773.365977 
L 435.184358 772.622505 
L 435.304471 772.508803 
L 435.543401 772.158545 
L 435.658981 772.043958 
L 436.141697 771.536498 
L 436.812514 770.93383 
L 437.087057 770.695309 
L 437.205551 770.581362 
L 437.403364 770.394974 
L 441.229482 767.729265 
L 441.506291 767.514604 
L 441.648095 767.396994 
L 441.835872 767.280774 
L 442.236032 767.091533 
L 442.47917 766.950813 
L 442.619356 766.8702 
L 442.937929 766.72553 
L 446.881893 763.971788 
L 447.089419 763.808805 
L 447.55012 763.447075 
L 447.935711 763.195292 
L 448.234535 762.928578 
L 448.434291 762.788853 
L 448.888517 762.459444 
L 449.069171 762.316947 
L 449.248207 762.141826 
L 449.421739 762.012583 
L 449.736103 761.777228 
L 451.136337 760.897641 
L 451.345158 760.677181 
L 451.501531 760.513347 
L 451.710352 760.284887 
L 451.881617 760.17036 
L 452.310267 759.81579 
L 452.504519 759.632505 
L 452.688411 759.478545 
L 452.956155 759.176479 
L 453.400668 758.799324 
L 453.543444 758.671876 
L 453.703054 758.588774 
L 454.463875 758.129142 
L 454.626399 758.008264 
L 454.83263 757.876278 
L 455.013932 757.763862 
L 455.325706 757.583422 
L 455.645898 757.416113 
L 455.908139 757.162516 
L 456.062245 757.017358 
L 456.422259 756.71981 
L 456.70263 756.511023 
L 457.299631 755.940839 
L 457.471544 755.768169 
L 457.68943 755.57053 
L 457.896308 755.405284 
L 458.047501 755.272091 
L 458.25697 755.162607 
L 458.546082 755.037111 
L 460.151575 754.1562 
L 460.332553 754.035979 
L 460.517092 753.792078 
L 460.66699 753.654091 
L 461.38896 752.911463 
L 461.64084 752.7213 
L 461.834769 752.616168 
L 462.014452 752.464268 
L 462.391948 752.185916 
L 462.592352 752.059429 
L 462.940063 751.834571 
L 463.356086 751.425452 
L 463.500156 751.295951 
L 463.711244 751.15767 
L 463.838802 751.034956 
L 464.030141 750.852443 
L 465.61718 749.564476 
L 465.796216 749.326305 
L 465.884924 749.211238 
L 466.207059 748.815288 
L 466.293177 748.694724 
L 466.695279 748.318143 
L 467.672367 747.532908 
L 467.867266 747.378019 
L 468.224366 747.101635 
L 468.421856 746.919865 
L 468.853419 746.501438 
L 469.043463 746.312983 
L 469.229944 746.17685 
L 469.568591 746.0104 
L 469.85058 745.895096 
L 470.832524 744.854253 
L 471.899939 744.099411 
L 472.07509 743.972378 
L 472.267075 743.860529 
L 473.28269 743.268847 
L 473.614213 742.976954 
L 473.738211 742.862769 
L 474.393164 742.270923 
L 475.465435 741.75887 
L 475.57454 741.64532 
L 475.762641 741.538527 
L 475.964339 741.426904 
L 476.271581 741.118878 
L 476.339893 741.007327 
L 476.572025 740.740842 
L 476.708325 740.629759 
L 478.916323 738.917849 
L 479.111223 738.754001 
L 479.243962 738.616998 
L 480.416597 738.05618 
L 480.851397 737.86878 
L 480.982194 737.812579 
L 481.261593 737.689339 
L 482.341958 737.182949 
L 482.587039 737.079397 
L 483.062957 736.849462 
L 483.256238 736.619557 
L 483.352069 736.507642 
L 483.491607 736.376416 
L 483.680679 736.195103 
L 484.312321 735.656904 
L 484.486177 735.503712 
L 485.574312 734.922889 
L 485.733599 734.794813 
L 486.003286 734.564376 
L 486.179084 734.383489 
L 486.409272 734.189681 
L 486.6877 734.007761 
L 487.133833 733.740321 
L 488.032248 733.40387 
L 488.288337 733.149403 
L 488.41622 733.021773 
L 488.992825 732.429117 
L 489.159234 732.288958 
L 489.379063 732.115529 
L 491.710735 730.82518 
L 492.130643 730.701644 
L 492.511053 730.528875 
L 492.8429 730.388949 
L 493.214893 730.258828 
L 495.275907 729.410825 
L 495.472749 729.287356 
L 495.630094 729.17117 
L 495.812367 729.019341 
L 495.964855 728.907932 
L 496.191158 728.771474 
L 496.500019 728.570487 
L 496.881077 728.395401 
L 497.39196 728.060025 
L 497.544448 727.966795 
L 497.698878 727.854835 
L 498.408222 727.357197 
L 498.59956 727.234777 
L 498.75917 727.122685 
L 499.032742 726.934348 
L 500.381823 726.216459 
L 500.572513 725.937783 
L 501.578415 725.185612 
L 501.731227 725.071696 
L 502.377115 724.713196 
L 502.759144 724.413737 
L 503.08484 724.202519 
L 503.566261 723.911649 
L 504.599035 723.111242 
L 504.783898 722.935452 
L 505.862644 722.124533 
L 506.48587 721.794273 
L 506.655516 721.583901 
L 506.870165 721.403036 
L 507.078015 721.306285 
L 507.792862 720.993858 
L 508.193669 720.72811 
L 508.356517 720.638522 
L 509.007261 720.246861 
L 509.22968 720.135477 
L 510.466094 719.238954 
L 510.718298 718.964573 
L 511.0359 718.751164 
L 511.190654 718.643044 
L 511.8087 718.363079 
L 513.041876 717.611397 
L 513.208286 717.396379 
L 513.796546 716.94098 
L 514.211598 716.741472 
L 514.503299 716.573601 
L 514.739963 716.453943 
L 514.956554 716.350551 
L 515.139475 716.211112 
L 515.29779 716.060844 
L 515.381319 715.933446 
L 515.596615 715.746581 
L 515.774679 715.630165 
L 516.336391 715.027218 
L 516.49244 714.848293 
L 516.668562 714.634332 
L 517.095269 714.313078 
L 517.272039 714.145495 
L 517.629462 713.930931 
L 520.318882 711.907138 
L 520.475255 711.766416 
L 520.628067 711.617368 
L 521.042471 711.281181 
L 521.243522 711.146178 
L 521.452019 711.009266 
L 521.602888 710.896219 
L 521.793903 710.759509 
L 523.671349 709.413141 
L 524.00352 709.223543 
L 524.139173 709.153356 
L 524.415334 708.997099 
L 524.7229 708.882881 
L 525.431272 708.47559 
L 525.750817 708.296649 
L 525.879995 708.206166 
L 526.060649 708.053485 
L 526.270441 707.898401 
L 527.054896 707.373851 
L 527.645098 707.141829 
L 528.894787 706.1806 
L 529.229871 705.988801 
L 529.438045 705.874932 
L 529.910401 705.614217 
L 530.064184 705.503065 
L 530.348439 705.340373 
L 530.636904 705.195421 
L 530.962276 705.059815 
L 531.365349 704.847343 
L 531.786876 704.653192 
L 532.193186 704.4899 
L 532.448628 704.345984 
L 532.983792 703.987788 
L 533.161209 703.875466 
L 533.69346 703.461849 
L 533.851128 703.344741 
L 534.108512 703.164357 
L 534.359421 702.998992 
L 534.63882 702.833209 
L 535.825052 701.9929 
L 536.104452 701.881834 
L 536.348238 701.734676 
L 536.525331 701.621742 
L 537.625445 700.8503 
L 537.940457 700.641413 
L 540.058776 699.039433 
L 540.255942 698.856921 
L 540.884995 698.302888 
L 541.445412 697.954339 
L 541.707005 697.79967 
L 541.863701 697.686598 
L 542.08094 697.47982 
L 542.24573 697.370124 
L 542.45876 697.256606 
L 542.758879 697.032101 
L 542.956045 696.853407 
L 543.118893 696.693439 
L 543.292425 696.505132 
L 543.402825 696.390774 
L 543.550457 696.340976 
L 543.737262 696.222234 
L 544.242641 695.783832 
L 544.364049 695.672946 
L 544.594238 695.502298 
L 544.812771 695.383983 
L 545.059795 695.188407 
L 546.344125 694.152101 
L 546.561687 694.000011 
L 546.72065 693.886869 
L 546.932709 693.731671 
L 547.144443 693.629201 
L 547.33481 693.468094 
L 548.043183 692.902264 
L 549.224559 692.257029 
L 549.436618 692.091547 
L 550.610547 691.440413 
L 550.873111 691.322557 
L 551.269062 691.120269 
L 551.577275 690.967877 
L 552.411911 690.533698 
L 552.672533 690.412852 
L 552.944162 690.290792 
L 553.17079 690.167478 
L 553.920279 689.743325 
L 554.184785 689.625042 
L 554.806068 689.035285 
L 555.020069 688.767347 
L 555.256409 688.491881 
L 555.750457 688.083216 
L 555.831395 687.968337 
L 556.046367 687.745927 
L 556.336774 687.54485 
L 556.799094 687.172648 
L 557.029607 687.012464 
L 557.293466 686.831405 
L 557.473149 686.715471 
L 557.844818 686.522434 
L 557.999572 686.391052 
L 558.234293 686.235487 
L 558.457035 686.03189 
L 558.658086 685.828532 
L 560.157712 684.4929 
L 560.339985 684.378783 
L 560.591865 684.14814 
L 560.721691 684.021769 
L 560.960944 683.818295 
L 561.152283 683.70619 
L 564.301432 681.46737 
L 564.620653 681.252494 
L 565.564071 680.806425 
L 565.832786 680.621015 
L 565.972647 680.492761 
L 566.117689 680.401372 
L 566.297372 680.284515 
L 566.453745 680.188722 
L 566.659976 680.03233 
L 566.805989 679.949592 
L 567.020961 679.819542 
L 567.380327 679.519896 
L 567.552564 679.388398 
L 567.7316 679.274092 
L 567.929413 679.13283 
L 568.082225 679.030116 
L 568.278743 678.918663 
L 571.574877 677.194142 
L 571.792439 677.064375 
L 571.974712 676.951922 
L 572.367749 676.679711 
L 573.28559 676.129793 
L 573.566608 675.973035 
L 573.698052 675.861331 
L 573.856043 675.80804 
L 574.082671 675.692598 
L 574.26203 675.553581 
L 574.411928 675.436751 
L 574.669312 675.202609 
L 574.904357 675.001963 
L 575.100228 674.840059 
L 575.345956 674.610901 
L 575.553159 674.437571 
L 575.696905 674.321307 
L 575.907992 674.144567 
L 577.649462 673.164476 
L 578.24614 672.934896 
L 578.526186 672.772161 
L 578.680293 672.627083 
L 578.909834 672.304832 
L 579.163009 672.037189 
L 581.273558 670.545985 
L 583.353674 668.441443 
L 584.423355 667.725776 
L 584.885351 667.503765 
L 586.496348 666.591819 
L 586.66988 666.465363 
L 587.200512 666.176534 
L 587.431024 666.063153 
L 590.671796 664.306594 
L 590.861516 664.188864 
L 591.15257 663.999006 
L 591.40445 663.84061 
L 591.577334 663.736872 
L 591.825977 663.592491 
L 592.000156 663.482914 
L 601.582934 658.232466 
L 601.818626 658.11753 
L 602.200008 657.907826 
L 602.434082 657.758162 
L 602.607613 657.677564 
L 603.251559 657.324189 
L 603.57596 657.146863 
L 603.859568 656.910961 
L 605.035764 656.07271 
L 605.183719 655.929605 
L 606.525677 654.766261 
L 606.711512 654.574912 
L 607.163472 654.19034 
L 607.341536 654.078799 
L 608.935374 652.679139 
L 609.225133 652.473671 
L 609.577377 652.122506 
L 609.716591 651.997906 
L 609.882353 651.836657 
L 610.022862 651.722118 
L 610.211934 651.602483 
L 610.41687 651.473195 
L 610.647058 651.330998 
L 610.843253 651.216151 
L 611.036858 651.074337 
L 611.351546 650.884694 
L 611.522488 650.754664 
L 611.906459 650.443505 
L 612.478855 649.988514 
L 612.69059 649.693475 
L 613.488319 648.866318 
L 614.866537 647.968776 
L 618.302532 646.007167 
L 618.639559 645.894686 
L 618.905361 645.819875 
L 619.54186 645.613346 
L 619.704708 645.543678 
L 619.938134 645.42339 
L 620.162172 645.294345 
L 620.445456 645.154345 
L 620.604743 645.100672 
L 620.956015 644.903319 
L 621.806839 644.297241 
L 622.0053 644.15833 
L 622.406754 643.841723 
L 622.872635 643.603343 
L 623.126134 643.450788 
L 623.606908 643.222039 
L 623.79598 643.11012 
L 624.080883 642.994199 
L 624.678532 642.658793 
L 624.878288 642.527874 
L 625.150564 642.37827 
L 625.428992 642.233385 
L 625.759545 642.055476 
L 625.865088 641.931412 
L 626.073262 641.739093 
L 626.471155 641.420374 
L 626.937036 641.146115 
L 627.120604 640.91141 
L 628.365436 639.944406 
L 628.995136 639.577061 
L 629.245721 639.305422 
L 629.423138 639.151366 
L 629.56041 639.027936 
L 629.967368 638.765017 
L 630.317021 638.631617 
L 630.690309 638.320012 
L 631.087878 637.949161 
L 631.298966 637.73881 
L 631.491923 637.551385 
L 631.71855 637.342528 
L 631.96007 637.071241 
L 632.08601 636.891518 
L 632.342423 636.547246 
L 632.775929 636.137373 
L 633.050472 635.915943 
L 633.179002 635.784416 
L 633.711576 635.364723 
L 634.024969 635.145271 
L 634.224078 635.000241 
L 634.364587 634.880626 
L 636.647372 632.192493 
L 636.805688 631.973473 
L 636.928066 631.859791 
L 637.113577 631.683023 
L 637.24923 631.51717 
L 637.469706 631.347493 
L 637.643885 631.17549 
L 638.053433 630.562766 
L 638.277147 630.295224 
L 638.45683 630.119645 
L 643.694513 625.833855 
L 643.892326 625.697933 
L 644.369539 625.329631 
L 644.598109 625.007196 
L 644.655413 624.892553 
L 644.851284 624.557407 
L 645.182807 624.056625 
L 645.468034 623.702671 
L 645.579729 623.538443 
L 646.34314 622.521371 
L 646.430229 622.407233 
L 646.553903 622.207575 
L 646.782473 621.953666 
L 646.916831 621.798569 
L 647.306306 621.402015 
L 647.441635 621.290229 
L 647.892624 620.819837 
L 648.208283 620.440367 
L 648.311237 620.26528 
L 648.480236 620.02993 
L 648.59614 619.914802 
L 648.823415 619.624094 
L 649.746112 618.649285 
L 649.940364 618.508096 
L 650.045908 618.396434 
L 650.202928 618.261896 
L 650.85173 617.636907 
L 651.057313 617.389635 
L 653.57741 615.494322 
L 653.801771 615.367822 
L 653.940337 615.253611 
L 654.280602 614.895178 
L 654.472264 614.722726 
L 655.055021 614.033288 
L 655.251863 613.744792 
L 655.361615 613.633948 
L 655.697995 613.329108 
L 655.785408 613.2151 
L 655.937896 613.092735 
L 656.136033 612.966412 
L 656.454607 612.751352 
L 656.865773 612.478208 
L 657.034125 612.366607 
L 657.210247 612.253898 
L 657.939016 611.836125 
L 658.396803 611.344095 
L 659.173164 610.695055 
L 659.64293 610.455184 
L 660.009743 610.242629 
L 660.506381 610.024631 
L 660.944743 609.775091 
L 661.196623 609.651724 
L 661.807546 609.092488 
L 661.984315 608.96278 
L 662.099247 608.846405 
L 662.262419 608.597975 
L 662.312277 608.487097 
L 662.510091 608.232092 
L 662.643477 608.111263 
L 663.146266 607.592803 
L 663.301991 607.385449 
L 663.49851 607.223113 
L 665.160336 605.995595 
L 665.389554 605.780752 
L 665.569884 605.621937 
L 666.073645 605.235967 
L 666.290559 605.062945 
L 666.543734 604.874914 
L 666.821191 604.706864 
L 667.070481 604.594305 
L 667.303584 604.436447 
L 667.413336 604.323367 
L 668.08383 603.878007 
L 668.293622 603.764194 
L 669.059946 603.237608 
L 669.234449 603.117561 
L 669.413161 602.963124 
L 669.521942 602.818045 
L 669.900734 602.561082 
L 670.100166 602.378008 
L 670.366615 602.21413 
L 670.806272 601.949035 
L 670.980451 601.827003 
L 671.324601 601.56065 
L 672.962794 600.566452 
L 673.226329 600.447993 
L 673.556881 600.189012 
L 673.729765 600.064257 
L 673.90006 599.958277 
L 674.138342 599.83957 
L 675.622104 598.676434 
L 675.851645 598.495193 
L 676.060143 598.344958 
L 676.36609 598.128552 
L 676.56196 598.013586 
L 676.981221 597.776873 
L 677.398539 597.577108 
L 677.79967 597.287873 
L 678.066119 597.146475 
L 679.148103 596.54189 
L 679.305771 596.409156 
L 679.811797 596.079161 
L 680.044252 595.953364 
L 680.275088 595.832915 
L 680.605317 595.631535 
L 680.79018 595.520002 
L 680.98767 595.404077 
L 682.104943 594.63137 
L 682.367183 594.383515 
L 682.94055 593.860878 
L 683.166854 593.680117 
L 683.50809 593.509513 
L 683.711407 593.384745 
L 684.256932 593.126204 
L 685.955342 591.937286 
L 686.18197 591.772338 
L 687.700373 590.224427 
L 687.837645 590.112801 
L 688.225501 589.751763 
L 689.310723 588.785272 
L 689.51145 588.607271 
L 689.625735 588.479347 
L 689.849125 588.161641 
L 689.937509 588.050338 
L 690.13597 587.876725 
L 690.339935 587.749432 
L 690.600233 587.467913 
L 690.693797 587.323082 
L 690.85017 587.181784 
L 691.237379 586.776868 
L 691.41253 586.577339 
L 691.762831 586.265922 
L 691.950932 586.082178 
L 692.089822 585.960256 
L 692.273714 585.801945 
L 692.48383 585.623284 
L 692.758049 585.400945 
L 692.925106 585.276242 
L 693.082774 585.170438 
L 693.715712 584.715933 
L 693.926151 584.612317 
L 694.267064 584.426158 
L 694.807085 584.062967 
L 695.085836 583.90653 
L 695.448764 583.533232 
L 697.077244 581.715509 
L 697.223904 581.549993 
L 697.445999 581.393057 
L 697.600753 581.280805 
L 698.06113 580.935482 
L 698.214266 580.823056 
L 698.377114 580.692475 
L 698.854326 580.15869 
L 698.959222 580.046019 
L 699.144409 579.851021 
L 701.201538 578.54537 
L 701.406474 578.402831 
L 701.568675 578.259789 
L 701.709508 578.104016 
L 702.192224 577.589135 
L 702.335647 577.48861 
L 702.53087 577.397852 
L 702.702459 577.273993 
L 702.834227 577.187937 
L 702.995456 577.075357 
L 704.30083 575.922519 
L 704.509327 575.811362 
L 706.775601 574.202992 
L 706.982156 574.087741 
L 707.624806 573.78995 
L 709.595493 572.683875 
L 709.811113 572.471682 
L 710.042597 572.35483 
L 710.239763 572.248196 
L 710.445346 572.136652 
L 711.086054 571.75496 
L 711.305883 571.567894 
L 711.473263 571.428537 
L 711.663307 571.289925 
L 711.910654 571.118018 
L 712.113648 570.958073 
L 712.311461 570.830511 
L 712.493087 570.726202 
L 712.668885 570.651346 
L 713.780978 570.125874 
L 713.999511 570.016082 
L 714.529172 569.874296 
L 715.86336 568.830109 
L 716.112974 568.640982 
L 716.377804 568.461073 
L 716.598927 568.284567 
L 716.969625 568.035729 
L 717.208231 567.896407 
L 717.507056 567.767134 
L 717.752785 567.578295 
L 718.004989 567.404846 
L 718.284712 567.215959 
L 718.780054 566.875861 
L 719.001825 566.728321 
L 722.542717 564.959573 
L 722.827296 564.830349 
L 723.016044 564.613699 
L 723.214505 564.43001 
L 723.311307 564.319264 
L 723.474803 564.15539 
L 723.756468 563.919371 
L 723.961404 563.768599 
L 724.410126 563.430375 
L 724.60794 563.318607 
L 724.959212 563.121468 
L 725.208178 563.009888 
L 725.419913 562.909732 
L 725.765682 562.764365 
L 726.355237 562.318982 
L 726.557259 562.175691 
L 726.903028 561.872278 
L 727.180484 561.632988 
L 727.503914 561.392428 
L 727.805328 561.270646 
L 730.224738 559.952813 
L 730.363628 559.851785 
L 730.644646 559.603463 
L 730.854762 559.45225 
L 732.238484 558.668906 
L 732.435002 558.520622 
L 732.702746 558.314985 
L 732.816708 558.203582 
L 733.008046 558.058536 
L 733.349282 557.788461 
L 733.505331 557.707542 
L 733.810954 557.554396 
L 734.140212 557.32774 
L 734.374933 557.150864 
L 734.542313 557.042568 
L 735.018231 556.779793 
L 735.220577 556.698552 
L 735.585447 556.573247 
L 735.77808 556.499631 
L 736.025752 556.337762 
L 736.188276 556.214605 
L 736.434652 556.008949 
L 737.031977 555.627788 
L 737.38843 555.444803 
L 740.185983 553.704925 
L 740.409049 553.493821 
L 743.70842 551.021301 
L 743.90591 550.903351 
L 744.485105 550.616677 
L 744.729862 550.362692 
L 744.891415 550.224482 
L 745.046817 550.135884 
L 745.24463 550.024527 
L 745.558347 549.872157 
L 746.189343 549.568078 
L 746.459677 549.447728 
L 746.759149 549.334167 
L 746.983186 549.176871 
L 748.506122 548.296423 
L 749.002113 548.050738 
L 749.180177 547.940672 
L 749.467346 547.715099 
L 749.659656 547.520033 
L 749.936465 547.293411 
L 750.180251 547.129815 
L 750.435369 546.936892 
L 750.915495 546.66557 
L 751.099711 546.534509 
L 751.229212 546.423297 
L 751.376844 546.354105 
L 752.631388 545.591857 
L 753.070074 545.184035 
L 753.217706 545.054265 
L 753.404512 544.910262 
L 753.61398 544.804809 
L 753.891437 544.63949 
L 754.195765 544.445958 
L 754.475812 544.325098 
L 755.437036 543.745726 
L 755.6151 543.613364 
L 755.782481 543.497872 
L 756.977131 542.658203 
L 757.239047 542.52944 
L 757.463085 542.410917 
L 757.738922 542.239254 
L 758.721838 541.641202 
L 759.059189 541.444772 
L 759.337941 541.271902 
L 759.557769 541.136158 
L 759.756554 541.024515 
L 761.731773 539.527665 
L 763.930383 538.403603 
L 764.304318 538.225066 
L 765.691925 537.156195 
L 765.904308 536.935308 
L 766.189858 536.634625 
L 766.739591 536.317506 
L 766.936757 536.187027 
L 767.081475 536.073204 
L 767.357313 535.872826 
L 767.665202 535.655421 
L 768.038166 535.407474 
L 768.191949 535.318917 
L 768.578187 535.01433 
L 772.746512 532.636267 
L 774.541725 531.658135 
L 775.166245 531.320167 
L 775.423629 531.202054 
L 777.85437 530.077082 
L 779.02571 529.363621 
L 779.394789 529.104293 
L 779.557961 528.994424 
L 779.860994 528.736219 
L 780.182805 528.44813 
L 780.444721 528.279705 
L 780.626671 528.157599 
L 780.894739 527.933573 
L 781.196477 527.705604 
L 781.376484 527.575988 
L 781.651027 527.425747 
L 781.911648 527.318898 
L 782.137304 527.20495 
L 782.322815 527.066331 
L 784.437248 525.405191 
L 784.755822 525.117773 
L 784.899568 524.989735 
L 785.424373 524.421385 
L 785.634812 524.222318 
L 785.808344 524.128092 
L 786.090333 523.955873 
L 786.255771 523.842887 
L 786.342537 523.699754 
L 788.267899 522.150943 
L 788.455352 522.039803 
L 788.866195 521.840297 
L 789.121637 521.72916 
L 789.412691 521.540082 
L 789.73515 521.308302 
L 790.074443 521.117119 
L 790.612198 520.838274 
L 790.95052 520.639871 
L 791.111102 520.495232 
L 791.764112 520.022918 
L 791.964839 519.885151 
L 792.264959 519.605855 
L 792.41518 519.443387 
L 792.75674 519.190927 
L 793.005707 519.040538 
L 793.179886 518.761699 
L 793.383527 518.64284 
L 794.044308 518.310349 
L 794.252157 518.156526 
L 794.479432 518.012731 
L 794.934953 517.806553 
L 795.176473 517.694284 
L 796.266875 516.900209 
L 796.723691 516.428013 
L 796.909525 516.309594 
L 797.175974 516.122176 
L 797.677468 515.536532 
L 798.031007 515.274953 
L 798.287096 515.118395 
L 799.056982 514.772313 
L 799.27163 514.618851 
L 799.831724 514.102484 
L 800.032127 513.802608 
L 800.578299 513.285258 
L 800.734348 513.18155 
L 800.958386 513.069383 
L 801.049037 512.915984 
L 801.196992 512.748464 
L 801.281492 512.609988 
L 801.475744 512.293944 
L 801.542761 512.169817 
L 802.044255 511.382825 
L 802.195124 511.187258 
L 803.008392 510.281604 
L 803.221098 510.038161 
L 803.416969 509.807562 
L 803.542262 509.664008 
L 804.348408 508.807332 
L 804.610972 508.526481 
L 804.718782 508.40409 
L 805.583851 507.64559 
L 805.767095 507.493648 
L 806.075956 507.23015 
L 806.168873 507.07919 
L 806.453776 506.749055 
L 806.607883 506.588087 
L 806.795984 506.427938 
L 807.127183 506.158236 
L 807.339889 505.976899 
L 808.369102 505.022769 
L 808.577275 504.826286 
L 808.710985 504.714354 
L 809.645985 503.948531 
L 809.821783 503.792338 
L 810.061684 503.646338 
L 810.559617 503.382741 
L 810.831894 503.152556 
L 812.460374 501.81568 
L 812.614804 501.679118 
L 813.119212 501.041233 
L 813.295334 500.862442 
L 813.501888 500.664027 
L 814.106012 500.003718 
L 814.329726 499.795134 
L 814.509085 499.620981 
L 814.658336 499.487878 
L 814.994715 499.289966 
L 815.141699 499.200086 
L 815.840683 498.803239 
L 815.985077 498.70868 
L 817.017527 498.233711 
L 817.152208 498.152009 
L 817.248039 498.028339 
L 817.447471 497.804822 
L 817.542331 497.689747 
L 817.799715 497.349261 
L 818.071992 497.193808 
L 818.254589 497.074603 
L 818.380205 496.946189 
L 818.574457 496.839307 
L 818.859684 496.676134 
L 819.091167 496.553274 
L 819.409093 496.304548 
L 819.738998 496.077559 
L 819.839362 495.959163 
L 820.07214 495.637148 
L 820.205203 495.524977 
L 822.717853 493.225776 
L 823.080133 493.053887 
L 823.341079 492.867352 
L 823.597815 492.70171 
L 823.846781 492.498792 
L 824.199349 492.319805 
L 824.480043 492.208349 
L 824.679151 492.102438 
L 824.91711 491.985373 
L 825.315003 491.690485 
L 825.453893 491.56665 
L 826.275903 490.742847 
L 826.472745 490.631471 
L 826.669911 490.401669 
L 826.89492 490.196908 
L 827.195039 489.897007 
L 828.855571 488.84353 
L 829.213318 488.679494 
L 831.166199 487.740284 
L 831.627547 487.444308 
L 831.728235 487.331745 
L 831.887845 487.196753 
L 832.036448 487.030903 
L 832.193792 486.902943 
L 832.589419 486.619329 
L 832.839033 486.40633 
L 832.970153 486.258009 
L 833.270596 485.956552 
L 834.02915 485.397778 
L 834.282326 485.242282 
L 834.493737 485.11421 
L 834.736228 484.998465 
L 837.568099 483.091253 
L 837.742926 482.969365 
L 839.023047 481.934219 
L 839.267804 481.364676 
L 839.360398 481.244875 
L 839.525512 480.972611 
L 839.683828 480.743037 
L 840.146795 480.011049 
L 840.262375 479.819907 
L 840.435583 479.537496 
L 840.520406 479.420043 
L 840.717896 479.202113 
L 840.912796 479.064501 
L 841.060103 478.898768 
L 841.356338 478.559242 
L 841.514653 478.425475 
L 841.762001 478.281291 
L 842.077013 478.114434 
L 842.263171 477.998877 
L 842.687936 477.669105 
L 842.891253 477.473829 
L 843.122413 477.212216 
L 843.288822 477.091997 
L 843.656606 476.935313 
L 844.167489 476.429589 
L 844.409333 476.298517 
L 844.658299 476.026128 
L 844.804959 475.906788 
L 845.214831 475.486788 
L 845.3398 475.36835 
L 845.481928 475.279557 
L 846.28775 474.602825 
L 846.532184 474.332177 
L 846.582689 474.208223 
L 846.961805 473.738423 
L 847.073176 473.627882 
L 847.268723 473.373764 
L 847.822989 472.887648 
L 850.750367 470.501487 
L 851.138871 470.237506 
L 851.368736 470.032559 
L 851.603781 469.891538 
L 851.823286 469.542268 
L 854.25176 466.731823 
L 854.437919 466.602063 
L 855.873765 465.535541 
L 856.600268 465.084428 
L 856.766677 465.006353 
L 857.065501 464.821399 
L 857.420983 464.672941 
L 857.63466 464.557395 
L 858.095361 464.380013 
L 858.875931 464.000028 
L 859.097378 463.864667 
L 859.706034 463.487075 
L 860.39401 462.987291 
L 860.712907 462.846889 
L 861.068065 462.694175 
L 861.513226 462.461882 
L 861.75507 462.336911 
L 861.983963 462.216954 
L 862.188576 462.041263 
L 862.489666 461.84269 
L 862.662874 461.698716 
L 863.477762 461.297965 
L 863.879863 461.11877 
L 864.70673 460.537288 
L 864.903896 460.34591 
L 865.33902 460.071175 
L 865.525178 459.868202 
L 865.742093 459.708251 
L 865.91692 459.579828 
L 868.339567 457.708188 
L 868.614434 457.30852 
L 868.758828 457.107253 
L 868.999376 456.872724 
L 869.216939 456.589066 
L 869.408924 456.416063 
L 870.022437 455.989227 
L 870.509686 455.751096 
L 871.298026 455.172817 
L 871.508789 455.035796 
L 871.823801 454.756166 
L 871.98762 454.620234 
L 872.113884 454.504606 
L 872.799918 454.035804 
L 873.026221 453.89109 
L 873.834634 453.435701 
L 876.165982 451.789724 
L 876.44182 451.665489 
L 877.322753 451.175284 
L 877.59503 451.055851 
L 877.87281 450.920096 
L 878.182318 450.756618 
L 878.45589 450.627692 
L 878.876446 450.466081 
L 879.04156 450.357212 
L 879.20117 450.201624 
L 880.322005 449.339981 
L 880.504278 449.143745 
L 880.708243 449.029012 
L 880.965627 448.85132 
L 881.112934 448.739545 
L 881.337296 448.55229 
L 883.202115 447.6388 
L 883.443312 447.527429 
L 885.94204 446.215175 
L 886.119781 446.131344 
L 889.150761 444.601604 
L 889.599483 444.426355 
L 889.972771 444.329014 
L 890.389765 444.199568 
L 890.921044 444.02075 
L 891.30275 443.889808 
L 892.267535 443.018017 
L 892.470852 442.800244 
L 892.641146 442.68721 
L 893.076918 442.33257 
L 893.388369 442.138469 
L 893.598161 441.976246 
L 893.961737 441.726181 
L 895.084513 441.124276 
L 895.256426 440.978157 
L 895.650434 440.717904 
L 896.712346 439.946797 
L 896.883935 439.815299 
L 897.221286 439.344596 
L 897.339132 439.213406 
L 897.503599 439.058591 
L 897.878182 438.75738 
L 898.006712 438.622023 
L 898.56033 437.945976 
L 899.028478 437.658043 
L 899.208161 437.49738 
L 899.661092 437.10606 
L 899.848221 436.867699 
L 901.330041 434.473938 
L 901.433318 434.351057 
L 901.640196 434.04109 
L 901.82247 433.798354 
L 901.970425 433.647975 
L 902.132625 433.518585 
L 902.529547 433.255726 
L 902.751966 432.988844 
L 903.692146 431.923574 
L 904.185222 431.499589 
L 904.345156 431.354109 
L 904.469801 431.230023 
L 904.6129 431.100934 
L 905.770966 430.320619 
L 906.337535 429.49658 
L 906.426891 429.367797 
L 906.603984 429.08094 
L 906.748702 428.941038 
L 906.89601 428.785904 
L 907.269621 428.531951 
L 907.450923 428.44183 
L 907.816764 428.256882 
L 908.143108 428.123488 
L 908.494056 427.805452 
L 908.695107 427.60464 
L 908.860869 427.451776 
L 909.084906 427.261231 
L 909.307973 427.136096 
L 909.542046 426.959959 
L 909.886196 426.76057 
L 910.125774 426.647566 
L 910.386719 426.514879 
L 910.595216 426.400781 
L 911.434385 425.784345 
L 911.574246 425.712267 
L 911.871776 425.212237 
L 912.122361 424.737548 
L 912.231142 424.564352 
L 912.384925 424.338412 
L 912.930773 423.680897 
L 913.656305 423.112 
L 914.586448 422.449722 
L 915.005385 422.145176 
L 915.194134 422.018808 
L 915.381911 421.902507 
L 915.739334 421.72891 
L 916.466484 421.312309 
L 916.597281 421.172601 
L 917.291084 420.235464 
L 917.509618 419.981715 
L 918.221552 419.519586 
L 918.33616 419.406431 
L 918.534621 419.218344 
L 918.689375 419.08904 
L 919.047123 418.882285 
L 919.186337 418.728085 
L 919.877874 417.471361 
L 920.210369 417.279402 
L 920.975398 416.775884 
L 921.174831 416.237451 
L 921.325376 415.994501 
L 921.485958 415.597932 
L 921.611574 415.44705 
L 921.771184 415.226662 
L 925.549387 410.494649 
L 926.390174 409.917038 
L 926.537806 409.810277 
L 927.579968 409.130262 
L 927.795912 409.015708 
L 928.119665 408.843223 
L 928.355358 408.712634 
L 929.013548 408.345521 
L 929.188699 408.234493 
L 929.598571 407.964668 
L 929.98578 407.804513 
L 930.349679 407.586677 
L 930.603825 407.440175 
L 930.878692 407.276881 
L 931.137371 407.157917 
L 931.401877 406.986237 
L 931.596777 406.873133 
L 932.24655 406.575308 
L 932.687502 405.939808 
L 932.904741 405.67863 
L 933.085395 405.435621 
L 933.144966 405.323312 
L 933.470338 404.968739 
L 933.55937 404.851243 
L 933.737111 404.697977 
L 934.279722 404.356428 
L 934.598619 404.227745 
L 935.965506 403.193496 
L 936.125764 402.887413 
L 936.208968 402.738417 
L 936.500346 402.27005 
L 937.481319 401.239345 
L 937.930689 400.861418 
L 938.106811 400.722906 
L 938.208469 400.609801 
L 938.387181 400.428361 
L 939.080014 399.673181 
L 939.257107 399.490409 
L 939.677986 399.059304 
L 939.869972 398.80464 
L 940.091743 398.552379 
L 940.707846 398.135207 
L 940.972029 397.716114 
L 941.075953 397.579068 
L 941.505574 397.035557 
L 941.698855 396.738692 
L 941.806665 396.61415 
L 942.061135 396.330001 
L 942.252473 396.124739 
L 942.652633 395.746036 
L 942.764004 395.606826 
L 943.039842 395.255572 
L 943.13114 395.143529 
L 943.331544 394.836055 
L 943.443562 394.658795 
L 943.714868 394.333685 
L 944.886531 393.358593 
L 945.109274 392.99401 
L 945.197982 392.880553 
L 947.620629 390.31666 
L 947.895496 390.142011 
L 949.137414 389.148332 
L 949.404186 388.805339 
L 949.53045 388.653099 
L 950.861077 387.497725 
L 951.019716 387.377248 
L 951.217206 387.25447 
L 951.518296 387.109735 
L 952.100081 386.66251 
L 952.241885 386.551734 
L 952.442289 386.421005 
L 952.565315 386.296598 
L 952.776402 386.164993 
L 953.206994 385.929914 
L 955.715759 384.339676 
L 955.868895 384.219753 
L 956.361648 383.864787 
L 956.686696 383.715993 
L 956.93372 383.586867 
L 957.316396 383.417868 
L 957.667021 383.252424 
L 957.850913 383.108891 
L 958.093081 382.879443 
L 958.344637 382.630625 
L 958.630512 382.345469 
L 962.584512 379.387809 
L 962.758691 379.264585 
L 962.90438 379.168433 
L 963.631854 378.603827 
L 963.845208 378.482288 
L 965.091659 377.815783 
L 965.379152 377.691615 
L 965.648838 377.563904 
L 965.838558 377.383542 
L 966.027953 377.160942 
L 967.724098 376.394212 
L 968.043319 376.25917 
L 970.203401 374.979507 
L 970.63885 374.470616 
L 970.732738 374.346494 
L 970.926667 374.139996 
L 973.168335 372.798598 
L 973.519284 372.642256 
L 974.101716 372.328397 
L 974.59285 371.979984 
L 974.837284 371.866334 
L 975.281798 371.528547 
L 975.484467 371.364133 
L 975.666093 371.196256 
L 975.824732 371.083597 
L 976.143629 370.873743 
L 976.340148 370.615601 
L 976.405869 370.433452 
L 976.558681 370.207472 
L 976.702428 369.969215 
L 976.875636 369.675377 
L 977.067298 369.432843 
L 978.366844 367.603643 
L 978.589586 367.442298 
L 978.910102 367.122793 
L 979.195329 366.800369 
L 979.627864 366.342942 
L 979.764164 366.217407 
L 980.109932 365.899721 
L 980.377676 365.744893 
L 980.471565 365.629135 
L 980.900538 365.25077 
L 981.104179 365.133426 
L 981.395881 364.89864 
L 981.583982 364.788335 
L 981.735175 364.666064 
L 981.915829 364.514238 
L 982.178069 364.296009 
L 982.581466 364.078571 
L 983.164222 363.765136 
L 983.367216 363.590139 
L 983.698415 363.465679 
L 984.661582 362.370387 
L 984.887562 362.192582 
L 989.005058 359.062787 
L 989.253053 358.873625 
L 989.712135 358.547069 
L 990.394607 358.19887 
L 990.588212 358.064935 
L 990.865345 357.840541 
L 991.079993 357.661073 
L 991.170321 357.550065 
L 991.366191 357.362709 
L 991.542961 357.255821 
L 992.440729 356.634844 
L 992.688724 356.446128 
L 992.910171 356.331032 
L 993.422026 356.086351 
L 993.70272 355.972399 
L 997.179508 353.580119 
L 997.367285 353.422561 
L 997.516535 353.298419 
L 997.809532 353.072249 
L 998.10609 352.898193 
L 999.249264 352.099276 
L 999.49823 351.940116 
L 999.718382 351.756396 
L 1001.862277 350.349866 
L 1002.073688 350.231639 
L 1002.527267 349.917733 
L 1002.712778 349.747109 
L 1002.943938 349.612911 
L 1003.409495 349.289681 
L 1003.558745 349.178579 
L 1003.706053 349.066333 
L 1003.938508 348.941897 
L 1004.209166 348.812936 
L 1004.407627 348.712194 
L 1004.823974 348.513908 
L 1007.033915 347.308279 
L 1007.252772 347.148971 
L 1007.599836 346.920863 
L 1007.75459 346.801934 
L 1008.476236 346.438531 
L 1008.685705 346.275033 
L 1008.905857 346.080545 
L 1009.081979 345.896819 
L 1009.396343 345.698694 
L 1009.576998 345.582309 
L 1009.734666 345.483247 
L 1010.11799 345.254236 
L 1010.343646 345.061749 
L 1011.090869 344.596991 
L 1011.389046 344.203799 
L 1011.71895 343.904502 
L 1011.872733 343.783294 
L 1012.065043 343.581527 
L 1012.270302 343.362504 
L 1012.508261 343.131674 
L 1013.506069 342.087401 
L 1013.633628 341.942085 
L 1013.778346 341.750114 
L 1013.982634 341.501818 
L 1014.127352 341.354208 
L 1014.290524 341.175725 
L 1014.428767 341.050372 
L 1014.601975 340.898947 
L 1014.770003 340.731228 
L 1015.383839 340.223989 
L 1015.604639 340.085062 
L 1015.941666 339.942714 
L 1016.868249 339.431167 
L 1017.124985 339.226996 
L 1017.499244 339.036673 
L 1017.689287 338.92049 
L 1018.02761 338.744304 
L 1018.227042 338.629534 
L 1018.532665 338.442531 
L 1018.849943 338.283749 
L 1019.129342 338.073468 
L 1019.246217 337.932996 
L 1020.389391 336.919025 
L 1020.546087 336.806697 
L 1021.321477 336.2755 
L 1025.979317 333.955791 
L 1026.173246 333.823212 
L 1026.405053 333.647126 
L 1026.734958 333.348312 
L 1026.948959 333.169801 
L 1027.150334 333.051293 
L 1027.815647 332.654045 
L 1028.054901 332.487853 
L 1028.254333 332.384082 
L 1028.57064 332.23278 
L 1029.464523 331.686278 
L 1029.789248 331.453918 
L 1029.957923 331.333712 
L 1030.192644 331.222601 
L 1030.663058 330.864842 
L 1030.909758 330.722616 
L 1031.292759 330.445761 
L 1031.443951 330.264815 
L 1031.621368 330.057391 
L 1031.709753 329.928377 
L 1031.892997 329.60278 
L 1035.590585 324.912643 
L 1035.777067 324.764456 
L 1036.05679 324.55113 
L 1036.378925 324.253887 
L 1036.573177 324.099375 
L 1036.931572 323.747518 
L 1037.035173 323.635068 
L 1037.273456 323.443877 
L 1037.401014 323.332591 
L 1037.626023 323.185651 
L 1037.879198 322.962869 
L 1038.055968 322.733382 
L 1038.381664 322.46945 
L 1038.657825 322.209408 
L 1038.740059 322.084139 
L 1038.895784 321.974829 
L 1040.388935 320.918562 
L 1040.564085 320.805801 
L 1040.835067 320.635887 
L 1041.017664 320.522378 
L 1041.117704 320.394238 
L 1041.27181 320.263251 
L 1042.040725 319.781665 
L 1042.816438 318.929842 
L 1043.254153 318.647309 
L 1043.438368 318.488605 
L 1043.705141 318.254197 
L 1043.846621 318.142529 
L 1044.037312 317.882511 
L 1044.190124 317.762139 
L 1044.40542 317.643581 
L 1044.680934 317.498417 
L 1045.431718 317.116438 
L 1045.768422 316.874437 
L 1045.979185 316.668163 
L 1046.18056 316.503825 
L 1046.890551 316.047989 
L 1047.256392 315.734078 
L 1047.446112 315.602086 
L 1047.66335 315.454043 
L 1047.866344 315.300904 
L 1048.218588 315.071225 
L 1048.345175 315.010153 
L 1048.511908 314.930245 
L 1048.80102 314.795682 
L 1049.798828 314.260166 
L 1050.103804 314.06005 
L 1050.666811 313.772855 
L 1050.894086 313.625521 
L 1051.244063 313.365893 
L 1051.460007 313.231477 
L 1052.364574 312.449899 
L 1052.531954 312.271173 
L 1052.714551 312.158776 
L 1053.199858 311.852495 
L 1053.610377 311.645213 
L 1053.803982 311.55957 
L 1054.036113 311.446942 
L 1055.404942 310.725216 
L 1055.861435 310.395003 
L 1056.087738 310.140026 
L 1056.28458 310.024089 
L 1056.716791 309.607136 
L 1056.864423 309.493237 
L 1057.499951 308.976439 
L 1057.646611 308.864967 
L 1058.099218 308.412137 
L 1059.715395 307.093139 
L 1059.882452 306.831298 
L 1061.516759 305.179179 
L 1061.683169 304.97009 
L 1063.006025 303.775697 
L 1063.160779 303.614526 
L 1063.394205 303.444557 
L 1063.804401 302.991532 
L 1064.156645 302.813788 
L 1064.605043 302.544871 
L 1064.726775 302.433303 
L 1064.935596 302.288877 
L 1065.375253 302.08945 
L 1065.583102 301.953812 
L 1065.769261 301.81893 
L 1066.177514 301.625644 
L 1067.3304 300.60559 
L 1067.701745 300.135631 
L 1067.864269 299.985897 
L 1068.091544 299.766261 
L 1068.451881 299.435936 
L 1068.647429 299.228917 
L 1070.559516 298.079829 
L 1070.7065 297.888307 
L 1070.859312 297.714854 
L 1071.103746 297.521708 
L 1071.652184 297.279624 
L 1072.00119 297.036136 
L 1072.326562 296.818523 
L 1072.537002 296.693692 
L 1072.65323 296.578636 
L 1072.824495 296.473716 
L 1073.50373 296.060331 
L 1073.679204 295.913228 
L 1073.867305 295.79971 
L 1074.062852 295.624424 
L 1075.079762 294.90834 
L 1075.285669 294.742552 
L 1075.552118 294.533921 
L 1075.870691 294.233285 
L 1076.088901 294.097899 
L 1076.259519 293.984073 
L 1076.448267 293.824949 
L 1076.659354 293.570468 
L 1077.745547 292.705525 
L 1078.263553 292.408972 
L 1078.439351 292.231568 
L 1078.564643 292.120172 
L 1078.766342 291.916299 
L 1078.963831 291.744929 
L 1079.154522 291.558226 
L 1079.306039 291.44005 
L 1079.476981 291.343629 
L 1081.489108 289.827194 
L 1081.737427 289.681191 
L 1082.121075 289.432649 
L 1082.259965 289.317859 
L 1082.471376 289.125093 
L 1083.084565 288.799022 
L 1083.583793 288.57682 
L 1083.962584 288.419216 
L 1084.141296 288.305534 
L 1085.595596 287.288903 
L 1085.771071 287.175497 
L 1085.94525 287.069683 
L 1086.19972 286.932023 
L 1087.265193 286.208687 
L 1087.676683 285.998035 
L 1087.8541 285.9036 
L 1088.110837 285.763938 
L 1088.378581 285.640301 
L 1088.641145 285.515373 
L 1088.871981 285.391046 
L 1089.165302 285.236457 
L 1089.500387 285.048382 
L 1090.426645 284.606443 
L 1090.633523 284.426914 
L 1092.983326 282.627695 
L 1093.52367 282.377597 
L 1093.716304 282.286022 
L 1096.562096 280.565849 
L 1096.815271 280.307161 
L 1096.946391 280.161396 
L 1097.774229 279.462958 
L 1098.685919 279.030482 
L 1099.053055 278.875383 
L 1099.184499 278.791342 
L 1099.471344 278.671854 
L 1099.676604 278.604645 
L 1100.656929 278.016625 
L 1101.016296 277.817969 
L 1101.253283 277.623464 
L 1101.44883 277.438851 
L 1101.88525 277.217351 
L 1102.553153 276.872767 
L 1102.706289 276.770884 
L 1102.977594 276.599165 
L 1103.297786 276.471499 
L 1106.313226 274.935113 
L 1106.944868 274.078325 
L 1109.447159 271.968602 
L 1109.667311 271.483927 
L 1109.851203 271.322394 
L 1109.950271 271.209219 
L 1110.097903 271.013671 
L 1110.165244 270.90004 
L 1110.939014 270.172497 
L 1111.114813 270.029244 
L 1111.248523 269.935269 
L 1111.389679 269.809312 
L 1112.501772 269.038508 
L 1112.657174 268.91202 
L 1112.818079 268.774841 
L 1112.971215 268.673481 
L 1113.43483 267.909318 
L 1113.580519 267.67089 
L 1113.902977 267.106631 
L 1114.127014 266.758527 
L 1114.26979 266.503076 
L 1114.305079 266.392392 
L 1114.500626 266.080684 
L 1114.975896 265.767308 
L 1115.028991 265.648517 
L 1115.182127 265.381739 
L 1115.210293 265.271365 
L 1115.355011 265.062319 
L 1115.850354 264.739694 
L 1115.896651 264.579585 
L 1116.085075 264.220291 
L 1117.075761 263.062582 
L 1117.184865 262.857027 
L 1117.343181 262.659118 
L 1118.387286 261.353641 
L 1118.571825 261.163114 
L 1119.693631 260.436458 
L 1120.02224 260.264484 
L 1120.402003 259.906156 
L 1120.661653 259.679009 
L 1121.034941 259.081431 
L 1121.079943 258.968398 
L 1121.225632 258.79657 
L 1121.687304 258.196727 
L 1121.734896 258.081445 
L 1121.960552 257.731251 
L 1122.163546 257.522992 
L 1122.320242 257.31643 
L 1122.553021 257.137075 
L 1123.245206 256.761241 
L 1123.536584 256.520247 
L 1124.795661 255.680316 
L 1124.923544 255.558904 
L 1125.112939 255.412671 
L 1125.630297 255.105157 
L 1125.961821 254.963841 
L 1126.548462 254.435561 
L 1126.79063 253.996119 
L 1126.847934 253.870011 
L 1127.032797 253.655023 
L 1128.053592 252.642368 
L 1128.238455 252.452821 
L 1128.691062 252.114896 
L 1128.870422 251.978571 
L 1129.160828 251.79775 
L 1129.269933 251.683863 
L 1130.152809 250.786472 
L 1130.319218 250.653819 
L 1130.466526 250.530377 
L 1132.813738 247.699846 
L 1134.888026 245.348566 
L 1135.023032 245.228443 
L 1135.393729 244.889374 
L 1136.096598 244.331688 
L 1136.269482 244.126057 
L 1136.446252 243.941258 
L 1136.726622 243.538749 
L 1138.544821 241.658051 
L 1138.696014 241.516229 
L 1138.896741 241.34316 
L 1139.040164 241.221044 
L 1139.200098 241.039275 
L 1139.371688 240.798342 
L 1139.570796 240.622708 
L 1139.701592 240.506977 
L 1139.867678 240.375666 
L 1140.091715 240.207644 
L 1140.392158 240.036338 
L 1140.749906 239.767372 
L 1140.966821 239.58161 
L 1141.200894 239.411503 
L 1141.419428 239.128889 
L 1141.688143 238.818508 
L 1142.093483 238.566441 
L 1142.30457 238.448741 
L 1143.608001 237.53761 
L 1143.891609 237.371857 
L 1144.826285 236.694972 
L 1145.037372 236.575621 
L 1145.387674 236.381004 
L 1145.784919 236.095245 
L 1146.220691 235.78004 
L 1147.157957 234.928982 
L 1147.379405 234.817023 
L 1147.740066 234.577163 
L 1147.881546 234.479542 
L 1147.949858 234.360395 
L 1148.137959 234.201905 
L 1148.305016 234.089716 
L 1148.756004 233.844791 
L 1148.974214 233.73205 
L 1149.135767 233.603089 
L 1149.280161 233.491891 
L 1149.518444 233.313134 
L 1149.994685 233.124237 
L 1150.637012 232.67511 
L 1150.790795 232.56195 
L 1152.331213 231.046365 
L 1152.902962 230.576975 
L 1153.132179 230.362247 
L 1153.403161 230.184659 
L 1153.596442 230.067838 
L 1153.840228 229.953374 
L 1153.969082 229.880971 
L 1154.210602 229.596423 
L 1154.622416 229.130808 
L 1154.797567 228.968667 
L 1155.230425 228.627739 
L 1157.465943 227.170964 
L 1157.620049 227.051905 
L 1157.751817 226.984912 
L 1158.100499 226.781943 
L 1158.286981 226.653359 
L 1158.505515 226.52794 
L 1161.234109 225.008615 
L 1161.905573 224.315893 
L 1162.037341 224.203747 
L 1162.336813 223.889868 
L 1162.631752 223.658391 
L 1162.777441 223.538737 
L 1163.410055 223.066231 
L 1163.531787 222.952271 
L 1163.890182 222.686455 
L 1164.090585 222.57515 
L 1164.4179 222.328169 
L 1166.30862 221.135626 
L 1166.626869 220.93118 
L 1166.979761 220.726359 
L 1167.922854 220.126278 
L 1168.143331 219.94228 
L 1168.424348 219.761731 
L 1168.639968 219.638545 
L 1168.862387 219.527369 
L 1169.47331 219.172802 
L 1169.671447 219.040885 
L 1169.825553 218.927943 
L 1169.984516 218.815357 
L 1170.124378 218.679141 
L 1170.31863 218.530607 
L 1170.485687 218.41752 
L 1171.259457 218.050101 
L 1171.858725 217.592305 
L 1172.379644 217.337131 
L 1172.704045 217.207718 
L 1173.583683 216.667436 
L 1173.833944 216.543171 
L 1174.129531 216.319568 
L 1174.545231 216.087887 
L 1175.417422 215.635109 
L 1175.683548 215.522214 
L 1175.981077 215.430589 
L 1176.254649 215.31423 
L 1176.434656 215.211525 
L 1176.576783 215.098175 
L 1176.803411 214.905966 
L 1177.905791 214.159713 
L 1178.085474 214.036035 
L 1178.25415 213.921838 
L 1178.653014 213.63925 
L 1179.021446 213.316544 
L 1179.262966 213.004614 
L 1179.411892 212.881968 
L 1179.830182 212.378898 
L 1180.030261 212.139147 
L 1180.240377 211.956705 
L 1180.610751 211.516878 
L 1180.834465 211.330256 
L 1181.185413 211.111728 
L 1181.412688 210.954205 
L 1181.866591 210.743093 
L 1182.159911 210.576273 
L 1182.333443 210.464528 
L 1182.693457 210.268641 
L 1183.237363 209.862696 
L 1183.706481 209.479717 
L 1183.927929 209.320139 
L 1184.133836 209.212399 
L 1184.363701 209.095225 
L 1184.541441 209.014013 
L 1185.239454 208.700538 
L 1185.468024 208.597803 
L 1186.572347 208.011857 
L 1187.201723 207.767076 
L 1187.443243 207.653457 
L 1188.107262 207.364125 
L 1189.00762 206.949292 
L 1189.154604 206.892179 
L 1189.538899 206.780295 
L 1190.341484 206.201937 
L 1190.836179 205.931035 
L 1191.957337 205.332063 
L 1193.024429 204.860562 
L 1193.30318 204.743794 
L 1193.581932 204.618938 
L 1194.798921 204.006363 
L 1195.027167 203.882355 
L 1195.383296 203.761287 
L 1195.833637 203.576251 
L 1196.148325 203.410904 
L 1196.881303 203.103402 
L 1197.247792 202.920101 
L 1197.49514 202.794596 
L 1198.540216 202.396436 
L 1198.737705 202.317944 
L 1201.347482 201.212854 
L 1201.857717 201.060636 
L 1202.961392 200.479636 
L 1203.284822 200.354658 
L 1203.474542 200.250424 
L 1203.708615 200.118352 
L 1203.890565 200.02719 
L 1204.462637 199.761688 
L 1204.768908 199.621532 
L 1204.979995 199.539188 
L 1205.119856 199.425471 
L 1205.378535 199.257849 
L 1205.553039 199.113114 
L 1205.832114 198.840202 
L 1205.977803 198.756851 
L 1206.095973 198.643322 
L 1206.35271 198.391107 
L 1206.858089 198.16949 
L 1208.50826 197.108975 
L 1208.823272 196.877808 
L 1208.971875 196.752112 
L 1209.12242 196.646402 
L 1209.31214 196.537775 
L 1209.469484 196.426653 
L 1209.966445 196.081023 
L 1210.275953 195.873281 
L 1210.412254 195.7596 
L 1210.752195 195.521162 
L 1211.179226 195.249068 
L 1211.584889 194.955285 
L 1211.904757 194.744762 
L 1212.444454 194.196259 
L 1212.572337 194.084544 
L 1212.731947 193.972679 
L 1212.868247 193.81027 
L 1213.056348 193.497253 
L 1213.287184 193.275617 
L 1213.705797 192.889789 
L 1213.840802 192.768037 
L 1214.074229 192.638201 
L 1214.187866 192.495028 
L 1214.382442 192.288287 
L 1215.349493 191.488853 
L 1215.791417 191.21143 
L 1216.129739 190.902846 
L 1216.240463 190.787478 
L 1216.410433 190.552248 
L 1216.546086 190.435397 
L 1217.006787 190.142959 
L 1217.296546 189.774751 
L 1217.450329 189.609572 
L 1218.739839 188.435252 
L 1218.914342 188.198557 
L 1219.158776 187.880775 
L 1219.644406 187.446794 
L 1220.001183 187.154008 
L 1220.180218 187.02325 
L 1220.412349 186.857486 
L 1220.518541 186.744651 
L 1221.108096 185.878674 
L 1221.21461 185.766288 
L 1221.390409 185.588261 
L 1221.578509 185.400847 
L 1221.771143 185.221811 
L 1221.935286 185.078751 
L 1222.275874 184.779618 
L 1222.890034 184.285371 
L 1223.104683 184.143323 
L 1223.400917 183.93472 
L 1223.625278 183.808346 
L 1224.009897 183.467723 
L 1224.789819 182.955933 
L 1224.960114 182.854786 
L 1225.454161 182.552277 
L 1225.999686 182.286873 
L 1226.468157 182.04202 
L 1226.676978 181.914136 
L 1227.018538 181.78785 
L 1227.146097 181.668494 
L 1227.365602 181.467382 
L 1227.433914 181.35652 
L 1227.64403 181.162059 
L 1227.799108 181.009884 
L 1227.978467 180.878363 
L 1228.16592 180.65147 
L 1228.643133 180.085853 
L 1228.726985 179.954766 
L 1228.973361 179.699145 
L 1229.360894 179.270449 
L 1229.499137 179.152825 
L 1229.634466 179.023184 
L 1230.189703 178.494041 
L 1230.330536 178.349846 
L 1230.682132 178.034852 
L 1230.807748 177.921397 
L 1230.97869 177.777411 
L 1231.189777 177.597089 
L 1231.68771 177.0555 
L 1231.825305 176.936213 
L 1231.961282 176.78995 
L 1232.246832 176.583088 
L 1232.439465 176.416351 
L 1232.679367 176.269032 
L 1232.941283 176.113769 
L 1233.07985 176.008733 
L 1233.453137 175.735017 
L 1233.717644 175.569531 
L 1233.896679 175.398708 
L 1234.071183 175.276931 
L 1234.677249 174.860092 
L 1234.950497 174.619174 
L 1235.046328 174.506786 
L 1236.912443 173.355707 
L 1237.278932 172.921247 
L 1237.41685 172.779565 
L 1238.062091 172.335176 
L 1238.144324 172.223113 
L 1238.353145 172.064555 
L 1238.480704 171.950691 
L 1238.68305 171.726095 
L 1238.847193 171.599939 
L 1239.444842 171.043185 
L 1239.624525 170.922961 
L 1239.795467 170.79912 
L 1240.362683 170.546489 
L 1240.687731 170.370118 
L 1241.059076 170.161379 
L 1241.294769 170.044407 
L 1241.509417 169.902479 
L 1241.727627 169.757826 
L 1241.949398 169.547588 
L 1242.443446 169.243787 
L 1242.639964 169.158625 
L 1242.890226 168.972029 
L 1243.398842 168.681991 
L 1243.596332 168.556392 
L 1244.049263 168.281873 
L 1244.276862 168.144495 
L 1245.193408 167.434327 
L 1245.272727 167.4 
L 1245.272727 167.4 
" clip-path="url(#pd8f88c7f11)" style="fill: none; stroke: #ff0000; stroke-width: 1.5; stroke-linecap: square"/>
   </g>
   <g id="patch_3">
    <path d="M 180 961.2 
L 180 129.6 
" style="fill: none; stroke: #000000; stroke-width: 0.8; stroke-linejoin: miter; stroke-linecap: square"/>
   </g>
   <g id="patch_4">
    <path d="M 1296 961.2 
L 1296 129.6 
" style="fill: none; stroke: #000000; stroke-width: 0.8; stroke-linejoin: miter; stroke-linecap: square"/>
   </g>
   <g id="patch_5">
    <path d="M 180 961.2 
L 1296 961.2 
" style="fill: none; stroke: #000000; stroke-width: 0.8; stroke-linejoin: miter; stroke-linecap: square"/>
   </g>
   <g id="patch_6">
    <path d="M 180 129.6 
L 1296 129.6 
" style="fill: none; stroke: #000000; stroke-width: 0.8; stroke-linejoin: miter; stroke-linecap: square"/>
   </g>
   <g id="legend_1">
    <g id="patch_7">
     <path d="M 1105.917187 152.278125 
L 1289 152.278125 
Q 1291 152.278125 1291 150.278125 
L 1291 136.6 
Q 1291 134.6 1289 134.6 
L 1105.917187 134.6 
Q 1103.917187 134.6 1103.917187 136.6 
L 1103.917187 150.278125 
Q 1103.917187 152.278125 1105.917187 152.278125 
z
" style="fill: #ffffff; opacity: 0.8; stroke: #cccccc; stroke-linejoin: miter"/>
    </g>
    <g id="line2d_15">
     <path d="M 1107.917187 142.698438 
L 1117.917187 142.698438 
L 1127.917187 142.698438 
" style="fill: none; stroke: #ff0000; stroke-width: 1.5; stroke-linecap: square"/>
    </g>
    <g id="text_13">
     <!-- General Board Time (minutes) -->
     <g transform="translate(1135.917187 146.198438) scale(0.1 -0.1)">
      <defs>
       <path id="DejaVuSans-47" d="M 3809 666 
L 3809 1919 
L 2778 1919 
L 2778 2438 
L 4434 2438 
L 4434 434 
Q 4069 175 3628 42 
Q 3188 -91 2688 -91 
Q 1594 -91 976 548 
Q 359 1188 359 2328 
Q 359 3472 976 4111 
Q 1594 4750 2688 4750 
Q 3144 4750 3555 4637 
Q 3966 4525 4313 4306 
L 4313 3634 
Q 3963 3931 3569 4081 
Q 3175 4231 2741 4231 
Q 1884 4231 1454 3753 
Q 1025 3275 1025 2328 
Q 1025 1384 1454 906 
Q 1884 428 2741 428 
Q 3075 428 3337 486 
Q 3600 544 3809 666 
z
" transform="scale(0.015625)"/>
       <path id="DejaVuSans-65" d="M 3597 1894 
L 3597 1613 
L 953 1613 
Q 991 1019 1311 708 
Q 1631 397 2203 397 
Q 2534 397 2845 478 
Q 3156 559 3463 722 
L 3463 178 
Q 3153 47 2828 -22 
Q 2503 -91 2169 -91 
Q 1331 -91 842 396 
Q 353 884 353 1716 
Q 353 2575 817 3079 
Q 1281 3584 2069 3584 
Q 2775 3584 3186 3129 
Q 3597 2675 3597 1894 
z
M 3022 2063 
Q 3016 2534 2758 2815 
Q 2500 3097 2075 3097 
Q 1594 3097 1305 2825 
Q 1016 2553 972 2059 
L 3022 2063 
z
" transform="scale(0.015625)"/>
       <path id="DejaVuSans-6e" d="M 3513 2113 
L 3513 0 
L 2938 0 
L 2938 2094 
Q 2938 2591 2744 2837 
Q 2550 3084 2163 3084 
Q 1697 3084 1428 2787 
Q 1159 2491 1159 1978 
L 1159 0 
L 581 0 
L 581 3500 
L 1159 3500 
L 1159 2956 
Q 1366 3272 1645 3428 
Q 1925 3584 2291 3584 
Q 2894 3584 3203 3211 
Q 3513 2838 3513 2113 
z
" transform="scale(0.015625)"/>
       <path id="DejaVuSans-72" d="M 2631 2963 
Q 2534 3019 2420 3045 
Q 2306 3072 2169 3072 
Q 1681 3072 1420 2755 
Q 1159 2438 1159 1844 
L 1159 0 
L 581 0 
L 581 3500 
L 1159 3500 
L 1159 2956 
Q 1341 3275 1631 3429 
Q 1922 3584 2338 3584 
Q 2397 3584 2469 3576 
Q 2541 3569 2628 3553 
L 2631 2963 
z
" transform="scale(0.015625)"/>
       <path id="DejaVuSans-61" d="M 2194 1759 
Q 1497 1759 1228 1600 
Q 959 1441 959 1056 
Q 959 750 1161 570 
Q 1363 391 1709 391 
Q 2188 391 2477 730 
Q 2766 1069 2766 1631 
L 2766 1759 
L 2194 1759 
z
M 3341 1997 
L 3341 0 
L 2766 0 
L 2766 531 
Q 2569 213 2275 61 
Q 1981 -91 1556 -91 
Q 1019 -91 701 211 
Q 384 513 384 1019 
Q 384 1609 779 1909 
Q 1175 2209 1959 2209 
L 2766 2209 
L 2766 2266 
Q 2766 2663 2505 2880 
Q 2244 3097 1772 3097 
Q 1472 3097 1187 3025 
Q 903 2953 641 2809 
L 641 3341 
Q 956 3463 1253 3523 
Q 1550 3584 1831 3584 
Q 2591 3584 2966 3190 
Q 3341 2797 3341 1997 
z
" transform="scale(0.015625)"/>
       <path id="DejaVuSans-6c" d="M 603 4863 
L 1178 4863 
L 1178 0 
L 603 0 
L 603 4863 
z
" transform="scale(0.015625)"/>
       <path id="DejaVuSans-20" transform="scale(0.015625)"/>
       <path id="DejaVuSans-42" d="M 1259 2228 
L 1259 519 
L 2272 519 
Q 2781 519 3026 730 
Q 3272 941 3272 1375 
Q 3272 1813 3026 2020 
Q 2781 2228 2272 2228 
L 1259 2228 
z
M 1259 4147 
L 1259 2741 
L 2194 2741 
Q 2656 2741 2882 2914 
Q 3109 3088 3109 3444 
Q 3109 3797 2882 3972 
Q 2656 4147 2194 4147 
L 1259 4147 
z
M 628 4666 
L 2241 4666 
Q 2963 4666 3353 4366 
Q 3744 4066 3744 3513 
Q 3744 3084 3544 2831 
Q 3344 2578 2956 2516 
Q 3422 2416 3680 2098 
Q 3938 1781 3938 1306 
Q 3938 681 3513 340 
Q 3088 0 2303 0 
L 628 0 
L 628 4666 
z
" transform="scale(0.015625)"/>
       <path id="DejaVuSans-6f" d="M 1959 3097 
Q 1497 3097 1228 2736 
Q 959 2375 959 1747 
Q 959 1119 1226 758 
Q 1494 397 1959 397 
Q 2419 397 2687 759 
Q 2956 1122 2956 1747 
Q 2956 2369 2687 2733 
Q 2419 3097 1959 3097 
z
M 1959 3584 
Q 2709 3584 3137 3096 
Q 3566 2609 3566 1747 
Q 3566 888 3137 398 
Q 2709 -91 1959 -91 
Q 1206 -91 779 398 
Q 353 888 353 1747 
Q 353 2609 779 3096 
Q 1206 3584 1959 3584 
z
" transform="scale(0.015625)"/>
       <path id="DejaVuSans-64" d="M 2906 2969 
L 2906 4863 
L 3481 4863 
L 3481 0 
L 2906 0 
L 2906 525 
Q 2725 213 2448 61 
Q 2172 -91 1784 -91 
Q 1150 -91 751 415 
Q 353 922 353 1747 
Q 353 2572 751 3078 
Q 1150 3584 1784 3584 
Q 2172 3584 2448 3432 
Q 2725 3281 2906 2969 
z
M 947 1747 
Q 947 1113 1208 752 
Q 1469 391 1925 391 
Q 2381 391 2643 752 
Q 2906 1113 2906 1747 
Q 2906 2381 2643 2742 
Q 2381 3103 1925 3103 
Q 1469 3103 1208 2742 
Q 947 2381 947 1747 
z
" transform="scale(0.015625)"/>
       <path id="DejaVuSans-54" d="M -19 4666 
L 3928 4666 
L 3928 4134 
L 2272 4134 
L 2272 0 
L 1638 0 
L 1638 4134 
L -19 4134 
L -19 4666 
z
" transform="scale(0.015625)"/>
       <path id="DejaVuSans-69" d="M 603 3500 
L 1178 3500 
L 1178 0 
L 603 0 
L 603 3500 
z
M 603 4863 
L 1178 4863 
L 1178 4134 
L 603 4134 
L 603 4863 
z
" transform="scale(0.015625)"/>
       <path id="DejaVuSans-6d" d="M 3328 2828 
Q 3544 3216 3844 3400 
Q 4144 3584 4550 3584 
Q 5097 3584 5394 3201 
Q 5691 2819 5691 2113 
L 5691 0 
L 5113 0 
L 5113 2094 
Q 5113 2597 4934 2840 
Q 4756 3084 4391 3084 
Q 3944 3084 3684 2787 
Q 3425 2491 3425 1978 
L 3425 0 
L 2847 0 
L 2847 2094 
Q 2847 2600 2669 2842 
Q 2491 3084 2119 3084 
Q 1678 3084 1418 2786 
Q 1159 2488 1159 1978 
L 1159 0 
L 581 0 
L 581 3500 
L 1159 3500 
L 1159 2956 
Q 1356 3278 1631 3431 
Q 1906 3584 2284 3584 
Q 2666 3584 2933 3390 
Q 3200 3197 3328 2828 
z
" transform="scale(0.015625)"/>
       <path id="DejaVuSans-28" d="M 1984 4856 
Q 1566 4138 1362 3434 
Q 1159 2731 1159 2009 
Q 1159 1288 1364 580 
Q 1569 -128 1984 -844 
L 1484 -844 
Q 1016 -109 783 600 
Q 550 1309 550 2009 
Q 550 2706 781 3412 
Q 1013 4119 1484 4856 
L 1984 4856 
z
" transform="scale(0.015625)"/>
       <path id="DejaVuSans-75" d="M 544 1381 
L 544 3500 
L 1119 3500 
L 1119 1403 
Q 1119 906 1312 657 
Q 1506 409 1894 409 
Q 2359 409 2629 706 
Q 2900 1003 2900 1516 
L 2900 3500 
L 3475 3500 
L 3475 0 
L 2900 0 
L 2900 538 
Q 2691 219 2414 64 
Q 2138 -91 1772 -91 
Q 1169 -91 856 284 
Q 544 659 544 1381 
z
M 1991 3584 
L 1991 3584 
z
" transform="scale(0.015625)"/>
       <path id="DejaVuSans-74" d="M 1172 4494 
L 1172 3500 
L 2356 3500 
L 2356 3053 
L 1172 3053 
L 1172 1153 
Q 1172 725 1289 603 
Q 1406 481 1766 481 
L 2356 481 
L 2356 0 
L 1766 0 
Q 1100 0 847 248 
Q 594 497 594 1153 
L 594 3053 
L 172 3053 
L 172 3500 
L 594 3500 
L 594 4494 
L 1172 4494 
z
" transform="scale(0.015625)"/>
       <path id="DejaVuSans-73" d="M 2834 3397 
L 2834 2853 
Q 2591 2978 2328 3040 
Q 2066 3103 1784 3103 
Q 1356 3103 1142 2972 
Q 928 2841 928 2578 
Q 928 2378 1081 2264 
Q 1234 2150 1697 2047 
L 1894 2003 
Q 2506 1872 2764 1633 
Q 3022 1394 3022 966 
Q 3022 478 2636 193 
Q 2250 -91 1575 -91 
Q 1294 -91 989 -36 
Q 684 19 347 128 
L 347 722 
Q 666 556 975 473 
Q 1284 391 1588 391 
Q 1994 391 2212 530 
Q 2431 669 2431 922 
Q 2431 1156 2273 1281 
Q 2116 1406 1581 1522 
L 1381 1569 
Q 847 1681 609 1914 
Q 372 2147 372 2553 
Q 372 3047 722 3315 
Q 1072 3584 1716 3584 
Q 2034 3584 2315 3537 
Q 2597 3491 2834 3397 
z
" transform="scale(0.015625)"/>
       <path id="DejaVuSans-29" d="M 513 4856 
L 1013 4856 
Q 1481 4119 1714 3412 
Q 1947 2706 1947 2009 
Q 1947 1309 1714 600 
Q 1481 -109 1013 -844 
L 513 -844 
Q 928 -128 1133 580 
Q 1338 1288 1338 2009 
Q 1338 2731 1133 3434 
Q 928 4138 513 4856 
z
" transform="scale(0.015625)"/>
      </defs>
      <use xlink:href="#DejaVuSans-47"/>
      <use xlink:href="#DejaVuSans-65" transform="translate(77.490234 0)"/>
      <use xlink:href="#DejaVuSans-6e" transform="translate(139.013672 0)"/>
      <use xlink:href="#DejaVuSans-65" transform="translate(202.392578 0)"/>
      <use xlink:href="#DejaVuSans-72" transform="translate(263.916016 0)"/>
      <use xlink:href="#DejaVuSans-61" transform="translate(305.029297 0)"/>
      <use xlink:href="#DejaVuSans-6c" transform="translate(366.308594 0)"/>
      <use xlink:href="#DejaVuSans-20" transform="translate(394.091797 0)"/>
      <use xlink:href="#DejaVuSans-42" transform="translate(425.878906 0)"/>
      <use xlink:href="#DejaVuSans-6f" transform="translate(494.482422 0)"/>
      <use xlink:href="#DejaVuSans-61" transform="translate(555.664062 0)"/>
      <use xlink:href="#DejaVuSans-72" transform="translate(616.943359 0)"/>
      <use xlink:href="#DejaVuSans-64" transform="translate(656.306641 0)"/>
      <use xlink:href="#DejaVuSans-20" transform="translate(719.783203 0)"/>
      <use xlink:href="#DejaVuSans-54" transform="translate(751.570312 0)"/>
      <use xlink:href="#DejaVuSans-69" transform="translate(809.529297 0)"/>
      <use xlink:href="#DejaVuSans-6d" transform="translate(837.3125 0)"/>
      <use xlink:href="#DejaVuSans-65" transform="translate(934.724609 0)"/>
      <use xlink:href="#DejaVuSans-20" transform="translate(996.248047 0)"/>
      <use xlink:href="#DejaVuSans-28" transform="translate(1028.035156 0)"/>
      <use xlink:href="#DejaVuSans-6d" transform="translate(1067.048828 0)"/>
      <use xlink:href="#DejaVuSans-69" transform="translate(1164.460938 0)"/>
      <use xlink:href="#DejaVuSans-6e" transform="translate(1192.244141 0)"/>
      <use xlink:href="#DejaVuSans-75" transform="translate(1255.623047 0)"/>
      <use xlink:href="#DejaVuSans-74" transform="translate(1319.001953 0)"/>
      <use xlink:href="#DejaVuSans-65" transform="translate(1358.210938 0)"/>
      <use xlink:href="#DejaVuSans-73" transform="translate(1419.734375 0)"/>
      <use xlink:href="#DejaVuSans-29" transform="translate(1471.833984 0)"/>
     </g>
    </g>
   </g>
  </g>
 </g>
 <defs>
  <clipPath id="pd8f88c7f11">
   <rect x="180" y="129.6" width="1116" height="831.6"/>
  </clipPath>
 </defs>
</svg>
